<svg width="81" height="80" viewBox="0 0 81 80" fill="none" xmlns="http://www.w3.org/2000/svg">
<path d="M69.8076 5.70713C69.8076 5.60701 69.7071 5.60701 69.6066 5.50688L69.506 5.40676C69.4055 5.30663 69.3049 5.20651 69.1039 5.10638C69.1039 5.10638 69.0033 5.10638 69.0033 5.00626C68.8022 4.90613 68.7017 4.806 68.5006 4.806L51.7103 0.100124C51.5092 -1.52928e-06 51.3081 0 51.1071 0H30.5967C30.3957 0 30.1946 -1.52928e-06 29.9935 0.100124L12.1978 4.90613C11.9967 5.00626 11.8961 5.00626 11.6951 5.10638C11.494 5.20651 11.3934 5.30663 11.2929 5.40676L11.1924 5.50688C11.0918 5.60701 11.0918 5.60701 10.9913 5.70713L1.03774 18.2228C0.535035 18.8235 0.434495 19.5244 0.535035 20.2253L3.95342 37.7472C4.1545 38.6483 4.75775 39.3492 5.66262 39.6496C5.8637 39.7497 6.16532 39.7497 6.3664 39.7497C7.07019 39.7497 7.67343 39.4493 8.17614 39.0488L14.7113 32.5407L15.3145 77.4969C15.3145 78.8986 16.4205 80 17.8281 80H63.1719C64.5795 80 65.6855 78.8986 65.6855 77.4969L66.2887 32.5407L72.8239 39.0488C73.3266 39.5494 73.9298 39.7497 74.6336 39.7497C74.8347 39.7497 75.1363 39.7497 75.3374 39.6496C76.2422 39.3492 76.8455 38.6483 77.0466 37.7472L80.465 20.2253C80.5655 19.5244 80.465 18.7234 79.9623 18.2228L69.8076 5.70713ZM14.8118 25.2315L7.77397 32.1402L5.46153 20.4255L12.3988 11.7146C14.3091 15.3191 16.1189 20.826 14.8118 25.2315ZM44.9741 5.00626C43.7676 5.80726 42.4605 6.20776 41.2541 6.20776C39.7459 6.20776 38.4389 5.70713 37.2324 5.00626H44.9741ZM61.0606 26.9337L60.5579 74.8936H20.1405L19.5372 26.9337C21.7491 20.2253 18.7329 12.816 16.6216 8.81101L29.6919 5.30663C31.6021 7.40926 35.8249 11.214 41.1535 11.214C45.0746 11.214 48.6941 9.21152 51.9114 5.40676L63.9763 8.81101C61.8649 12.816 58.8487 20.2253 61.0606 26.9337ZM72.8239 32.2403L65.786 25.3317C64.2779 20.6258 66.3893 15.1189 68.0984 11.8148L75.0358 20.5257L72.8239 32.2403Z" fill="url(#paint0_linear)" fill-opacity="0.3"/>
<defs>
<linearGradient id="paint0_linear" x1="1.22307" y1="1.29693" x2="92.0618" y2="20.7323" gradientUnits="userSpaceOnUse">
<stop stop-color="white"/>
<stop offset="1" stop-color="white" stop-opacity="0.4"/>
</linearGradient>
</defs>
</svg>
