<svg width="100" height="100" viewBox="0 0 100 100" fill="none" xmlns="http://www.w3.org/2000/svg">
<path d="M8.82964 67.1904V77.7691H7.09696V73.0602H1.74134V77.7691H0V67.1904H1.74134V71.8186H7.09696V67.1904H8.82964Z" fill="#5A5A5A"/>
<path d="M26.1289 72.4823C26.1289 73.25 25.9999 73.9575 25.7436 74.6041C25.4864 75.2515 25.1244 75.8088 24.6586 76.2767C24.1919 76.7438 23.6316 77.1105 22.977 77.3732C22.3224 77.6369 21.595 77.7691 20.7958 77.7691C20 77.7691 19.2761 77.6369 18.6215 77.3732C17.9669 77.1105 17.4049 76.7438 16.9356 76.2767C16.4663 75.8096 16.1034 75.2524 15.8463 74.6041C15.59 73.9575 15.4609 73.25 15.4609 72.4823C15.4609 71.7164 15.59 71.008 15.8463 70.3614C16.1034 69.714 16.4663 69.1559 16.9356 68.6853C17.4049 68.2157 17.9669 67.849 18.6215 67.5854C19.2761 67.3227 20 67.1904 20.7958 67.1904C21.5959 67.1904 22.3232 67.3227 22.977 67.5854C23.6316 67.849 24.1919 68.2157 24.6586 68.6853C25.1244 69.1559 25.4864 69.714 25.7436 70.3614C25.9999 71.0089 26.1289 71.7164 26.1289 72.4823ZM24.359 72.4823C24.359 71.8881 24.2759 71.3541 24.1105 70.8784C23.9451 70.4035 23.7078 70.0008 23.3987 69.6702C23.0904 69.3396 22.7164 69.0855 22.2765 68.9077C21.8366 68.7309 21.343 68.6416 20.7949 68.6416C20.2511 68.6416 19.7593 68.7309 19.3203 68.9077C18.8804 69.0855 18.5055 69.3396 18.1937 69.6702C17.8829 70.0008 17.643 70.4035 17.475 70.8784C17.307 71.3532 17.2231 71.8881 17.2231 72.4823C17.2231 73.0825 17.307 73.6192 17.475 74.094C17.643 74.5689 17.8829 74.9707 18.1937 75.2987C18.5046 75.6267 18.8804 75.8783 19.3203 76.0535C19.7593 76.2287 20.2511 76.3162 20.7949 76.3162C21.343 76.3162 21.8366 76.2287 22.2765 76.0535C22.7164 75.8783 23.0896 75.6267 23.3987 75.2987C23.707 74.9699 23.9442 74.568 24.1105 74.094C24.2759 73.62 24.359 73.0825 24.359 72.4823Z" fill="#5A5A5A"/>
<path d="M38.9233 76.3291V77.7691H32.7598V67.1904H34.4924V76.33H38.9233V76.3291Z" fill="#5A5A5A"/>
<path d="M47.2955 77.7691H45.5542V67.1904H47.2955V77.7691Z" fill="#5A5A5A"/>
<path d="M60.3639 69.0726C60.3094 69.1593 60.2522 69.222 60.1933 69.2632C60.1336 69.3044 60.06 69.325 59.9708 69.325C59.8764 69.325 59.7725 69.2864 59.6556 69.21C59.5396 69.1336 59.3967 69.0486 59.2261 68.955C59.0555 68.8614 58.8546 68.7755 58.6226 68.6956C58.3905 68.6167 58.1134 68.5772 57.793 68.5772C57.496 68.5772 57.2362 68.6132 57.0111 68.6845C56.7868 68.7566 56.5981 68.8579 56.4448 68.9867C56.2924 69.1155 56.1773 69.2684 56.1011 69.4427C56.024 69.617 55.9859 69.8076 55.9859 70.0137C55.9859 70.2773 56.0578 70.4963 56.2006 70.6723C56.3435 70.8466 56.5323 70.9968 56.7669 71.1214C57.0016 71.245 57.2692 71.3549 57.5705 71.4485C57.8718 71.5421 58.1792 71.6408 58.4935 71.7465C58.807 71.8529 59.1144 71.9714 59.4157 72.1062C59.7171 72.2402 59.9846 72.4102 60.2193 72.6171C60.454 72.8232 60.6427 73.0739 60.7856 73.371C60.9285 73.6681 61.0003 74.0296 61.0003 74.4564C61.0003 74.9166 60.9189 75.3477 60.7562 75.7504C60.5934 76.1531 60.3578 76.5034 60.0487 76.8031C59.7404 77.1028 59.3595 77.338 58.9083 77.5115C58.4554 77.6841 57.9411 77.7699 57.3635 77.7699C57.0224 77.7699 56.6907 77.7382 56.3677 77.6729C56.0439 77.6085 55.7348 77.5166 55.4421 77.3998C55.1477 77.2822 54.8723 77.1405 54.616 76.9714C54.3588 76.8039 54.1294 76.6176 53.9268 76.4115L54.4307 75.6061C54.4749 75.5391 54.5312 75.4868 54.6013 75.449C54.6706 75.4103 54.7468 75.3915 54.8308 75.3915C54.9442 75.3915 55.0706 75.443 55.2083 75.546C55.346 75.6491 55.514 75.7624 55.7079 75.8835C55.9036 76.0062 56.1392 76.1179 56.4154 76.2209C56.6916 76.3248 57.0232 76.3763 57.4077 76.3763C58.0355 76.3763 58.5204 76.2278 58.8633 75.9298C59.2062 75.6327 59.3785 75.2232 59.3785 74.7011C59.3785 74.4092 59.3066 74.1704 59.1638 73.9858C59.02 73.8021 58.8312 73.6475 58.5975 73.523C58.3628 73.3985 58.0944 73.2929 57.7939 73.2062C57.4926 73.1203 57.186 73.0276 56.8752 72.9297C56.5643 72.8318 56.2578 72.7167 55.9564 72.5854C55.6551 72.454 55.3875 72.2814 55.1529 72.0685C54.9182 71.8546 54.7295 71.591 54.5866 71.2776C54.4437 70.9634 54.3718 70.5718 54.3718 70.1021C54.3718 69.7286 54.4463 69.3671 54.5978 69.0168C54.7485 68.6673 54.9684 68.3573 55.2568 68.086C55.546 67.8155 55.9019 67.5983 56.3279 67.436C56.7522 67.2729 57.2362 67.1921 57.78 67.1921C58.3922 67.1921 58.9542 67.2849 59.466 67.4721C59.9777 67.6592 60.4176 67.9254 60.7882 68.2698L60.3639 69.0726Z" fill="#5A5A5A"/>
<path d="M76.0176 68.6227H72.6917V77.7691H70.966V68.6227H67.6313V67.1904H76.0176V68.6227Z" fill="#5A5A5A"/>
<path d="M84.3903 77.7691H82.6489V67.1904H84.3903V77.7691Z" fill="#5A5A5A"/>
<path d="M99.0667 75.3475C99.1611 75.3475 99.2416 75.3836 99.3109 75.4549L100 76.1813C99.5655 76.6888 99.0321 77.0803 98.4 77.3568C97.7679 77.6324 97.0128 77.769 96.133 77.769C95.3537 77.769 94.648 77.6384 94.0185 77.3774C93.389 77.1164 92.8521 76.7523 92.4079 76.2852C91.9637 75.8181 91.6208 75.2608 91.3818 74.6151C91.142 73.9677 91.0225 73.2567 91.0225 72.4796C91.0225 71.7034 91.1498 70.9907 91.4043 70.3424C91.658 69.6924 92.0165 69.1343 92.4781 68.6672C92.9404 68.2001 93.4929 67.8377 94.138 67.5784C94.7822 67.3191 95.4923 67.1912 96.2672 67.1912C97.0379 67.1912 97.7185 67.3122 98.3082 67.5535C98.8979 67.7957 99.4114 68.1177 99.846 68.5195L99.2754 69.3035C99.2364 69.3567 99.1888 69.4013 99.1351 69.44C99.0806 69.4786 99.0061 69.4975 98.9126 69.4975C98.8139 69.4975 98.7022 69.4529 98.5758 69.3644C98.4493 69.276 98.29 69.1781 98.0943 69.0699C97.8986 68.9626 97.6544 68.8638 97.3609 68.7762C97.0665 68.6869 96.7002 68.6432 96.2603 68.6432C95.7512 68.6432 95.2853 68.7299 94.8602 68.9025C94.4359 69.0751 94.0696 69.3266 93.7639 69.6572C93.4574 69.9878 93.2201 70.3905 93.0495 70.8645C92.879 71.3385 92.7941 71.8777 92.7941 72.4813C92.7941 73.0901 92.8833 73.6328 93.0608 74.1094C93.2383 74.5859 93.4825 74.9886 93.7942 75.3166C94.1051 75.6446 94.4714 75.8954 94.8905 76.068C95.3104 76.2405 95.7616 76.3273 96.2465 76.3273C96.5426 76.3273 96.8076 76.3118 97.0422 76.2809C97.2769 76.25 97.4934 76.2002 97.6908 76.1306C97.8874 76.0611 98.0744 75.9735 98.2502 75.8679C98.4251 75.7623 98.5991 75.6335 98.7715 75.4806C98.8693 75.3905 98.968 75.3475 99.0667 75.3475Z" fill="#5A5A5A"/>
<path d="M16.1146 86.6244H16.5069C16.6437 86.6244 16.7511 86.6072 16.8324 86.5737C16.913 86.5394 16.9892 86.4827 17.061 86.4003L19.6241 83.5229C19.7029 83.4345 19.7783 83.3709 19.8519 83.334C19.9255 83.2962 20.0198 83.2773 20.1341 83.2773H21.02L18.0871 86.5651C18.0118 86.6467 17.9408 86.7163 17.875 86.7729C17.8083 86.8305 17.7382 86.876 17.662 86.912C17.7624 86.9438 17.8499 86.9919 17.9261 87.0554C18.0014 87.119 18.0794 87.1997 18.1625 87.2959L21.2252 90.9134H20.3229C20.2545 90.9134 20.1974 90.9082 20.1506 90.8971C20.1038 90.8868 20.064 90.8722 20.0302 90.855C19.9956 90.837 19.9653 90.8138 19.9359 90.7854C19.9073 90.7571 19.8787 90.727 19.8501 90.6944L17.1909 87.6634C17.1511 87.6204 17.1147 87.5835 17.081 87.5543C17.0463 87.5243 17.0074 87.4976 16.9623 87.477C16.9173 87.4556 16.8654 87.441 16.8065 87.4315C16.7476 87.4229 16.6749 87.4178 16.5891 87.4178H16.1163V90.9125H15.0781V83.2773H16.1146V86.6244Z" fill="#5A5A5A"/>
<path d="M26.7809 90.9132H26.3557C26.2631 90.9132 26.1878 90.8995 26.1297 90.8712C26.0726 90.842 26.0354 90.7819 26.0172 90.69L25.9089 90.1894C25.7661 90.3173 25.6267 90.4315 25.4898 90.5328C25.3539 90.635 25.2102 90.7192 25.0604 90.7896C24.9097 90.8591 24.7495 90.9107 24.5789 90.9467C24.4083 90.9828 24.2196 90.9999 24.0126 90.9999C23.8013 90.9999 23.603 90.9699 23.4186 90.9115C23.2342 90.8531 23.074 90.7647 22.9372 90.647C22.8012 90.5294 22.693 90.3809 22.6124 90.2005C22.5319 90.0211 22.4912 89.8081 22.4912 89.5617C22.4912 89.3479 22.5501 89.1418 22.6687 88.9443C22.7873 88.7468 22.9779 88.5708 23.2411 88.418C23.5052 88.2643 23.849 88.1381 24.2758 88.041C24.7027 87.9431 25.2231 87.8942 25.8397 87.8942V87.4709C25.8397 87.0484 25.7487 86.7299 25.5686 86.5135C25.3877 86.2971 25.1201 86.1898 24.7659 86.1898C24.533 86.1898 24.3365 86.2189 24.1771 86.2773C24.0178 86.3357 23.8793 86.4018 23.7632 86.474C23.6463 86.547 23.5467 86.6131 23.4619 86.6715C23.3779 86.7298 23.2948 86.759 23.2125 86.759C23.1484 86.759 23.0921 86.7419 23.0428 86.7084C22.9952 86.6749 22.9562 86.6328 22.9276 86.583L22.7562 86.2799C23.0566 85.9923 23.3814 85.7776 23.7286 85.6351C24.0767 85.4925 24.4611 85.4221 24.8837 85.4221C25.1876 85.4221 25.4587 85.4719 25.6959 85.5707C25.9323 85.6703 26.1306 85.8094 26.2917 85.9871C26.4527 86.1649 26.5748 86.3795 26.6571 86.632C26.7393 86.8836 26.7809 87.1609 26.7809 87.4631V90.9132ZM24.2984 90.3328C24.4663 90.3328 24.6205 90.3156 24.7599 90.2821C24.9002 90.2478 25.0309 90.2005 25.1547 90.1379C25.2786 90.076 25.3972 90.0005 25.5089 89.9112C25.6223 89.8227 25.7323 89.7214 25.8397 89.6081V88.4944C25.3989 88.4944 25.0249 88.5219 24.7166 88.5777C24.4083 88.6326 24.1581 88.7048 23.9641 88.7941C23.771 88.8842 23.6307 88.989 23.5424 89.1109C23.455 89.232 23.4108 89.3685 23.4108 89.5179C23.4108 89.6604 23.4342 89.7841 23.4809 89.8871C23.5277 89.991 23.59 90.076 23.6688 90.1422C23.7476 90.2083 23.8412 90.2563 23.9485 90.2864C24.0559 90.3165 24.1728 90.3328 24.2984 90.3328Z" fill="#5A5A5A"/>
<path d="M28.875 90.9132V85.5157H29.4231C29.5262 85.5157 29.5989 85.5346 29.6379 85.5741C29.6777 85.6128 29.7045 85.6806 29.7184 85.7759L29.7825 86.6182C29.9686 86.2413 30.1981 85.9476 30.4726 85.7355C30.7471 85.5243 31.0675 85.4187 31.4372 85.4187C31.587 85.4187 31.7238 85.4359 31.8451 85.4694C31.9672 85.5028 32.0797 85.5501 32.1836 85.6102L32.0598 86.3186C32.0347 86.4079 31.9793 86.4517 31.8936 86.4517C31.8433 86.4517 31.7663 86.4353 31.6624 86.401C31.5584 86.3675 31.4138 86.3503 31.2268 86.3503C30.8943 86.3503 30.6155 86.4465 30.3912 86.638C30.1678 86.8295 29.9808 87.1094 29.8301 87.4752V90.9115H28.875V90.9132Z" fill="#5A5A5A"/>
<path d="M36.0534 85.4307C36.4518 85.4307 36.8102 85.4968 37.1315 85.6273C37.4519 85.7587 37.7238 85.9459 37.948 86.1871C38.1723 86.4284 38.3438 86.7212 38.4641 87.0638C38.5845 87.4064 38.6442 87.7894 38.6442 88.2119C38.6442 88.6377 38.5845 89.0216 38.4641 89.3625C38.3438 89.7033 38.1723 89.9953 37.948 90.2366C37.7238 90.4778 37.4519 90.6633 37.1315 90.793C36.8102 90.9226 36.4518 90.987 36.0534 90.987C35.656 90.987 35.2975 90.9226 34.9763 90.793C34.655 90.6625 34.3822 90.4778 34.1571 90.2366C33.9311 89.9953 33.7579 89.7033 33.6358 89.3625C33.5137 89.0216 33.4531 88.6377 33.4531 88.2119C33.4531 87.7885 33.5137 87.4064 33.6358 87.0638C33.7571 86.7212 33.9311 86.4293 34.1571 86.1871C34.3831 85.9459 34.6559 85.7587 34.9763 85.6273C35.2975 85.4968 35.656 85.4307 36.0534 85.4307ZM36.0534 90.2469C36.5912 90.2469 36.9921 90.0683 37.2571 89.7119C37.522 89.3547 37.6545 88.8567 37.6545 88.217C37.6545 87.5739 37.5229 87.0733 37.2571 86.7144C36.9921 86.3554 36.5903 86.176 36.0534 86.176C35.7815 86.176 35.5452 86.2223 35.3443 86.3142C35.1442 86.4061 34.9763 86.54 34.842 86.7144C34.7078 86.8887 34.6074 87.1025 34.5416 87.3558C34.4749 87.6099 34.442 87.8967 34.442 88.2161C34.442 88.5356 34.4749 88.8224 34.5416 89.0739C34.6074 89.3255 34.7078 89.5385 34.842 89.7111C34.9763 89.8828 35.1442 90.015 35.3443 90.1078C35.5452 90.2005 35.7815 90.2469 36.0534 90.2469Z" fill="#5A5A5A"/>
<path d="M41.5349 83.0652V90.9133H40.5781V83.0652H41.5349Z" fill="#5A5A5A"/>
<path d="M45.1458 83.8214C45.1458 83.9142 45.1259 84.0009 45.0887 84.0799C45.0514 84.1597 45.0012 84.231 44.9389 84.2928C44.8756 84.3547 44.8029 84.4036 44.7207 84.4397C44.6384 84.4757 44.5501 84.4929 44.4574 84.4929C44.3648 84.4929 44.2773 84.4749 44.1968 84.4397C44.1162 84.4036 44.0444 84.3547 43.982 84.2928C43.9188 84.2301 43.8695 84.1597 43.834 84.0799C43.7976 84 43.7803 83.9142 43.7803 83.8214C43.7803 83.7296 43.7985 83.642 43.834 83.5587C43.8695 83.4745 43.9188 83.4015 43.982 83.3397C44.0444 83.277 44.1162 83.2281 44.1968 83.1929C44.2773 83.1568 44.3648 83.1396 44.4574 83.1396C44.5501 83.1396 44.6384 83.1577 44.7207 83.1929C44.8029 83.2281 44.8756 83.277 44.9389 83.3397C45.0012 83.4015 45.0514 83.4745 45.0887 83.5587C45.1259 83.642 45.1458 83.7296 45.1458 83.8214ZM44.9302 85.5164V90.9139H43.9734V85.5164H44.9302Z" fill="#5A5A5A"/>
<path d="M47.2627 90.9133V85.5158H47.8316C47.9684 85.5158 48.0541 85.5811 48.0896 85.7124L48.165 86.2989C48.4014 86.0396 48.6646 85.8301 48.9573 85.6704C49.2491 85.5106 49.5868 85.4299 49.9704 85.4299C50.2683 85.4299 50.5306 85.4789 50.7575 85.5768C50.9852 85.6746 51.1749 85.8129 51.3273 85.9924C51.4797 86.1718 51.5948 86.3882 51.6736 86.6398C51.7533 86.8922 51.7922 87.1713 51.7922 87.477V90.9133H50.8354V87.477C50.8354 87.0682 50.7419 86.7514 50.554 86.5256C50.3661 86.3006 50.0786 86.1873 49.6916 86.1873C49.4093 86.1873 49.1443 86.2551 48.8993 86.3891C48.6542 86.5247 48.4273 86.7076 48.2195 86.9386V90.9133H47.2627Z" fill="#5A5A5A"/>
<path d="M57.8795 90.9132H57.4544C57.3617 90.9132 57.2864 90.8995 57.2284 90.8712C57.1712 90.842 57.134 90.7819 57.1158 90.69L57.0076 90.1894C56.8647 90.3173 56.7253 90.4315 56.5885 90.5328C56.4525 90.635 56.3088 90.7192 56.159 90.7896C56.0083 90.8591 55.8481 90.9107 55.6775 90.9467C55.507 90.9828 55.3182 90.9999 55.1112 90.9999C54.9 90.9999 54.7017 90.9699 54.5172 90.9115C54.3328 90.8531 54.1726 90.7647 54.0358 90.647C53.8998 90.5294 53.7916 90.3809 53.7111 90.2005C53.6305 90.0211 53.5898 89.8081 53.5898 89.5617C53.5898 89.3479 53.6487 89.1418 53.7674 88.9443C53.886 88.7468 54.0765 88.5708 54.3397 88.418C54.6038 88.2643 54.9476 88.1381 55.3745 88.041C55.8014 87.9431 56.3218 87.8942 56.9383 87.8942V87.4709C56.9383 87.0484 56.8474 86.7299 56.6673 86.5135C56.4863 86.2971 56.2187 86.1898 55.8646 86.1898C55.6316 86.1898 55.4351 86.2189 55.2758 86.2773C55.1164 86.3357 54.9779 86.4018 54.8619 86.474C54.745 86.547 54.6454 86.6131 54.5605 86.6715C54.4765 86.7298 54.3934 86.759 54.3111 86.759C54.2471 86.759 54.1908 86.7419 54.1414 86.7084C54.0938 86.6749 54.0548 86.6328 54.0263 86.583L53.8548 86.2799C54.1553 85.9923 54.48 85.7776 54.8272 85.6351C55.1753 85.4925 55.5598 85.4221 55.9823 85.4221C56.2863 85.4221 56.5573 85.4719 56.7946 85.5707C57.0309 85.6703 57.2292 85.8094 57.3903 85.9871C57.5514 86.1649 57.6735 86.3795 57.7557 86.632C57.838 86.8836 57.8795 87.1609 57.8795 87.4631V90.9132ZM55.397 90.3328C55.565 90.3328 55.7191 90.3156 55.8585 90.2821C55.9988 90.2478 56.1295 90.2005 56.2534 90.1379C56.3772 90.076 56.4958 90.0005 56.6075 89.9112C56.721 89.8227 56.8309 89.7214 56.9383 89.6081V88.4944C56.4976 88.4944 56.1235 88.5219 55.8152 88.5777C55.507 88.6326 55.2567 88.7048 55.0627 88.7941C54.8696 88.8842 54.7294 88.989 54.641 89.1109C54.5536 89.232 54.5094 89.3685 54.5094 89.5179C54.5094 89.6604 54.5328 89.7841 54.5796 89.8871C54.6263 89.991 54.6887 90.076 54.7675 90.1422C54.8463 90.2083 54.9398 90.2563 55.0472 90.2864C55.1545 90.3165 55.2714 90.3328 55.397 90.3328Z" fill="#5A5A5A"/>
<path d="M63.9877 88.0574V90.9133H62.9512V83.2781H65.2242C65.7108 83.2781 66.1351 83.3348 66.4945 83.4464C66.8547 83.5589 67.1525 83.7169 67.3889 83.9238C67.6262 84.1299 67.802 84.378 67.918 84.6691C68.0349 84.9602 68.0929 85.2856 68.0929 85.6445C68.0929 86 68.0306 86.3246 67.905 86.62C67.7795 86.9145 67.5959 87.1687 67.3552 87.3816C67.1127 87.5945 66.8131 87.7611 66.4546 87.8796C66.0961 87.999 65.6866 88.0582 65.2242 88.0582H63.9877V88.0574ZM63.9877 87.2365H65.2242C65.5212 87.2365 65.7835 87.1979 66.0113 87.1189C66.2381 87.0407 66.4295 86.9317 66.5836 86.7917C66.7378 86.6509 66.8547 86.4834 66.9326 86.2877C67.0114 86.0919 67.0512 85.8772 67.0512 85.6428C67.0512 85.156 66.8997 84.7764 66.5966 84.5025C66.2936 84.2286 65.8364 84.0921 65.2242 84.0921H63.9877V87.2365Z" fill="#5A5A5A"/>
<path d="M69.9043 90.9132V85.5157H70.4524C70.5555 85.5157 70.6282 85.5346 70.6672 85.5741C70.707 85.6128 70.7338 85.6806 70.7477 85.7759L70.8118 86.6182C70.9979 86.2413 71.2274 85.9476 71.5019 85.7355C71.7764 85.5243 72.0968 85.4187 72.4665 85.4187C72.6163 85.4187 72.7531 85.4359 72.8744 85.4694C72.9965 85.5028 73.109 85.5501 73.2129 85.6102L73.0891 86.3186C73.064 86.4079 73.0086 86.4517 72.9228 86.4517C72.8726 86.4517 72.7956 86.4353 72.6917 86.401C72.5877 86.3675 72.4431 86.3503 72.2561 86.3503C71.9236 86.3503 71.6448 86.4465 71.4205 86.638C71.1971 86.8295 71.0101 87.1094 70.8594 87.4752V90.9115H69.9043V90.9132Z" fill="#5A5A5A"/>
<path d="M75.7068 85.5156V88.9571C75.7068 89.3658 75.8021 89.6818 75.9917 89.9059C76.1822 90.13 76.4688 90.2417 76.8516 90.2417C77.1312 90.2417 77.3945 90.1756 77.6413 90.045C77.8889 89.9137 78.1158 89.7308 78.3236 89.4955V85.5156H79.2804V90.9131H78.7107C78.5747 90.9131 78.489 90.8479 78.4526 90.7165L78.3773 90.1352C78.1409 90.3945 77.8759 90.6032 77.5824 90.762C77.2888 90.92 76.952 90.999 76.5719 90.999C76.2749 90.999 76.0125 90.9501 75.7848 90.8522C75.5579 90.7543 75.3665 90.6169 75.2124 90.4392C75.0583 90.2614 74.9422 90.0468 74.866 89.7943C74.789 89.5419 74.75 89.2628 74.75 88.9571V85.5156H75.7068Z" fill="#5A5A5A"/>
<path d="M84.6155 86.4052C84.5731 86.4834 84.5064 86.5229 84.4172 86.5229C84.3635 86.5229 84.3029 86.5031 84.2345 86.4645C84.1661 86.425 84.083 86.3821 83.9851 86.334C83.8864 86.2867 83.7695 86.2421 83.6327 86.2009C83.4968 86.1597 83.3357 86.1391 83.1495 86.1391C82.9885 86.1391 82.8439 86.1597 82.714 86.2009C82.585 86.2421 82.4758 86.2979 82.3841 86.3692C82.2923 86.4396 82.223 86.522 82.1745 86.6165C82.1269 86.7109 82.1018 86.8131 82.1018 86.923C82.1018 87.0621 82.1425 87.1772 82.223 87.2691C82.3035 87.3609 82.41 87.4416 82.5425 87.5095C82.675 87.5764 82.8257 87.6366 82.9937 87.6881C83.1625 87.7396 83.3348 87.7945 83.5123 87.8529C83.689 87.9113 83.8622 87.9766 84.031 88.0478C84.199 88.1183 84.3497 88.2076 84.4821 88.314C84.6146 88.4205 84.7211 88.551 84.8017 88.7056C84.8822 88.8601 84.9229 89.0456 84.9229 89.262C84.9229 89.5101 84.8779 89.7403 84.7878 89.9515C84.6986 90.1636 84.5661 90.3465 84.3904 90.5002C84.2146 90.6547 83.9998 90.7767 83.7461 90.8651C83.4916 90.9544 83.198 90.9991 82.8646 90.9991C82.4854 90.9991 82.1416 90.9372 81.8333 90.8144C81.5251 90.6925 81.2636 90.5354 81.0488 90.343L81.2748 89.9807C81.3043 89.9343 81.338 89.8991 81.3779 89.8734C81.4168 89.8485 81.4697 89.8364 81.5337 89.8364C81.5978 89.8364 81.6654 89.8613 81.7372 89.9111C81.8082 89.9609 81.8957 90.0159 81.9979 90.0769C82.1 90.137 82.2239 90.1919 82.3685 90.2417C82.514 90.2915 82.6949 90.3164 82.914 90.3164C83.1002 90.3164 83.263 90.2924 83.4024 90.2443C83.5418 90.1971 83.6587 90.1318 83.7513 90.0502C83.844 89.9687 83.9133 89.8742 83.9583 89.7677C84.0033 89.6613 84.0249 89.5479 84.0249 89.4269C84.0249 89.2774 83.9851 89.1538 83.9046 89.0568C83.8241 88.9597 83.7176 88.8756 83.5851 88.806C83.4526 88.7365 83.3011 88.6764 83.1305 88.6249C82.9599 88.5733 82.7867 88.5192 82.6092 88.4626C82.4317 88.405 82.2576 88.3407 82.0871 88.2677C81.9165 88.1947 81.7658 88.1037 81.6333 87.9938C81.5008 87.8838 81.3943 87.7473 81.3129 87.5867C81.2324 87.4245 81.1926 87.2287 81.1926 86.9977C81.1926 86.7908 81.235 86.5933 81.3216 86.4027C81.4082 86.2129 81.5329 86.0455 81.6983 85.9021C81.8628 85.7587 82.0654 85.6445 82.3053 85.5586C82.5451 85.4727 82.8187 85.4307 83.127 85.4307C83.4855 85.4307 83.8067 85.4865 84.0916 85.599C84.3765 85.7106 84.6224 85.8643 84.8311 86.0601L84.6155 86.4052Z" fill="#5A5A5A"/>
<path d="M64.7385 9.00601V9H64.6146H58.5169C55.1546 9 52.4253 11.7065 52.4253 15.0407V24.1115C52.4253 27.4482 49.7029 30.1513 46.3397 30.1582H46.3267V15.0407C46.3267 11.7056 43.5974 9 40.2281 9V24.1115C40.2281 27.45 37.5023 30.1547 34.1365 30.1582H34.1304V15.0407C34.1304 11.7056 31.4011 9 28.0327 9V30.1582V30.1882V51.3232C31.402 51.3232 34.1304 48.6167 34.1304 45.2765V30.1882H40.2281V51.3232C43.5974 51.3232 46.3267 48.6167 46.3267 45.2765V30.1882H46.3458H46.4081C49.7384 30.2329 52.4244 32.923 52.4244 36.2297V51.3223C55.7867 51.3223 58.5161 48.6158 58.5161 45.2757V36.2297H64.7385C68.1077 36.2297 70.7123 33.4983 70.7123 30.1582V15.0407C70.7123 11.7477 68.0497 9.07213 64.7385 9.00601ZM58.5161 36.1997C58.5152 35.0946 58.2208 34.0693 57.7004 33.1815C56.7271 31.508 54.9658 30.3496 52.9249 30.1848L52.9344 30.1796C54.9607 29.9993 56.741 28.8144 57.7073 27.1469C58.2217 26.2633 58.5169 25.2372 58.5169 24.1355V9.03005H59.1205C62.2057 9.33058 64.6146 11.9074 64.6146 15.0407V30.1831C64.6146 33.3214 62.2057 35.8991 59.1205 36.1997H58.5161Z" fill="#5A5A5A"/>
<path d="M65.3663 9.00601V9H65.2425H59.1439C55.7816 9 53.0522 11.7065 53.0522 15.0407V24.1115C53.0522 27.4482 50.3298 30.1513 46.9666 30.1582H46.9537V15.0407C46.9537 11.7056 44.2243 9 40.8551 9V24.1115C40.8551 27.45 38.1292 30.1547 34.7634 30.1582H34.7574V15.0407C34.7574 11.7056 32.028 9 28.6597 9V30.1582V30.1882V51.3232C32.0289 51.3232 34.7574 48.6167 34.7574 45.2765V30.1882H40.8551V51.3232C44.2243 51.3232 46.9537 48.6167 46.9537 45.2765V30.1882H46.9727H47.0351C50.3653 30.2329 53.0514 32.923 53.0514 36.2297V51.3223C56.4137 51.3223 59.143 48.6158 59.143 45.2757V36.2297H65.3654C68.7347 36.2297 71.3393 33.4983 71.3393 30.1582V15.0407C71.3402 11.7477 68.6775 9.07213 65.3663 9.00601ZM59.1439 36.1997C59.143 35.0946 58.8486 34.0693 58.3282 33.1815C57.3549 31.508 55.5937 30.3496 53.5527 30.1848L53.5623 30.1796C55.5885 29.9993 57.3688 28.8144 58.3351 27.1469C58.8495 26.2633 59.1447 25.2372 59.1447 24.1355V9.03005H59.7483C62.8335 9.33058 65.2425 11.9074 65.2425 15.0407V30.1831C65.2425 33.3214 62.8335 35.8991 59.7483 36.1997H59.1439Z" fill="#5A5A5A"/>
</svg>
