<svg width="100" height="100" viewBox="0 0 100 100" fill="none" xmlns="http://www.w3.org/2000/svg">
<path d="M45.4195 35.7232H31.9866V13.3389H36.8776V11.0454H29.6904V37.9937H45.4195V35.7232Z" fill="#C6B8AE"/>
<path d="M55.9131 13.3389H69.3459V35.7232H64.432V37.9937H71.6192V11.0454H55.9131V13.3389Z" fill="#C6B8AE"/>
<path d="M61.424 24.7145C61.424 19.0496 56.8086 14.4626 51.1599 14.4626C45.4883 14.4626 40.8958 19.0725 40.8958 24.7145C40.8958 27.9024 42.3425 30.7922 44.6616 32.6728L54.3746 41.2733C55.8671 42.7182 56.7167 44.6677 56.7856 46.7318C56.9234 51.1123 53.4561 54.8048 49.0704 54.9424C44.6846 55.08 40.9877 51.6169 40.8499 47.2363L38.5537 47.3051C38.7374 52.8553 43.3069 57.2359 48.8178 57.2359C48.9326 57.2359 49.0244 57.2359 49.1392 57.2359C54.7879 57.0524 59.2655 52.3049 59.0818 46.663C58.99 43.9796 57.8878 41.4797 55.959 39.622L55.936 39.5991L50.7007 34.9663C50.8614 34.9663 50.9992 34.9663 51.1599 34.9663C56.8316 34.9663 61.424 30.3564 61.424 24.7145ZM45.649 30.494C44.1105 29.0262 43.1691 26.985 43.1691 24.7145C43.1691 20.311 46.7512 16.7561 51.1369 16.7561C55.5457 16.7561 59.1048 20.3339 59.1048 24.7145C59.1048 29.095 55.5227 32.6728 51.1369 32.6728C50.7236 32.6728 50.2873 32.6499 49.874 32.5811C48.4274 32.3517 47.1415 31.7554 46.0853 30.8839L45.649 30.494Z" fill="#C6B8AE"/>
<path d="M43.1917 1H40.8955V15.8388H43.1917V1Z" fill="#C6B8AE"/>
<path d="M28.1974 83.6795C28.1974 81.0191 26.016 78.8403 23.3524 78.8403C20.6888 78.8403 18.5074 81.0191 18.5074 83.6795C18.5074 85.0786 19.1044 86.317 20.0459 87.2115L24.8909 91.4773C25.6027 92.1654 25.9931 93.0828 26.039 94.046C26.062 95.0552 25.7175 95.9955 25.0287 96.7294C24.3398 97.4633 23.3984 97.8761 22.411 97.922C21.4007 97.9449 20.4592 97.6009 19.7244 96.9129C18.9896 96.2248 18.5763 95.2845 18.5304 94.2983L17.4512 94.3213C17.4971 95.6056 18.0252 96.8211 18.9667 97.6927C19.8622 98.5412 21.0333 98.9999 22.2732 98.9999C22.3191 98.9999 22.388 98.9999 22.4339 98.9999C23.7198 98.9541 24.9368 98.4266 25.8094 97.4862C26.7049 96.5459 27.1641 95.3074 27.1182 94.0231C27.0723 92.7617 26.5671 91.5691 25.6486 90.6976L23.1687 88.5188C23.2376 88.5188 23.3065 88.5188 23.3754 88.5188C26.039 88.5188 28.1974 86.34 28.1974 83.6795ZM19.6096 83.6795C19.6096 81.6154 21.3088 79.9183 23.3754 79.9183C25.442 79.9183 27.1412 81.6154 27.1412 83.6795C27.1412 85.7437 25.442 87.4408 23.3754 87.4408C21.2858 87.4408 19.6096 85.7666 19.6096 83.6795Z" fill="#C6B8AE"/>
<path d="M56.9921 80.6522C56.8773 80.5605 53.456 77.6707 52.4227 76.6157L51.6879 77.3267C52.7212 78.3817 55.9359 81.088 56.3033 81.4091C56.9692 82.0512 57.3366 82.9228 57.3825 83.8402C57.4055 84.7805 57.061 85.6979 56.4181 86.3859C55.7751 87.0739 54.8796 87.4868 53.9382 87.5097C52.9967 87.5326 52.0782 87.1886 51.3894 86.5464C50.7005 85.9043 50.2872 85.0098 50.2642 84.0695L49.2539 84.0924C49.2998 85.308 49.805 86.4547 50.7005 87.2804C51.5501 88.0831 52.6753 88.5188 53.8234 88.5188C53.8693 88.5188 53.9152 88.5188 53.9611 88.5188C55.1781 88.473 56.3262 87.9684 57.1529 87.0739C57.9795 86.1795 58.4387 85.0098 58.3928 83.7943C58.3699 82.6017 57.8647 81.4779 56.9921 80.6522Z" fill="#C6B8AE"/>
<path d="M12.0323 80.8587V79.0239H10.999V88.5189H12.0323V83.6109C12.1242 83.198 12.9049 80.033 14.9026 80.033V79.001C13.5708 79.001 12.6523 79.8725 12.0323 80.8587Z" fill="#C6B8AE"/>
<path d="M17.0606 79.0239H16.0273V88.5189H17.0606V79.0239Z" fill="#C6B8AE"/>
<path d="M41.4693 72.0747H40.436V88.5189H41.4693V77.8542H43.9952V76.8222H41.4693V72.0747Z" fill="#C6B8AE"/>
<path d="M34.2594 78.8404C32.8128 78.8404 31.504 79.5055 30.6544 80.5605V72.0518H29.6211V88.4959H30.6544V83.4503C30.6544 81.455 32.2617 79.8496 34.2594 79.8496C36.2571 79.8496 37.8645 81.455 37.8645 83.4503V88.4959H38.8978V83.4503C38.8978 80.9275 36.8082 78.8404 34.2594 78.8404Z" fill="#C6B8AE"/>
<path d="M4.79908 78.9092C2.15844 78.9092 0 81.065 0 83.7025C0 86.34 2.15844 88.4959 4.79908 88.4959C7.43972 88.4959 9.59816 86.34 9.59816 83.7025C9.59816 81.065 7.43972 78.9092 4.79908 78.9092ZM4.79908 87.4409C2.73249 87.4409 1.07922 85.7667 1.07922 83.7255C1.07922 81.6613 2.75545 80.01 4.79908 80.01C6.86567 80.01 8.51895 81.6843 8.51895 83.7255C8.54191 85.7667 6.86567 87.4409 4.79908 87.4409Z" fill="#C6B8AE"/>
<path d="M95.2014 78.9092C92.5608 78.9092 90.4023 81.065 90.4023 83.7025C90.4023 86.34 92.5608 88.4959 95.2014 88.4959C97.8421 88.4959 100.001 86.34 100.001 83.7025C100.001 81.065 97.8421 78.9092 95.2014 78.9092ZM95.2014 87.4409C93.1348 87.4409 91.4816 85.7667 91.4816 83.7255C91.4816 81.6613 93.1578 80.01 95.2014 80.01C97.268 80.01 98.9213 81.6843 98.9213 83.7255C98.9213 85.7667 97.2451 87.4409 95.2014 87.4409Z" fill="#C6B8AE"/>
<path d="M1.07922 72.6257H0V79.5749H1.07922V72.6257Z" fill="#C6B8AE"/>
<path d="M84.3627 80.6987C83.4901 79.6208 82.1354 78.9098 80.6428 78.9098C78.0022 78.9098 75.8438 81.0657 75.8438 83.7032C75.8438 86.3407 78.0022 88.4965 80.6428 88.4965C83.2605 88.4965 85.4189 86.3865 85.4419 83.7491V72.6028H84.3627V80.6987ZM80.6428 87.4415C78.5762 87.4415 76.923 85.7673 76.923 83.7261C76.923 81.662 78.5992 80.0107 80.6428 80.0107C82.7094 80.0107 84.3627 81.6849 84.3627 83.7261C84.3627 85.7673 82.6865 87.4415 80.6428 87.4415Z" fill="#C6B8AE"/>
<path d="M61.9518 72.0747H60.9185V88.5189H61.9518V77.8542H64.4776V76.8222H61.9518V72.0747Z" fill="#C6B8AE"/>
<path d="M73.685 79.0239C73.685 79.0239 73.685 83.7026 73.685 83.7255C73.685 85.7897 72.0087 87.441 69.9651 87.441C67.8985 87.441 66.2452 85.7667 66.2452 83.7255C66.2452 83.7255 66.2452 79.0469 66.2452 79.0239H65.166C65.166 79.0239 65.166 83.7026 65.166 83.7255C65.166 86.363 67.3245 88.5189 69.9651 88.5189C72.6057 88.5189 74.7642 86.363 74.7642 83.7255C74.7642 83.7255 74.7642 79.0469 74.7642 79.0239H73.685Z" fill="#C6B8AE"/>
<path d="M88.381 78.9092H87.3477V88.4959H88.381V78.9092Z" fill="#C6B8AE"/>
</svg>
