<svg width="100" height="82" viewBox="0 0 100 82" fill="none" xmlns="http://www.w3.org/2000/svg">
<path d="M8.82964 58.1904V68.7691H7.09696V64.0602H1.74134V68.7691H0V58.1904H1.74134V62.8186H7.09696V58.1904H8.82964Z" fill="#6D6E70"/>
<path d="M26.1289 63.4822C26.1289 64.2498 25.9999 64.9574 25.7436 65.604C25.4864 66.2514 25.1244 66.8086 24.6586 67.2766C24.1919 67.7437 23.6316 68.1104 22.977 68.3731C22.3224 68.6367 21.595 68.769 20.7958 68.769C20 68.769 19.2761 68.6367 18.6215 68.3731C17.9669 68.1104 17.4049 67.7437 16.9356 67.2766C16.4663 66.8095 16.1034 66.2522 15.8463 65.604C15.59 64.9574 15.4609 64.2498 15.4609 63.4822C15.4609 62.7163 15.59 62.0079 15.8463 61.3613C16.1034 60.7139 16.4663 60.1558 16.9356 59.6852C17.4049 59.2155 17.9669 58.8489 18.6215 58.5853C19.2761 58.3225 20 58.1903 20.7958 58.1903C21.5959 58.1903 22.3232 58.3225 22.977 58.5853C23.6316 58.8489 24.1919 59.2155 24.6586 59.6852C25.1244 60.1558 25.4864 60.7139 25.7436 61.3613C25.9999 62.0088 26.1289 62.7163 26.1289 63.4822ZM24.359 63.4822C24.359 62.888 24.2759 62.3539 24.1105 61.8782C23.9451 61.4034 23.7078 61.0007 23.3987 60.6701C23.0904 60.3395 22.7164 60.0854 22.2765 59.9076C21.8366 59.7307 21.343 59.6414 20.7949 59.6414C20.2511 59.6414 19.7593 59.7307 19.3203 59.9076C18.8804 60.0854 18.5055 60.3395 18.1937 60.6701C17.8829 61.0007 17.643 61.4034 17.475 61.8782C17.307 62.3531 17.2231 62.888 17.2231 63.4822C17.2231 64.0824 17.307 64.6191 17.475 65.0939C17.643 65.5687 17.8829 65.9706 18.1937 66.2986C18.5046 66.6266 18.8804 66.8782 19.3203 67.0534C19.7593 67.2285 20.2511 67.3161 20.7949 67.3161C21.343 67.3161 21.8366 67.2285 22.2765 67.0534C22.7164 66.8782 23.0896 66.6266 23.3987 66.2986C23.707 65.9697 23.9442 65.5679 24.1105 65.0939C24.2759 64.6199 24.359 64.0824 24.359 63.4822Z" fill="#6D6E70"/>
<path d="M38.9233 67.329V68.769H32.7598V58.1903H34.4924V67.3299H38.9233V67.329Z" fill="#6D6E70"/>
<path d="M47.2955 68.769H45.5542V58.1903H47.2955V68.769Z" fill="#6D6E70"/>
<path d="M60.3639 60.0726C60.3094 60.1593 60.2522 60.222 60.1933 60.2632C60.1336 60.3044 60.06 60.325 59.9708 60.325C59.8764 60.325 59.7725 60.2864 59.6556 60.21C59.5396 60.1336 59.3967 60.0486 59.2261 59.955C59.0555 59.8614 58.8546 59.7755 58.6226 59.6956C58.3905 59.6167 58.1134 59.5772 57.793 59.5772C57.496 59.5772 57.2362 59.6132 57.0111 59.6845C56.7868 59.7566 56.5981 59.8579 56.4448 59.9867C56.2924 60.1155 56.1773 60.2684 56.1011 60.4427C56.024 60.617 55.9859 60.8076 55.9859 61.0137C55.9859 61.2773 56.0578 61.4963 56.2006 61.6723C56.3435 61.8466 56.5323 61.9968 56.7669 62.1214C57.0016 62.245 57.2692 62.3549 57.5705 62.4485C57.8718 62.5421 58.1792 62.6408 58.4935 62.7465C58.807 62.8529 59.1144 62.9714 59.4157 63.1062C59.7171 63.2402 59.9846 63.4102 60.2193 63.6171C60.454 63.8232 60.6427 64.0739 60.7856 64.371C60.9285 64.6681 61.0003 65.0296 61.0003 65.4564C61.0003 65.9166 60.9189 66.3477 60.7562 66.7504C60.5934 67.1531 60.3578 67.5034 60.0487 67.8031C59.7404 68.1028 59.3595 68.338 58.9083 68.5115C58.4554 68.6841 57.9411 68.7699 57.3635 68.7699C57.0224 68.7699 56.6907 68.7382 56.3677 68.6729C56.0439 68.6085 55.7348 68.5166 55.4421 68.3998C55.1477 68.2822 54.8723 68.1405 54.616 67.9714C54.3588 67.8039 54.1294 67.6176 53.9268 67.4115L54.4307 66.6061C54.4749 66.5391 54.5312 66.4868 54.6013 66.449C54.6706 66.4103 54.7468 66.3915 54.8308 66.3915C54.9442 66.3915 55.0706 66.443 55.2083 66.546C55.346 66.6491 55.514 66.7624 55.7079 66.8835C55.9036 67.0062 56.1392 67.1179 56.4154 67.2209C56.6916 67.3248 57.0232 67.3763 57.4077 67.3763C58.0355 67.3763 58.5204 67.2278 58.8633 66.9298C59.2062 66.6327 59.3785 66.2232 59.3785 65.7011C59.3785 65.4092 59.3066 65.1704 59.1638 64.9858C59.02 64.8021 58.8312 64.6475 58.5975 64.523C58.3628 64.3985 58.0944 64.2929 57.7939 64.2062C57.4926 64.1203 57.186 64.0276 56.8752 63.9297C56.5643 63.8318 56.2578 63.7167 55.9564 63.5854C55.6551 63.454 55.3875 63.2814 55.1529 63.0685C54.9182 62.8546 54.7295 62.591 54.5866 62.2776C54.4437 61.9634 54.3718 61.5718 54.3718 61.1021C54.3718 60.7286 54.4463 60.3671 54.5978 60.0168C54.7485 59.6673 54.9684 59.3573 55.2568 59.086C55.546 58.8155 55.9019 58.5983 56.3279 58.436C56.7522 58.2729 57.2362 58.1921 57.78 58.1921C58.3922 58.1921 58.9542 58.2849 59.466 58.4721C59.9777 58.6592 60.4176 58.9254 60.7882 59.2698L60.3639 60.0726Z" fill="#6D6E70"/>
<path d="M76.0176 59.6225H72.6917V68.769H70.966V59.6225H67.6313V58.1903H76.0176V59.6225Z" fill="#6D6E70"/>
<path d="M84.3903 68.769H82.6489V58.1903H84.3903V68.769Z" fill="#6D6E70"/>
<path d="M99.0667 66.3475C99.1611 66.3475 99.2416 66.3836 99.3109 66.4549L100 67.1813C99.5655 67.6888 99.0321 68.0803 98.4 68.3568C97.7679 68.6324 97.0128 68.769 96.133 68.769C95.3537 68.769 94.648 68.6384 94.0185 68.3774C93.389 68.1164 92.8521 67.7523 92.4079 67.2852C91.9637 66.8181 91.6208 66.2608 91.3818 65.6151C91.142 64.9677 91.0225 64.2567 91.0225 63.4796C91.0225 62.7034 91.1498 61.9907 91.4043 61.3424C91.658 60.6924 92.0165 60.1343 92.4781 59.6672C92.9404 59.2001 93.4929 58.8377 94.138 58.5784C94.7822 58.3191 95.4923 58.1912 96.2672 58.1912C97.0379 58.1912 97.7185 58.3122 98.3082 58.5535C98.8979 58.7957 99.4114 59.1177 99.846 59.5195L99.2754 60.3035C99.2364 60.3567 99.1888 60.4013 99.1351 60.44C99.0806 60.4786 99.0061 60.4975 98.9126 60.4975C98.8139 60.4975 98.7022 60.4529 98.5758 60.3644C98.4493 60.276 98.29 60.1781 98.0943 60.0699C97.8986 59.9626 97.6544 59.8638 97.3609 59.7762C97.0665 59.6869 96.7002 59.6432 96.2603 59.6432C95.7512 59.6432 95.2853 59.7299 94.8602 59.9025C94.4359 60.0751 94.0696 60.3266 93.7639 60.6572C93.4574 60.9878 93.2201 61.3905 93.0495 61.8645C92.879 62.3385 92.7941 62.8777 92.7941 63.4813C92.7941 64.0901 92.8833 64.6328 93.0608 65.1094C93.2383 65.5859 93.4825 65.9886 93.7942 66.3166C94.1051 66.6446 94.4714 66.8954 94.8905 67.068C95.3104 67.2405 95.7616 67.3273 96.2465 67.3273C96.5426 67.3273 96.8076 67.3118 97.0422 67.2809C97.2769 67.25 97.4934 67.2002 97.6908 67.1306C97.8874 67.0611 98.0744 66.9735 98.2502 66.8679C98.4251 66.7623 98.5991 66.6335 98.7715 66.4806C98.8693 66.3905 98.968 66.3475 99.0667 66.3475Z" fill="#6D6E70"/>
<path d="M16.1146 77.6243H16.5069C16.6437 77.6243 16.7511 77.6071 16.8324 77.5736C16.913 77.5392 16.9892 77.4826 17.061 77.4002L19.6241 74.5228C19.7029 74.4344 19.7783 74.3708 19.8519 74.3339C19.9255 74.2961 20.0198 74.2772 20.1341 74.2772H21.02L18.0871 77.565C18.0118 77.6466 17.9408 77.7161 17.875 77.7728C17.8083 77.8303 17.7382 77.8758 17.662 77.9119C17.7624 77.9437 17.8499 77.9918 17.9261 78.0553C18.0014 78.1189 18.0794 78.1996 18.1625 78.2957L21.2252 81.9132H20.3229C20.2545 81.9132 20.1974 81.9081 20.1506 81.8969C20.1038 81.8866 20.064 81.872 20.0302 81.8549C19.9956 81.8368 19.9653 81.8136 19.9359 81.7853C19.9073 81.757 19.8787 81.7269 19.8501 81.6943L17.1909 78.6632C17.1511 78.6203 17.1147 78.5834 17.081 78.5542C17.0463 78.5241 17.0074 78.4975 16.9623 78.4769C16.9173 78.4554 16.8654 78.4408 16.8065 78.4314C16.7476 78.4228 16.6749 78.4177 16.5891 78.4177H16.1163V81.9124H15.0781V74.2772H16.1146V77.6243Z" fill="#6D6E70"/>
<path d="M26.7809 81.9133H26.3557C26.2631 81.9133 26.1878 81.8996 26.1297 81.8713C26.0726 81.8421 26.0354 81.782 26.0172 81.6901L25.9089 81.1895C25.7661 81.3174 25.6267 81.4316 25.4898 81.533C25.3539 81.6351 25.2102 81.7193 25.0604 81.7897C24.9097 81.8593 24.7495 81.9108 24.5789 81.9468C24.4083 81.9829 24.2196 82.0001 24.0126 82.0001C23.8013 82.0001 23.603 81.97 23.4186 81.9116C23.2342 81.8532 23.074 81.7648 22.9372 81.6472C22.8012 81.5295 22.693 81.381 22.6124 81.2007C22.5319 81.0212 22.4912 80.8083 22.4912 80.5618C22.4912 80.348 22.5501 80.1419 22.6687 79.9445C22.7873 79.747 22.9779 79.5709 23.2411 79.4181C23.5052 79.2644 23.849 79.1382 24.2758 79.0411C24.7027 78.9433 25.2231 78.8943 25.8397 78.8943V78.471C25.8397 78.0485 25.7487 77.73 25.5686 77.5136C25.3877 77.2972 25.1201 77.1899 24.7659 77.1899C24.533 77.1899 24.3365 77.2191 24.1771 77.2775C24.0178 77.3358 23.8793 77.402 23.7632 77.4741C23.6463 77.5471 23.5467 77.6132 23.4619 77.6716C23.3779 77.73 23.2948 77.7592 23.2125 77.7592C23.1484 77.7592 23.0921 77.742 23.0428 77.7085C22.9952 77.675 22.9562 77.6329 22.9276 77.5831L22.7562 77.28C23.0566 76.9924 23.3814 76.7777 23.7286 76.6352C24.0767 76.4926 24.4611 76.4222 24.8837 76.4222C25.1876 76.4222 25.4587 76.472 25.6959 76.5708C25.9323 76.6704 26.1306 76.8095 26.2917 76.9872C26.4527 77.165 26.5748 77.3796 26.6571 77.6321C26.7393 77.8837 26.7809 78.161 26.7809 78.4633V81.9133ZM24.2984 81.3329C24.4663 81.3329 24.6205 81.3157 24.7599 81.2822C24.9002 81.2479 25.0309 81.2007 25.1547 81.138C25.2786 81.0762 25.3972 81.0006 25.5089 80.9113C25.6223 80.8228 25.7323 80.7215 25.8397 80.6082V79.4945C25.3989 79.4945 25.0249 79.522 24.7166 79.5778C24.4083 79.6328 24.1581 79.7049 23.9641 79.7942C23.771 79.8843 23.6307 79.9891 23.5424 80.111C23.455 80.2321 23.4108 80.3686 23.4108 80.518C23.4108 80.6606 23.4342 80.7842 23.4809 80.8873C23.5277 80.9912 23.59 81.0762 23.6688 81.1423C23.7476 81.2084 23.8412 81.2565 23.9485 81.2865C24.0559 81.3166 24.1728 81.3329 24.2984 81.3329Z" fill="#6D6E70"/>
<path d="M28.875 81.9134V76.5159H29.4231C29.5262 76.5159 29.5989 76.5347 29.6379 76.5742C29.6777 76.6129 29.7045 76.6807 29.7184 76.776L29.7825 77.6184C29.9686 77.2414 30.1981 76.9478 30.4726 76.7357C30.7471 76.5244 31.0675 76.4188 31.4372 76.4188C31.587 76.4188 31.7238 76.436 31.8451 76.4695C31.9672 76.503 32.0797 76.5502 32.1836 76.6103L32.0598 77.3187C32.0347 77.408 31.9793 77.4518 31.8936 77.4518C31.8433 77.4518 31.7663 77.4355 31.6624 77.4011C31.5584 77.3676 31.4138 77.3505 31.2268 77.3505C30.8943 77.3505 30.6155 77.4466 30.3912 77.6381C30.1678 77.8296 29.9808 78.1095 29.8301 78.4753V81.9116H28.875V81.9134Z" fill="#6D6E70"/>
<path d="M36.0534 76.4307C36.4518 76.4307 36.8102 76.4968 37.1315 76.6273C37.4519 76.7587 37.7238 76.9459 37.948 77.1871C38.1723 77.4284 38.3438 77.7212 38.4641 78.0638C38.5845 78.4064 38.6442 78.7894 38.6442 79.2119C38.6442 79.6377 38.5845 80.0216 38.4641 80.3625C38.3438 80.7033 38.1723 80.9953 37.948 81.2366C37.7238 81.4778 37.4519 81.6633 37.1315 81.793C36.8102 81.9226 36.4518 81.987 36.0534 81.987C35.656 81.987 35.2975 81.9226 34.9763 81.793C34.655 81.6625 34.3822 81.4778 34.1571 81.2366C33.9311 80.9953 33.7579 80.7033 33.6358 80.3625C33.5137 80.0216 33.4531 79.6377 33.4531 79.2119C33.4531 78.7885 33.5137 78.4064 33.6358 78.0638C33.7571 77.7212 33.9311 77.4293 34.1571 77.1871C34.3831 76.9459 34.6559 76.7587 34.9763 76.6273C35.2975 76.4968 35.656 76.4307 36.0534 76.4307ZM36.0534 81.2469C36.5912 81.2469 36.9921 81.0683 37.2571 80.7119C37.522 80.3547 37.6545 79.8567 37.6545 79.217C37.6545 78.5739 37.5229 78.0733 37.2571 77.7144C36.9921 77.3554 36.5903 77.176 36.0534 77.176C35.7815 77.176 35.5452 77.2223 35.3443 77.3142C35.1442 77.4061 34.9763 77.54 34.842 77.7144C34.7078 77.8887 34.6074 78.1025 34.5416 78.3558C34.4749 78.6099 34.442 78.8967 34.442 79.2161C34.442 79.5356 34.4749 79.8224 34.5416 80.0739C34.6074 80.3255 34.7078 80.5385 34.842 80.7111C34.9763 80.8828 35.1442 81.015 35.3443 81.1078C35.5452 81.2005 35.7815 81.2469 36.0534 81.2469Z" fill="#6D6E70"/>
<path d="M41.5349 74.0652V81.9133H40.5781V74.0652H41.5349Z" fill="#6D6E70"/>
<path d="M45.1458 74.8214C45.1458 74.9142 45.1259 75.0009 45.0887 75.0799C45.0514 75.1597 45.0012 75.231 44.9389 75.2928C44.8756 75.3547 44.8029 75.4036 44.7207 75.4397C44.6384 75.4757 44.5501 75.4929 44.4574 75.4929C44.3648 75.4929 44.2773 75.4749 44.1968 75.4397C44.1162 75.4036 44.0444 75.3547 43.982 75.2928C43.9188 75.2301 43.8695 75.1597 43.834 75.0799C43.7976 75 43.7803 74.9142 43.7803 74.8214C43.7803 74.7296 43.7985 74.642 43.834 74.5587C43.8695 74.4745 43.9188 74.4015 43.982 74.3397C44.0444 74.277 44.1162 74.2281 44.1968 74.1929C44.2773 74.1568 44.3648 74.1396 44.4574 74.1396C44.5501 74.1396 44.6384 74.1577 44.7207 74.1929C44.8029 74.2281 44.8756 74.277 44.9389 74.3397C45.0012 74.4015 45.0514 74.4745 45.0887 74.5587C45.1259 74.642 45.1458 74.7296 45.1458 74.8214ZM44.9302 76.5164V81.9139H43.9734V76.5164H44.9302Z" fill="#6D6E70"/>
<path d="M47.2627 81.9133V76.5158H47.8316C47.9684 76.5158 48.0541 76.5811 48.0896 76.7124L48.165 77.2989C48.4014 77.0396 48.6646 76.8301 48.9573 76.6704C49.2491 76.5106 49.5868 76.4299 49.9704 76.4299C50.2683 76.4299 50.5306 76.4789 50.7575 76.5768C50.9852 76.6746 51.1749 76.8129 51.3273 76.9924C51.4797 77.1718 51.5948 77.3882 51.6736 77.6398C51.7533 77.8922 51.7922 78.1713 51.7922 78.477V81.9133H50.8354V78.477C50.8354 78.0682 50.7419 77.7514 50.554 77.5256C50.3661 77.3006 50.0786 77.1873 49.6916 77.1873C49.4093 77.1873 49.1443 77.2551 48.8993 77.3891C48.6542 77.5247 48.4273 77.7076 48.2195 77.9386V81.9133H47.2627Z" fill="#6D6E70"/>
<path d="M57.8795 81.9133H57.4544C57.3617 81.9133 57.2864 81.8996 57.2284 81.8713C57.1712 81.8421 57.134 81.782 57.1158 81.6901L57.0076 81.1895C56.8647 81.3174 56.7253 81.4316 56.5885 81.533C56.4525 81.6351 56.3088 81.7193 56.159 81.7897C56.0083 81.8593 55.8481 81.9108 55.6775 81.9468C55.507 81.9829 55.3182 82.0001 55.1112 82.0001C54.9 82.0001 54.7017 81.97 54.5172 81.9116C54.3328 81.8532 54.1726 81.7648 54.0358 81.6472C53.8998 81.5295 53.7916 81.381 53.7111 81.2007C53.6305 81.0212 53.5898 80.8083 53.5898 80.5618C53.5898 80.348 53.6487 80.1419 53.7674 79.9445C53.886 79.747 54.0765 79.5709 54.3397 79.4181C54.6038 79.2644 54.9476 79.1382 55.3745 79.0411C55.8014 78.9433 56.3218 78.8943 56.9383 78.8943V78.471C56.9383 78.0485 56.8474 77.73 56.6673 77.5136C56.4863 77.2972 56.2187 77.1899 55.8646 77.1899C55.6316 77.1899 55.4351 77.2191 55.2758 77.2775C55.1164 77.3358 54.9779 77.402 54.8619 77.4741C54.745 77.5471 54.6454 77.6132 54.5605 77.6716C54.4765 77.73 54.3934 77.7592 54.3111 77.7592C54.2471 77.7592 54.1908 77.742 54.1414 77.7085C54.0938 77.675 54.0548 77.6329 54.0263 77.5831L53.8548 77.28C54.1553 76.9924 54.48 76.7777 54.8272 76.6352C55.1753 76.4926 55.5598 76.4222 55.9823 76.4222C56.2863 76.4222 56.5573 76.472 56.7946 76.5708C57.0309 76.6704 57.2292 76.8095 57.3903 76.9872C57.5514 77.165 57.6735 77.3796 57.7557 77.6321C57.838 77.8837 57.8795 78.161 57.8795 78.4633V81.9133ZM55.397 81.3329C55.565 81.3329 55.7191 81.3157 55.8585 81.2822C55.9988 81.2479 56.1295 81.2007 56.2534 81.138C56.3772 81.0762 56.4958 81.0006 56.6075 80.9113C56.721 80.8228 56.8309 80.7215 56.9383 80.6082V79.4945C56.4976 79.4945 56.1235 79.522 55.8152 79.5778C55.507 79.6328 55.2567 79.7049 55.0627 79.7942C54.8696 79.8843 54.7294 79.9891 54.641 80.111C54.5536 80.2321 54.5094 80.3686 54.5094 80.518C54.5094 80.6606 54.5328 80.7842 54.5796 80.8873C54.6263 80.9912 54.6887 81.0762 54.7675 81.1423C54.8463 81.2084 54.9398 81.2565 55.0472 81.2865C55.1545 81.3166 55.2714 81.3329 55.397 81.3329Z" fill="#6D6E70"/>
<path d="M63.9877 79.0575V81.9134H62.9512V74.2782H65.2242C65.7108 74.2782 66.1351 74.3349 66.4945 74.4465C66.8547 74.559 67.1525 74.717 67.3889 74.9239C67.6262 75.13 67.802 75.3781 67.918 75.6692C68.0349 75.9603 68.0929 76.2857 68.0929 76.6447C68.0929 77.0001 68.0306 77.3247 67.905 77.6201C67.7795 77.9146 67.5959 78.1688 67.3552 78.3817C67.1127 78.5947 66.8131 78.7613 66.4546 78.8797C66.0961 78.9991 65.6866 79.0583 65.2242 79.0583H63.9877V79.0575ZM63.9877 78.2366H65.2242C65.5212 78.2366 65.7835 78.198 66.0113 78.119C66.2381 78.0408 66.4295 77.9318 66.5836 77.7918C66.7378 77.651 66.8547 77.4836 66.9326 77.2878C67.0114 77.092 67.0512 76.8774 67.0512 76.6429C67.0512 76.1561 66.8997 75.7766 66.5966 75.5026C66.2936 75.2287 65.8364 75.0922 65.2242 75.0922H63.9877V78.2366Z" fill="#6D6E70"/>
<path d="M69.9043 81.9134V76.5159H70.4524C70.5555 76.5159 70.6282 76.5347 70.6672 76.5742C70.707 76.6129 70.7338 76.6807 70.7477 76.776L70.8118 77.6184C70.9979 77.2414 71.2274 76.9478 71.5019 76.7357C71.7764 76.5244 72.0968 76.4188 72.4665 76.4188C72.6163 76.4188 72.7531 76.436 72.8744 76.4695C72.9965 76.503 73.109 76.5502 73.2129 76.6103L73.0891 77.3187C73.064 77.408 73.0086 77.4518 72.9228 77.4518C72.8726 77.4518 72.7956 77.4355 72.6917 77.4011C72.5877 77.3676 72.4431 77.3505 72.2561 77.3505C71.9236 77.3505 71.6448 77.4466 71.4205 77.6381C71.1971 77.8296 71.0101 78.1095 70.8594 78.4753V81.9116H69.9043V81.9134Z" fill="#6D6E70"/>
<path d="M75.7068 76.5156V79.9571C75.7068 80.3658 75.8021 80.6818 75.9917 80.9059C76.1822 81.13 76.4688 81.2417 76.8516 81.2417C77.1312 81.2417 77.3945 81.1756 77.6413 81.045C77.8889 80.9137 78.1158 80.7308 78.3236 80.4955V76.5156H79.2804V81.9131H78.7107C78.5747 81.9131 78.489 81.8479 78.4526 81.7165L78.3773 81.1352C78.1409 81.3945 77.8759 81.6032 77.5824 81.762C77.2888 81.92 76.952 81.999 76.5719 81.999C76.2749 81.999 76.0125 81.9501 75.7848 81.8522C75.5579 81.7543 75.3665 81.6169 75.2124 81.4392C75.0583 81.2614 74.9422 81.0468 74.866 80.7943C74.789 80.5419 74.75 80.2628 74.75 79.9571V76.5156H75.7068Z" fill="#6D6E70"/>
<path d="M84.6155 77.4052C84.5731 77.4834 84.5064 77.5229 84.4172 77.5229C84.3635 77.5229 84.3029 77.5031 84.2345 77.4645C84.1661 77.425 84.083 77.3821 83.9851 77.334C83.8864 77.2867 83.7695 77.2421 83.6327 77.2009C83.4968 77.1597 83.3357 77.1391 83.1495 77.1391C82.9885 77.1391 82.8439 77.1597 82.714 77.2009C82.585 77.2421 82.4758 77.2979 82.3841 77.3692C82.2923 77.4396 82.223 77.522 82.1745 77.6165C82.1269 77.7109 82.1018 77.8131 82.1018 77.923C82.1018 78.0621 82.1425 78.1772 82.223 78.2691C82.3035 78.3609 82.41 78.4416 82.5425 78.5095C82.675 78.5764 82.8257 78.6366 82.9937 78.6881C83.1625 78.7396 83.3348 78.7945 83.5123 78.8529C83.689 78.9113 83.8622 78.9766 84.031 79.0478C84.199 79.1183 84.3497 79.2076 84.4821 79.314C84.6146 79.4205 84.7211 79.551 84.8017 79.7056C84.8822 79.8601 84.9229 80.0456 84.9229 80.262C84.9229 80.5101 84.8779 80.7403 84.7878 80.9515C84.6986 81.1636 84.5661 81.3465 84.3904 81.5002C84.2146 81.6547 83.9998 81.7767 83.7461 81.8651C83.4916 81.9544 83.198 81.9991 82.8646 81.9991C82.4854 81.9991 82.1416 81.9372 81.8333 81.8144C81.5251 81.6925 81.2636 81.5354 81.0488 81.343L81.2748 80.9807C81.3043 80.9343 81.338 80.8991 81.3779 80.8734C81.4168 80.8485 81.4697 80.8364 81.5337 80.8364C81.5978 80.8364 81.6654 80.8613 81.7372 80.9111C81.8082 80.9609 81.8957 81.0159 81.9979 81.0769C82.1 81.137 82.2239 81.1919 82.3685 81.2417C82.514 81.2915 82.6949 81.3164 82.914 81.3164C83.1002 81.3164 83.263 81.2924 83.4024 81.2443C83.5418 81.1971 83.6587 81.1318 83.7513 81.0502C83.844 80.9687 83.9133 80.8742 83.9583 80.7677C84.0033 80.6613 84.0249 80.5479 84.0249 80.4269C84.0249 80.2774 83.9851 80.1538 83.9046 80.0568C83.8241 79.9597 83.7176 79.8756 83.5851 79.806C83.4526 79.7365 83.3011 79.6764 83.1305 79.6249C82.9599 79.5733 82.7867 79.5192 82.6092 79.4626C82.4317 79.405 82.2576 79.3407 82.0871 79.2677C81.9165 79.1947 81.7658 79.1037 81.6333 78.9938C81.5008 78.8838 81.3943 78.7473 81.3129 78.5867C81.2324 78.4245 81.1926 78.2287 81.1926 77.9977C81.1926 77.7908 81.235 77.5933 81.3216 77.4027C81.4082 77.2129 81.5329 77.0455 81.6983 76.9021C81.8628 76.7587 82.0654 76.6445 82.3053 76.5586C82.5451 76.4727 82.8187 76.4307 83.127 76.4307C83.4855 76.4307 83.8067 76.4865 84.0916 76.599C84.3765 76.7106 84.6224 76.8643 84.8311 77.0601L84.6155 77.4052Z" fill="#6D6E70"/>
<path d="M64.7385 0.00601123V0H64.6146H58.5169C55.1546 0 52.4253 2.70649 52.4253 6.04065V15.1115C52.4253 18.4482 49.7029 21.1513 46.3397 21.1582H46.3267V6.04065C46.3267 2.70563 43.5974 0 40.2281 0V15.1115C40.2281 18.45 37.5023 21.1547 34.1365 21.1582H34.1304V6.04065C34.1304 2.70563 31.4011 0 28.0327 0V21.1582V21.1882V42.3232C31.402 42.3232 34.1304 39.6167 34.1304 36.2765V21.1882H40.2281V42.3232C43.5974 42.3232 46.3267 39.6167 46.3267 36.2765V21.1882H46.3458H46.4081C49.7384 21.2329 52.4244 23.923 52.4244 27.2297V42.3223C55.7867 42.3223 58.5161 39.6158 58.5161 36.2757V27.2297H64.7385C68.1077 27.2297 70.7123 24.4983 70.7123 21.1582V6.04065C70.7123 2.7477 68.0497 0.0721278 64.7385 0.00601123ZM58.5161 27.1997C58.5152 26.0946 58.2208 25.0693 57.7004 24.1815C56.7271 22.508 54.9658 21.3496 52.9249 21.1848L52.9344 21.1796C54.9607 20.9993 56.741 19.8144 57.7073 18.1469C58.2217 17.2633 58.5169 16.2372 58.5169 15.1355V0.0300535H59.1205C62.2057 0.330583 64.6146 2.90741 64.6146 6.04065V21.1831C64.6146 24.3214 62.2057 26.8991 59.1205 27.1997H58.5161Z" fill="#B1804C"/>
<path d="M65.3663 0.00601123V0H65.2425H59.1439C55.7816 0 53.0522 2.70649 53.0522 6.04065V15.1115C53.0522 18.4482 50.3298 21.1513 46.9666 21.1582H46.9537V6.04065C46.9537 2.70563 44.2243 0 40.8551 0V15.1115C40.8551 18.45 38.1292 21.1547 34.7634 21.1582H34.7574V6.04065C34.7574 2.70563 32.028 0 28.6597 0V21.1582V21.1882V42.3232C32.0289 42.3232 34.7574 39.6167 34.7574 36.2765V21.1882H40.8551V42.3232C44.2243 42.3232 46.9537 39.6167 46.9537 36.2765V21.1882H46.9727H47.0351C50.3653 21.2329 53.0514 23.923 53.0514 27.2297V42.3223C56.4137 42.3223 59.143 39.6158 59.143 36.2757V27.2297H65.3654C68.7347 27.2297 71.3393 24.4983 71.3393 21.1582V6.04065C71.3402 2.7477 68.6775 0.0721278 65.3663 0.00601123ZM59.1439 27.1997C59.143 26.0946 58.8486 25.0693 58.3282 24.1815C57.3549 22.508 55.5937 21.3496 53.5527 21.1848L53.5623 21.1796C55.5885 20.9993 57.3688 19.8144 58.3351 18.1469C58.8495 17.2633 59.1447 16.2372 59.1447 15.1355V0.0300535H59.7483C62.8335 0.330583 65.2425 2.90741 65.2425 6.04065V21.1831C65.2425 24.3214 62.8335 26.8991 59.7483 27.1997H59.1439Z" fill="url(#paint0_linear)"/>
<defs>
<linearGradient id="paint0_linear" x1="49.9999" y1="0.300908" x2="49.9999" y2="38.9268" gradientUnits="userSpaceOnUse">
<stop stop-color="#FBE180"/>
<stop offset="0.1964" stop-color="#D9AE3C"/>
<stop offset="0.474" stop-color="#FFE880"/>
<stop offset="0.4792" stop-color="#FAE077"/>
<stop offset="0.495" stop-color="#EECE61"/>
<stop offset="0.5137" stop-color="#E4BF50"/>
<stop offset="0.5369" stop-color="#DEB545"/>
<stop offset="0.5693" stop-color="#DAB03E"/>
<stop offset="0.6594" stop-color="#D9AE3C"/>
<stop offset="1" stop-color="#D9AE3C"/>
</linearGradient>
</defs>
</svg>
