<svg width="100" height="100" viewBox="0 0 100 100" fill="none" xmlns="http://www.w3.org/2000/svg">
<path fill-rule="evenodd" clip-rule="evenodd" d="M49.1698 0C67.8465 0 83.0061 14.9451 83.0061 33.3574C83.0061 51.7697 67.8465 66.7147 49.1698 66.7147C30.4931 66.7147 15.3335 51.7697 15.3335 33.3574C15.3335 14.9451 30.4931 0 49.1698 0ZM49.1698 2.11223C31.6655 2.11223 17.4761 16.1008 17.4761 33.3574C17.4761 50.6139 31.6655 64.6025 49.1698 64.6025C66.6741 64.6025 80.8636 50.6139 80.8636 33.3574C80.8636 16.1008 66.6741 2.11223 49.1698 2.11223ZM56.4869 60.4976C56.0826 60.6171 55.7188 60.6968 55.3145 60.7766C55.1528 60.8164 55.0315 60.7766 54.9103 60.7367C53.0507 59.9396 51.1911 59.3418 49.1698 59.3418C47.1081 59.3418 45.2889 59.9396 43.4294 60.7367C43.3081 60.7766 43.1464 60.8164 43.0251 60.7766C42.6209 60.6968 42.257 60.6171 41.8528 60.4976C41.5698 60.4179 41.3677 60.1788 41.3272 59.8998C41.2868 59.6208 41.4485 59.3418 41.7315 59.2223C44.157 58.1462 46.4613 57.2695 49.1698 57.2695C51.8783 57.2695 54.1826 58.1462 56.6081 59.2223C56.8911 59.3418 57.0528 59.6208 57.0124 59.8998C56.972 60.1788 56.7699 60.4179 56.4869 60.4976ZM63.6422 57.5086C63.3188 57.7078 62.9954 57.8673 62.672 58.0665C62.5103 58.1462 62.3486 58.1861 62.1869 58.1462C60.2465 57.668 58.4273 56.8709 56.6081 56.0738C54.1826 54.9579 51.8379 53.9218 49.1294 53.9218C46.4209 53.9218 44.0762 54.9978 41.6506 56.0738C39.8315 56.9108 38.0123 57.7078 36.0719 58.1462C35.9102 58.1861 35.7485 58.1462 35.5868 58.0665C35.2634 57.9071 34.94 57.7078 34.6166 57.5086C34.374 57.3492 34.2527 57.0702 34.2932 56.7912C34.3336 56.5122 34.5761 56.2731 34.8591 56.2333C36.9208 55.8746 38.8613 54.9978 40.7613 54.1609C43.4698 52.9254 46.057 51.8095 49.1294 51.8095C52.2017 51.8095 54.7486 52.9254 57.4975 54.1609C59.3975 55.0377 61.338 55.8746 63.3997 56.2333C63.6826 56.2731 63.8848 56.5122 63.9656 56.7912C64.0465 57.11 63.8848 57.389 63.6422 57.5086ZM70.7571 51.6501C70.4742 51.9689 70.1508 52.2878 69.8678 52.6066C69.7869 52.6863 69.6657 52.766 69.5039 52.8059C68.9784 52.9254 68.4933 53.0051 67.9678 53.0848C67.038 53.2044 66.0678 53.2841 65.138 53.2443C62.0252 53.1247 59.4379 52.0088 56.6486 50.7733C54.223 49.6574 51.8783 48.6212 49.1698 48.6212C46.4613 48.6212 44.1166 49.6973 41.6911 50.7733C38.9017 52.0486 36.3144 53.1247 33.2017 53.2443C31.7463 53.324 30.2506 53.1247 28.7953 52.8059C28.674 52.766 28.5527 52.7262 28.4314 52.6066C28.108 52.2878 27.825 51.9689 27.5421 51.6501C27.3399 51.411 27.2995 51.0922 27.5016 50.853C27.6633 50.6139 27.9867 50.4944 28.2697 50.5741C29.725 51.0125 31.2208 51.2516 32.757 51.2117C35.7081 51.1719 38.174 50.0958 40.8017 48.9002C43.5102 47.6648 46.0975 46.5489 49.1698 46.5489C52.2422 46.5489 54.789 47.6648 57.5379 48.9002C60.1656 50.0958 62.6316 51.1719 65.5827 51.2117C67.0784 51.2516 68.6146 50.9726 70.0699 50.5741C70.3529 50.4944 70.6763 50.6139 70.838 50.853C70.9997 51.0922 70.9593 51.411 70.7571 51.6501ZM75.4465 44.1577C75.2848 44.5163 75.1231 44.8352 74.9614 45.1938C74.8806 45.3533 74.7997 45.433 74.638 45.5127C72.5359 46.5489 70.272 47.3459 67.9273 47.6648C66.9976 47.7843 66.0273 47.864 65.0975 47.8242C61.9848 47.7046 59.3975 46.5887 56.6081 45.3533C54.1826 44.2374 51.8379 43.2012 49.1294 43.2012C46.4209 43.2012 44.0762 44.2772 41.6506 45.3533C38.8613 46.6286 36.274 47.7046 33.1612 47.8242C30.2102 47.9437 27.2995 47.1865 24.6314 45.9909C24.2676 45.8315 23.9442 45.6721 23.6208 45.5127C23.4591 45.433 23.3782 45.3134 23.2974 45.1938C23.1357 44.8352 22.974 44.5163 22.8123 44.1577C22.691 43.8787 22.7718 43.5997 22.974 43.4004C23.1761 43.2012 23.4995 43.1613 23.7825 43.3207C26.5314 44.7555 29.5633 45.8315 32.7166 45.7916C35.6676 45.7518 38.1336 44.6758 40.7613 43.4801C43.4698 42.2447 46.057 41.1288 49.1294 41.1288C52.2017 41.1288 54.7486 42.2447 57.4975 43.4801C60.1252 44.6758 62.5912 45.7518 65.5422 45.7916C68.6954 45.8315 71.7274 44.7555 74.4763 43.3207C74.7189 43.2012 75.0423 43.241 75.2848 43.4004C75.487 43.5599 75.5678 43.8787 75.4465 44.1577ZM21.1548 38.4586C21.1144 38.1398 21.0335 37.8608 20.9931 37.542C20.9527 37.263 21.0739 37.0239 21.2761 36.8645C21.5186 36.7051 21.8016 36.7051 22.0037 36.8645C25.1974 38.7774 28.9165 40.4114 32.7166 40.3317C35.6676 40.2919 38.1336 39.2158 40.7613 38.0202C43.4698 36.7848 46.057 35.6689 49.1294 35.6689C52.2017 35.6689 54.7486 36.7848 57.4975 38.0202C60.1252 39.2158 62.5912 40.2919 65.5422 40.3317C69.3422 40.4114 73.0614 38.7774 76.255 36.8645C76.4976 36.7449 76.7806 36.7449 76.9827 36.8645C77.2253 37.0239 77.3061 37.263 77.2657 37.542C77.2253 37.8608 77.1848 38.1796 77.104 38.4586C77.0636 38.6579 76.9423 38.8173 76.7806 38.9368C74.0721 40.531 71.0806 41.8063 67.9273 42.2447C66.9976 42.3643 66.0273 42.444 65.0975 42.4041C61.9848 42.2845 59.3975 41.1686 56.6081 39.9332C54.1826 38.8173 51.8379 37.7811 49.1294 37.7811C46.4209 37.7811 44.0762 38.8571 41.6506 39.9332C38.8613 41.2085 36.274 42.2845 33.1612 42.4041C30.2102 42.5237 27.2995 41.7664 24.6314 40.5708C23.5399 40.0926 22.4888 39.5347 21.4378 38.9368C21.3165 38.8173 21.1952 38.6579 21.1548 38.4586ZM49.1698 14.3871C59.8018 14.3871 68.4125 22.8759 68.4125 33.3574C68.4125 35.4696 68.0486 37.5818 67.3614 39.5745C67.321 39.7339 67.1593 39.8535 66.9976 39.8535C66.5529 39.8933 66.0678 39.8933 65.6231 39.8933C65.4614 39.8933 65.3401 39.8136 65.2593 39.6941C65.1784 39.5745 65.1784 39.4151 65.2188 39.2955C65.9465 37.3826 66.3103 35.35 66.3103 33.3175C66.3103 23.9918 58.6699 16.4595 49.2102 16.4595C39.7506 16.4595 32.0697 24.0715 32.0697 33.3574C32.0697 35.3899 32.4336 37.4224 33.1612 39.3354C33.2017 39.4549 33.2017 39.6144 33.1208 39.7339C33.04 39.8535 32.9187 39.9332 32.757 39.9332C32.3123 39.9332 31.8272 39.9332 31.3825 39.8933C31.2208 39.8933 31.0591 39.7738 31.0187 39.6144C30.291 37.6217 29.9676 35.5095 29.9676 33.3972C29.9272 22.8759 38.5379 14.3871 49.1698 14.3871ZM49.1698 4.46359C49.7358 4.46359 50.1805 4.90198 50.1805 5.45993V12.7133C50.1805 13.2712 49.7358 13.7096 49.1698 13.7096C48.6039 13.7096 48.1592 13.2712 48.1592 12.7133V5.45993C48.1187 4.90198 48.6039 4.46359 49.1698 4.46359ZM19.7803 30.3684C19.7803 29.8104 20.225 29.372 20.791 29.372H28.1484C28.7144 29.372 29.1591 29.8104 29.1591 30.3684C29.1591 30.9263 28.7144 31.3647 28.1484 31.3647H20.791C20.225 31.4045 19.7803 30.9263 19.7803 30.3684ZM69.1401 30.3684C69.1401 29.8104 69.5848 29.372 70.1508 29.372H77.5082C78.0742 29.372 78.5189 29.8104 78.5189 30.3684C78.5189 30.9263 78.0742 31.3647 77.5082 31.3647H70.1508C69.5848 31.4045 69.1401 30.9263 69.1401 30.3684ZM28.9165 12.793C29.3208 12.3944 29.9676 12.3944 30.3719 12.793L35.5868 17.9341C35.991 18.3326 35.991 18.9703 35.5868 19.3688C35.1825 19.7673 34.5357 19.7673 34.1315 19.3688L28.9165 14.2277C28.5123 13.8292 28.5123 13.1915 28.9165 12.793ZM69.4231 12.793C69.8274 13.1915 69.8274 13.8292 69.4231 14.2277L64.2082 19.3688C63.8039 19.7673 63.1571 19.7673 62.7529 19.3688C62.3486 18.9703 62.3486 18.3326 62.7529 17.9341L67.9678 12.793C68.372 12.3944 69.0188 12.3944 69.4231 12.793Z" fill="#F5B0A2"/>
<path d="M19.6 88.0363C19.3979 88.2754 19.1554 88.4746 18.9532 88.7138C18.549 89.1123 18.1043 89.4311 17.6192 89.75C17.1745 90.0688 16.649 90.3079 16.1234 90.4673C15.5979 90.6267 15.0724 90.7064 14.5064 90.6267C14.0213 90.547 13.4958 90.3876 13.0915 90.1086C12.7681 89.8695 12.4851 89.5507 12.283 89.1522C12.1213 88.7935 12 88.3949 12 87.9964C12 87.5979 12.0404 87.1993 12.2021 86.8406C12.3234 86.482 12.5255 86.1631 12.7681 85.8842C13.0106 85.6052 13.2936 85.4059 13.6575 85.2864C13.9404 85.1668 14.2234 85.2067 14.4255 85.4059C14.5872 85.5653 14.6681 85.7248 14.7085 85.924C14.7489 86.1233 14.7489 86.3226 14.7085 86.5218C14.6681 86.7211 14.5468 86.8805 14.3447 86.9204C14.1021 87.0798 13.9404 87.2392 13.8192 87.5182C13.6979 87.7573 13.6575 87.9964 13.6979 88.2355C13.7383 88.4746 13.8596 88.6739 14.0617 88.7935C14.3043 88.9927 14.5872 89.0326 14.9107 88.9927C15.3553 88.9927 15.8 88.7935 16.2043 88.5942C16.6894 88.3152 17.1341 87.9964 17.5383 87.5979C17.9426 87.2392 18.3064 86.8406 18.6298 86.4421C18.8724 86.1631 19.0745 85.8443 19.2766 85.5255C19.0341 84.4893 18.8319 83.4133 18.7511 82.3372C18.6298 81.3409 18.5894 80.3445 18.7107 79.388C18.7915 78.6308 18.9532 77.8338 19.3171 77.1164C19.6405 76.5186 20.166 76.1201 20.8532 76.0005C21.4192 75.9208 21.9852 76.0005 22.4703 76.3592C22.9149 76.678 23.1979 77.1563 23.3596 77.6345C23.5618 78.2323 23.6022 78.87 23.5618 79.5076C23.5213 80.225 23.4001 80.9822 23.2383 81.6996C23.0362 82.4966 22.7937 83.2538 22.4703 83.9712C22.1469 84.6886 21.7426 85.3661 21.2979 86.0436L21.3383 87.558V87.5182C21.5809 86.8805 21.9043 86.2827 22.3086 85.7248C22.7128 85.1668 23.1979 84.6886 23.7639 84.3299C24.3703 83.9313 25.0575 83.7719 25.7852 83.7719C26.2299 83.7719 26.6341 83.8915 26.9979 84.1705C27.3618 84.4096 27.6448 84.7683 27.8469 85.127C28.0894 85.5653 28.2916 86.0037 28.4533 86.482C28.615 87.0001 28.7362 87.558 28.8575 88.116C28.9788 88.7138 29.0597 89.3514 29.1405 89.9492C29.2214 90.5869 29.3022 91.2245 29.3831 91.8622C29.5043 92.6991 29.666 93.536 29.8682 94.3331C30.0703 95.0106 30.3128 95.6483 30.7171 96.2461C31.0405 96.7243 31.4448 97.083 31.9703 97.2823C32.5363 97.5214 33.1831 97.4417 33.749 97.2424C34.032 97.1627 34.315 97.2026 34.4767 97.4417C34.598 97.6409 34.598 97.8402 34.5575 98.0793C34.5171 98.2786 34.3958 98.4779 34.2746 98.6771C34.1129 98.8764 33.9107 98.996 33.6682 99.0358C33.0618 99.1554 32.415 99.1952 31.8086 99.0757C31.2831 98.9561 30.798 98.7568 30.3533 98.438C29.9086 98.1192 29.5852 97.7207 29.3022 97.2823C29.0192 96.804 28.7767 96.2859 28.5745 95.7678C28.3724 95.2099 28.2107 94.6121 28.0894 94.0143C27.9682 93.4165 27.8469 92.7788 27.766 92.1412C27.6448 91.3042 27.5235 90.5072 27.4022 89.6702C27.3213 88.9529 27.2001 88.2355 26.9979 87.558C26.8767 87.0798 26.715 86.5617 26.432 86.1233C26.2703 85.8443 26.0277 85.6849 25.7043 85.6849C25.3405 85.6849 25.0171 85.8443 24.7745 86.0436C24.3703 86.3624 24.0469 86.7609 23.7639 87.1595C23.4001 87.6776 23.1171 88.2754 22.8341 88.8333C22.5511 89.5108 22.3086 90.1883 22.1064 90.9057C21.9043 91.6629 21.7426 92.4201 21.6213 93.2172C21.5 93.9744 21.4596 94.7715 21.5 95.5287C21.5 95.728 21.4192 95.9272 21.2575 96.0867C21.0958 96.2062 20.9341 96.2859 20.732 96.2859C20.5298 96.2859 20.3681 96.2859 20.166 96.2062C19.9639 96.1265 19.8022 96.007 19.6809 95.8077C19.6405 95.7678 19.6405 95.728 19.6405 95.6881C19.6 95.17 19.6 94.6121 19.6 94.0541C19.6 93.3766 19.6 92.6991 19.6405 92.0216C19.6405 91.2644 19.6405 90.5072 19.6405 89.7898C19.6405 89.192 19.6405 88.6341 19.6 88.0363ZM20.6915 83.7321C20.7724 83.6125 20.8128 83.4531 20.8937 83.3335C21.0958 82.8952 21.2575 82.4169 21.4192 81.9387C21.5809 81.4206 21.7022 80.9423 21.8234 80.4242C21.9043 79.946 21.9852 79.4678 21.9852 79.0294C21.9852 78.7105 21.9447 78.312 21.8234 78.033C21.7426 77.8338 21.6213 77.7142 21.4192 77.6743C21.2575 77.6345 21.0958 77.6743 20.9745 77.7939C20.8128 77.9932 20.6915 78.2722 20.6107 78.5113C20.4894 78.9098 20.449 79.3083 20.4085 79.7467C20.3681 80.2648 20.3681 80.7829 20.4085 81.2612C20.449 81.8191 20.4894 82.3372 20.5703 82.8952C20.5703 83.1343 20.6107 83.4531 20.6915 83.7321ZM33.3043 93.536C32.8192 93.536 32.415 93.3766 32.0916 93.0179C31.7277 92.6593 31.4852 92.2607 31.3235 91.7825C31.1214 91.2644 31.0001 90.6666 30.9192 90.1086C30.8384 89.471 30.798 88.8333 30.8384 88.1957C30.8384 87.558 30.9192 86.9204 31.0405 86.2827C31.1618 85.6849 31.3235 85.127 31.566 84.569C31.7682 84.0908 32.0107 83.6524 32.3746 83.2937C32.698 82.935 33.1022 82.7357 33.5873 82.6959C34.1129 82.656 34.5575 82.7756 34.9618 83.0944C35.3661 83.4133 35.6895 83.8516 35.8916 84.29C36.1342 84.848 36.3363 85.4059 36.4171 86.0037C36.5384 86.6414 36.5788 87.3189 36.5788 87.9565C36.5788 88.6341 36.498 89.2717 36.3767 89.9094C36.2554 90.5072 36.0937 91.105 35.8107 91.6629C35.5682 92.1412 35.2448 92.6194 34.8001 92.9382C34.3554 93.3766 33.8299 93.536 33.3043 93.536ZM33.6278 84.4096C33.4661 84.4096 33.3044 84.5291 33.2235 84.6487C33.0214 84.8878 32.9001 85.1668 32.8192 85.4458C32.698 85.8443 32.5767 86.2428 32.5363 86.6414C32.4554 87.1196 32.415 87.5979 32.415 88.0363C32.415 88.5145 32.415 88.9927 32.4554 89.4311C32.4958 89.8297 32.5767 90.2681 32.6575 90.6666C32.7384 90.9456 32.8192 91.2644 33.0214 91.5035C33.1022 91.6231 33.2235 91.7426 33.3852 91.7426C33.7086 91.7825 33.9512 91.5434 34.1129 91.3042C34.3958 90.9057 34.598 90.4275 34.7192 89.9492C34.881 89.3514 34.9618 88.7138 35.0022 88.0761C35.0427 87.4385 35.0022 86.8407 34.881 86.203C34.8001 85.7248 34.6384 85.2465 34.3958 84.8081C34.1937 84.569 33.9916 84.3697 33.6278 84.4096ZM39.3278 86.6812H37.4278C37.3873 86.6812 37.3065 86.6812 37.2661 86.6414C37.1044 86.5218 37.0235 86.3624 36.9427 86.203C36.8618 86.0436 36.8618 85.8443 36.8618 85.6849C36.8618 85.5255 36.9427 85.3661 37.0235 85.2067C37.1448 85.0472 37.3065 84.9277 37.5086 84.9277C37.5086 84.9277 37.5086 84.9277 37.5491 84.9277C37.6703 84.9277 37.832 84.9277 37.9533 84.9277C38.1554 84.9277 38.3576 84.8878 38.5193 84.8878C38.7214 84.8878 38.8831 84.8878 39.0852 84.8878C39.1257 84.8878 39.1661 84.8878 39.2469 84.8878L39.1661 83.1343C39.1661 83.0944 39.1661 83.0944 39.1661 83.0944C39.2065 82.8952 39.3278 82.7357 39.4895 82.6162C39.6512 82.5365 39.8129 82.4966 40.015 82.4966C40.1767 82.4966 40.3789 82.5763 40.5406 82.656C40.7023 82.7756 40.864 82.935 40.9448 83.1343C40.9448 83.1741 40.9852 83.214 40.9852 83.214L41.0257 84.8081L42.9257 84.6886C43.1682 84.6487 43.3704 84.7683 43.4916 84.9675C43.5725 85.127 43.6129 85.3262 43.5725 85.5255C43.5725 85.6849 43.5321 85.8443 43.4512 86.0037C43.3704 86.1631 43.2491 86.3226 43.0469 86.3226C42.9257 86.3624 42.7235 86.3624 42.6023 86.4023C42.4001 86.4421 42.1576 86.4421 41.9555 86.4421C41.7533 86.4421 41.5108 86.482 41.3086 86.482C41.2278 86.482 41.1874 86.482 41.1065 86.482L41.2278 92.8984V92.9382C41.1874 93.1375 41.1065 93.2969 40.9448 93.4165C40.7831 93.4962 40.6214 93.5759 40.4597 93.5759C40.298 93.5759 40.1363 93.5759 39.9746 93.536C39.8129 93.4962 39.6512 93.4165 39.5703 93.2969C39.5299 93.2571 39.5299 93.1774 39.4895 93.1375L39.3278 86.6812ZM54.0427 78.1526C54.3257 77.7541 54.6491 77.3555 55.013 77.0367C55.3364 76.7577 55.7406 76.5186 56.1449 76.3193C56.4683 76.1599 56.8321 76.0802 57.2364 76.0404C57.5194 76.0005 57.8428 76.0404 58.1257 76.1201C58.1257 76.1201 58.1257 76.1201 58.1662 76.1201C58.3683 76.1998 58.4896 76.3592 58.5704 76.5585C58.6108 76.7179 58.6513 76.8773 58.6108 77.0367C58.5704 77.1961 58.4896 77.3555 58.3683 77.4751C58.2066 77.5946 58.0045 77.6345 57.8023 77.5946C57.6406 77.5548 57.4789 77.5946 57.3172 77.5946C57.1151 77.6345 56.913 77.6744 56.7513 77.7541C56.5491 77.8736 56.347 77.9932 56.1853 78.1526C56.064 78.2722 55.9428 78.3917 55.8619 78.5113C56.2662 78.6308 56.6704 78.8301 56.9938 79.1489C57.3981 79.5076 57.7619 79.9061 58.0045 80.4242C58.247 80.9025 58.4087 81.4206 58.4896 81.9387C58.5704 82.4568 58.53 82.9749 58.3279 83.4531C58.1662 83.9313 57.8428 84.3299 57.4385 84.6487C56.9534 85.0074 56.347 85.1668 55.7002 85.2067C55.2151 85.2067 54.73 85.0871 54.3257 84.7683C53.9619 84.4893 53.7193 84.1705 53.5576 83.7719C53.3555 83.3734 53.2747 82.935 53.1938 82.4966C53.1534 82.0582 53.113 81.6198 53.1534 81.1815C53.1938 80.8228 53.2342 80.4242 53.3555 80.0656C53.3959 79.9858 53.3959 79.9061 53.4364 79.7866C53.1534 79.8264 52.83 79.9061 52.547 80.0257C52.1023 80.225 51.6981 80.4641 51.3746 80.7829C51.0108 81.1017 50.7278 81.4604 50.5257 81.859C50.3236 82.2575 50.2023 82.656 50.2023 83.1343C50.2023 83.6922 50.2831 84.2502 50.5257 84.7284C50.7278 85.1668 51.0512 85.5653 51.4151 85.8842C51.8193 86.2428 52.2236 86.5218 52.7087 86.7211C53.2342 86.9602 53.7598 87.1993 54.2853 87.3986C54.8108 87.5979 55.3768 87.837 55.9023 88.0761C56.4279 88.2754 56.913 88.5544 57.3577 88.8732C57.8023 89.192 58.1662 89.5905 58.4491 90.0289C58.7726 90.5072 58.9343 91.105 58.9747 91.7028V91.7426C58.9343 92.3803 58.7726 93.0179 58.4491 93.5759C58.1257 94.1338 57.7215 94.6121 57.2364 95.0505C56.7513 95.4889 56.1853 95.8077 55.6193 96.0867C55.013 96.3656 54.4066 96.5649 53.7598 96.6845C53.1129 96.804 52.4661 96.8439 51.8193 96.7642C51.1725 96.7243 50.5661 96.5649 50.0002 96.2859C49.4342 96.007 48.9491 95.6483 48.5448 95.1302C48.1002 94.6121 47.8576 93.9744 47.6959 93.2969C47.6151 93.0179 47.6151 92.739 47.8172 92.4998C47.9385 92.3006 48.1406 92.181 48.3427 92.1013C48.5448 92.0615 48.747 92.0615 48.9895 92.1412C49.2321 92.2209 49.3938 92.4201 49.4342 92.6991C49.4746 93.2172 49.6768 93.6556 50.0406 94.0143C50.4449 94.373 50.8895 94.6519 51.4151 94.8113C51.981 94.9708 52.5874 95.0505 53.2342 95.0106C53.881 94.9708 54.4874 94.8113 55.0534 94.5722C55.6193 94.3331 56.1045 93.9346 56.5087 93.4962C56.9534 93.0179 57.1959 92.4201 57.2768 91.7825C57.3172 91.4637 57.2768 91.1448 57.0747 90.9057C56.8725 90.6267 56.5491 90.3876 56.2257 90.1883C55.8215 89.9492 55.3364 89.75 54.8917 89.5905C54.3661 89.3913 53.8002 89.192 53.2747 88.9529C52.7087 88.7138 52.1427 88.4348 51.6172 88.1558C51.0512 87.837 50.5661 87.4783 50.1214 87.0399C49.6363 86.5617 49.2725 86.0436 48.9895 85.4458C48.6661 84.7284 48.5448 83.9712 48.5448 83.214C48.5448 82.4568 48.747 81.7793 49.1108 81.1416C49.4746 80.5039 49.9597 79.9859 50.5257 79.5076C51.0917 79.0692 51.6981 78.7105 52.3853 78.4714C52.83 78.2721 53.4364 78.1526 54.0427 78.1526ZM55.1342 79.9859C54.9725 80.4242 54.8513 80.9025 54.8108 81.3409C54.7704 81.7394 54.7704 82.1379 54.8513 82.5365C54.8917 82.7756 55.013 83.0546 55.1747 83.2937C55.2151 83.3734 55.3364 83.493 55.4576 83.5328C55.7002 83.5727 55.9427 83.5328 56.1449 83.4133C56.347 83.2538 56.5087 83.0546 56.5896 82.8553C56.7108 82.5763 56.7513 82.2974 56.7513 81.9785C56.7513 81.6597 56.6704 81.3409 56.5491 81.0619C56.4279 80.7829 56.2257 80.5438 55.9427 80.3445C55.7002 80.1453 55.4172 80.0257 55.1342 79.9859ZM60.7938 82.8155C61.1981 82.656 61.6428 82.5365 62.0875 82.4966C62.6534 82.4169 63.2194 82.4568 63.7449 82.6162C64.2705 82.7357 64.7151 82.9749 65.079 83.3734C65.4832 83.8118 65.5641 84.3697 65.5237 84.9277C65.4428 85.4856 65.2811 86.0037 64.9577 86.4421C64.6747 86.8805 64.3109 87.2392 63.9066 87.558C63.5024 87.8768 63.0577 88.1558 62.5726 88.4348C62.1683 88.6341 61.7641 88.8333 61.3194 89.0326V92.739C61.3194 92.739 61.3194 92.739 61.3194 92.7788C61.2789 93.0179 61.1577 93.1774 60.996 93.2969C60.8343 93.4165 60.6321 93.4563 60.43 93.4563C60.2279 93.4563 60.0257 93.4165 59.864 93.2969C59.6215 93.1774 59.5406 92.9382 59.5811 92.6593C59.5811 92.6194 59.5811 92.5796 59.6215 92.5796C59.6215 92.46 59.6215 92.3404 59.6215 92.2607C59.6215 91.8223 59.6619 91.4238 59.6619 90.9854C59.6619 90.3876 59.6619 89.75 59.6619 89.1522C59.6619 88.4746 59.6619 87.7573 59.6215 87.0798C59.5811 86.4023 59.5406 85.7248 59.5002 85.0871C59.4598 84.5291 59.3789 83.9712 59.2981 83.4531C59.2981 83.4132 59.2981 83.4132 59.2981 83.3734C59.3385 83.1343 59.4194 82.8952 59.6215 82.7357C59.7832 82.6162 59.9449 82.5365 60.147 82.4966C60.3492 82.4966 60.5109 82.4966 60.6726 82.6162C60.6726 82.6959 60.713 82.7756 60.7938 82.8155ZM61.1577 84.5292C61.1577 84.7284 61.1172 84.9277 61.1172 85.127C61.1172 85.4458 61.1172 85.7646 61.1172 86.0834C61.1172 86.3624 61.1172 86.6812 61.1577 86.9602C61.1577 87.0399 61.1577 87.1196 61.1577 87.1993C61.4002 87.1595 61.6428 87.0798 61.8449 86.9602C62.1683 86.8008 62.4917 86.6015 62.7747 86.4023C63.0577 86.1631 63.2598 85.924 63.4215 85.6052C63.5832 85.3262 63.6641 85.0074 63.6641 84.6886V84.6487C63.7045 84.4893 63.7045 84.3299 63.5428 84.2502C63.3407 84.1306 63.0577 84.0908 62.8151 84.1306C62.4917 84.1306 62.1279 84.1705 61.8045 84.29C61.6023 84.3299 61.3598 84.4096 61.1577 84.5292ZM68.03 93.536C67.5449 93.536 67.1407 93.3766 66.8173 93.0179C66.4534 92.6593 66.2109 92.2607 66.0492 91.7825C65.8471 91.2644 65.7258 90.6666 65.6449 90.1086C65.5641 89.471 65.5236 88.8333 65.5641 88.1957C65.5641 87.558 65.6449 86.9204 65.7662 86.2827C65.8875 85.6849 66.0492 85.127 66.2917 84.569C66.4939 84.0908 66.7364 83.6524 67.1003 83.2937C67.4237 82.935 67.8279 82.7357 68.313 82.6959C68.8386 82.656 69.2832 82.7756 69.6875 83.0944C70.0918 83.4133 70.4152 83.8516 70.6173 84.29C70.8598 84.848 71.062 85.4059 71.1428 86.0037C71.2641 86.6414 71.3045 87.3189 71.3045 87.9565C71.3045 88.6341 71.2237 89.2717 71.1024 89.9094C70.9811 90.5072 70.8194 91.105 70.5364 91.6629C70.2939 92.1412 69.9705 92.6194 69.5258 92.9382C69.0811 93.3766 68.596 93.536 68.03 93.536ZM68.3939 84.4096C68.2322 84.4096 68.0705 84.5291 67.9896 84.6487C67.7875 84.8878 67.6662 85.1668 67.5854 85.4458C67.4641 85.8443 67.3428 86.2428 67.3024 86.6414C67.2215 87.1196 67.1811 87.5979 67.1811 88.0363C67.1811 88.5145 67.1811 88.9927 67.2215 89.4311C67.262 89.8297 67.3428 90.2681 67.4237 90.6666C67.5045 90.9456 67.5854 91.2644 67.7875 91.5035C67.8683 91.6231 67.9896 91.7426 68.1513 91.7426C68.4747 91.7825 68.7173 91.5434 68.879 91.3042C69.162 90.9057 69.3641 90.4275 69.4854 89.9492C69.6471 89.3514 69.7279 88.7138 69.7683 88.0761C69.8088 87.4385 69.7683 86.8407 69.6471 86.203C69.5662 85.7248 69.4045 85.2465 69.162 84.8081C68.9598 84.569 68.7173 84.3697 68.3939 84.4096ZM75.5088 82.656L75.9535 76.5585C75.9535 76.5186 75.9535 76.5186 75.9939 76.4787C76.0748 76.2795 76.196 76.1201 76.3982 76.0005C76.5599 75.8809 76.762 75.8411 76.9641 75.8411C77.1663 75.8411 77.3279 75.9208 77.4897 76.0802C77.6514 76.2396 77.7322 76.4787 77.7322 76.7179C77.7322 76.7179 77.7322 76.7179 77.7322 76.7577L77.4492 82.2176L81.0875 81.6198C81.128 81.6198 81.128 81.6198 81.1684 81.6198C81.3705 81.6198 81.5727 81.7394 81.6939 81.8988C81.8152 82.0184 81.8961 82.2176 81.9365 82.3771C81.9769 82.5365 81.9365 82.7357 81.8961 82.8952C81.8556 83.0546 81.7344 83.214 81.6131 83.3335C81.5727 83.3734 81.5322 83.3734 81.4918 83.4133L77.4897 84.1306C77.4492 84.569 77.4492 85.0074 77.4088 85.4856C77.3684 86.1631 77.328 86.8407 77.2875 87.5182C77.2471 88.3152 77.2471 89.0724 77.2875 89.8695C77.328 90.6666 77.3684 91.5035 77.4897 92.3006C77.5705 93.0578 77.7322 93.815 77.9343 94.5722C78.1365 95.2099 78.379 95.8874 78.7429 96.4453C79.0663 96.9634 79.4705 97.4018 79.9556 97.7207C80.4407 98.0793 81.0471 98.1989 81.6535 98.2388C82.5429 98.159 83.3918 97.9199 84.079 97.2823C84.7259 96.6845 84.9684 95.9272 85.0088 95.0505C85.0088 94.8113 85.1301 94.6121 85.3323 94.4527C85.5344 94.3331 85.7365 94.2933 85.9386 94.3331C86.1408 94.373 86.3429 94.4527 86.5046 94.5722C86.7067 94.7316 86.7876 94.9309 86.828 95.17C86.828 95.17 86.828 95.17 86.828 95.2099C86.828 95.9272 86.6663 96.6446 86.3025 97.2823C85.9386 97.8801 85.4939 98.3982 84.9684 98.7967C84.4429 99.1952 83.8769 99.5141 83.2301 99.7133C82.6642 99.9126 82.0982 100.032 81.4918 99.9923C80.4407 99.9923 79.4301 99.7532 78.5812 99.1155C77.7726 98.5177 77.2067 97.7207 76.762 96.8439C76.2769 95.8475 75.9939 94.8113 75.7918 93.7353C75.5896 92.5796 75.4684 91.4238 75.428 90.2681C75.3875 89.1522 75.3875 88.0363 75.428 86.9204C75.4684 86.1233 75.5088 85.2864 75.5492 84.4893L72.1939 85.0871C71.9918 85.127 71.8301 85.0472 71.6684 84.8878C71.5471 84.7683 71.4662 84.6089 71.4258 84.4096C71.3854 84.2103 71.3854 84.0111 71.4258 83.8118C71.5067 83.5727 71.6279 83.4132 71.8301 83.2538C71.8705 83.214 71.9109 83.214 71.9513 83.214L75.5088 82.656ZM85.9386 90.826C85.6557 90.826 85.4131 90.7064 85.211 90.5072C85.0493 90.3079 84.9684 90.1086 84.9684 89.8297C84.9684 89.5905 85.0493 89.3514 85.1705 89.192C85.3727 88.9529 85.6557 88.8732 85.9386 88.8732C86.2216 88.8732 86.4642 88.9529 86.6663 89.1522C86.828 89.3514 86.9493 89.5507 86.9897 89.7898C87.0301 90.0289 86.9493 90.2681 86.7876 90.4673C86.5854 90.7463 86.262 90.826 85.9386 90.826ZM85.211 76.2396C85.211 76.0005 85.2918 75.8012 85.4535 75.6418C85.5748 75.5223 85.7365 75.4027 85.9386 75.3628C86.1408 75.323 86.3429 75.323 86.5046 75.4027C86.7067 75.4824 86.828 75.6817 86.8684 75.9208V75.9607C86.9089 76.9171 86.9493 77.8736 86.9493 78.8301C86.9493 79.7069 86.9089 80.5837 86.9089 81.4604C86.8684 82.3372 86.828 83.214 86.7876 84.0908C86.7471 85.0472 86.7472 86.0037 86.7472 86.9602C86.7472 87.1993 86.7067 87.4783 86.5854 87.6776C86.4642 87.8768 86.3025 87.9964 86.1003 88.0363C85.8578 88.0761 85.6557 87.9964 85.4939 87.8768C85.2918 87.7174 85.1705 87.4385 85.0897 87.1993C85.0897 87.1595 85.0897 87.1595 85.0897 87.1196C85.0897 85.8443 85.1301 84.569 85.1301 83.2937C85.1301 82.1379 85.1705 80.9822 85.1705 79.8264C85.1705 78.9895 85.211 78.1526 85.211 77.2758C85.1705 76.9171 85.211 76.5585 85.211 76.2396Z" fill="#263F6F"/>
</svg>
