<svg width="100" height="100" viewBox="0 0 100 100" fill="none" xmlns="http://www.w3.org/2000/svg">
<path d="M3.05991 86.5407C3 86.5407 3 86.4811 3 86.362V79.3941C3 79.3346 3 79.275 3.05991 79.2154C3.11982 79.1559 3.17973 79.1559 3.23964 79.1559H4.19822C4.25813 79.1559 4.31804 79.1559 4.37795 79.2154C4.43786 79.275 4.43786 79.3346 4.43786 79.3941V81.8954L6.8942 79.3345C7.01402 79.2154 7.13384 79.1559 7.31358 79.1559H8.39197C8.45188 79.1559 8.51179 79.1559 8.5717 79.2154C8.63161 79.275 8.63161 79.3346 8.63161 79.3941C8.63161 79.4537 8.63161 79.5132 8.5717 79.5132L5.63607 82.7292L8.81135 86.2429C8.87126 86.3025 8.87126 86.3025 8.87126 86.362C8.87126 86.4216 8.87126 86.4811 8.81135 86.5407C8.75143 86.6002 8.69152 86.6002 8.63161 86.6002H7.49331C7.31358 86.6002 7.19375 86.5407 7.07393 86.4216L4.49777 83.5629V86.3025C4.49777 86.362 4.49777 86.4216 4.43786 86.4811C4.37795 86.5407 4.31804 86.5407 4.25813 86.5407H3.23964C3.17973 86.6598 3.11982 86.6002 3.05991 86.5407Z" fill="#2C6C67"/>
<path d="M14.2035 86.5408C14.1436 86.4812 14.1436 86.4217 14.1436 86.3621V79.3942C14.1436 79.3347 14.1436 79.2751 14.2035 79.2156C14.2634 79.156 14.3233 79.156 14.3832 79.156H17.1391C18.0378 79.156 18.6968 79.3347 19.1761 79.7516C19.6553 80.1684 19.895 80.764 19.895 81.4786C19.895 82.0146 19.7752 82.4315 19.5355 82.7889C19.2959 83.1462 18.9364 83.3844 18.4571 83.5631L20.0148 86.3026C20.0148 86.3621 20.0747 86.3621 20.0747 86.4217C20.0747 86.4812 20.0747 86.5408 20.0148 86.6004C19.9549 86.6599 19.895 86.6599 19.8351 86.6599H18.8765C18.7567 86.6599 18.6968 86.6599 18.6369 86.6004C18.577 86.5408 18.517 86.4812 18.4571 86.3621L17.0792 83.8013H15.5814V86.3621C15.5814 86.4217 15.5814 86.4812 15.5215 86.5408C15.4616 86.6004 15.4017 86.6004 15.3418 86.6004H14.3832C14.3233 86.6599 14.2634 86.6004 14.2035 86.5408ZM17.1391 82.6102C17.5585 82.6102 17.9179 82.4911 18.0977 82.3124C18.3373 82.1337 18.3972 81.836 18.3972 81.4786C18.3972 81.1213 18.2774 80.8235 18.0977 80.6449C17.858 80.4662 17.5585 80.3471 17.1391 80.3471H15.6413V82.6102H17.1391Z" fill="#2C6C67"/>
<path d="M25.1073 86.6004C25.0474 86.5408 25.0474 86.4812 25.0474 86.4217V86.3026L27.6235 79.3942C27.6834 79.2156 27.8033 79.156 27.983 79.156H29.1812C29.3609 79.156 29.4808 79.2156 29.5407 79.3942L32.1168 86.3026C32.1168 86.3026 32.1168 86.3621 32.1168 86.4217C32.1168 86.4812 32.1168 86.5408 32.0569 86.6004C31.997 86.6599 31.9371 86.6599 31.8772 86.6599H30.9186C30.7988 86.6599 30.7389 86.6599 30.679 86.6004C30.6191 86.5408 30.6191 86.5408 30.5592 86.4812L30.0799 85.171H26.9046L26.4253 86.4812C26.3654 86.6004 26.2456 86.6599 26.1258 86.6599H25.1672C25.2271 86.6599 25.1672 86.6004 25.1073 86.6004ZM29.8402 83.9204L28.642 80.6449L27.4438 83.9204H29.8402Z" fill="#2C6C67"/>
<path d="M38.4072 86.4812C37.928 86.3025 37.6284 86.0643 37.3888 85.707C37.1491 85.4092 37.0293 85.0519 37.0293 84.6946C37.0293 84.635 37.0293 84.5755 37.0892 84.5159C37.1491 84.4563 37.209 84.4563 37.2689 84.4563H38.2275C38.2874 84.4563 38.4072 84.4563 38.4072 84.5159C38.4672 84.5755 38.5271 84.5755 38.5271 84.6946C38.587 84.9328 38.7667 85.1114 39.0064 85.2901C39.246 85.4688 39.6055 85.5283 40.0847 85.5283C40.564 85.5283 40.9834 85.4688 41.223 85.2901C41.4627 85.1114 41.5825 84.8732 41.5825 84.5755C41.5825 84.3968 41.5226 84.2181 41.4028 84.099C41.283 83.9799 41.0433 83.8608 40.8037 83.7417C40.564 83.6226 40.1447 83.563 39.6654 83.3844C38.8266 83.2057 38.2275 82.9079 37.8081 82.6101C37.3888 82.2528 37.209 81.8359 37.209 81.1808C37.209 80.764 37.3289 80.4066 37.5685 80.1089C37.8081 79.8111 38.1077 79.5133 38.5271 79.3346C38.9464 79.156 39.4257 79.0369 40.0248 79.0369C40.6239 79.0369 41.1032 79.156 41.5226 79.3346C41.942 79.5133 42.3014 79.8111 42.4812 80.1089C42.7208 80.4066 42.8406 80.7044 42.8406 81.0617C42.8406 81.1213 42.8406 81.1808 42.7807 81.2404C42.7208 81.2999 42.6609 81.2999 42.601 81.2999H41.5825C41.4028 81.2999 41.3429 81.2404 41.283 81.1213C41.223 80.8831 41.1032 80.7044 40.8636 80.5257C40.6239 80.3471 40.3244 80.2875 39.9649 80.2875C39.5455 80.2875 39.246 80.3471 39.0064 80.5257C38.7667 80.7044 38.6469 80.8831 38.6469 81.1808C38.6469 81.3595 38.7068 81.5382 38.8266 81.6573C38.9464 81.7764 39.1262 81.8955 39.3658 82.0146C39.6055 82.1337 39.9649 82.2528 40.4442 82.3719C41.1032 82.491 41.5825 82.6697 41.942 82.8484C42.3014 83.027 42.601 83.2652 42.7807 83.5035C42.9605 83.8012 43.0204 84.099 43.0204 84.5159C43.0204 84.9923 42.9005 85.3497 42.6609 85.707C42.4213 86.0643 42.0618 86.3025 41.5825 86.4812C41.1032 86.6599 40.564 86.7194 39.9649 86.7194C39.4257 86.7194 38.8865 86.6599 38.4072 86.4812Z" fill="#2C6C67"/>
<path d="M48.7718 86.5408C48.7119 86.4813 48.7119 86.4217 48.7119 86.3621V79.3942C48.7119 79.3347 48.7119 79.2751 48.7718 79.2156C48.8317 79.156 48.8916 79.156 48.9516 79.156H49.97C50.03 79.156 50.0899 79.156 50.1498 79.2156C50.2097 79.2751 50.2097 79.3347 50.2097 79.3942V86.3621C50.2097 86.4217 50.2097 86.4813 50.1498 86.5408C50.0899 86.6004 50.03 86.6004 49.97 86.6004H48.9516C48.8916 86.6599 48.8317 86.6004 48.7718 86.5408Z" fill="#2C6C67"/>
<path d="M56.3207 86.5407C56.2607 86.4812 56.2607 86.4216 56.2607 86.3621V79.3942C56.2607 79.3346 56.2607 79.275 56.3207 79.2155C56.3806 79.1559 56.4405 79.1559 56.5004 79.1559H57.3391C57.399 79.1559 57.5189 79.1559 57.5189 79.2155C57.5788 79.275 57.5788 79.275 57.6387 79.3346L60.754 84.099V79.3942C60.754 79.3346 60.754 79.275 60.814 79.2155C60.8739 79.1559 60.9338 79.1559 60.9937 79.1559H61.8924C61.9523 79.1559 62.0122 79.1559 62.0721 79.2155C62.132 79.275 62.132 79.3346 62.132 79.3942V86.3621C62.132 86.4216 62.132 86.4812 62.0721 86.5407C62.0122 86.6003 61.9523 86.6003 61.8924 86.6003H61.1135C60.9937 86.6003 60.8739 86.5407 60.814 86.4216L57.6986 81.7168V86.3025C57.6986 86.3621 57.6986 86.4216 57.6387 86.4812C57.5788 86.5407 57.5189 86.5407 57.459 86.5407H56.5603C56.4405 86.6598 56.3806 86.6003 56.3207 86.5407ZM58.5973 78.4413C58.5973 78.3817 58.5973 78.3222 58.6572 78.3222L59.5558 77.2502C59.6157 77.1906 59.6757 77.1311 59.7356 77.0715C59.7955 77.0715 59.8554 77.012 59.9752 77.012H61.1135C61.2333 77.012 61.2932 77.0715 61.2932 77.1906C61.2932 77.2502 61.2932 77.3097 61.2333 77.3097L59.9153 78.3817C59.8554 78.4413 59.7955 78.4413 59.7356 78.5008C59.6757 78.5008 59.6157 78.5604 59.5558 78.5604H58.7171C58.6572 78.6199 58.5973 78.5604 58.5973 78.4413Z" fill="#2C6C67"/>
<path d="M69.2012 86.4812C68.7219 86.3025 68.4224 86.0643 68.1827 85.707C67.9431 85.4092 67.8232 85.0519 67.8232 84.6946C67.8232 84.635 67.8232 84.5755 67.8832 84.5159C67.9431 84.4563 68.003 84.4563 68.0629 84.4563H69.0215C69.0814 84.4563 69.2012 84.4563 69.2012 84.5159C69.2611 84.5755 69.321 84.5755 69.321 84.6946C69.3809 84.9328 69.5607 85.1114 69.8003 85.2901C70.0399 85.4688 70.3994 85.5283 70.8787 85.5283C71.358 85.5283 71.7774 85.4688 72.017 85.2901C72.2566 85.1114 72.3765 84.8732 72.3765 84.5755C72.3765 84.3968 72.3166 84.2181 72.1967 84.099C72.0769 83.9799 71.8373 83.8608 71.5976 83.7417C71.358 83.6226 70.9386 83.563 70.4593 83.3844C69.6206 83.2057 69.0215 82.9079 68.6021 82.6101C68.1827 82.2528 68.003 81.8359 68.003 81.1808C68.003 80.764 68.1228 80.4066 68.3624 80.1089C68.6021 79.8111 68.9016 79.5133 69.321 79.3346C69.7404 79.156 70.2197 79.0369 70.8188 79.0369C71.4179 79.0369 71.8972 79.156 72.3166 79.3346C72.7359 79.5133 73.0954 79.8111 73.2751 80.1089C73.5148 80.4066 73.6346 80.7044 73.6346 81.0617C73.6346 81.1213 73.6346 81.1808 73.5747 81.2404C73.5148 81.2999 73.4549 81.2999 73.3949 81.2999H72.3765C72.1967 81.2999 72.1368 81.2404 72.0769 81.1213C72.017 80.8831 71.8972 80.7044 71.6575 80.5257C71.4179 80.3471 71.1183 80.2875 70.7589 80.2875C70.3395 80.2875 70.0399 80.3471 69.8003 80.5257C69.5607 80.7044 69.4408 80.8831 69.4408 81.1808C69.4408 81.3595 69.5007 81.5382 69.6206 81.6573C69.7404 81.7764 69.9201 81.8955 70.1598 82.0146C70.3994 82.1337 70.7589 82.2528 71.2382 82.3719C71.8972 82.491 72.3765 82.6697 72.7359 82.8484C73.0954 83.027 73.3949 83.2652 73.5747 83.5035C73.7544 83.8012 73.8143 84.099 73.8143 84.5159C73.8143 84.9923 73.6945 85.3497 73.4549 85.707C73.2152 86.0643 72.8558 86.3025 72.3765 86.4812C71.8972 86.6599 71.358 86.7194 70.7589 86.7194C70.2197 86.7194 69.6805 86.6599 69.2012 86.4812Z" fill="#2C6C67"/>
<path d="M79.5658 86.5408C79.5059 86.4812 79.5059 86.4217 79.5059 86.3621V79.3942C79.5059 79.3347 79.5059 79.2751 79.5658 79.2156C79.6257 79.156 79.6856 79.156 79.7455 79.156H80.7041C80.764 79.156 80.8239 79.156 80.8838 79.2156C80.9437 79.2751 80.9437 79.3347 80.9437 79.3942V81.8955L83.4001 79.3347C83.5199 79.2156 83.6397 79.156 83.8194 79.156H84.8978C84.9577 79.156 85.0176 79.156 85.0776 79.2156C85.1375 79.2751 85.1375 79.3347 85.1375 79.3942C85.1375 79.4538 85.1375 79.5133 85.0776 79.5133L82.1419 82.7293L85.3172 86.243C85.3771 86.3026 85.3771 86.3026 85.3771 86.3621C85.3771 86.4217 85.3771 86.4812 85.3172 86.5408C85.2573 86.6004 85.1974 86.6003 85.1375 86.6003H84.0591C83.8793 86.6003 83.7595 86.5408 83.6397 86.4217L81.0635 83.5631V86.3026C81.0635 86.3621 81.0635 86.4217 81.0036 86.4812C80.9437 86.5408 80.8838 86.5408 80.8239 86.5408H79.8653C79.6856 86.6599 79.6257 86.6004 79.5658 86.5408Z" fill="#2C6C67"/>
<path d="M89.9901 86.6004C89.9302 86.5408 89.9302 86.4812 89.9302 86.4217V86.3026L92.5063 79.3942C92.5662 79.2156 92.6861 79.156 92.8658 79.156H94.064C94.2437 79.156 94.3636 79.2156 94.4235 79.3942L96.9996 86.3026C96.9996 86.3026 96.9996 86.3621 96.9996 86.4217C96.9996 86.4812 96.9996 86.5408 96.9397 86.6004C96.8798 86.6599 96.8199 86.6599 96.76 86.6599H95.8014C95.6816 86.6599 95.6217 86.6599 95.5618 86.6004C95.5019 86.5408 95.5019 86.5408 95.442 86.4812L94.9627 85.171H91.7874L91.3081 86.4812C91.2482 86.6004 91.1284 86.6599 91.0086 86.6599H90.05C90.1099 86.6599 90.05 86.6004 89.9901 86.6004ZM94.723 83.9204L93.5248 80.6449L92.3266 83.9204H94.723Z" fill="#2C6C67"/>
<path d="M3.05991 99.8215C3 99.8215 3 99.7619 3 99.7024V94.6998C3 94.6402 3 94.5807 3.05991 94.5807C3.11982 94.5211 3.11982 94.5211 3.17973 94.5211H3.59911C3.65902 94.5211 3.71893 94.5211 3.71893 94.5807C3.77884 94.6402 3.77884 94.6402 3.77884 94.6998V96.6055L5.93563 94.6402C5.99554 94.5807 6.11536 94.5211 6.23518 94.5211H6.65456C6.71447 94.5211 6.71447 94.5211 6.77438 94.5807C6.83429 94.6402 6.83429 94.6402 6.83429 94.6998C6.83429 94.7593 6.83429 94.7593 6.77438 94.8189L4.31804 97.082L6.95411 99.5833C6.95411 99.6428 7.01402 99.6428 7.01402 99.7024C7.01402 99.7619 7.01402 99.7619 6.95411 99.8215C6.8942 99.8811 6.8942 99.881 6.83429 99.881H6.41491C6.29509 99.881 6.17527 99.8215 6.11536 99.7619L3.83875 97.618V99.7024C3.83875 99.7619 3.83875 99.8215 3.77884 99.8215C3.71893 99.8811 3.71893 99.881 3.65902 99.881H3.17973C3.11982 99.881 3.05991 99.8811 3.05991 99.8215Z" fill="#2C6C67"/>
<path d="M11.208 99.464C10.8485 99.1067 10.6089 98.5707 10.6089 97.9156C10.6089 97.7369 10.6089 97.5583 10.6089 97.2605C10.6089 96.9627 10.6089 96.7841 10.6089 96.6054C10.6089 95.8908 10.8485 95.4143 11.208 95.057C11.6274 94.6997 12.1666 94.521 12.8256 94.521C13.4846 94.521 14.0238 94.6997 14.4432 95.057C14.8626 95.4143 15.0423 95.9503 15.0423 96.6054C15.0423 96.9032 15.0423 97.1414 15.0423 97.2605C15.0423 97.3796 15.0423 97.6178 15.0423 97.9156C15.0423 98.6303 14.8026 99.1663 14.4432 99.464C14.0837 99.8214 13.5445 100 12.8256 100C12.1067 100 11.5675 99.8214 11.208 99.464ZM13.8441 98.9876C14.0837 98.7494 14.2035 98.3921 14.2634 97.8561C14.2634 97.5583 14.2634 97.3201 14.2634 97.2605C14.2634 97.1414 14.2634 96.9627 14.2634 96.665C14.2634 96.1885 14.0837 95.7716 13.8441 95.5334C13.6044 95.2952 13.245 95.1761 12.8256 95.1761C12.4062 95.1761 12.0467 95.2952 11.8071 95.5334C11.5675 95.7716 11.3877 96.129 11.3877 96.665C11.3877 96.7841 11.3877 97.0223 11.3877 97.2605C11.3877 97.4987 11.3877 97.737 11.3877 97.8561C11.3877 98.3325 11.5675 98.7494 11.8071 98.9876C12.0467 99.2258 12.4062 99.3449 12.8256 99.3449C13.245 99.3449 13.6044 99.2258 13.8441 98.9876Z" fill="#2C6C67"/>
<path d="M20.1347 99.762C19.8351 99.6429 19.5356 99.4643 19.4158 99.226C19.236 98.9878 19.1761 98.7496 19.1162 98.5114C19.1162 98.4518 19.1162 98.4518 19.1761 98.3923C19.236 98.3327 19.236 98.3327 19.2959 98.3327H19.7153C19.8351 98.3327 19.8951 98.3923 19.8951 98.5114C19.955 98.7496 20.0748 98.9283 20.3144 99.0474C20.5541 99.226 20.8536 99.2856 21.273 99.2856C21.6924 99.2856 22.0518 99.226 22.2915 99.0474C22.5311 98.8687 22.6509 98.69 22.6509 98.3923C22.6509 98.2136 22.591 98.0945 22.4712 97.9754C22.3514 97.8563 22.1717 97.7967 21.9919 97.6776C21.7523 97.6181 21.4527 97.4989 21.0334 97.3798C20.614 97.2607 20.2545 97.1416 20.0149 97.0225C19.7752 96.9034 19.5955 96.7247 19.4757 96.5461C19.3559 96.3674 19.2959 96.1292 19.2959 95.8314C19.2959 95.5336 19.3559 95.2954 19.5356 95.1168C19.7153 94.8785 19.8951 94.6999 20.1946 94.5808C20.4942 94.4617 20.8536 94.4021 21.273 94.4021C21.6924 94.4021 22.0518 94.4617 22.3514 94.6403C22.6509 94.7594 22.8906 94.9381 23.0104 95.1763C23.1901 95.4145 23.2501 95.5932 23.2501 95.8314C23.2501 95.891 23.2501 95.891 23.1901 95.9505C23.1901 96.0101 23.1302 96.0101 23.0703 96.0101H22.6509C22.5311 96.0101 22.4712 95.9505 22.4712 95.891C22.4113 95.6527 22.2915 95.4741 22.1117 95.355C21.8721 95.2359 21.6325 95.1168 21.273 95.1168C20.9135 95.1168 20.614 95.1763 20.4342 95.2954C20.2545 95.4145 20.1347 95.6527 20.1347 95.891C20.1347 96.0696 20.1946 96.1887 20.2545 96.3078C20.3743 96.427 20.4942 96.5461 20.7338 96.6056C20.9135 96.6652 21.2131 96.7843 21.6325 96.9034C22.1117 97.0225 22.4712 97.1416 22.7109 97.2607C22.9505 97.3798 23.1901 97.5585 23.31 97.7372C23.4298 97.9158 23.4897 98.154 23.4897 98.4518C23.4897 98.9283 23.31 99.2856 22.8906 99.5834C22.5311 99.8811 21.9919 100 21.3329 100C20.8536 100 20.4942 99.8811 20.1347 99.762Z" fill="#2C6C67"/>
<path d="M27.8031 99.8214C27.7432 99.7618 27.7432 99.7618 27.7432 99.7023V94.6997C27.7432 94.6401 27.7432 94.5806 27.8031 94.5806C27.863 94.521 27.863 94.521 27.9229 94.521H28.3423C28.4022 94.521 28.522 94.5805 28.522 94.6401L30.1995 97.737L31.9369 94.6401C31.9369 94.5805 31.9968 94.5806 31.9968 94.5806C32.0567 94.5806 32.0567 94.521 32.1167 94.521H32.536C32.5959 94.521 32.6558 94.521 32.6558 94.5806C32.7158 94.6401 32.7158 94.6401 32.7158 94.6997V99.7023C32.7158 99.7618 32.7158 99.8214 32.6558 99.8214C32.5959 99.8809 32.5959 99.8809 32.536 99.8809H32.1167C32.0567 99.8809 31.9968 99.8809 31.9968 99.8214C31.9369 99.7618 31.9369 99.7618 31.9369 99.7023V95.9503L30.6189 98.4516C30.559 98.5707 30.4991 98.6303 30.3792 98.6303H30.1396C30.0198 98.6303 29.9599 98.5707 29.9 98.4516L28.522 95.9503V99.7023C28.522 99.7618 28.522 99.8214 28.4621 99.8214C28.4022 99.8809 28.4022 99.8809 28.3423 99.8809H27.9229C27.863 99.8809 27.863 99.8809 27.8031 99.8214Z" fill="#2C6C67"/>
<path d="M37.4486 99.8214C37.3887 99.7618 37.3887 99.7618 37.3887 99.7023V94.6997C37.3887 94.6401 37.3887 94.5806 37.4486 94.5806C37.5085 94.521 37.5085 94.521 37.5684 94.521H40.8635C40.9234 94.521 40.9833 94.521 40.9833 94.5806C41.0432 94.6401 41.0432 94.6401 41.0432 94.6997V94.9974C41.0432 95.057 41.0432 95.1165 40.9833 95.1165C40.9234 95.1761 40.9234 95.1761 40.8635 95.1761H38.1076V96.8436H40.6838C40.7437 96.8436 40.8036 96.8436 40.8036 96.9032C40.8635 96.9627 40.8635 96.9627 40.8635 97.0223V97.3201C40.8635 97.3796 40.8635 97.4392 40.8036 97.4392C40.7437 97.4987 40.7437 97.4987 40.6838 97.4987H38.1076V99.2258H40.9234C40.9833 99.2258 41.0432 99.2258 41.0432 99.2854C41.0432 99.3449 41.1031 99.3449 41.1031 99.4045V99.7023C41.1031 99.7618 41.1031 99.8214 41.0432 99.8214C40.9833 99.8809 40.9833 99.8809 40.9234 99.8809H37.5684C37.5085 99.8809 37.4486 99.8809 37.4486 99.8214Z" fill="#2C6C67"/>
<path d="M46.7944 99.8216C46.7345 99.7621 46.7345 99.7621 46.7345 99.7025V95.2359H45.1768C45.1169 95.2359 45.057 95.2359 45.057 95.1764C44.9971 95.1168 44.9971 95.1168 44.9971 95.0573V94.7595C44.9971 94.6999 44.9971 94.6404 45.057 94.6404C45.1169 94.5808 45.1169 94.5808 45.1768 94.5808H49.071C49.1309 94.5808 49.1908 94.5808 49.1908 94.6404C49.2507 94.6999 49.2507 94.6999 49.2507 94.7595V95.0573C49.2507 95.1168 49.2507 95.1764 49.1908 95.1764C49.1309 95.2359 49.1309 95.2359 49.071 95.2359H47.5133V99.7025C47.5133 99.7621 47.5133 99.8216 47.4534 99.8216C47.3935 99.8812 47.3935 99.8812 47.3336 99.8812H46.9142C46.8543 99.8812 46.8543 99.8812 46.7944 99.8216Z" fill="#2C6C67"/>
<path d="M53.6846 99.464C53.3251 99.1067 53.0854 98.5707 53.0854 97.9156C53.0854 97.7369 53.0854 97.5583 53.0854 97.2605C53.0854 96.9627 53.0854 96.7841 53.0854 96.6054C53.0854 95.8908 53.3251 95.4143 53.6846 95.057C54.1039 94.6997 54.6431 94.521 55.3022 94.521C55.9612 94.521 56.5004 94.6997 56.9197 95.057C57.3391 95.4143 57.5188 95.9503 57.5188 96.6054C57.5188 96.9032 57.5188 97.1414 57.5188 97.2605C57.5188 97.3796 57.5188 97.6178 57.5188 97.9156C57.5188 98.6303 57.2792 99.1663 56.9197 99.464C56.5603 99.8214 56.0211 100 55.3022 100C54.6431 100 54.1039 99.8214 53.6846 99.464ZM56.3206 98.9876C56.5603 98.7494 56.6801 98.3921 56.74 97.8561C56.74 97.5583 56.74 97.3201 56.74 97.2605C56.74 97.1414 56.74 96.9627 56.74 96.665C56.74 96.1885 56.5603 95.7716 56.3206 95.5334C56.081 95.2952 55.7215 95.1761 55.3022 95.1761C54.8828 95.1761 54.5233 95.2952 54.2837 95.5334C54.044 95.7716 53.8643 96.129 53.8643 96.665C53.8643 96.7841 53.8643 97.0223 53.8643 97.2605C53.8643 97.4987 53.8643 97.737 53.8643 97.8561C53.8643 98.3325 54.044 98.7494 54.2837 98.9876C54.5233 99.2258 54.8828 99.3449 55.3022 99.3449C55.7215 99.3449 56.081 99.2258 56.3206 98.9876Z" fill="#2C6C67"/>
<path d="M62.0716 99.8214C62.0117 99.7618 62.0117 99.7618 62.0117 99.7023V94.6997C62.0117 94.6401 62.0117 94.5806 62.0716 94.5806C62.1315 94.521 62.1315 94.521 62.1915 94.521H62.6108C62.6707 94.521 62.7306 94.521 62.7306 94.5806C62.7906 94.6401 62.7906 94.6401 62.7906 94.6997V99.2258H65.4865C65.5465 99.2258 65.6064 99.2258 65.6064 99.2854C65.6663 99.3449 65.6663 99.3449 65.6663 99.4045V99.7023C65.6663 99.7618 65.6663 99.8214 65.6064 99.8214C65.5465 99.8809 65.5465 99.8809 65.4865 99.8809H62.1915C62.1315 99.8809 62.0716 99.8809 62.0716 99.8214Z" fill="#2C6C67"/>
<path d="M70.1001 99.464C69.7406 99.1067 69.501 98.5707 69.501 97.9156C69.501 97.7369 69.501 97.5583 69.501 97.2605C69.501 96.9627 69.501 96.7841 69.501 96.6054C69.501 95.8908 69.7406 95.4143 70.1001 95.057C70.5195 94.6997 71.0587 94.521 71.7177 94.521C72.3767 94.521 72.9159 94.6997 73.3353 95.057C73.7546 95.4143 73.9344 95.9503 73.9344 96.6054C73.9344 96.9032 73.9344 97.1414 73.9344 97.2605C73.9344 97.3796 73.9344 97.6178 73.9344 97.9156C73.9344 98.6303 73.6947 99.1663 73.3353 99.464C72.9758 99.8214 72.4366 100 71.7177 100C70.9987 100 70.4595 99.8214 70.1001 99.464ZM72.7362 98.9876C72.9758 98.7494 73.0956 98.3921 73.1555 97.8561C73.1555 97.5583 73.1555 97.3201 73.1555 97.2605C73.1555 97.1414 73.1555 96.9627 73.1555 96.665C73.1555 96.1885 72.9758 95.7716 72.7362 95.5334C72.4965 95.2952 72.137 95.1761 71.7177 95.1761C71.2983 95.1761 70.9388 95.2952 70.6992 95.5334C70.4595 95.7716 70.2798 96.129 70.2798 96.665C70.2798 96.7841 70.2798 97.0223 70.2798 97.2605C70.2798 97.4987 70.2798 97.737 70.2798 97.8561C70.2798 98.3325 70.4595 98.7494 70.6992 98.9876C70.9388 99.2258 71.2983 99.3449 71.7177 99.3449C72.137 99.3449 72.4965 99.2258 72.7362 98.9876Z" fill="#2C6C67"/>
<path d="M78.7871 99.4047C78.4276 99.0474 78.188 98.5709 78.188 97.9158C78.188 97.7372 78.188 97.499 78.188 97.2012C78.188 96.8438 78.188 96.6056 78.188 96.4865C78.188 95.8314 78.4276 95.355 78.7871 94.9977C79.2065 94.6403 79.7457 94.4617 80.4047 94.4617C80.884 94.4617 81.3033 94.5212 81.6029 94.6999C81.9624 94.8785 82.202 95.0572 82.3218 95.2954C82.5016 95.5336 82.5615 95.7123 82.5615 95.9505C82.5615 96.0101 82.5615 96.0101 82.5016 96.0696C82.4417 96.0696 82.4417 96.1292 82.3817 96.1292H81.9025C81.8425 96.1292 81.7826 96.1292 81.7826 96.1292C81.7826 96.1292 81.7227 96.0696 81.7227 96.0101C81.6628 95.7719 81.4831 95.5932 81.2434 95.4145C81.0038 95.2359 80.7042 95.1763 80.3448 95.1763C79.9254 95.1763 79.5659 95.2954 79.3263 95.5336C79.0867 95.7719 78.9668 96.1292 78.9069 96.6056C78.9069 96.7247 78.9069 96.963 78.9069 97.2607C78.9069 97.5585 78.9069 97.7967 78.9069 97.9158C78.9069 98.3923 79.0867 98.7496 79.3263 98.9878C79.5659 99.226 79.9254 99.3451 80.3448 99.3451C80.8241 99.3451 81.1835 99.226 81.4232 98.9878C81.6628 98.7496 81.8426 98.3923 81.8426 97.9158V97.6181H80.6443C80.5844 97.6181 80.5245 97.6181 80.5245 97.5585C80.4646 97.499 80.4646 97.499 80.4646 97.4394V97.2012C80.4646 97.1416 80.4646 97.0821 80.5245 97.0821C80.5844 97.0225 80.5844 97.0225 80.6443 97.0225H82.4417C82.5016 97.0225 82.5615 97.0225 82.5615 97.0821C82.6214 97.1416 82.6214 97.1416 82.6214 97.2012V97.9158C82.6214 98.3327 82.5016 98.69 82.3218 98.9878C82.1421 99.2856 81.9025 99.5238 81.543 99.7025C81.1835 99.8811 80.8241 99.9407 80.3448 99.9407C79.7457 100 79.2065 99.8216 78.7871 99.4047Z" fill="#2C6C67"/>
<path d="M87.1747 99.8214C87.1147 99.7618 87.1147 99.7618 87.1147 99.7023V94.6997C87.1147 94.6401 87.1147 94.5806 87.1747 94.5806C87.2346 94.521 87.2346 94.521 87.2945 94.521H87.7139C87.7738 94.521 87.8337 94.521 87.8337 94.5806C87.8936 94.6401 87.8936 94.6401 87.8936 94.6997V99.7023C87.8936 99.7618 87.8936 99.8214 87.8337 99.8214C87.7738 99.8809 87.7738 99.8809 87.7139 99.8809H87.2945C87.2346 99.8809 87.1747 99.8809 87.1747 99.8214Z" fill="#2C6C67"/>
<path d="M92.0872 99.8812C92.0273 99.8216 92.0273 99.8216 92.0273 99.7621C92.0273 99.7025 92.0273 99.7025 92.0273 99.7025L94.0044 94.7595C94.0643 94.6404 94.1242 94.5808 94.244 94.5808H94.7832C94.9031 94.5808 95.0229 94.6404 95.0229 94.7595L96.9999 99.7025V99.7621C96.9999 99.8216 96.9999 99.8216 96.94 99.8812C96.8801 99.9407 96.8801 99.9407 96.8202 99.9407H96.4008C96.3409 99.9407 96.281 99.9407 96.281 99.8812C96.2211 99.8812 96.2211 99.8216 96.2211 99.8216L95.8017 98.7496H93.1656L92.7463 99.8216C92.7463 99.8812 92.6864 99.8812 92.6864 99.8812C92.6264 99.8812 92.6264 99.9407 92.5665 99.9407H92.1472C92.1472 99.8812 92.0872 99.8812 92.0872 99.8812ZM95.622 98.035L94.5436 95.2955L93.4652 98.035H95.622Z" fill="#2C6C67"/>
<path d="M71.4785 59.8006C69.9808 61.1108 68.3632 62.0041 66.5659 62.421C64.6487 62.5996 62.7915 60.4557 60.3951 57.7757C58.1185 55.2149 55.5423 52.2967 52.0675 50.2123C52.7864 50.3909 53.2657 50.51 53.5652 50.5696C54.5238 50.6887 55.1828 50.7482 55.722 50.7482C56.381 50.7482 56.8004 50.6887 57.3396 50.5696H57.4594C58.6576 50.3909 59.6761 49.7954 60.455 48.9021C61.4735 47.6514 61.4135 46.4603 61.2937 45.8052C61.2338 45.567 61.1739 45.3883 61.0541 45.1501C60.7545 44.6141 60.6347 44.1972 60.7545 43.8995C60.8743 43.6612 61.114 43.5421 61.2937 43.5421C61.8329 43.5421 62.3122 43.1848 62.5518 42.5893C62.8514 41.8746 62.7915 41.1599 62.3122 40.6835C62.2523 40.624 62.1924 40.5644 62.0726 40.5048C62.6118 40.2666 63.091 39.7902 63.2109 39.016C63.2708 38.6586 63.091 38.3013 62.8514 38.0035C62.7316 37.8844 62.4919 37.5867 62.1325 36.872C62.0726 36.6933 62.0126 36.5742 62.0126 36.5742C62.0726 36.5147 62.3721 36.3956 62.5518 36.336C62.7915 36.2169 63.091 36.1573 63.3307 35.9787C63.8699 35.5618 64.2294 34.9663 64.2893 34.2516C64.2893 33.5369 64.0496 32.8818 63.5104 32.4054C63.3307 32.2267 63.091 32.1076 62.9113 31.929C61.9527 31.2739 60.6347 30.321 58.8374 26.4499C58.5378 25.8544 58.7176 24.9611 58.8973 24.1273C58.9572 23.7104 59.077 23.3531 59.1369 22.9362C59.1369 22.698 59.1369 22.3406 59.1369 22.1024C58.5378 18.5291 57.3995 15.4323 55.6621 12.7523L72.2574 1.19872C72.5569 1.02006 72.6169 0.603174 72.4371 0.3054C72.2574 0.00762633 71.838 -0.0519284 71.5385 0.126736L55.063 11.6804C53.8648 10.0724 52.4868 8.70262 50.9292 7.51152C50.9891 7.21375 51.049 6.91598 50.9891 6.6182C50.8692 5.01022 49.5512 3.70002 47.9336 3.58091C46.0764 3.4618 44.5187 4.95067 44.5187 6.79686C44.5187 7.9284 45.1178 8.94083 46.0764 9.53638C46.316 9.71505 46.6755 9.65549 46.9151 9.41727C47.1548 9.1195 47.0949 8.64306 46.7953 8.4644C46.1962 8.10707 45.7768 7.39241 45.8367 6.67776C45.8967 5.66533 46.6755 4.89111 47.694 4.83156C48.7724 4.772 49.7309 5.66533 49.7309 6.79686C49.7309 7.03508 49.671 7.2733 49.6111 7.51152C49.0719 8.82173 46.5557 10.4297 43.5601 12.3355C42.7214 12.8714 41.7628 13.467 40.8642 14.1221V0.662728C40.8642 0.364955 40.6245 0.067181 40.325 0.00762632C39.9655 -0.0519284 39.606 0.245845 39.606 0.603174V14.9559C37.4492 16.4447 35.1726 18.1718 33.0158 20.1371C29.1216 23.8295 27.2644 27.8792 27.564 32.2267C27.9234 37.3484 31.2784 41.9937 33.9744 44.9714C36.4308 47.6514 38.7673 49.438 39.5461 50.0336V63.6716C39.5461 63.9694 39.7858 64.2672 40.0853 64.3267C40.4448 64.3863 40.8042 64.0885 40.8042 63.7312V23.234C41.643 22.5193 42.5416 21.8642 43.5601 21.2091L54.6436 13.467C54.8234 13.7648 55.0031 14.0625 55.1828 14.3008C56.5009 16.6234 57.3995 19.3034 57.8788 22.2811C57.8788 22.4002 57.9387 22.6384 57.8788 22.8171C57.8189 23.1149 57.759 23.4722 57.6991 23.8295C57.4594 24.8419 57.2198 25.9139 57.6991 26.9264C59.6761 31.0952 61.114 32.1672 62.1924 32.8818C62.3721 33.0009 62.5518 33.1796 62.7316 33.2987C62.9712 33.4774 63.091 33.7752 63.091 34.1325C63.091 34.4303 62.9113 34.728 62.6717 34.9067C62.5518 35.0258 62.3122 35.0854 62.1325 35.1449C61.6532 35.3236 61.114 35.5618 60.8743 36.0978C60.6946 36.4551 60.7545 36.872 60.9942 37.408C61.2937 38.0631 61.5933 38.5395 61.9527 38.8969C61.9527 38.8969 61.9527 38.9564 62.0126 38.9564C61.9527 39.4329 61.4735 39.6115 60.5149 39.7306C60.3351 39.7306 60.0955 39.8497 60.0356 40.0284C59.8559 40.3262 59.9757 40.7431 60.3351 40.8622C60.6347 41.0408 61.2937 41.3982 61.5334 41.6364C61.5933 41.6959 61.5933 41.8746 61.5933 42.0533C61.5334 42.2915 61.4735 42.4106 61.3536 42.4106C61.2937 42.4106 61.2338 42.4106 61.1739 42.4106C60.6347 42.5297 60.0356 42.8275 59.736 43.4826C59.4365 44.1377 59.5563 44.9119 60.0356 45.8648C60.0955 45.9839 60.0955 46.0434 60.1554 46.1625C60.2153 46.5794 60.2752 47.3536 59.5563 48.1874C59.0171 48.8425 58.2383 49.2594 57.3396 49.438H57.2198C56.3211 49.6167 55.722 49.6763 53.8049 49.3785C53.5652 49.3189 52.9062 49.1998 52.1274 48.9616C48.8922 48.1874 46.1363 47.5323 45.0579 47.8896C45.0579 47.8896 45.0579 47.8896 44.998 47.8896C44.998 47.8896 44.998 47.8896 44.9381 47.8896C44.9381 47.8896 44.9381 47.8896 44.8782 47.8896C44.8782 47.8896 44.8782 47.8896 44.8183 47.8896C44.8183 47.8896 44.8183 47.8896 44.7583 47.9492C44.7583 47.9492 44.7583 47.9492 44.6984 48.0087C44.6984 48.0087 44.6984 48.0087 44.6984 48.0683C44.6984 48.0683 44.6984 48.0683 44.6984 48.1278C44.6984 48.1278 44.6984 48.1278 44.6984 48.1874C44.6984 48.1874 44.6984 48.1874 44.6984 48.247C44.6984 48.247 44.6984 48.247 44.6984 48.3065C44.6984 48.3065 44.6984 48.3065 44.6984 48.3661C44.6984 48.3661 44.6984 48.3661 44.6984 48.4256C44.6984 48.4256 44.6984 48.4256 44.6984 48.4852C44.6984 48.4852 44.6984 48.4852 44.6984 48.5447C44.6984 48.5447 44.6984 48.5447 44.6984 48.6043C44.6984 48.6043 44.6984 48.6043 44.6984 48.6638C44.6984 48.6638 44.6984 48.6638 44.6984 48.7234C44.6984 48.7234 44.6984 48.7234 44.7583 48.7234C44.7583 48.7234 44.7584 48.7234 44.8183 48.7234C44.8183 48.7234 44.8183 48.7234 44.8782 48.7234C44.8782 48.7234 44.8782 48.7234 44.9381 48.7234C44.9381 48.7234 44.9381 48.7234 44.998 48.7234C44.998 48.7234 44.998 48.7234 45.0579 48.7234C51.8877 49.6763 56.0815 54.4406 59.4365 58.2521C60.9942 59.9792 62.3122 61.5277 63.6902 62.4805C63.4505 62.4805 63.2708 62.4805 63.0311 62.4805C60.455 62.3614 57.6392 61.5277 54.6436 59.9792C49.4913 57.2993 45.5971 53.3687 45.5971 53.3687C45.3575 53.1304 44.9381 53.1304 44.6984 53.3687C44.4588 53.6069 44.4588 54.0238 44.6984 54.262C44.8782 54.4406 48.7125 58.3713 54.0445 61.1108C57.2198 62.7783 60.2153 63.6121 62.9712 63.7312C63.151 63.7312 63.3307 63.7312 63.5104 63.7312C64.6487 63.7312 65.7271 63.6121 66.8055 63.3143H66.8654C68.8425 62.7783 70.6398 61.8254 72.3173 60.3961C72.5569 60.1579 72.6169 59.741 72.3772 59.5028C72.1376 59.6219 71.7182 59.6219 71.4785 59.8006ZM34.933 44.0781C32.2969 41.279 29.1815 36.9316 28.8221 32.1672C28.5225 28.177 30.2599 24.4846 33.8546 21.1496C35.7118 19.4225 37.6889 17.9336 39.606 16.5638V22.6384C35.7118 26.033 33.4951 29.9041 33.1357 34.0729C32.8361 37.6462 33.8546 41.5173 36.0713 45.3288C35.7118 44.9119 35.2924 44.5546 34.933 44.0781ZM39.606 48.0683C37.6889 45.7457 33.7947 40.3262 34.3938 34.192C34.6933 30.6188 36.4907 27.3432 39.606 24.3655V48.0683ZM42.9011 20.1371C42.1822 20.6136 41.4633 21.09 40.8642 21.626V15.6705C42.0624 14.8368 43.2007 14.1221 44.2791 13.4074C47.2147 11.5017 49.4314 10.0724 50.39 8.64306C51.7679 9.71505 52.9661 10.9061 54.0445 12.3355L42.9011 20.1371Z" fill="#2C6C67"/>
</svg>
