<svg width="100" height="100" viewBox="0 0 100 100" fill="none" xmlns="http://www.w3.org/2000/svg">
<path d="M98.862 66.2535V64.4654H92.988V73.8076H98.862V71.9994H95.2644V69.9301H98.4555V68.2224H95.2644V66.2736H98.862V66.2535ZM87.7847 64.4453V73.7875H90.0612V64.4453H87.7847ZM82.0937 64.5257L79.5937 70.9748L77.0327 64.5257H74.2481V73.7875H76.5246V67.9813L78.5774 73.7875H80.549L82.5815 67.9813V73.7875H84.8579V64.5257H82.0937ZM66.8701 66.4142C67.6221 66.4142 68.2116 66.6553 68.6587 67.1375C69.1059 67.6197 69.3295 68.2827 69.3295 69.0863C69.3295 69.8899 69.1059 70.5529 68.6587 71.0351C68.2116 71.5173 67.6221 71.7583 66.8904 71.7583C66.1384 71.7583 65.549 71.5173 65.1018 71.0351C64.6546 70.5529 64.4311 69.8899 64.4311 69.0863C64.4311 68.2626 64.6546 67.5996 65.1018 67.1174C65.5286 66.6553 66.1181 66.4142 66.8701 66.4142ZM66.8701 64.3047C65.9961 64.3047 65.1831 64.5056 64.4514 64.9275C63.7197 65.3293 63.1506 65.9119 62.7238 66.6352C62.2969 67.3585 62.0937 68.1822 62.0937 69.1064C62.0937 70.0305 62.2969 70.8543 62.7238 71.5775C63.1506 72.3008 63.7197 72.8834 64.4514 73.2852C65.1831 73.6871 65.9758 73.9081 66.8701 73.9081C67.7644 73.9081 68.5571 73.7072 69.2888 73.2852C70.0205 72.8834 70.5896 72.3008 71.0164 71.5775C71.4433 70.8543 71.6465 70.0305 71.6465 69.1064C71.6465 68.1822 71.4433 67.3786 71.0164 66.6352C70.5896 65.9119 70.0205 65.3494 69.3091 64.9275C68.5571 64.5056 67.7644 64.3047 66.8701 64.3047ZM57.175 64.4453V73.7875H59.4514V64.4453H57.175ZM54.4108 66.1731V64.4654H47.7847V66.2736H51.8294L47.7238 72.0798V73.7875H54.4311V71.9593H50.2644L54.4108 66.1731ZM40.5286 66.4142C41.2807 66.4142 41.8701 66.6553 42.3173 67.1375C42.7644 67.6197 42.988 68.2827 42.988 69.0863C42.988 69.8899 42.7644 70.5529 42.3173 71.0351C41.8701 71.5173 41.2807 71.7583 40.549 71.7583C39.7969 71.7583 39.2075 71.5173 38.7603 71.0351C38.3132 70.5529 38.0896 69.8899 38.0896 69.0863C38.0896 68.2626 38.3132 67.5996 38.7603 67.1174C39.1668 66.6553 39.7766 66.4142 40.5286 66.4142ZM40.5286 64.3047C39.6547 64.3047 38.8416 64.5056 38.1099 64.9275C37.3782 65.3293 36.8091 65.9119 36.3823 66.6352C35.9555 67.3585 35.7522 68.1822 35.7522 69.1064C35.7522 70.0305 35.9555 70.8543 36.3823 71.5775C36.8091 72.3008 37.3782 72.8834 38.1099 73.2852C38.8416 73.6871 39.6343 73.9081 40.5286 73.9081C41.4026 73.9081 42.2156 73.7072 42.9473 73.2852C43.679 72.8834 44.2481 72.3008 44.675 71.5775C45.1018 70.8543 45.3051 70.0305 45.3051 69.1064C45.3051 68.1822 45.1018 67.3786 44.675 66.6352C44.2481 65.9119 43.679 65.3494 42.9677 64.9275C42.2156 64.5056 41.4026 64.3047 40.5286 64.3047ZM29.8782 68.7046H28.7197V66.2736H29.8782C30.7929 66.2736 31.2603 66.6754 31.2603 67.4991C31.24 68.3027 30.7929 68.7046 29.8782 68.7046ZM30.1221 70.5127C30.8538 70.5127 31.4839 70.3922 32.0124 70.131C32.5205 69.8698 32.927 69.5082 33.1912 69.0662C33.4555 68.6041 33.5774 68.1018 33.5774 67.5192C33.5774 66.595 33.2929 65.8517 32.7034 65.2891C32.114 64.7467 31.2603 64.4654 30.1425 64.4654H26.4229V73.8076H28.6994V70.5328H30.1221V70.5127ZM14.2278 70.3721L15.427 66.9366L16.6059 70.3721H14.2278ZM17.7644 73.7875H20.2034L16.7481 64.5257H14.1059L10.6506 73.7875H13.049L13.6384 72.0798H17.175L17.7644 73.7875ZM8.41482 64.4453H6.13839V70.2315L2.31726 64.4453H0.0205078V73.7875H2.29693V68.0617L6.11807 73.7875H8.39449V64.4453H8.41482Z" fill="#FBBD17"/>
<path d="M36.7281 79.1114L37.4394 77.1425L38.1508 79.1114H36.7281ZM38.6386 80.3972H39.1874L37.7443 76.5799H37.1752L35.7321 80.3972H36.2809L36.6061 79.4931H38.3338L38.6386 80.3972ZM32.4191 76.5197V79.4127C32.4191 79.5735 32.3785 79.7141 32.2768 79.8346C32.1955 79.9351 32.0533 79.9954 31.85 79.9954C31.6468 79.9954 31.4842 79.9351 31.3825 79.7945C31.2809 79.6739 31.2403 79.4931 31.2403 79.2721H30.7321C30.7321 79.6538 30.8338 79.9351 31.037 80.136C31.2403 80.3369 31.5248 80.4374 31.8703 80.4374C32.1955 80.4374 32.4598 80.3369 32.6427 80.1561C32.8256 79.9753 32.9272 79.7141 32.9272 79.3926V76.4996H32.4191V76.5197ZM26.1996 76.4795C25.8338 76.4795 25.5086 76.5599 25.224 76.7206C24.9394 76.8813 24.7159 77.1224 24.5736 77.4238C24.411 77.7251 24.3297 78.0667 24.3297 78.4484C24.3297 78.8301 24.411 79.1716 24.5736 79.473C24.7362 79.7744 24.9598 79.9954 25.224 80.1762C25.5086 80.3369 25.8338 80.4173 26.1996 80.4173C26.6874 80.4173 27.0736 80.2967 27.3785 80.0757C27.6833 79.8346 27.9069 79.5333 28.0289 79.1114H27.5004C27.3988 79.3726 27.2362 79.5735 27.0126 79.7342C26.789 79.8949 26.5248 79.9552 26.1996 79.9552C25.9354 79.9552 25.7118 79.8949 25.5086 79.7744C25.3053 79.6538 25.1427 79.473 25.0207 79.252C24.8988 79.031 24.8378 78.7497 24.8378 78.4484C24.8378 78.147 24.8988 77.8657 25.0207 77.6448C25.1427 77.4238 25.3053 77.2429 25.5086 77.1224C25.7118 77.0018 25.9354 76.9416 26.1996 76.9416C26.5248 76.9416 26.789 77.0219 27.0126 77.1626C27.2362 77.3233 27.3988 77.5242 27.5004 77.7854H28.0289C27.9069 77.3836 27.7037 77.0621 27.3785 76.821C27.0736 76.5799 26.6874 76.4795 26.1996 76.4795ZM21.3419 76.5197H20.8338V79.5936L18.8012 76.5197H18.2931V80.3972H18.8012V77.3233L20.8338 80.3972H21.3419V76.5197ZM15.3459 76.9215V76.5197H13.1712V80.3972H15.3459V79.9954H13.6793V78.6493H15.163V78.2676H13.6793V76.9416H15.3459V76.9215ZM8.31343 76.4795C7.94758 76.4795 7.60205 76.5599 7.31749 76.7407C7.03294 76.9014 6.80936 77.1425 6.64676 77.4438C6.48416 77.7452 6.40286 78.0867 6.40286 78.4685C6.40286 78.8502 6.48416 79.1917 6.64676 79.4931C6.80936 79.7945 7.03294 80.0155 7.31749 80.1963C7.60205 80.357 7.94758 80.4374 8.31343 80.4374C8.65896 80.4374 8.96384 80.357 9.22806 80.2164C9.49229 80.0757 9.71587 79.8748 9.87847 79.6136C10.0411 79.3726 10.1427 79.0913 10.163 78.7698V78.3077H8.19148V78.6895H9.75652C9.73619 78.9506 9.65489 79.1917 9.53294 79.3726C9.41099 79.5735 9.24839 79.7141 9.04514 79.8146C8.84188 79.915 8.61831 79.9753 8.3744 79.9753C8.08985 79.9753 7.84595 79.915 7.62237 79.7945C7.3988 79.6739 7.23619 79.4931 7.11424 79.2721C6.99229 79.0511 6.93131 78.7698 6.93131 78.4484C6.93131 78.147 6.99229 77.8657 7.11424 77.6448C7.23619 77.4238 7.3988 77.2429 7.62237 77.1224C7.82562 77.0018 8.06953 76.9416 8.33375 76.9416C8.63863 76.9416 8.88253 77.0219 9.10611 77.1626C9.32969 77.3032 9.47197 77.5041 9.57359 77.7251H10.102C10.0004 77.3434 9.77684 77.042 9.47197 76.821C9.16709 76.5799 8.78091 76.4795 8.31343 76.4795ZM1.26058 79.1114L1.97197 77.1425L2.68335 79.1114H1.26058ZM3.17115 80.3972H3.71993L2.27684 76.5799H1.70774L0.264648 80.3972H0.813429L1.13863 79.4931H2.84595L3.17115 80.3972Z" fill="#FBBD17"/>
<path d="M55.2033 76.9216V76.5198H53.0488V80.3973H55.2033V79.9754H53.557V78.6293H55.0407V78.2476H53.557V76.9216H55.2033Z" fill="#FBBD17"/>
<path d="M95.8941 79.1114L96.6054 77.1426L97.3168 79.1114H95.8941ZM97.8046 80.3973H98.3534L96.9103 76.58H96.3412L94.8981 80.3973H95.4469L95.7721 79.4932H97.4997L97.8046 80.3973ZM91.7274 76.5197L90.9754 79.8146L90.0404 76.5197H89.4713L88.5363 79.8146L87.7843 76.5197H87.2152L88.2111 80.3973H88.8209L89.7355 77.2229L90.6502 80.3973H91.2599L92.2558 76.5197H91.7274ZM82.5404 76.9216C82.8046 76.9216 83.0485 76.9818 83.2518 77.1024C83.455 77.2229 83.638 77.4037 83.7599 77.6247C83.8819 77.8457 83.9428 78.127 83.9428 78.4284C83.9428 78.7297 83.8819 78.9909 83.7599 79.232C83.638 79.453 83.4754 79.6338 83.2518 79.7543C83.0282 79.8749 82.8046 79.9352 82.5404 79.9352C82.2762 79.9352 82.0323 79.8749 81.8087 79.7543C81.5851 79.6338 81.4225 79.453 81.3006 79.232C81.1786 78.9909 81.1176 78.7297 81.1176 78.4284C81.1176 78.127 81.1786 77.8457 81.3006 77.6247C81.4225 77.4037 81.5851 77.2229 81.8087 77.1024C82.0323 76.9818 82.2762 76.9216 82.5404 76.9216ZM82.5404 76.4595C82.1745 76.4595 81.8493 76.5398 81.5445 76.7206C81.2396 76.8814 81.016 77.1225 80.8534 77.4238C80.6908 77.7252 80.6095 78.0667 80.6095 78.4485C80.6095 78.8302 80.6908 79.1717 80.8534 79.4731C81.016 79.7744 81.2599 80.0155 81.5445 80.1763C81.8493 80.337 82.1745 80.4374 82.5404 80.4374C82.9062 80.4374 83.2315 80.3571 83.516 80.1763C83.8006 80.0155 84.0445 79.7744 84.2071 79.4731C84.3697 79.1717 84.451 78.8302 84.451 78.4485C84.451 78.0667 84.3697 77.7252 84.2071 77.4238C84.0445 77.1225 83.8209 76.8814 83.516 76.7206C83.2315 76.5398 82.9062 76.4595 82.5404 76.4595ZM75.2233 76.5197V76.9216H76.3412V80.3973H76.8493V76.9216H77.9672V76.5197H75.2233ZM72.4184 76.5197H71.9103V79.5936L69.8778 76.5197H69.3697V80.3973H69.8778V77.3234L71.9103 80.3973H72.4184V76.5197ZM66.4225 76.9216V76.5197H64.2477V80.3973H66.4225V79.9954H64.7558V78.6494H66.2396V78.2676H64.7558V76.9416H66.4225V76.9216ZM57.9062 76.5197L59.3493 80.3973H59.9794L61.4225 76.5197H60.8737L59.6542 79.8347L58.455 76.5197H57.9062Z" fill="#FBBD17"/>
<path d="M48.9843 76.3992H43.7607L46.3827 80.9999L48.9843 76.3992Z" fill="#FBBD17"/>
<path d="M66.6456 57.0718L61.1171 47.5488L55.5684 57.0718H66.6456Z" fill="#A52955"/>
<path d="M11.0976 37.9456H11.1179L16.6667 28.523L11.0976 19L5.54878 28.6837L0 37.9857L5.54878 47.4887L11.0976 37.9456Z" fill="#FBBD17"/>
<path d="M33.3336 57.072H22.2157H11.1182L16.6669 47.549L22.2157 38.0059L27.7848 47.5891L33.3336 57.072Z" fill="#FBBD17"/>
<path d="M55.5688 38.0459L50.02 47.5488H49.9997L44.4509 57.0718H33.333L38.8818 47.5488H38.9021L44.4509 38.0459H55.5688Z" fill="#A52955"/>
<path d="M11.0977 19L16.6668 28.523L22.2155 19H11.0977Z" fill="#A52955"/>
<path d="M33.3337 38.0058L44.4719 19H22.2158L33.3337 38.0058Z" fill="#A52955"/>
<path d="M72.2363 28.5029L66.6875 38.046H77.8054L72.2363 28.5029Z" fill="#24B59A"/>
<path d="M88.923 57.0718L83.3539 47.589L72.236 47.5689L61.1182 47.5488L66.6466 57.0718H88.923Z" fill="#24B59A"/>
<path d="M94.4917 28.6436L88.9429 38.0661L83.3535 47.5891L88.9226 57.0719L94.4104 47.5891L99.9999 38.1063L94.4917 28.6436Z" fill="#FBBD17"/>
<path d="M55.6097 19L44.4512 38.046H55.569L66.7073 19H55.6097Z" fill="#24B59A"/>
<path d="M88.8817 19H77.7842L88.963 38.046L94.4915 28.6436L88.8817 19Z" fill="#24B59A"/>
</svg>
