<svg width="100" height="100" viewBox="0 0 100 100" fill="none" xmlns="http://www.w3.org/2000/svg">
<path d="M25.3175 46.3869C25.0378 46.8029 24.7261 47.1961 24.3853 47.5631H23.5278C22.5024 46.3307 21.519 45.0607 20.5636 43.7673C20.7304 43.592 20.8773 43.3987 21.0017 43.1909C21.1614 42.8635 21.2669 42.5121 21.314 42.1506C22.5748 43.6312 23.9111 45.0453 25.3175 46.3869ZM18.5176 44.6108H18.4849C19.2633 45.6465 20.0556 46.6681 20.8712 47.6709L22.6423 47.61C21.7567 46.4853 20.9085 45.3325 20.0835 44.1656C19.6179 44.469 19.0722 44.6241 18.5176 44.6108ZM10.5664 43.6736C11.7751 45.1794 13.0381 46.629 14.3556 48.0224L15.6839 47.9427C13.7256 45.8261 11.9189 43.5726 10.2775 41.1993C10.3077 42.0258 10.4044 42.8486 10.5664 43.6595V43.6736ZM15.9355 43.0269C15.7917 42.6333 15.7145 42.2183 15.7072 41.7991C13.9889 39.1748 12.3919 36.4693 10.916 33.6826C10.6923 33.2561 10.4499 32.8203 10.2495 32.3892V39.9715C10.2495 40.0839 10.2495 40.2011 10.2495 40.3136C12.1522 43.0055 14.2722 45.5352 16.588 47.8771C17.6973 47.8115 18.8065 47.76 19.9158 47.7131C19.0986 46.6478 18.3032 45.5668 17.5295 44.4702C17.1761 44.3551 16.8511 44.1656 16.5763 43.9143C16.3014 43.663 16.083 43.3557 15.9355 43.0128V43.0269ZM25.6531 47.521H26.5339C26.2356 47.2585 25.942 46.9867 25.6531 46.7196V47.521ZM13.265 48.0833H13.3908C12.6358 47.2398 11.9087 46.3682 11.1956 45.4872C11.7023 46.4853 12.4065 47.3687 13.265 48.0833ZM39.8308 47.6147L42.2171 47.699C41.4015 46.8274 40.6092 45.937 39.8308 45.0326V47.6147ZM39.8308 44.1328C40.9214 45.3825 42.0431 46.5853 43.1958 47.7412C44.2678 47.7881 45.3367 47.8396 46.4024 47.8959C44.0767 45.3789 41.8832 42.7417 39.8308 39.9949V44.1328ZM21.4212 38.1157V40.2105C21.4212 40.5947 21.4212 40.9509 21.3885 41.2695C23.3735 43.5105 25.532 45.5899 27.8436 47.4882C28.51 47.4882 29.1812 47.4882 29.8477 47.4882C26.6629 44.7277 23.8323 41.5793 21.4212 38.1157ZM36.6709 41.143C35.3752 39.4591 34.1417 37.7143 32.9703 35.9085C31.1048 33.0451 29.4145 30.0701 27.9088 27H21.3839V28.7245C22.602 31.3071 24.0463 33.7755 25.6997 36.1006C28.8411 40.5267 32.7031 44.3877 37.123 47.521L39.5559 47.5819L35.9765 41.5835C36.2188 41.457 36.4472 41.3024 36.6709 41.143ZM25.4154 36.3022C23.8862 34.0455 22.55 31.6627 21.4212 29.1791V37.3425C24.1367 41.1375 27.3668 44.5319 31.0175 47.4272V43.772L33.2127 47.4975C34.0982 47.4975 34.9837 47.4975 35.8693 47.5303C31.8196 44.3631 28.2916 40.5739 25.4154 36.3022ZM78.3933 45.4825V41.9537C77.8573 40.6416 77.3773 39.3013 76.9531 37.9423L76.3333 35.8054L75.8299 33.6263C75.541 32.1689 75.2706 30.6974 75.1262 29.2119C75.1262 29.1463 75.1262 29.0854 75.1262 29.0198L73.0102 27.0094V32.8765C73.4825 34.1949 73.9765 35.5024 74.4923 36.7989C75.6699 39.7512 76.9702 42.6457 78.3933 45.4825ZM66.3501 37.3987L66.3221 37.3378C65.4242 34.9197 64.6194 32.4688 63.9079 29.9851L62.3978 27L61.9737 27.867C63.1218 31.0531 64.5245 34.1404 66.1683 37.0988C66.2336 37.2113 66.2895 37.3003 66.3501 37.3987ZM67.6551 39.6013C68.9591 41.6965 70.3814 43.7148 71.9149 45.6465L64.4113 30.9505C65.0917 33.0655 65.8421 35.1525 66.6624 37.2113C66.9793 38.022 67.3149 38.814 67.6551 39.6013ZM76.6362 35.7304L77.312 37.8486C77.6476 38.8515 78.0142 39.8418 78.4119 40.8197V39.3107L82.793 43.4346C81.8981 41.4195 81.0794 39.3732 80.3368 37.2956C79.7682 35.7164 79.2602 34.1184 78.7988 32.5063L75.3219 29.226C75.499 30.6974 75.788 32.1548 76.1142 33.5982L76.6362 35.7304ZM53.5752 40.2667C53.2622 39.4132 52.805 38.6205 52.2236 37.9236C53.0268 36.7452 53.4751 35.359 53.5146 33.9309C53.5372 33.0214 53.3697 32.1172 53.0229 31.2768C52.6761 30.4365 52.1577 29.6787 51.5012 29.0526C50.8662 28.4031 50.1056 27.8914 49.2663 27.5489C48.4271 27.2063 47.527 27.0403 46.6214 27.0609H46.0295C47.0647 29.544 48.2604 31.9563 49.6089 34.2824C50.8182 36.3505 52.1424 38.3484 53.5752 40.2667ZM42.3895 38.0314C41.4366 36.4321 40.5776 34.7782 39.8169 33.078V34.0153C39.6278 32.2488 38.8278 30.6052 37.5564 29.3712C36.8401 28.6373 35.9869 28.0525 35.0457 27.6505C34.1044 27.2484 33.0935 27.0369 32.0708 27.0281H31.8518C33.2624 29.5556 34.7833 32.0127 36.4146 34.3995C37.2954 35.6976 38.2136 36.9676 39.155 38.2188C39.5059 37.4553 39.7265 36.6379 39.8075 35.8007V39.0811C42.1879 42.188 44.7512 45.1488 47.4837 47.9474L48.0569 47.9802C48.8213 48.0271 49.581 48.0833 50.3453 48.1349C47.2595 45.1343 44.5813 41.7371 42.3802 38.0314H42.3895ZM15.6559 36.3584V34.4839C14.1806 32.0911 12.8785 29.5948 11.7596 27.0141H10.9719C12.0881 29.6599 13.3436 32.2441 14.7331 34.7557C15.0314 35.2899 15.339 35.8242 15.6559 36.3584ZM15.6559 40.6369C15.6559 40.4401 15.6559 40.2292 15.6559 40.009V37.1597C15.2318 36.4099 14.8123 35.6555 14.4115 34.8963C13.067 32.3301 11.8582 29.6943 10.7902 27H10.2495V31.5878C10.5897 32.2298 10.93 32.8718 11.2842 33.5092C12.642 35.946 14.1008 38.3219 15.6606 40.6369H15.6559ZM15.6559 27.3374C15.6093 27.2249 15.5673 27.1125 15.5254 27H12.0159C13.0852 29.2963 14.301 31.5206 15.6559 33.6591V27.3374ZM37.0624 40.8525C37.8 40.2722 38.4215 39.5567 38.894 38.7437C37.9215 37.394 36.9785 36.0225 36.065 34.6292C34.4617 32.158 32.9703 29.6149 31.5908 27H28.0813C29.6358 30.0109 31.3697 32.9248 33.2733 35.7257C34.4726 37.4846 35.7357 39.1936 37.0624 40.8525ZM53.8408 44.2594C53.9334 43.7444 53.9802 43.2222 53.9807 42.6988C53.9818 42.3538 53.9569 42.0091 53.9061 41.6679C52.1942 39.3679 50.6371 36.9553 49.2454 34.4464C47.925 32.056 46.762 29.581 45.7639 27.0375H43.62C44.7053 30.0223 46.0513 32.9046 47.6421 35.6508C49.4292 38.7123 51.5117 41.5894 53.8595 44.2406L53.8408 44.2594ZM85.4356 52.568L86.0694 52.6852L83.7391 50.492C84.303 51.2043 84.867 51.8979 85.4542 52.568H85.4356ZM84.303 37.9939L84.2005 37.6424L83.2264 36.7427C83.4827 37.7315 83.7764 38.7062 84.098 39.6715C84.9838 42.3323 86.0859 44.9154 87.3931 47.3944C87.5375 47.6662 87.682 47.9334 87.8312 48.2005L89.5183 49.7938C89.0523 49.0299 88.6281 48.2567 88.2133 47.4507C86.6245 44.4255 85.3155 41.26 84.303 37.9939ZM82.8629 36.3678L79.2415 32.9281C79.7076 34.3339 80.1737 35.7773 80.7236 37.1738C81.6744 39.6731 82.737 42.1099 83.9115 44.4843L86.6334 47.0852C85.4854 44.7193 84.5178 42.2692 83.7391 39.7559C83.4035 38.6406 83.1052 37.5112 82.8442 36.3678H82.8629ZM78.4119 49.9812V46.9305C76.8211 43.6689 75.3856 40.3339 74.1055 36.9254C73.7233 35.9038 73.3598 34.8729 73.0102 33.8419V40.0746C73.7901 41.9678 74.6461 43.822 75.5782 45.6371C76.2913 47.043 77.2048 48.6269 78.0344 49.9812L78.1043 50.089L78.2022 50.253C78.4539 50.6514 78.7056 51.0544 78.9666 51.448L80.9101 51.762C80.5838 51.1715 80.2669 50.5764 79.9546 49.9812H78.4119ZM80.7935 49.9812C81.1617 50.6373 81.5299 51.2887 81.9121 51.9354L84.4149 52.3759C83.795 51.6027 83.2124 50.8013 82.6578 49.9812H80.7935ZM89.5509 34.437C89.5882 35.2337 89.6535 36.0304 89.742 36.8223V29.3244C89.5287 31.0196 89.4586 32.7299 89.5323 34.437H89.5509ZM94.5565 49.9812V51.0216C95.4227 52.4364 96.4082 53.7738 97.5021 55.0189L99.0541 55.361L99.9862 55.5438V54.8783C98.911 53.3019 97.923 51.667 97.0267 49.9812H94.5565ZM99.7439 50.731C99.646 50.4827 99.5528 50.2296 99.4596 49.9812H97.7351C98.4296 51.2043 99.1706 52.3993 99.9582 53.5521V51.2699C99.9023 51.0825 99.8324 50.9044 99.7625 50.731H99.7439ZM84.303 36.7427L84.6572 37.8861C85.7304 41.1081 87.0971 44.2236 88.74 47.1929C89.0507 47.7553 89.3723 48.3083 89.7048 48.8519V38.7859C89.4942 37.3435 89.3697 35.8897 89.3319 34.4323C89.2883 32.5831 89.4131 30.7337 89.7048 28.9073V27H84.303V36.7427ZM94.5565 54.3675L96.4208 54.7612C95.7495 53.9201 95.1271 53.0407 94.5565 52.1275V54.3675ZM75.0702 45.8527C74.3245 44.3156 73.6316 42.7535 72.9916 41.1665V46.9774C73.7885 47.9146 74.6135 48.8519 75.4571 49.7376L75.6248 49.9156L75.6808 49.9719C76.035 50.3421 76.4871 50.806 76.79 51.1059L78.0577 51.3074C77.834 50.9419 77.4751 50.3327 77.2141 49.9016C76.4529 48.5738 75.7383 47.2242 75.0702 45.8527ZM54.978 42.0756C56.1556 43.5408 57.3985 44.9467 58.7066 46.2932L59.6807 44.3015C58.5277 42.5602 57.4848 40.7478 56.558 38.8749L54.978 42.0756ZM59.1727 33.5045L58.2405 35.4399L58.2685 35.5008C59.1666 37.4051 60.1671 39.2589 61.2653 41.054L62.0343 39.4841C61.8758 39.1982 61.7174 38.9077 61.5682 38.6171C60.6868 36.9563 59.8933 35.2497 59.1913 33.5045H59.1727ZM53.8688 44.2828C55.0879 45.6645 56.3792 46.98 57.7372 48.2239L58.3524 46.968C57.066 45.5949 55.8356 44.1563 54.6751 42.666L53.8688 44.2828ZM47.3252 35.8054C45.7736 33.0034 44.4743 30.0675 43.4429 27.0328H40.9261C42.2513 30.5701 43.93 33.9631 45.9363 37.1597C48.5782 41.3531 51.7629 45.1747 55.4068 48.5238L57.2711 48.6878C53.3304 44.921 49.9774 40.578 47.3252 35.8054ZM56.7724 38.4391C57.7204 40.2746 58.7804 42.0494 59.9463 43.7532L60.9996 41.6398C59.9072 39.7866 58.9161 37.8749 58.0308 35.9132L56.7724 38.4391ZM68.0373 49.8641L68.8622 49.9766H69.5427C68.1598 48.4632 66.8636 46.872 65.6603 45.2107L68.0373 49.8641ZM69.0906 42.7832C70.2154 45.1544 71.4318 47.471 72.7399 49.7329C72.8517 49.9297 73.1081 50.3749 73.206 50.5717L74.5808 50.7685L75.4804 50.9044C75.2473 50.6561 74.8558 50.2249 74.5482 49.9063C72.5643 47.6642 70.7405 45.2839 69.0906 42.7832ZM40.7863 27.0094H39.8075V32.5532C40.6564 34.3826 41.62 36.156 42.6925 37.8627C45.1083 41.7082 48.0518 45.1916 51.4359 48.2098C52.3681 48.2755 53.3002 48.3504 54.2323 48.4254C50.909 45.1032 48.011 41.377 45.6054 37.3331C43.6544 34.0654 42.0397 30.6063 40.7863 27.0094ZM67.4314 40.1308C66.8674 39.1936 66.3268 38.2282 65.8095 37.2581C64.2513 34.3064 62.9282 31.2351 61.8525 28.0731L59.3218 33.228C60.0815 35.0143 60.9357 36.7585 61.8805 38.4531C61.997 38.6593 62.1135 38.8655 62.2347 39.067L62.3885 38.753L64.0151 41.9537C65.849 44.7304 67.9334 47.3313 70.2418 49.7235L70.7078 50.1921L72.3577 50.4217C72.2971 50.3093 72.2365 50.2015 72.1806 50.089C70.4201 46.8646 68.8347 43.5465 67.4314 40.1495V40.1308Z" fill="url(#paint0_linear)"/>
<path d="M97.9493 57.3901C96.7966 58.0493 95.6718 58.746 94.575 59.4802V56.9684L94.9898 56.7903L97.9493 57.3901ZM78.8405 55.4219C79.4371 55.0142 80.0383 54.6112 80.6489 54.2223L78.7333 53.9176C78.0575 54.3863 77.3911 54.9111 76.7246 55.4219H78.8405ZM83.2262 58.4024C84.5219 57.3495 85.844 56.3217 87.1925 55.3188L85.1278 54.958C84.4846 55.2532 83.8508 55.5672 83.2262 55.8952V58.4024ZM29.7123 49.9672L27.6616 54.1379C28.5937 53.26 29.5601 52.4227 30.5606 51.6261L29.7123 49.9672ZM48.136 50.5483C47.3064 50.492 46.4721 50.4452 45.6425 50.3983C43.2905 51.4278 41.0136 52.6226 38.8286 53.9739V57.7229C42.1797 55.235 45.7709 53.092 49.5482 51.3262C49.114 51.0192 48.6465 50.7629 48.1546 50.5623L48.136 50.5483ZM52.6615 55.3469C52.6615 55.286 52.6195 55.2251 52.6009 55.1642C50.6006 56.4911 48.6902 57.9502 46.8822 59.5317C48.7745 58.0853 50.7071 56.695 52.6801 55.361L52.6615 55.3469ZM10.24 65.8535H13.591C14.3612 64.0701 15.2278 62.3305 16.187 60.6424H10.24V65.8535ZM66.9511 52.2915L65.9864 52.1791C65.0542 52.8023 64.1221 53.4443 63.2226 54.1098C64.4437 53.4631 65.6834 52.8539 66.9511 52.2915ZM43.6105 62.2029L43.8994 61.9639C44.6358 61.1813 45.3955 60.4221 46.1831 59.6958C48.1364 57.8768 50.2208 56.2055 52.4191 54.6956C52.1161 54.0354 51.724 53.4204 51.254 52.8679C47.3173 55.1982 43.5526 57.8105 39.9891 60.6846C39.6023 60.9892 39.2248 61.3031 38.8472 61.6218V66.4486L39.4485 65.8769C40.814 64.6257 42.1843 63.3838 43.6105 62.2029ZM39.1642 50.1124L38.8472 50.2905V53.4209C40.6086 52.2887 42.4323 51.2577 44.3096 50.3327C42.5944 50.2483 40.8793 50.1749 39.1642 50.1124ZM98.97 57.6104C97.4661 58.4039 95.9949 59.2584 94.5563 60.1738V60.7502L94.1928 60.4081C92.72 61.3734 91.2923 62.4013 89.9096 63.4916L92.2726 65.7176C94.7303 63.3682 97.2921 61.1313 99.9581 59.0069V57.8306L98.97 57.6104ZM93.6801 67.0344C95.6859 65.0955 97.7874 63.2593 99.9767 61.5328V59.9582C97.4599 61.9014 95.0317 63.9477 92.6921 66.0971L93.6801 67.0344ZM82.8301 55.4219C83.2309 55.2017 83.641 54.9814 84.0512 54.7705L82.336 54.4847L81.8373 54.405C81.2734 54.7377 80.7188 55.0751 80.1735 55.4219H82.8301ZM81.3946 63.5853L80.6302 64.3117H81.3946V63.5853ZM31.8702 54.166L30.8309 52.1322C29.5302 53.1107 28.2854 54.1621 27.1023 55.2813L22.8751 63.9227C23.9707 62.3419 25.1597 60.8286 26.4358 59.3912C28.1117 57.5123 29.9285 55.7654 31.8702 54.166ZM81.3946 60.8064C80.015 61.9467 78.665 63.1151 77.3445 64.3117H80.0197C80.4857 63.8431 80.9518 63.4026 81.3946 62.9574V60.8064ZM83.2588 61.2141C85.2598 59.374 87.34 57.6213 89.4995 55.9562L89.2432 55.7078L88.311 55.5438C86.5835 56.7591 84.8885 58.0243 83.2262 59.3396L83.2588 61.2141ZM83.2588 62.9246C85.7996 60.9493 88.5051 59.198 91.3451 57.6901L90.0028 56.4248C87.6694 58.1587 85.4167 59.9894 83.2449 61.917L83.2588 62.9246ZM54.4745 51.0309C53.9805 51.298 53.4864 51.5745 52.9971 51.851V54.2972C54.6066 53.2216 56.2729 52.2345 57.9886 51.3402C56.8281 51.2324 55.6536 51.1293 54.4745 51.0309ZM71.719 52.9054C71.2529 53.1772 70.7869 53.4631 70.3208 53.7489V55.4266C71.3648 54.644 72.4228 53.8848 73.5041 53.1491L71.719 52.9054ZM56.9586 58.6414C55.6008 59.5786 54.2834 60.5565 53.0064 61.5749V62.6575C53.4398 62.1888 53.8779 61.7202 54.3253 61.2516C55.1783 60.3565 56.0591 59.4896 56.9586 58.6414ZM54.5724 61.5093C54.0411 62.0404 53.5191 62.5778 53.0064 63.1214V70.207C55.0434 67.0452 57.385 64.0927 59.9974 61.3922C62.6697 58.6456 65.6046 56.1702 68.7595 54.002C68.5699 53.7833 68.3695 53.5677 68.1582 53.3553C67.9858 53.1819 67.8134 53.0179 67.6316 52.8586C64.8418 54.0186 62.1433 55.3893 59.5593 56.959C57.8317 58.4024 56.1694 59.9191 54.5724 61.5093ZM16.9514 58.3602L18.1492 57.4698C18.8436 56.4248 19.58 55.4032 20.349 54.4097C19.4796 53.3417 18.4496 52.4167 17.2963 51.6683C16.1124 52.9648 14.9721 54.3035 13.8753 55.6844C15.1179 56.2871 16.1794 57.2105 16.9514 58.3602ZM13.2555 55.4454C14.3243 54.0207 15.4475 52.6289 16.6251 51.2699C16.4247 51.1621 16.2243 51.0591 16.0192 50.9653C14.7764 52.3524 13.5988 53.7802 12.4864 55.2485C12.7467 55.2975 13.0036 55.3633 13.2555 55.4454ZM21.0574 55.3095C20.9269 55.1267 20.7918 54.9533 20.6566 54.7846C20.1346 55.4094 19.6282 56.0608 19.1372 56.7388L21.0574 55.3095ZM18.1725 60.6424H16.49C15.464 62.322 14.5305 64.0569 13.6936 65.8394H15.185C16.0954 64.0743 17.0912 62.3419 18.1725 60.6424ZM53.0064 54.9018V55.122C54.4046 54.1848 55.823 53.2788 57.2616 52.404C55.8028 53.1866 54.3859 54.0254 53.0064 54.9205V54.9018ZM50.8345 52.3806L50.7413 52.2868C50.5866 52.122 50.4232 51.9655 50.2519 51.8182C46.2337 53.5681 42.4108 55.7405 38.8472 58.2993V61.1719C39.1502 60.9095 39.4578 60.6518 39.7794 60.3987C43.2713 57.4722 46.9656 54.7991 50.8345 52.3993V52.3806ZM42.1843 72.939H44.221V70.3147C43.7969 70.8396 43.3774 71.3645 42.9719 71.8987C42.697 72.2595 42.4406 72.6063 42.1843 72.9578V72.939ZM49.3105 64.785C47.9651 66.069 46.6803 67.4155 45.4561 68.8245L46.5979 70.7646C47.6948 69.1526 48.8537 67.5905 50.0748 66.0784L49.3105 64.785ZM50.196 63.4026C50.8174 62.8308 51.4388 62.2716 52.0603 61.7249C52.5551 60.87 52.8722 59.923 52.9924 58.9413V60.9376C55.1699 59.1357 57.4684 57.4869 59.8716 56.003C61.5059 54.6159 63.2024 53.2975 64.961 52.0478C63.4075 51.8698 61.843 51.7011 60.2677 51.5417C57.7882 52.8961 55.36 54.3535 52.9924 55.8905V56.7388C52.9598 56.481 52.9085 56.228 52.8526 55.9796C49.7415 58.0103 46.7361 60.2 43.8481 62.5403L43.424 62.8871C42.1583 64.2303 40.962 65.638 39.84 67.1047C38.4167 68.9686 37.1182 70.9255 35.953 72.9625H41.9466C42.2216 72.5688 42.4966 72.1799 42.7809 71.7909C43.2438 71.1661 43.7099 70.5412 44.1791 69.9164V66.7345L45.279 68.609C46.8078 66.7775 48.4501 65.0448 50.196 63.4213V63.4026ZM75.6666 57.7369V56.2608C72.1507 59.033 68.8261 62.0422 65.716 65.2677C63.3602 67.7102 61.1354 70.2772 59.0513 72.9578H60.0673C60.5578 72.9562 61.0479 72.928 61.5354 72.8734C63.668 69.699 66.0745 66.7196 68.7269 63.9696C70.8953 61.7404 73.214 59.6641 75.6666 57.7557V57.7369ZM42.0398 64.0211C41.2382 64.7053 40.4427 65.3958 39.6535 66.0925C39.3832 66.3361 39.1129 66.5611 38.8472 66.8282V67.8076L38.507 67.1422C37.5329 68.0372 36.5682 68.9417 35.636 69.8789C35.2414 70.2632 34.8546 70.6521 34.4755 71.0458L35.4403 72.9203H35.9064C37.038 70.8443 38.3087 68.8481 39.7095 66.9453C40.4552 65.98 41.2288 64.9959 42.0398 64.0399V64.0211ZM75.6666 55.4875V55.436H75.7318C76.417 54.8783 77.1301 54.3254 77.8105 53.7864L74.7065 53.3178C69.425 56.6685 64.5294 60.5977 60.1093 65.0334C57.6111 67.5351 55.2759 70.1961 53.1182 73H58.8276C60.8946 70.2294 63.1053 67.5702 65.4504 65.0334C68.6315 61.617 72.0451 58.4273 75.6666 55.4875ZM69.9713 55.689C69.7269 55.272 69.456 54.8713 69.1603 54.4894C65.9636 56.5783 62.9803 58.9799 60.2537 61.6593C57.5535 64.3251 55.1256 67.2561 53.0064 70.4085V71.0083L52.82 70.6896C52.3213 71.4348 51.8459 72.1892 51.3845 72.9578H52.8899C55.0214 70.0587 57.3363 67.3006 59.8203 64.7006C62.9608 61.4265 66.3552 58.4084 69.9713 55.675V55.689ZM50.196 66.3033C48.9531 67.7842 47.7724 69.3135 46.6539 70.8911L47.8796 72.9718H51.3425C51.7962 72.1689 52.27 71.3879 52.764 70.6287L50.196 66.3033ZM38.3718 66.9079L36.6427 63.5244L36.3072 63.8149C35.114 64.8928 33.9302 65.98 32.7977 67.1187C32.7184 67.189 32.6485 67.264 32.574 67.339L34.3916 70.9099C34.7505 70.5209 35.1187 70.1414 35.4915 69.7618C36.4283 68.773 37.3931 67.8264 38.3718 66.8938V66.9079ZM6.11995 65.0334C5.23132 66.6704 4.40172 68.334 3.63115 70.0242C3.77408 70.1585 3.92944 70.2897 4.09722 70.4178C4.87711 68.7995 5.70671 67.2031 6.58602 65.6285C6.41853 65.4417 6.26286 65.2445 6.11995 65.0381V65.0334ZM11.0416 50.4124L9.99298 50.478C6.74254 53.5989 3.7701 57.0001 1.10972 60.6424C0.741531 61.1485 0.377998 61.664 0.0191258 62.1795C0.0381269 62.6174 0.0816961 63.0539 0.149625 63.4869C0.275463 63.2995 0.401302 63.112 0.531801 62.9293C3.64242 58.439 7.16079 54.2488 11.0416 50.4124ZM5.13655 61.4484C5.12334 60.6187 5.27607 59.7947 5.58566 59.0254C5.89525 58.2562 6.35539 57.5573 6.93878 56.9703C7.52216 56.3832 8.21689 55.92 8.98174 55.6082C9.74658 55.2963 10.5659 55.1422 11.3912 55.1548C11.5683 55.1548 11.7407 55.1548 11.9132 55.1548C13.0178 53.6271 14.1829 52.1322 15.3994 50.6842C14.9195 50.5084 14.4272 50.369 13.9266 50.2671L12.2627 50.3327C8.05877 54.2245 4.24512 58.5221 0.876691 63.1636L0.261481 64.0165C0.676026 66.1646 1.72723 68.1364 3.27694 69.6727L3.57988 69.9633C4.32249 68.22 5.13034 66.5017 6.00344 64.8084C5.41666 63.7882 5.11699 62.6268 5.13655 61.4484ZM8.98627 50.5436L7.35969 50.6654C5.18134 51.4856 3.3067 52.9599 1.99018 54.888C0.673656 56.8162 -0.0209976 59.105 0.000483579 61.4437V61.6077C0.275464 61.2 0.545782 60.7923 0.825423 60.3893C3.27191 56.8874 6.00145 53.5943 8.98627 50.5436ZM33.6413 57.6385C29.7681 60.724 26.3352 64.3302 23.439 68.3559C26.2699 64.2315 29.6563 60.5221 33.5014 57.3339L32.1498 54.7143C26.0108 59.5389 21.1413 65.8028 17.9674 72.9578H24.2407L29.731 61.7436L31.1292 64.5038C32.4155 63.1636 33.764 61.8827 35.1746 60.6611L33.6413 57.6385ZM12.8966 67.6436C12.6822 68.1544 12.4725 68.6699 12.2674 69.1854C12.4538 68.6746 12.6449 68.1638 12.8407 67.6577C12.3624 67.7443 11.8772 67.7866 11.3912 67.7842C10.5617 67.8123 9.73523 67.6687 8.96316 67.3624C8.1911 67.0561 7.48986 66.5935 6.90295 66.0034L6.80507 65.905C5.90712 67.4296 5.05266 68.9807 4.2417 70.5584C6.27366 72.1721 8.80267 73.0208 11.3912 72.9578H12.0903C12.8206 70.9511 13.6529 68.9834 14.5837 67.0625C14.0538 67.3408 13.4849 67.5368 12.8966 67.6436ZM36.1301 63.5947L36.5076 63.2526L35.3657 60.9892C33.9458 62.1701 32.5786 63.4197 31.2643 64.7381L32.5041 67.175L32.6858 66.9828C33.7904 65.7972 34.9556 64.7006 36.1301 63.5947ZM22.7446 60.6752H22.3671C20.4166 63.3171 18.7775 66.1777 17.4827 69.1994C18.6847 66.1913 20.225 63.3313 22.0735 60.6752H18.6572C17.5011 62.3483 16.4309 64.0798 15.4506 65.8628H16.1078C15.755 66.2661 15.3451 66.6151 14.8914 66.8985C13.8521 68.8777 12.9186 70.9113 12.0949 72.9906H17.9441C19.1768 70.036 20.6957 67.2107 22.4789 64.5554C22.7538 63.2817 22.8433 61.9747 22.7446 60.6752ZM73.3642 62.1654C74.6547 61.0034 76.0034 59.9085 77.405 58.885H75.6666V58.5336C73.3232 60.3025 71.0983 62.2249 69.0065 64.2883C66.345 66.9262 63.9155 69.7908 61.7452 72.85C62.9429 72.6997 64.1079 72.353 65.1941 71.8237C67.4875 68.2603 70.2342 65.0134 73.3642 62.1654ZM88.6466 72.9437V72.6766L88.4042 72.9437H88.6466ZM85.8502 72.9437H88.1805L88.6466 72.3767V70.0148C88.4928 70.1648 88.339 70.3194 88.1805 70.4834C87.3944 71.2832 86.6176 72.1033 85.8502 72.9437ZM95.3859 68.6324C96.8587 67.3015 98.3921 66.0268 99.9767 64.8225V62.2544C97.8887 63.8384 95.8815 65.5161 93.9551 67.2874L95.3859 68.6324ZM99.9767 72.9578V71.8893L99.464 72.4938L99.9767 72.9578ZM91.8951 58.2102C88.8555 59.7254 85.9601 61.5167 83.2449 63.5619V67.5592H78.5003C76.7187 69.2433 75.0511 71.0453 73.5087 72.9531H80.1921C82.0161 70.5507 84.0232 68.2945 86.1951 66.2049C86.9874 65.4411 87.8077 64.7006 88.6466 63.979V62.2919L89.5787 63.1776C90.9303 62.0623 92.3285 61.0063 93.7733 60.0097L91.8951 58.2102ZM99.217 72.2173L100 71.2801V65.5629C98.5365 66.6407 97.1181 67.7748 95.7448 68.9651L99.217 72.2173ZM80.4298 72.9484H85.4074C86.2277 72.0112 87.0666 71.0833 87.9242 70.1648L88.6699 69.3822V64.5319C87.9149 65.1568 87.1769 65.8035 86.4561 66.472C84.2806 68.475 82.2584 70.6399 80.4065 72.9484H80.4298ZM77.4097 67.5592C75.7567 69.2963 74.169 71.0942 72.6465 72.9531H73.2617C74.7231 71.0546 76.3048 69.2529 77.9969 67.5592H77.4097ZM70.3208 70.7224C70.7216 70.2538 71.1271 69.8274 71.5372 69.3822C72.8795 67.9326 74.2606 66.5189 75.6806 65.1412V64.3117H76.5428C78.1243 62.809 79.7462 61.3516 81.4086 59.9394V58.871H78.244C76.6214 59.969 75.0651 61.163 73.5833 62.4466C70.4563 65.175 67.6916 68.2966 65.3572 71.7347C67.4824 70.619 69.2152 68.8734 70.3208 66.7345V70.7224ZM75.6806 67.5592V65.8628C74.3663 67.1125 73.083 68.384 71.8309 69.6774C71.3213 70.2116 70.8179 70.7474 70.3208 71.2848V72.9578H72.3948C73.8458 71.1083 75.3621 69.3103 76.9436 67.5639L75.6806 67.5592Z" fill="url(#paint1_linear)"/>
<defs>
<linearGradient id="paint0_linear" x1="54.6238" y1="48.0271" x2="56.0279" y2="28.7912" gradientUnits="userSpaceOnUse">
<stop offset="0.06" stop-color="#003D0E"/>
<stop offset="0.39" stop-color="#266331"/>
<stop offset="0.78" stop-color="#3A793A"/>
</linearGradient>
<linearGradient id="paint1_linear" x1="51.226" y1="55.3844" x2="49.0635" y2="75.1531" gradientUnits="userSpaceOnUse">
<stop stop-color="#004011"/>
<stop offset="0.24" stop-color="#2B6333"/>
<stop offset="1" stop-color="#3A793A"/>
</linearGradient>
</defs>
</svg>
