<svg width="100" height="100" viewBox="0 0 100 100" fill="none" xmlns="http://www.w3.org/2000/svg">
<path d="M80.0335 25.8394C79.6965 25.8379 79.3736 25.7036 79.1353 25.4658C78.8969 25.228 78.7624 24.9059 78.7608 24.5696C78.7608 15.4089 71.2034 8.50028 61.1828 8.50028C60.8437 8.50028 60.5185 8.36589 60.2787 8.12668C60.039 7.88748 59.9043 7.56304 59.9043 7.22475C59.9043 6.88646 60.039 6.56202 60.2787 6.32281C60.5185 6.08361 60.8437 5.94922 61.1828 5.94922C72.6612 5.94922 81.3143 13.9545 81.3143 24.5696C81.3128 24.9073 81.1771 25.2306 80.937 25.4687C80.6969 25.7067 80.372 25.84 80.0335 25.8394Z" fill="#F5C800"/>
<path d="M82.9805 16.7643C82.7119 16.764 82.4502 16.6795 82.2324 16.5227C82.0146 16.3659 81.8517 16.1447 81.7668 15.8905C80.9251 13.3907 79.4538 11.1485 77.4941 9.37898C75.5098 7.5817 73.0142 6.24499 70.2745 5.512C69.9469 5.42429 69.6677 5.21034 69.4982 4.91723C69.3288 4.62412 69.2829 4.27585 69.3709 3.94904C69.4588 3.62223 69.6732 3.34365 69.967 3.17458C70.2608 3.00551 70.6099 2.95981 70.9374 3.04752C74.0682 3.88556 76.9306 5.42196 79.2133 7.49051C81.4977 9.5549 83.2127 12.1698 84.1942 15.0848C84.2476 15.244 84.2691 15.4121 84.2573 15.5795C84.2455 15.7469 84.2007 15.9104 84.1254 16.0606C84.0502 16.2107 83.946 16.3445 83.8188 16.4544C83.6916 16.5643 83.544 16.648 83.3843 16.7009C83.2539 16.7431 83.1176 16.7646 82.9805 16.7643Z" fill="#F9D900"/>
<path d="M20.1447 27.3078C19.8056 27.3078 19.4804 27.1734 19.2407 26.9342C19.0009 26.695 18.8662 26.3705 18.8662 26.0322C18.8662 14.5802 26.8899 5.94702 37.5295 5.94702C37.8686 5.94702 38.1938 6.08141 38.4335 6.32061C38.6733 6.55982 38.808 6.88426 38.808 7.22255C38.808 7.56084 38.6733 7.88527 38.4335 8.12448C38.1938 8.36369 37.8686 8.49807 37.5295 8.49807C28.3442 8.49461 21.4174 16.0347 21.4174 26.0322C21.4174 26.3695 21.2835 26.6931 21.045 26.9321C20.8064 27.1712 20.4827 27.3062 20.1447 27.3078Z" fill="#F5C800"/>
<path d="M17.0531 17.9009C16.9414 17.901 16.8301 17.8863 16.7222 17.8571C16.5597 17.8137 16.4074 17.7388 16.274 17.6366C16.1405 17.5344 16.0286 17.407 15.9446 17.2616C15.8605 17.1162 15.806 16.9557 15.7842 16.7893C15.7624 16.6229 15.7737 16.4539 15.8175 16.2918C16.6574 13.1682 18.1974 10.3124 20.2707 8.03493C22.3401 5.75552 24.9614 4.04443 27.8836 3.06556C28.2058 2.95841 28.5575 2.98335 28.8613 3.13488C29.165 3.28642 29.396 3.55214 29.5034 3.87359C29.6108 4.19504 29.5858 4.5459 29.4339 4.84897C29.2821 5.15203 29.0157 5.38249 28.6935 5.48964C26.1878 6.32981 23.9402 7.79762 22.1658 9.75256C20.3644 11.7322 19.0246 14.2221 18.2899 16.9555C18.2168 17.227 18.056 17.4668 17.8324 17.6377C17.6087 17.8086 17.3348 17.9012 17.0531 17.9009Z" fill="#F9D900"/>
<path d="M25.6726 34.3857C25.8779 34.385 26.0801 34.3352 26.2621 34.2405C26.4441 34.1458 26.6007 34.0089 26.7188 33.8414C26.8369 33.6738 26.913 33.4805 26.9407 33.2775C26.9684 33.0746 26.947 32.868 26.8782 32.675C26.3442 31.1541 26.0727 29.5538 26.0753 27.9423C26.0753 20.4034 31.2817 14.7195 38.1947 14.7195C40.6417 14.7195 42.8874 15.4952 44.8705 17.0281C46.6939 18.4353 47.9446 20.2233 48.6724 21.4734C48.8071 21.7067 49.001 21.9006 49.2345 22.0355C49.468 22.1705 49.733 22.2417 50.0029 22.2422H50.0133C50.2854 22.243 50.553 22.1723 50.7892 22.0374C51.0253 21.9025 51.2218 21.708 51.3589 21.4734C52.0866 20.2233 53.3385 18.4353 55.1607 17.0281C57.1438 15.4987 59.3895 14.7195 61.8377 14.7195C68.7461 14.7195 73.9571 20.4034 73.9571 27.9423C73.9592 29.5538 73.6877 31.154 73.1542 32.675C73.0851 32.8679 73.0635 33.0745 73.091 33.2774C73.1186 33.4804 73.1946 33.6738 73.3126 33.8414C73.4306 34.009 73.5872 34.1459 73.7692 34.2406C73.9512 34.3353 74.1533 34.3851 74.3586 34.3857C74.6249 34.3857 74.8845 34.303 75.1016 34.1491C75.3186 33.9952 75.4823 33.7778 75.57 33.5269C76.1978 31.7345 76.5166 29.849 76.5129 27.9504C76.5129 18.9582 70.2039 12.1765 61.8377 12.1765C58.811 12.1765 56.0377 13.1311 53.5977 15.015C52.2151 16.1005 51.0057 17.3892 50.011 18.837C49.0181 17.3895 47.8107 16.1009 46.4301 15.015C43.9889 13.1311 41.2167 12.1765 38.1901 12.1765C29.8227 12.1765 23.5137 18.9582 23.5137 27.9504C23.51 29.8502 23.8293 31.737 24.4578 33.5304C24.5454 33.781 24.7089 33.9983 24.9257 34.1522C25.1425 34.3061 25.4019 34.3889 25.668 34.3892L25.6726 34.3857Z" fill="#EEA300"/>
<path d="M71.6311 36.937C71.4273 36.9364 71.2264 36.9847 71.0452 37.0777C70.864 37.1707 70.7078 37.3057 70.5898 37.4715C67.5319 41.7425 62.5534 45.9811 56.3404 51.2633C54.4892 52.8343 52.3997 54.6108 50.2084 56.5258C50.1535 56.5715 50.0843 56.5965 50.0128 56.5965C49.9414 56.5965 49.8722 56.5715 49.8173 56.5258C47.6433 54.6305 45.555 52.8539 43.7107 51.2864L43.6876 51.2656C37.4734 45.9823 32.4949 41.7494 29.437 37.4726C29.3186 37.3073 29.1623 37.1725 28.9812 37.0796C28.8001 36.9866 28.5994 36.9381 28.3957 36.9382C28.1605 36.9384 27.93 37.0032 27.7293 37.1255C27.5286 37.2479 27.3656 37.4229 27.258 37.6316C27.1505 37.8402 27.1026 38.0744 27.1196 38.3084C27.1366 38.5424 27.2178 38.7672 27.3544 38.9582C27.7871 39.5646 28.258 40.1741 28.7671 40.7867C31.9939 44.671 36.6462 48.6268 42.0331 53.2072L42.0574 53.2268C43.8947 54.7897 45.9773 56.5605 48.1385 58.4455C48.6589 58.8991 49.3264 59.1492 50.0175 59.1492C50.7085 59.1492 51.3761 58.8991 51.8964 58.4455C54.075 56.5443 56.1622 54.7701 58.003 53.2049C63.3887 48.6245 68.0444 44.6698 71.2678 40.7855C71.7769 40.1699 72.2474 39.5604 72.6793 38.9571C72.8159 38.7661 72.8972 38.5413 72.9142 38.3073C72.9312 38.0732 72.8833 37.8391 72.7757 37.6304C72.6682 37.4218 72.5051 37.2467 72.3045 37.1244C72.1038 37.0021 71.8732 36.9373 71.638 36.937H71.6311Z" fill="#E4650E"/>
<path d="M0.0476419 69.1126L4.24172 79.1321C4.27082 79.2235 4.33204 79.3014 4.41411 79.3514C4.49401 79.4032 4.58723 79.4309 4.68253 79.4311C4.77258 79.4296 4.86024 79.4019 4.93475 79.3514C5.02341 79.2952 5.09438 79.2152 5.13954 79.1205L9.34865 69.086C9.37828 69.0125 9.39436 68.9343 9.39609 68.8551C9.39736 68.7961 9.38606 68.7375 9.36292 68.6832C9.33978 68.6289 9.30534 68.5801 9.26188 68.54C9.16483 68.4536 9.03778 68.4085 8.90784 68.4142C8.71809 68.4142 8.57077 68.5192 8.46587 68.7293L4.72881 77.8173L0.930423 68.7536C0.90022 68.6525 0.837786 68.5639 0.752595 68.5015C0.667404 68.439 0.564105 68.4059 0.458372 68.4073C0.344016 68.4112 0.234844 68.4558 0.150614 68.5331C0.101834 68.5729 0.0628966 68.6234 0.0368146 68.6807C0.0107325 68.7379 -0.00179295 68.8004 0.000206803 68.8632C-0.000215607 68.911 0.00522397 68.9587 0.0164045 69.0052C0.0268174 69.0445 0.037229 69.0814 0.0476419 69.1126Z" fill="#E4650E"/>
<path d="M34.9192 79.4332C35.0466 79.4325 35.1685 79.3815 35.2582 79.2913C35.3557 79.2012 35.4149 79.0773 35.4237 78.945V68.9081C35.4246 68.8431 35.4118 68.7787 35.3861 68.719C35.3603 68.6594 35.3223 68.6058 35.2744 68.5618C35.1843 68.4723 35.0625 68.4217 34.9354 68.421C34.8684 68.4186 34.8017 68.4299 34.7393 68.4541C34.6768 68.4783 34.6199 68.515 34.5721 68.5618C34.5259 68.6067 34.4895 68.6607 34.465 68.7202C34.4405 68.7798 34.4285 68.8437 34.4298 68.9081V78.9427C34.427 79.0712 34.4752 79.1957 34.564 79.289C34.6094 79.3369 34.6647 79.3746 34.7259 79.3995C34.7872 79.4244 34.8531 79.4359 34.9192 79.4332Z" fill="#E4650E"/>
<path d="M60.8521 79.4335H65.0924C65.5139 79.4348 65.9334 79.3765 66.3385 79.2604C66.7243 79.152 67.0853 78.9701 67.4018 78.7248C67.722 78.4721 67.9761 78.1457 68.1422 77.7736C68.3365 77.3304 68.4309 76.8501 68.4188 76.3665C68.4328 75.9119 68.3409 75.4603 68.1503 75.0471C67.9815 74.6983 67.7396 74.3897 67.4411 74.1421C67.1464 73.9012 66.806 73.7222 66.4403 73.6158C66.3871 73.5996 66.3327 73.5881 66.2783 73.5742C66.4377 73.5144 66.5898 73.437 66.7319 73.3433C67.0945 73.104 67.3836 72.7692 67.5672 72.376C67.7558 71.9833 67.853 71.5532 67.8518 71.1178C67.8518 70.2713 67.6019 69.6084 67.1021 69.1289C66.6023 68.6495 65.9135 68.4136 65.0357 68.4213H60.8521C60.7275 68.4243 60.6089 68.4749 60.5208 68.5629C60.4326 68.6508 60.3818 68.7692 60.3789 68.8934V78.9591C60.3821 79.0833 60.433 79.2015 60.5211 79.2894C60.6091 79.3773 60.7276 79.428 60.8521 79.4312V79.4335ZM61.3878 69.3517H64.9039C65.5209 69.3517 65.9991 69.5168 66.3385 69.8469C66.6779 70.1771 66.846 70.6303 66.8429 71.2067C66.8429 71.8893 66.6563 72.4034 66.283 72.7489C65.9082 73.0956 65.415 73.2867 64.9039 73.2833H61.3878V69.3517ZM61.3878 74.2276H65.0138C65.4157 74.2243 65.8149 74.2927 66.1927 74.4296C66.5504 74.5579 66.859 74.7943 67.0755 75.106C67.2969 75.42 67.4072 75.8394 67.4064 76.3642C67.4064 77.1091 67.1804 77.6517 66.7284 77.9918C66.2764 78.3319 65.7141 78.5024 65.0415 78.5032H61.3878V74.2276Z" fill="#E4650E"/>
<path d="M99.5276 78.5033H94.2622V74.2253H98.8196C98.9418 74.2264 99.0599 74.1815 99.1505 74.0995C99.1969 74.058 99.2337 74.0068 99.2581 73.9496C99.2825 73.8923 99.2939 73.8304 99.2916 73.7682C99.2889 73.6442 99.2384 73.5259 99.1504 73.4381C99.0625 73.3504 98.9439 73.2999 98.8196 73.2973H94.2622V69.3495H99.5276C99.65 69.351 99.7683 69.306 99.8585 69.2237C99.905 69.1825 99.9418 69.1315 99.9662 69.0744C99.9906 69.0173 100.002 68.9555 99.9997 68.8935C100.002 68.8304 99.9901 68.7675 99.9658 68.7092C99.9414 68.6509 99.9049 68.5984 99.8585 68.5553C99.815 68.5122 99.7634 68.4782 99.7065 68.4552C99.6497 68.4323 99.5889 68.4208 99.5276 68.4214H93.7427C93.6182 68.4243 93.4995 68.475 93.4114 68.5629C93.3233 68.6509 93.2725 68.7692 93.2695 68.8935V78.9592C93.2728 79.0834 93.3236 79.2016 93.4117 79.2895C93.4997 79.3773 93.6182 79.4281 93.7427 79.4313H99.5276C99.6499 79.4324 99.768 79.3875 99.8585 79.3055C99.9052 79.2642 99.9421 79.213 99.9665 79.1557C99.9909 79.0984 100.002 79.0364 99.9997 78.9742C99.997 78.8501 99.9464 78.7319 99.8585 78.6441C99.7705 78.5564 99.652 78.5059 99.5276 78.5033Z" fill="#E4650E"/>
<path d="M14.7719 87.4825C13.5312 87.4775 12.3254 87.8926 11.3518 88.6599C11.0087 88.926 10.6929 89.2252 10.4089 89.5533C10.1252 89.225 9.80928 88.9257 9.46594 88.6599C8.49193 87.8917 7.28516 87.4765 6.04357 87.4825C2.60038 87.4825 0.00295119 90.2529 0.00295119 93.9271C0.00101017 94.6975 0.130513 95.4625 0.385913 96.1896C0.424657 96.3349 0.493095 96.4706 0.586933 96.5883C0.680771 96.706 0.797981 96.803 0.931202 96.8734C1.06442 96.9437 1.21078 96.9858 1.36108 96.997C1.51138 97.0082 1.66238 96.9882 1.80459 96.9384C1.94681 96.8886 2.07717 96.8101 2.18749 96.7076C2.2978 96.6051 2.3857 96.481 2.44565 96.3431C2.5056 96.2051 2.53632 96.0563 2.53587 95.9059C2.53542 95.7555 2.50381 95.6069 2.44303 95.4693C2.26799 94.9739 2.17916 94.4523 2.1804 93.9271C2.1804 91.4961 3.83836 89.663 6.03548 89.663C6.79148 89.6615 7.52565 89.9158 8.11805 90.3845C8.6222 90.7895 9.04533 91.2856 9.36528 91.847C9.4705 92.0271 9.62122 92.1766 9.80241 92.2805C9.9836 92.3843 10.1889 92.439 10.3979 92.439C10.6069 92.439 10.8122 92.3843 10.9934 92.2805C11.1746 92.1766 11.3253 92.0271 11.4305 91.847C11.7504 91.2856 12.1736 90.7895 12.6777 90.3845C13.2701 89.9158 14.0043 89.6615 14.7603 89.663C16.9586 89.663 18.6154 91.4961 18.6154 93.9271C18.6159 94.4523 18.5271 94.9737 18.3527 95.4693C18.3053 95.6045 18.2849 95.7477 18.2929 95.8908C18.3009 96.0338 18.3371 96.1739 18.3994 96.303C18.4616 96.4321 18.5488 96.5477 18.6558 96.6432C18.7628 96.7387 18.8877 96.8123 19.0232 96.8597C19.1587 96.907 19.3023 96.9273 19.4457 96.9193C19.5891 96.9113 19.7295 96.8753 19.8589 96.8131C19.9883 96.751 20.1042 96.6641 20.1999 96.5573C20.2956 96.4505 20.3693 96.3259 20.4168 96.1907C20.673 95.4635 20.8029 94.6979 20.8009 93.9271C20.8125 90.2529 18.2151 87.4825 14.7719 87.4825Z" fill="#E4650E"/>
<path d="M45.5711 94.4883C44.3447 93.0119 42.6069 91.5355 40.5868 89.8179L40.5556 89.7902C39.8869 89.2223 39.1302 88.5781 38.3481 87.8959C38.0425 87.6298 37.6505 87.4832 37.2449 87.4832C36.8392 87.4832 36.4473 87.6298 36.1417 87.8959C35.3434 88.5885 34.5775 89.2442 33.8925 89.8283C31.8817 91.5367 30.1451 93.0131 28.9175 94.4894C28.7208 94.7272 28.5357 94.9662 28.3691 95.2005C28.2003 95.4361 28.1323 95.7289 28.1799 96.0145C28.2275 96.3002 28.3869 96.5553 28.623 96.7236C28.8592 96.892 29.1527 96.9599 29.439 96.9124C29.7253 96.8649 29.9809 96.7058 30.1497 96.4703C31.2349 94.9535 33.0329 93.424 35.3098 91.4882L35.3318 91.4697C35.9103 90.9745 36.5628 90.4228 37.2432 89.8329C37.9258 90.4239 38.5783 90.9791 39.1776 91.4882C41.4534 93.424 43.2525 94.9512 44.3378 96.4703C44.4382 96.6124 44.5713 96.7284 44.7259 96.8088C44.8805 96.8891 45.0521 96.9314 45.2264 96.932C45.4272 96.932 45.6241 96.8767 45.7956 96.7724C45.967 96.668 46.1064 96.5185 46.1983 96.3404C46.2902 96.1622 46.3312 95.9622 46.3167 95.7624C46.3022 95.5625 46.2328 95.3705 46.1161 95.2074C45.9518 94.9639 45.7667 94.7238 45.5711 94.4883Z" fill="#E4650E"/>
<path d="M68.4488 87.4825C67.2069 87.4767 65.9998 87.8919 65.0253 88.6599C64.6822 88.926 64.3663 89.2252 64.0823 89.5534C63.7987 89.2253 63.4832 88.926 63.1405 88.6599C62.1651 87.8911 60.9566 87.4759 59.7135 87.4825C56.2703 87.4825 53.6729 90.2529 53.6729 93.9271C53.6709 94.6975 53.8004 95.4626 54.0558 96.1896C54.1032 96.3253 54.177 96.4503 54.2728 96.5575C54.3686 96.6648 54.4847 96.7521 54.6144 96.8146C54.7441 96.8771 54.8848 96.9135 55.0286 96.9218C55.1724 96.93 55.3163 96.9099 55.4523 96.8626C55.5883 96.8153 55.7136 96.7417 55.8211 96.6461C55.9286 96.5505 56.0162 96.4347 56.0788 96.3053C56.1414 96.1759 56.1779 96.0355 56.1862 95.8921C56.1944 95.7486 56.1743 95.605 56.1269 95.4693C55.952 94.9739 55.8632 94.4523 55.8642 93.9271C55.8642 91.4961 57.5222 89.663 59.7193 89.663C60.4753 89.6615 61.2095 89.9159 61.8019 90.3845C62.3061 90.7895 62.7292 91.2856 63.0491 91.847C63.1544 92.0271 63.3051 92.1766 63.4863 92.2805C63.6674 92.3844 63.8728 92.439 64.0817 92.439C64.2907 92.439 64.496 92.3844 64.6772 92.2805C64.8584 92.1766 65.0091 92.0271 65.1144 91.847C65.4343 91.2856 65.8574 90.7895 66.3616 90.3845C66.954 89.9159 67.6882 89.6615 68.4442 89.663C70.6425 89.663 72.2993 91.4961 72.2993 93.9271C72.3005 94.4524 72.2117 94.9739 72.0366 95.4693C71.9892 95.6045 71.9688 95.7477 71.9768 95.8908C71.9848 96.0338 72.021 96.1739 72.0833 96.303C72.1455 96.4321 72.2327 96.5478 72.3397 96.6433C72.4467 96.7388 72.5716 96.8123 72.7071 96.8597C72.8426 96.9071 72.9862 96.9273 73.1296 96.9193C73.273 96.9114 73.4134 96.8753 73.5428 96.8132C73.6722 96.7511 73.7881 96.6641 73.8838 96.5573C73.9795 96.4505 74.0532 96.326 74.1007 96.1908C74.3569 95.4635 74.4868 94.698 74.4848 93.9271C74.4895 90.2529 71.892 87.4825 68.4488 87.4825Z" fill="#E4650E"/>
<path d="M94.2733 89.8223C96.2876 91.5353 98.0231 93.0105 99.2483 94.4857C99.445 94.7235 99.6301 94.9625 99.7967 95.1968C99.9134 95.3599 99.9828 95.5519 99.9973 95.7518C100.012 95.9516 99.9708 96.1516 99.8789 96.3298C99.787 96.5079 99.6477 96.6574 99.4762 96.7617C99.3048 96.8661 99.1078 96.9213 98.907 96.9214C98.7327 96.9206 98.5612 96.8783 98.4066 96.798C98.252 96.7177 98.1189 96.6017 98.0184 96.4596C96.9332 94.9417 95.1341 93.4134 92.8583 91.4776C92.2601 90.9685 91.6064 90.4133 90.925 89.8223C90.2227 90.4294 89.5481 91.0043 88.9905 91.4776C86.7135 93.4134 84.9156 94.9405 83.8303 96.4596C83.7468 96.5763 83.641 96.6754 83.519 96.7512C83.3971 96.8271 83.2614 96.8782 83.1196 96.9018C82.9779 96.9253 82.8328 96.9207 82.6928 96.8884C82.5528 96.856 82.4206 96.7964 82.3037 96.713C82.1868 96.6296 82.0875 96.5241 82.0114 96.4024C81.9354 96.2808 81.8841 96.1454 81.8605 96.0039C81.837 95.8625 81.8415 95.7178 81.874 95.5781C81.9065 95.4385 81.9662 95.3065 82.0497 95.1899C82.2152 94.959 82.3968 94.7178 82.5981 94.4788C83.8245 93.0024 85.5612 91.5261 87.5732 89.8165C88.257 89.2393 89.024 88.5825 89.8224 87.8853C90.1278 87.6193 90.5195 87.4727 90.925 87.4727C91.3304 87.4727 91.7221 87.6193 92.0276 87.8853C92.8189 88.5779 93.5837 89.2255 94.2582 89.7992" fill="#E4650E"/>
</svg>
