<svg width="100" height="100" viewBox="0 0 100 100" fill="none" xmlns="http://www.w3.org/2000/svg">
<path d="M99.9996 57.3098H0V58.5861H99.9996V57.3098Z" fill="black"/>
<path d="M99.9996 29H0V30.2763H99.9996V29Z" fill="black"/>
<path d="M0 64.7354H4.24027V65.1994H2.3557V70.5365H1.88456V65.1994H0V64.7354Z" fill="black"/>
<path d="M4.71143 64.7354H5.18257V67.2879H8.36277V64.7354H8.83391V70.5365H8.36277V67.752H5.18257V70.5365H4.71143V64.7354Z" fill="black"/>
<path d="M10.0112 64.7354H13.6626V65.1994H10.4824V67.2879H13.427V67.752H10.4824V70.0724H13.6626V70.5365H10.0112V64.7354Z" fill="black"/>
<path d="M15.9014 64.7354H17.3148L18.3749 69.0282L19.4349 64.7354H20.8483L21.9084 69.0282L22.9685 64.7354H24.3819L22.7329 70.5365H21.2017L20.0238 66.3597L18.9638 70.5365H17.4326L15.9014 64.7354Z" fill="black"/>
<path d="M28.6223 69.3763H26.1488L25.6777 70.5365H24.1465L26.5022 64.7354H28.269L30.6247 70.5365H29.0935L28.6223 69.3763ZM27.4445 66.0116L26.62 68.3321H28.269L27.4445 66.0116Z" fill="black"/>
<path d="M31.0952 64.7354H32.5086V69.3763H35.8066V70.5365H31.0952V64.7354Z" fill="black"/>
<path d="M36.396 64.7354H37.8094V69.3763H41.1074V70.5365H36.396V64.7354Z" fill="black"/>
<path d="M48.1744 66.4757C48.1744 66.2437 48.0566 66.1276 48.0566 66.0116C47.9388 65.8956 47.821 65.7796 47.7033 65.7796C47.5855 65.6635 47.4677 65.6635 47.3499 65.6635C47.2321 65.6635 46.9965 65.6635 46.8788 65.6635C46.5254 65.6635 46.2898 65.7796 46.1721 65.8956C45.9365 66.0116 45.9365 66.2437 45.9365 66.3597C45.9365 66.4757 45.9365 66.5917 46.0543 66.7078C46.172 66.8238 46.2898 66.8238 46.5254 66.9398L48.2922 67.2879C48.5278 67.2879 48.7633 67.4039 48.9989 67.5199C49.2345 67.6359 49.3522 67.752 49.5878 67.868C49.7056 67.984 49.8234 68.1 49.9412 68.3321C50.059 68.5641 50.059 68.7962 50.059 69.0282C50.059 69.2603 50.059 69.6083 49.9412 69.8404C49.8234 70.0724 49.7056 70.3045 49.47 70.4205C49.2345 70.6526 48.9989 70.7686 48.6455 70.8846C48.2922 71.0006 47.821 71.0006 47.3499 71.0006C47.1143 71.0006 46.8788 71.0006 46.6432 71.0006C46.4076 71.0006 46.1721 71.0006 45.9365 70.8846C45.7009 70.8846 45.4653 70.7686 45.3476 70.6526C45.112 70.5365 44.9942 70.4205 44.8764 70.3045C44.7586 70.1885 44.6408 69.9564 44.5231 69.7244C44.4053 69.4923 44.4053 69.2603 44.4053 68.9122H46.0543C46.0543 69.1442 46.0543 69.2603 46.1721 69.3763C46.2898 69.4923 46.4076 69.6083 46.5254 69.6083C46.6432 69.7244 46.761 69.7244 46.9965 69.7244C47.1143 69.7244 47.3499 69.7244 47.4677 69.7244C47.821 69.7244 48.0566 69.6083 48.2922 69.6083C48.5278 69.4923 48.6455 69.2603 48.6455 69.0282C48.6455 68.7962 48.5278 68.6802 48.41 68.5641C48.2922 68.4481 48.0566 68.4481 47.7033 68.3321L46.4076 68.1C46.1721 68.1 45.9365 67.984 45.7009 67.984C45.4653 67.868 45.3476 67.868 45.112 67.752C44.9942 67.6359 44.7586 67.5199 44.7586 67.2879C44.6408 67.0558 44.6408 66.8238 44.6408 66.5917C44.6408 66.2437 44.7586 66.0116 44.8764 65.7796C44.9942 65.5475 45.112 65.3155 45.3476 65.1994C45.5831 65.0834 45.8187 64.9674 46.1721 64.8514C46.5254 64.7354 46.8788 64.7354 47.2321 64.7354C47.4677 64.7354 47.5855 64.7354 47.821 64.7354C48.0566 64.7354 48.1744 64.7354 48.41 64.8514C48.6455 64.8514 48.7633 64.9674 48.9989 65.0834C49.2345 65.1994 49.3523 65.3155 49.47 65.4315C49.5878 65.5475 49.7056 65.7796 49.8234 65.8956C49.9412 66.1276 49.9412 66.3597 49.9412 66.5917H48.1744V66.4757Z" fill="black"/>
<path d="M52.1786 65.8956H50.1763V64.7354H55.5944V65.8956H53.592V70.6526H52.1786V65.8956Z" fill="black"/>
<path d="M56.0654 64.7354H59.9523C60.3057 64.7354 60.6591 64.7354 60.8946 64.8514C61.1302 64.9674 61.248 65.0834 61.3658 65.1994C61.4835 65.3155 61.6013 65.5475 61.6013 65.6635C61.6013 65.8956 61.7191 66.0116 61.7191 66.1276C61.7191 66.4757 61.6013 66.8238 61.4836 67.0558C61.3658 67.2879 61.1302 67.4039 60.7768 67.5199C60.8946 67.5199 61.0124 67.6359 61.1302 67.752C61.248 67.868 61.248 67.984 61.3658 68.1C61.3658 68.2161 61.4836 68.4481 61.4836 68.5641C61.4836 68.6802 61.4836 68.9122 61.4836 69.0282C61.4836 69.1443 61.4836 69.1443 61.4836 69.2603C61.4836 69.3763 61.4836 69.4923 61.4836 69.6083C61.4836 69.7244 61.4835 69.8404 61.6013 69.9564C61.6013 70.0724 61.7191 70.1885 61.7191 70.1885H60.1879C60.1879 70.0724 60.0701 70.0724 60.0701 69.9564C60.0701 69.8404 60.0701 69.8404 60.0701 69.7244C60.0701 69.6083 60.0701 69.4923 60.0701 69.3763C60.0701 69.2603 60.0701 69.1443 60.0701 69.0282C60.0701 68.7962 60.0701 68.6802 60.0701 68.5641C60.0701 68.4481 59.9523 68.3321 59.9523 68.2161C59.8346 68.1 59.8346 68.1 59.7168 68.1C59.599 68.1 59.4812 68.1 59.3634 68.1H57.5966V70.1885H56.1832V64.7354H56.0654ZM57.4789 67.2879H59.3634C59.4812 67.2879 59.4812 67.2879 59.599 67.2879C59.7168 67.2879 59.7168 67.1719 59.8346 67.1719C59.9523 67.1719 59.9523 67.0558 59.9523 66.9398C59.9523 66.8238 60.0701 66.7078 60.0701 66.5917C60.0701 66.4757 60.0701 66.3597 59.9523 66.2437C59.9523 66.1276 59.8346 66.1276 59.7168 66.0116C59.599 66.0116 59.599 65.8956 59.4812 65.8956C59.3634 65.8956 59.2456 65.8956 59.2456 65.8956H57.3611V67.2879H57.4789Z" fill="black"/>
<path d="M62.4263 64.7354H67.3733V65.8956H63.8397V67.0558H67.1377V68.1H63.8397V69.4923H67.3733V70.6526H62.4263V64.7354Z" fill="black"/>
<path d="M68.1978 64.7354H73.1447V65.8956H69.6112V67.0558H73.027V68.1H69.729V69.4923H73.2625V70.6526H68.3155V64.7354H68.1978Z" fill="black"/>
<path d="M75.5004 65.8956H73.498V64.7354H78.9162V65.8956H76.9138V70.6526H75.5004V65.8956Z" fill="black"/>
<path d="M85.394 66.4758C85.394 66.2437 85.2762 66.0117 85.1584 65.8956C85.0406 65.6636 84.9228 65.5476 84.805 65.4315C84.6873 65.3155 84.4517 65.1995 84.3339 65.1995C84.0983 65.0835 83.9805 65.0835 83.745 65.0835C83.3916 65.0835 83.0383 65.1995 82.8027 65.3155C82.5671 65.4315 82.3316 65.6636 82.2138 65.8956C82.096 66.1277 81.9782 66.3597 81.8604 66.7078C81.7426 67.0559 81.7426 67.2879 81.7426 67.636C81.7426 67.9841 81.7426 68.2161 81.8604 68.5642C81.9782 68.9123 82.096 69.1443 82.2138 69.3764C82.3316 69.6084 82.5671 69.8404 82.8027 69.9565C83.0383 70.0725 83.3916 70.1885 83.745 70.1885C83.9805 70.1885 84.2161 70.1885 84.4517 70.0725C84.6873 69.9565 84.805 69.8404 84.9228 69.7244C85.0406 69.6084 85.1584 69.3764 85.2762 69.1443C85.394 68.9123 85.394 68.6802 85.394 68.4482H85.9829C85.9829 68.7962 85.8651 69.1443 85.7473 69.3764C85.6295 69.6084 85.5118 69.9565 85.2762 70.0725C85.0406 70.3045 84.9228 70.4206 84.5695 70.5366C84.3339 70.6526 83.9805 70.6526 83.745 70.6526C83.2738 70.6526 82.9205 70.5366 82.6849 70.4206C82.3315 70.3045 82.096 70.0725 81.8604 69.7244C81.6248 69.4924 81.5071 69.1443 81.3893 68.7962C81.2715 68.4482 81.2715 68.1001 81.2715 67.636C81.2715 67.2879 81.2715 66.8238 81.3893 66.4758C81.5071 66.1277 81.6248 65.7796 81.8604 65.5476C82.096 65.3155 82.3315 65.0835 82.6849 64.8514C83.0383 64.7354 83.3916 64.6194 83.745 64.6194C83.9805 64.6194 84.2161 64.6194 84.4517 64.7354C84.6873 64.8514 84.9228 64.9675 85.1584 65.0835C85.394 65.1995 85.5117 65.4315 85.6295 65.6636C85.7473 65.8956 85.8651 66.1277 85.8651 66.4758H85.394Z" fill="black"/>
<path d="M86.6896 64.7354H87.1607V70.0724H90.1053V70.5365H86.5718V64.7354H86.6896Z" fill="black"/>
<path d="M90.6943 64.7354H91.1655V68.3321C91.1655 68.6802 91.1655 68.9122 91.2833 69.1443C91.401 69.3763 91.4011 69.6083 91.6366 69.7244C91.7544 69.8404 91.99 69.9564 92.1078 70.0724C92.3433 70.1885 92.4611 70.1885 92.8145 70.1885C93.05 70.1885 93.2856 70.1885 93.5212 70.0724C93.7568 69.9564 93.8745 69.8404 93.9923 69.7244C94.1101 69.6083 94.2279 69.3763 94.3457 69.1443C94.4635 68.9122 94.4635 68.6802 94.4635 68.3321V64.7354H94.9346V68.4481C94.9346 68.7962 94.9346 69.0282 94.8168 69.2603C94.699 69.4923 94.5812 69.7244 94.4635 69.9564C94.3457 70.1885 94.1101 70.3045 93.8745 70.4205C93.639 70.5365 93.2856 70.6526 92.9323 70.6526C92.5789 70.6526 92.2255 70.5365 91.99 70.4205C91.7544 70.3045 91.5188 70.1885 91.401 69.9564C91.2833 69.7244 91.1655 69.4923 91.0477 69.2603C90.6943 69.0282 90.6943 68.7962 90.6943 68.4481V64.7354Z" fill="black"/>
<path d="M95.8779 64.7354H98.1159C98.3514 64.7354 98.587 64.7354 98.7048 64.8514C98.9404 64.8514 99.0581 64.9674 99.2937 65.0834C99.4115 65.1994 99.5293 65.3155 99.6471 65.5475C99.7648 65.7796 99.7648 66.0116 99.7648 66.2437C99.7648 66.3597 99.7648 66.5917 99.6471 66.7078C99.6471 66.8238 99.5293 66.9398 99.4115 67.0558C99.2937 67.1718 99.1759 67.2879 99.1759 67.4039C99.0581 67.5199 98.9403 67.5199 98.8226 67.6359C99.1759 67.6359 99.4115 67.868 99.6471 68.1C99.8826 68.3321 100 68.6802 100 69.0282C100 69.1443 100 69.3763 100 69.4923C100 69.7244 99.8826 69.8404 99.7648 70.0724C99.6471 70.3045 99.4115 70.4205 99.1759 70.5365C98.9403 70.6526 98.587 70.7686 98.1159 70.7686H95.8779V64.7354ZM96.3491 67.2879H98.1159C98.3514 67.2879 98.4692 67.2879 98.587 67.1719C98.7048 67.1719 98.8226 67.0558 98.9403 66.9398C99.0581 66.8238 99.0581 66.7078 99.1759 66.5917C99.1759 66.4757 99.2937 66.3597 99.2937 66.2437C99.2937 65.5475 98.9404 65.1994 98.1159 65.1994H96.3491V67.2879ZM96.3491 70.0724H98.1159C98.3514 70.0724 98.4692 70.0724 98.7048 70.0724C98.8226 70.0724 99.0581 69.9564 99.1759 69.8404C99.2937 69.7244 99.4115 69.6084 99.5293 69.4923C99.6471 69.3763 99.6471 69.1443 99.6471 68.9122C99.6471 68.5641 99.5293 68.2161 99.2937 68.1C99.0581 67.868 98.7048 67.868 98.2336 67.868H96.4669V70.0724H96.3491Z" fill="black"/>
<path d="M32.9805 45.1274H36.1607L34.5117 40.2544L32.9805 45.1274Z" fill="black"/>
<path d="M0 31.4365V56.0335H99.9996V31.4365H0ZM23.0859 49.8843L20.9658 41.0665L18.7278 49.8843H15.7832L12.4852 37.5858H15.3121L17.3144 46.5196L19.4345 37.5858H22.2614L24.3815 46.5196L26.3839 37.5858H29.2107L25.9127 49.8843H23.0859ZM37.809 49.8843L36.9845 47.3318H32.2731L31.3308 49.8843H28.2684L32.8621 37.5858H36.2778L40.7537 49.8843H37.809ZM51.5899 49.8843H42.5204V37.5858H45.3473V47.4478H51.7077V49.8843H51.5899ZM62.4261 49.8843H53.3567V37.5858H56.1835V47.4478H62.4261V49.8843ZM67.6087 42.5748C67.4909 42.8068 67.3731 43.0389 67.1375 43.1549C66.902 43.387 66.6664 43.503 66.313 43.619C65.9597 43.735 65.6063 43.735 65.1352 43.735C64.8996 43.735 64.7818 43.735 64.5463 43.735C64.3107 43.735 64.0751 43.735 63.9573 43.619C63.7218 43.619 63.604 43.503 63.3684 43.387C63.1328 43.2709 63.0151 43.1549 62.8973 43.0389C62.7795 42.9229 62.6617 42.6908 62.5439 42.4588C62.5439 42.3427 62.4261 42.1107 62.4261 41.7626H63.9573C63.9573 41.9947 63.9573 42.1107 64.0751 42.2267C64.1929 42.3427 64.3107 42.4588 64.4285 42.4588C64.5463 42.5748 64.664 42.5748 64.7818 42.5748C64.8996 42.5748 65.0174 42.5748 65.253 42.5748C65.6063 42.5748 65.8419 42.5748 65.9597 42.4588C66.1953 42.3427 66.1953 42.1107 66.1953 41.8787C66.1953 41.6466 66.0775 41.5306 65.9597 41.4146C65.8419 41.2985 65.6063 41.2985 65.3708 41.1825L64.1929 40.9505C63.9573 40.9505 63.7218 40.8344 63.604 40.8344C63.3684 40.7184 63.2506 40.7184 63.0151 40.6024C62.8973 40.4864 62.7795 40.3703 62.6617 40.1383C62.5439 39.9063 62.5439 39.6742 62.5439 39.4422C62.5439 39.0941 62.5439 38.862 62.6617 38.63C62.7795 38.3979 62.8973 38.1659 63.1328 38.0499C63.3684 37.9338 63.604 37.8178 63.8396 37.7018C64.1929 37.5858 64.4285 37.5858 64.8996 37.5858C65.0174 37.5858 65.253 37.5858 65.4885 37.5858C65.7241 37.5858 65.8419 37.5858 66.0775 37.7018C66.313 37.7018 66.4308 37.8178 66.6664 37.9338C66.7842 38.0499 66.902 38.1659 67.1375 38.2819C67.2553 38.3979 67.3731 38.63 67.4909 38.746C67.6087 38.9781 67.6087 39.2101 67.6087 39.4422H66.1953C66.1953 39.2101 66.0775 39.0941 66.0775 38.9781C65.9597 38.862 65.8419 38.746 65.8419 38.746C65.7241 38.746 65.6063 38.63 65.4885 38.63C65.3708 38.63 65.253 38.63 65.1352 38.63C64.8996 38.63 64.664 38.746 64.4285 38.862C64.3107 38.9781 64.1929 39.2101 64.1929 39.3261C64.1929 39.4422 64.1929 39.5582 64.3107 39.6742C64.4285 39.7902 64.5463 39.7902 64.664 39.9063L66.313 40.2543C66.5486 40.2543 66.7842 40.3703 66.902 40.4864C67.1375 40.6024 67.2553 40.7184 67.3731 40.8344C67.4909 40.9505 67.6087 41.0665 67.7265 41.2985C67.8442 41.5306 67.8442 41.7626 67.8442 41.9947C67.7265 42.1107 67.7265 42.3427 67.6087 42.5748ZM73.8513 38.862H72.0845V43.619H70.7889V38.862H69.0221V37.7018H73.9691V38.862H73.8513Z" fill="black"/>
</svg>
