<svg width="100" height="100" viewBox="0 0 100 100" fill="none" xmlns="http://www.w3.org/2000/svg">
<path d="M22.8199 80.1826H22.1983C22.0708 80.1826 21.9592 80.2698 21.9274 80.3966L20.6045 86.6353C20.5805 86.7621 20.5487 86.9048 20.5248 87.0554C20.5009 86.9206 20.4769 86.7859 20.4451 86.6353L19.1779 80.3966C19.154 80.2698 19.0425 80.1747 18.907 80.1747H18.2137C18.0862 80.1747 17.9666 80.2698 17.9427 80.3966L16.6676 86.6591C16.6357 86.8335 16.6039 86.9999 16.572 87.1664C16.5401 86.9999 16.5082 86.8176 16.4684 86.6353L15.1853 80.3966C15.1614 80.2698 15.0498 80.1747 14.9144 80.1747H14.2768C14.1971 80.1747 14.1174 80.2143 14.0616 80.2777C14.0059 80.3412 13.9899 80.4284 14.0059 80.5076L15.9583 89.5604C15.9822 89.6872 16.1018 89.7744 16.2293 89.7744H16.9545C17.082 89.7744 17.2016 89.6793 17.2255 89.5524L18.5404 82.9967L19.8792 89.5524C19.9032 89.6793 20.0147 89.7744 20.1502 89.7744H20.8913C21.0189 89.7744 21.1304 89.6872 21.1623 89.5604L23.0989 80.5076C23.1148 80.4284 23.0989 80.3412 23.0431 80.2777C22.9873 80.2222 22.9076 80.1826 22.8199 80.1826Z" fill="#868686"/>
<path d="M29.5542 84.3998C29.0043 84.1224 28.6298 83.8529 28.4545 83.6071C28.2871 83.3772 28.1995 83.0285 28.1995 82.5845C28.1995 82.1485 28.311 81.8156 28.5501 81.5619C28.7812 81.3162 29.0681 81.1973 29.4427 81.1973C29.873 81.1973 30.3033 81.3083 30.7257 81.5223C30.7974 81.554 30.8771 81.5619 30.9488 81.5382C31.0206 81.5144 31.0763 81.4589 31.1082 81.3875L31.3473 80.8089C31.4031 80.682 31.3473 80.5314 31.2278 80.468C31.0365 80.3649 30.7974 80.2778 30.4866 80.1906C30.1758 80.1034 29.8252 80.0637 29.4506 80.0637C29.0123 80.0637 28.6059 80.1747 28.2313 80.3887C27.8568 80.6028 27.5699 80.9119 27.3627 81.3083C27.1634 81.6967 27.0598 82.1327 27.0598 82.6242C27.0598 83.0681 27.1236 83.4486 27.2431 83.7736C27.3706 84.1065 27.5699 84.3998 27.8249 84.6456C28.0799 84.8834 28.4465 85.1291 28.9486 85.3749C29.5064 85.6444 29.873 85.9139 30.0643 86.1676C30.2396 86.4133 30.3272 86.7542 30.3272 87.1981C30.3272 87.6737 30.1997 88.0542 29.9447 88.3555C29.6977 88.6408 29.3948 88.7835 29.0123 88.7835C28.7175 88.7835 28.4226 88.7518 28.1277 88.6884C27.8329 88.625 27.5938 88.5378 27.4025 88.4347C27.3149 88.3872 27.2113 88.3872 27.1316 88.4347C27.0439 88.4823 26.9961 88.5774 26.9961 88.6726V89.3305C26.9961 89.4335 27.0599 89.5287 27.1555 89.5762C27.6336 89.8061 28.2632 89.9171 29.0203 89.9171C29.7375 89.9171 30.3432 89.6555 30.8054 89.1323C31.2676 88.625 31.4987 87.9512 31.4987 87.1426C31.4987 86.5164 31.3393 85.9773 31.0206 85.5334C30.6938 85.0974 30.2077 84.7169 29.5542 84.3998Z" fill="#868686"/>
<path d="M40.1211 80.468C39.6669 80.1826 39.125 80.0399 38.5193 80.0399C37.5311 80.0399 36.7421 80.4997 36.1683 81.4113C35.6264 82.2754 35.3555 83.4724 35.3555 84.9626C35.3555 85.9535 35.483 86.8255 35.7221 87.5548C35.9771 88.3 36.3357 88.8866 36.8059 89.2908C37.292 89.7031 37.8578 89.9171 38.5034 89.9171C39.0772 89.9171 39.5553 89.814 39.9139 89.6C40.0016 89.5524 40.0494 89.4573 40.0494 89.3622V88.8073C40.0494 88.7122 40.0016 88.625 39.9219 88.5774C39.8422 88.5298 39.7386 88.5219 39.651 88.5616C39.3481 88.7122 38.9815 88.7835 38.5512 88.7835C38.1607 88.7835 37.826 88.6487 37.5311 88.3634C37.2203 88.0701 36.9733 87.6341 36.7979 87.0633C36.6226 86.4767 36.527 85.7712 36.527 84.9785C36.527 83.7577 36.7182 82.7906 37.1008 82.1168C37.4594 81.4826 37.9136 81.1735 38.4954 81.1735C38.8859 81.1735 39.2286 81.2686 39.5314 81.4668C39.5952 81.5064 39.6749 81.5223 39.7546 81.4985C39.8263 81.4747 39.89 81.4272 39.9299 81.3637L40.2088 80.8326C40.2885 80.6979 40.2487 80.5473 40.1211 80.468Z" fill="#868686"/>
<path d="M48.7996 80.1826H48.1859C48.0345 80.1826 47.907 80.3015 47.907 80.4601V84.2017H45.2931V80.4601C45.2931 80.3095 45.1735 80.1826 45.0141 80.1826H44.4005C44.2491 80.1826 44.1216 80.3015 44.1216 80.4601V89.5128C44.1216 89.6634 44.2411 89.7903 44.4005 89.7903H45.0141C45.1656 89.7903 45.2931 89.6714 45.2931 89.5128V85.3352H47.915V89.5128C47.915 89.6634 48.0345 89.7903 48.1939 89.7903H48.8075C48.959 89.7903 49.0865 89.6714 49.0865 89.5128V80.4601C49.0785 80.3095 48.951 80.1826 48.7996 80.1826Z" fill="#868686"/>
<path d="M68.5801 80.1826H66.9225C66.7711 80.1826 66.6436 80.3015 66.6436 80.4601V89.5128C66.6436 89.6634 66.7631 89.7903 66.9225 89.7903H68.5402C70.6441 89.7903 71.712 88.1494 71.712 84.8992C71.712 83.401 71.457 82.2357 70.947 81.443C70.413 80.6107 69.6161 80.1826 68.5801 80.1826ZM67.815 81.2924H68.5562C69.1937 81.2924 69.6639 81.5778 69.9907 82.1565C70.3413 82.7827 70.5246 83.7181 70.5246 84.9389C70.5246 86.1914 70.3493 87.1585 70.0066 87.8006C69.6878 88.3951 69.1937 88.6805 68.5163 88.6805H67.823V81.2924H67.815Z" fill="#868686"/>
<path d="M80.6604 80.1826H80.0627C79.9113 80.1826 79.7838 80.3015 79.7838 80.4601V86.7859C79.7838 86.8889 79.7838 86.992 79.7838 87.1109L76.9069 80.357C76.867 80.254 76.7634 80.1905 76.6519 80.1905H75.8629C75.7115 80.1905 75.584 80.3094 75.584 80.468V89.5207C75.584 89.6714 75.7035 89.7982 75.8629 89.7982H76.4606C76.612 89.7982 76.7395 89.6793 76.7395 89.5207V83.0284C76.7395 82.9571 76.7395 82.8858 76.7395 82.8223L79.6244 89.6317C79.6643 89.7348 79.7679 89.7982 79.8794 89.7982H80.6604C80.8119 89.7982 80.9394 89.6793 80.9394 89.5207V80.468C80.9394 80.3094 80.8119 80.1826 80.6604 80.1826Z" fill="#868686"/>
<path d="M85.7212 80.1826H85.1075C84.9561 80.1826 84.8286 80.3015 84.8286 80.4601V89.5128C84.8286 89.6634 84.9482 89.7903 85.1075 89.7903H85.7212C85.8726 89.7903 86.0001 89.6714 86.0001 89.5128V80.4601C85.9921 80.3095 85.8726 80.1826 85.7212 80.1826Z" fill="#868686"/>
<path d="M20.5559 95.8463C20.1335 95.8463 19.8147 96.0366 19.5916 96.4091C19.3844 96.7659 19.2808 97.2811 19.2808 97.9391C19.2808 98.5891 19.3844 99.0964 19.5836 99.4452C19.7988 99.8099 20.1175 99.9922 20.5399 99.9922C20.6276 99.9922 20.7312 99.9763 20.8507 99.9525C20.9703 99.9288 21.0818 99.8891 21.1615 99.8416C21.2014 99.8257 21.2173 99.7861 21.2173 99.7464V99.469C21.2173 99.4294 21.2014 99.3977 21.1695 99.3739C21.1376 99.3501 21.0978 99.3501 21.0659 99.358C20.8826 99.4294 20.7153 99.4611 20.5638 99.4611C20.0857 99.4611 19.8386 98.9458 19.8386 97.9232C19.8386 96.8927 20.0857 96.3695 20.5638 96.3695C20.6754 96.3695 20.8029 96.4012 20.9464 96.4646C20.9703 96.4805 21.0021 96.4805 21.034 96.4646C21.0659 96.4567 21.0818 96.4329 21.0978 96.4091L21.2253 96.1158C21.2492 96.0603 21.2253 96.0049 21.1775 95.9731C21.0261 95.8939 20.8109 95.8463 20.5559 95.8463Z" fill="#B1B1B1"/>
<path d="M26.1744 95.8464C25.9911 95.8464 25.8078 95.9019 25.6404 96.0208C25.5767 96.0684 25.5129 96.1159 25.4651 96.1794C25.4651 96.1714 25.4651 96.1635 25.4651 96.1556V94.3878C25.4651 94.3244 25.4173 94.2769 25.3535 94.2769H25.0188C24.955 94.2769 24.9072 94.3244 24.9072 94.3878V99.81C24.9072 99.8734 24.955 99.921 25.0188 99.921H25.3535C25.4173 99.921 25.4651 99.8734 25.4651 99.81V97.741C25.4651 97.2495 25.5288 96.8928 25.6564 96.6708C25.7679 96.4727 25.9353 96.3696 26.1664 96.3696C26.3258 96.3696 26.4453 96.4251 26.5091 96.5282C26.5888 96.655 26.6286 96.8769 26.6286 97.194V99.8021C26.6286 99.8655 26.6764 99.913 26.7402 99.913H27.0669C27.1307 99.913 27.1785 99.8655 27.1785 99.8021V97.194C27.1785 96.758 27.1068 96.433 26.9554 96.2031C26.804 95.9653 26.541 95.8464 26.1744 95.8464Z" fill="#B1B1B1"/>
<path d="M31.6255 95.9175H31.2908C31.227 95.9175 31.1792 95.965 31.1792 96.0285V99.8097C31.1792 99.8731 31.227 99.9207 31.2908 99.9207H31.6255C31.6892 99.9207 31.7371 99.8731 31.7371 99.8097V96.0285C31.7371 95.965 31.6892 95.9175 31.6255 95.9175Z" fill="#B1B1B1"/>
<path d="M31.2185 94.673C31.1627 94.7523 31.1309 94.8553 31.1309 94.9822C31.1309 95.109 31.1627 95.2041 31.2185 95.2834C31.2823 95.3706 31.3699 95.4182 31.4735 95.4182C31.5453 95.4182 31.6489 95.3944 31.7206 95.2755C31.7684 95.1962 31.7923 95.1011 31.7923 94.9743C31.7923 94.8474 31.7684 94.7444 31.7206 94.673C31.609 94.4986 31.346 94.4986 31.2185 94.673Z" fill="#B1B1B1"/>
<path d="M36.2075 94.2769H35.8728C35.809 94.2769 35.7612 94.3244 35.7612 94.3878V99.81C35.7612 99.8734 35.809 99.921 35.8728 99.921H36.2075C36.2713 99.921 36.3191 99.8734 36.3191 99.81V94.3878C36.3191 94.3244 36.2633 94.2769 36.2075 94.2769Z" fill="#B1B1B1"/>
<path d="M40.7822 94.2769H40.4475C40.3838 94.2769 40.3359 94.3244 40.3359 94.3878V99.81C40.3359 99.8734 40.3838 99.921 40.4475 99.921H40.7822C40.846 99.921 40.8938 99.8734 40.8938 99.81V94.3878C40.8938 94.3244 40.838 94.2769 40.7822 94.2769Z" fill="#B1B1B1"/>
<path d="M46.0104 95.8463C45.1657 95.8463 44.7354 96.5439 44.7354 97.9153C44.7354 98.5653 44.839 99.0806 45.0462 99.4294C45.2613 99.8019 45.5801 99.9922 45.9945 99.9922C46.4089 99.9922 46.7357 99.8019 46.9588 99.4294C47.174 99.0726 47.2776 98.5653 47.2776 97.9074C47.2776 97.2732 47.166 96.7659 46.9588 96.4091C46.7277 96.0366 46.4089 95.8463 46.0104 95.8463ZM46.0025 99.4531C45.7714 99.4531 45.604 99.3342 45.4924 99.0964C45.3729 98.8348 45.3091 98.4305 45.3091 97.9074C45.3091 97.3842 45.3729 96.9799 45.4924 96.7262C45.604 96.4963 45.7714 96.3774 46.0104 96.3774C46.4806 96.3774 46.7117 96.8927 46.7117 97.9074C46.7038 98.9379 46.4647 99.4531 46.0025 99.4531Z" fill="#B1B1B1"/>
<path d="M53.2543 95.9175H52.9275C52.8638 95.9175 52.8159 95.965 52.8159 96.0285V98.1054C52.8159 98.5968 52.7522 98.9536 52.6326 99.1676C52.5211 99.3658 52.3458 99.4609 52.0987 99.4609C51.9553 99.4609 51.8517 99.3975 51.7799 99.2627C51.7002 99.1042 51.6604 98.8505 51.6604 98.4938V96.0285C51.6604 95.965 51.6126 95.9175 51.5488 95.9175H51.2141C51.1504 95.9175 51.1025 95.965 51.1025 96.0285V98.4938C51.1025 99.009 51.1743 99.3737 51.3336 99.6115C51.493 99.8572 51.756 99.9841 52.0987 99.9841C52.29 99.9841 52.4733 99.9286 52.6406 99.8097C52.7203 99.7542 52.792 99.6829 52.8558 99.6036L52.8717 99.8176C52.8797 99.8731 52.9275 99.9207 52.9833 99.9207H53.2622C53.326 99.9207 53.3738 99.8731 53.3738 99.8097V96.0285C53.3738 95.965 53.318 95.9175 53.2543 95.9175Z" fill="#B1B1B1"/>
<path d="M58.4341 99.4215C58.3703 99.4453 58.2906 99.4532 58.195 99.4532C58.0675 99.4532 58.0196 99.4057 57.9957 99.366C57.9718 99.3264 57.924 99.2075 57.924 98.8983V96.4251H58.4181C58.4819 96.4251 58.5297 96.3775 58.5297 96.3141V96.0208C58.5297 95.9574 58.4819 95.9098 58.4181 95.9098H57.924V95.125C57.924 95.0616 57.8762 95.014 57.8124 95.014H57.5813C57.5255 95.014 57.4777 95.0537 57.4697 95.1092L57.3661 95.9336L57.1031 96.0129C57.0553 96.0287 57.0234 96.0683 57.0234 96.1238V96.322C57.0234 96.3854 57.0713 96.433 57.135 96.433H57.3661V99.0014C57.3661 99.8179 57.7487 99.9843 58.0675 99.9843C58.2428 99.9843 58.3942 99.9605 58.5058 99.9051C58.5456 99.8892 58.5696 99.8496 58.5696 99.802V99.5246C58.5696 99.4849 58.5536 99.4532 58.5217 99.4374C58.5058 99.4215 58.466 99.4136 58.4341 99.4215Z" fill="#B1B1B1"/>
<path d="M68.0528 95.8541C67.7579 95.8541 67.5188 95.9651 67.3196 96.195V94.3955C67.3196 94.3321 67.2718 94.2845 67.208 94.2845H66.8733C66.8095 94.2845 66.7617 94.3321 66.7617 94.3955V99.8177C66.7617 99.8811 66.8095 99.9286 66.8733 99.9286H67.1443C67.2 99.9286 67.2479 99.8811 67.2558 99.8256L67.2797 99.5957C67.3515 99.6908 67.4391 99.7701 67.5268 99.8335C67.6942 99.9445 67.8854 100 68.0847 100C68.4752 100 68.778 99.8097 68.9852 99.4372C69.1765 99.0884 69.2721 98.5731 69.2721 97.9152C69.2801 96.5438 68.8657 95.8541 68.0528 95.8541ZM68.0369 96.3852C68.268 96.3852 68.4274 96.4962 68.531 96.734C68.6505 96.9956 68.7063 97.392 68.7063 97.9152C68.7063 98.4621 68.6425 98.8743 68.523 99.128C68.4114 99.3579 68.26 99.4689 68.0448 99.4689C67.8615 99.4689 67.3116 99.4689 67.3116 98.0024V97.9152C67.3116 97.3523 67.3754 96.9481 67.4949 96.7102C67.6145 96.4883 67.7898 96.3852 68.0369 96.3852Z" fill="#B1B1B1"/>
<path d="M74.0932 95.8463C73.7824 95.8463 73.4875 95.9335 73.2006 96.1079C73.1528 96.1396 73.1289 96.203 73.1608 96.2585L73.3042 96.5201C73.3202 96.5439 73.3441 96.5677 73.3759 96.5756C73.4078 96.5835 73.4397 96.5756 73.4636 96.5598C73.6708 96.4329 73.878 96.3616 74.0693 96.3616C74.2366 96.3616 74.3402 96.4171 74.4119 96.5439C74.4916 96.6866 74.5315 96.9323 74.5315 97.2653V97.4714L74.2287 97.4872C73.8063 97.511 73.4795 97.6299 73.2405 97.8598C73.0014 98.0897 72.8818 98.4068 72.8818 98.7952C72.8818 99.1519 72.9695 99.4373 73.1289 99.6513C73.3042 99.8733 73.5353 99.9922 73.8143 99.9922C74.1251 99.9922 74.3801 99.8654 74.5713 99.6196L74.5873 99.8178C74.5952 99.8733 74.6431 99.9208 74.6988 99.9208H74.9698C75.0336 99.9208 75.0814 99.8733 75.0814 99.8099V97.2336C75.0814 96.7421 75.0096 96.4012 74.8582 96.1872C74.6988 95.9573 74.4438 95.8463 74.0932 95.8463ZM73.8939 99.4849C73.7585 99.4849 73.6628 99.4373 73.5831 99.3342C73.5034 99.2233 73.4556 99.0489 73.4556 98.8031C73.4556 98.5415 73.5194 98.3434 73.6469 98.2165C73.7744 98.0897 73.9816 98.0104 74.2526 97.9946L74.5315 97.9787V98.2562C74.5315 98.6604 74.4677 98.9775 74.3482 99.1915C74.2366 99.3897 74.0852 99.4849 73.8939 99.4849Z" fill="#B1B1B1"/>
<path d="M80.6209 95.9018C80.5093 95.8622 80.3818 95.8463 80.2543 95.8463C79.9913 95.8463 79.7762 95.9969 79.6008 96.2823L79.5849 96.0207C79.5849 95.9652 79.5291 95.9177 79.4733 95.9177H79.2024C79.1386 95.9177 79.0908 95.9652 79.0908 96.0286V99.8099C79.0908 99.8733 79.1386 99.9208 79.2024 99.9208H79.5371C79.6008 99.9208 79.6487 99.8733 79.6487 99.8099V97.8043C79.6487 97.5348 79.6805 97.2811 79.7363 97.0592C79.7921 96.8451 79.8718 96.6707 79.9754 96.5518C80.1348 96.3616 80.3021 96.3695 80.4615 96.4408C80.4934 96.4567 80.5253 96.4488 80.5571 96.4408C80.589 96.425 80.6049 96.4012 80.6129 96.3695L80.6926 96.0366C80.7165 95.9731 80.6767 95.9177 80.6209 95.9018Z" fill="#B1B1B1"/>
<path d="M49.007 47.5704C49.1903 36.9164 49.3816 26.2545 49.5649 15.6005C47.8355 13.7931 46.1062 11.9778 44.3768 10.1704C42.0498 11.4863 38.9019 12.5882 36.5749 15.9493C36.0967 16.631 33.674 20.1348 34.1442 24.2489C34.9332 31.1217 42.9105 31.7797 43.6994 37.8994C43.9066 39.5244 43.5321 40.9196 42.9264 42.2038C44.9506 43.9874 46.9828 45.7789 49.007 47.5704Z" fill="url(#paint0_linear)"/>
<path d="M65.9336 55.8703C67.1131 56.8533 68.3563 58.1612 69.6473 59.8814C70.3167 59.8894 70.9702 59.8894 71.5998 59.8656C78.0709 54.5465 82.5337 46.8889 83.6653 38.1929C80.1588 42.1247 74.6441 47.8639 65.9336 55.8703Z" fill="url(#paint1_linear)"/>
<path d="M64.5552 12.6517C64.595 13.6346 64.7225 14.5224 64.8819 15.3072C67.3524 12.9687 69.8229 10.6382 72.2934 8.29967C66.42 3.21048 58.7695 0.0951252 50.3857 0C50.4017 1.10979 50.4176 2.28301 50.4336 3.51171C50.585 14.1182 50.7523 22.7904 50.8719 28.5613C55.2391 24.4075 59.6062 20.2458 63.9734 16.092C63.7343 15.0456 63.5271 13.5633 63.6945 11.8193C63.9734 8.9497 65.121 6.84109 65.8382 5.7313C65.1848 7.30086 64.4436 9.70277 64.5552 12.6517Z" fill="url(#paint2_linear)"/>
<path d="M58.9527 22.8377C59.5663 22.9646 60.4111 23.1231 61.4232 23.242C66.9459 23.9158 70.827 22.8219 70.8748 23.0438C70.9147 23.2579 67.6154 24.4311 63.3996 24.6927C60.961 24.8433 58.9208 24.6372 57.4943 24.4152L50.9355 31.51C51.079 39.5322 51.2145 47.5544 51.3579 55.5687C53.932 54.459 56.4981 52.8815 59.6859 53.0876C60.9689 53.1668 62.4751 53.5553 64.1407 54.562C65.5433 53.3254 66.938 52.0967 68.3406 50.86C68.1891 49.5441 68.1015 47.6337 68.5159 45.4062C69.1694 41.8945 70.7553 39.2786 70.9386 39.3499C71.1059 39.4133 69.9344 41.7597 69.7511 45.3269C69.6635 47.0154 69.8308 48.4264 69.9982 49.4015C72.5324 47.0313 76.2461 43.5354 80.7169 39.2072C81.8645 38.0895 82.9324 37.059 83.8887 36.1236C83.9445 35.3546 83.9684 34.5778 83.9684 33.793C83.9684 23.8286 79.6331 14.871 72.7476 8.68787C68.1413 13.4124 63.543 18.1211 58.9527 22.8377Z" fill="url(#paint3_linear)"/>
<path d="M47.3413 6.95206C47.0703 7.91124 46.5204 8.61675 45.7952 9.21128C47.0703 10.329 48.3454 11.4467 49.6205 12.5644C49.6763 7.56244 49.7241 3.41658 49.7639 0C48.2577 0.00792709 46.7834 0.118906 45.333 0.317084C47.66 3.51963 47.7238 5.62031 47.3413 6.95206Z" fill="url(#paint4_linear)"/>
<path d="M48.9275 52.1604C46.4889 49.6158 44.0423 47.0791 41.6037 44.5345C40.2728 46.6907 38.9738 48.728 39.8744 51.3756C40.6793 53.73 42.8549 55.4898 44.9109 56.2112C46.3135 56.7026 47.6046 56.6947 48.8557 56.4252L48.9275 52.1604Z" fill="url(#paint5_linear)"/>
<path d="M67.2727 59.786C68.0856 59.8415 68.8745 59.8732 69.6475 59.889C68.3565 58.161 67.1133 56.861 65.9338 55.8781C64.7942 56.9244 63.5988 58.0183 62.3477 59.1439C63.8459 59.4213 65.4955 59.6591 67.2727 59.786Z" fill="url(#paint6_linear)"/>
<path d="M59.6697 53.1038C56.482 52.8977 53.9159 54.4752 51.3418 55.585C51.3976 58.954 51.4613 62.3152 51.5171 65.6842C55.7169 61.9822 59.9168 58.2802 64.1246 54.5782C62.459 53.5635 60.9608 53.183 59.6697 53.1038Z" fill="url(#paint7_linear)"/>
<path d="M47.3412 6.95214C47.7237 5.62038 47.66 3.51969 45.3329 0.317139C42.727 0.673859 40.2246 1.32388 37.8418 2.22757C40.4956 4.55022 43.1494 6.88079 45.7952 9.20344C46.5204 8.62476 47.0703 7.91924 47.3412 6.95214Z" fill="url(#paint8_linear)"/>
<path d="M30.2633 26.6432C30.0083 22.1485 28.9563 19.2789 29.1316 19.2234C29.3229 19.1679 30.8371 22.5449 31.5224 26.9127C31.8811 29.1878 31.9209 31.1141 31.889 32.4458C35.5629 35.6959 39.2447 38.9381 42.9185 42.1882C43.5162 40.904 43.8988 39.5168 43.6916 37.8838C42.9026 31.7641 34.9253 31.0982 34.1364 24.2333C33.6662 20.1192 36.0968 16.6233 36.567 15.9337C38.894 12.5726 42.0499 11.4707 44.3689 10.1548C44.1857 9.96455 44.0024 9.76637 43.8191 9.57612C42.6555 9.8932 40.9581 10.2103 38.9339 10.0835C35.3318 9.85357 32.6142 8.31571 32.67 8.12546C32.7338 7.93521 35.4433 9.17976 39.2208 8.76755C40.5357 8.62487 41.6116 8.32364 42.3687 8.06204C40.6074 6.21503 38.8383 4.36801 37.077 2.521C28.773 5.9138 22.1187 12.4933 18.644 20.7296C22.5012 24.1461 26.3583 27.5627 30.2155 30.9793C30.3031 29.9408 30.3589 28.4426 30.2633 26.6432Z" fill="url(#paint9_linear)"/>
<path d="M44.9107 56.2114C42.8546 55.49 40.679 53.7302 39.8741 51.3759C38.9736 48.7282 40.2726 46.6909 41.6035 44.5348C40.8623 43.7579 40.1132 42.989 39.3721 42.2121C37.7463 42.4261 35.4113 42.6323 32.5981 42.5371C26.8443 42.339 22.3974 40.9596 22.4213 40.7852C22.4532 40.6188 26.3582 41.6414 32.0403 41.3877C34.4869 41.2767 36.5111 40.9676 37.9057 40.698C31.347 34.4039 24.7882 28.1019 18.2295 21.8077C16.803 25.5335 16.022 29.5763 16.022 33.8015C16.022 52.0259 30.5102 66.8734 48.6483 67.5709L48.8396 56.4254C47.6044 56.6949 46.3133 56.7108 44.9107 56.2114Z" fill="url(#paint10_linear)"/>
<path d="M70.3165 60.8009C69.5275 60.8881 68.7067 60.9515 67.854 60.9911C65.2161 61.1021 62.8652 60.9277 60.8968 60.6582L54.5293 67.3011C60.4106 66.5163 65.8218 64.2413 70.3563 60.8564C70.3882 60.8326 70.4121 60.8088 70.444 60.785C70.3962 60.793 70.3563 60.8009 70.3165 60.8009Z" fill="url(#paint11_linear)"/>
<path d="M69.6475 59.889C68.3565 58.161 67.1133 56.861 65.9338 55.8781C64.7942 56.9244 63.5988 58.0183 62.3477 59.1439C63.8459 59.4293 65.4955 59.6591 67.2807 59.786C68.0856 59.8415 68.8745 59.8732 69.6475 59.889Z" fill="url(#paint12_linear)"/>
<path d="M59.6697 53.1038C56.482 52.8977 53.9159 54.4752 51.3418 55.585C51.3976 58.954 51.4613 62.3152 51.5171 65.6842C55.7169 61.9822 59.9168 58.2802 64.1246 54.5782C62.459 53.5635 60.9608 53.183 59.6697 53.1038Z" fill="url(#paint13_linear)"/>
<path d="M45.8035 9.21133C46.5287 8.6168 47.0706 7.91129 47.3495 6.95211C47.732 5.62036 47.6683 3.51968 45.3413 0.317139C42.7353 0.673857 40.2329 1.32388 37.8501 2.22757C40.4959 4.55813 43.1497 6.88869 45.8035 9.21133Z" fill="url(#paint14_linear)"/>
<path d="M30.2314 30.9872C30.3031 29.9408 30.3589 28.4426 30.2633 26.6432C30.0083 22.1485 28.9563 19.2789 29.1316 19.2234C29.3229 19.1679 30.8371 22.5449 31.5224 26.9127C31.8811 29.1878 31.9209 31.1141 31.889 32.4458C35.5629 35.6959 39.2447 38.9381 42.9185 42.1882C43.5162 40.904 43.8988 39.5168 43.6916 37.8838C42.9026 31.7641 34.9253 31.0982 34.1364 24.2333C33.6662 20.1192 36.0968 16.6233 36.567 15.9337C38.894 12.5726 42.0499 11.4707 44.3689 10.1548C44.1857 9.96455 44.0024 9.76637 43.8191 9.57612C42.6555 9.8932 40.9581 10.2103 38.9339 10.0835C35.3318 9.85357 32.6142 8.31571 32.67 8.12546C32.7338 7.93521 35.4433 9.17976 39.2208 8.76755C40.5357 8.62487 41.6116 8.32364 42.3687 8.06204C40.6074 6.21503 38.8383 4.36801 37.077 2.521C28.773 5.9138 22.1187 12.4933 18.644 20.7296C22.5171 24.1541 26.3743 27.5706 30.2314 30.9872Z" fill="url(#paint15_linear)"/>
<path d="M67.854 60.9911C65.2161 61.1021 62.8652 60.9277 60.8968 60.6582L54.5293 67.3011C60.4106 66.5163 65.8218 64.2413 70.3563 60.8564C70.3404 60.8405 70.3324 60.8247 70.3165 60.8009C69.5196 60.8881 68.7067 60.9515 67.854 60.9911Z" fill="url(#paint16_linear)"/>
<path d="M48.8555 56.4254C47.6123 56.6949 46.3133 56.7108 44.9107 56.2114C42.8546 55.49 40.679 53.7302 39.8741 51.3759C38.9736 48.7282 40.2726 46.6909 41.6035 44.5348C40.8623 43.7579 40.1132 42.989 39.3721 42.2121C37.7463 42.4261 35.4113 42.6323 32.5981 42.5371C26.8443 42.339 22.3974 40.9596 22.4213 40.7852C22.4532 40.6188 26.3582 41.6414 32.0403 41.3877C34.4869 41.2767 36.5111 40.9676 37.9057 40.698C31.347 34.4039 24.7882 28.1019 18.2295 21.8077C16.803 25.5335 16.022 29.5763 16.022 33.8015C16.022 52.0259 30.5102 66.8734 48.6483 67.5709L48.8555 56.4254Z" fill="url(#paint17_linear)"/>
<path d="M57.7174 86.9206C57.7413 85.3827 57.7732 83.8369 57.7971 82.2991C57.5501 82.0375 57.2951 81.7759 57.048 81.5143C56.7133 81.7045 56.2591 81.8631 55.9164 82.3466C55.8447 82.4418 55.494 82.9491 55.5658 83.5436C55.6773 84.5345 56.8329 84.6296 56.9444 85.5175C56.9763 85.7553 56.9205 85.9535 56.8329 86.1358C57.1357 86.4053 57.4305 86.659 57.7174 86.9206Z" fill="url(#paint18_linear)"/>
<path d="M60.1719 88.1178C60.3392 88.2605 60.5225 88.4508 60.7058 88.6965C60.8015 88.6965 60.8971 88.6965 60.9848 88.6965C61.9172 87.9276 62.5627 86.8178 62.7301 85.5653C62.228 86.1361 61.4231 86.9605 60.1719 88.1178Z" fill="url(#paint19_linear)"/>
<path d="M59.9651 81.8712C59.9731 82.0139 59.9891 82.1407 60.013 82.2517C60.3716 81.9108 60.7302 81.5779 61.0809 81.237C60.2281 80.4998 59.1284 80.048 57.917 80.04C57.917 80.1986 57.925 80.373 57.925 80.5474C57.9489 82.0773 57.9728 83.3377 57.9887 84.1701C58.6183 83.5676 59.2479 82.9651 59.8855 82.3706C59.8536 82.22 59.8217 82.006 59.8456 81.7523C59.8855 81.3401 60.0528 81.0309 60.1564 80.8724C60.0608 81.1023 59.9492 81.4431 59.9651 81.8712Z" fill="url(#paint20_linear)"/>
<path d="M59.1601 83.3458C59.2478 83.3617 59.3673 83.3855 59.5187 83.4013C60.3156 83.4965 60.8815 83.3379 60.8815 83.3696C60.8894 83.4013 60.4113 83.5678 59.7976 83.6074C59.447 83.6312 59.1521 83.5995 58.9449 83.5678L57.9966 84.5904C58.0205 85.7478 58.0364 86.913 58.0603 88.0704C58.4349 87.9119 58.8015 87.682 59.2637 87.7137C59.447 87.7295 59.6701 87.7771 59.9092 87.9277C60.1084 87.7533 60.3156 87.571 60.5149 87.3966C60.491 87.2064 60.483 86.9289 60.5388 86.6118C60.6344 86.1045 60.8655 85.724 60.8894 85.7398C60.9133 85.7478 60.746 86.0886 60.7141 86.6039C60.6982 86.8496 60.7221 87.0557 60.746 87.1905C61.1126 86.8496 61.6465 86.3423 62.292 85.7161C62.4594 85.5575 62.6108 85.4069 62.7543 85.2721C62.7622 85.1612 62.7702 85.0502 62.7702 84.9313C62.7702 83.4885 62.1406 82.1964 61.1445 81.3007C60.491 81.9824 59.8216 82.6641 59.1601 83.3458Z" fill="url(#paint21_linear)"/>
<path d="M57.4788 81.0468C57.4389 81.1895 57.3592 81.2846 57.2556 81.3718C57.4389 81.5303 57.6222 81.6968 57.8055 81.8553C57.8135 81.134 57.8215 80.5315 57.8294 80.04C57.6143 80.04 57.3991 80.0559 57.1919 80.0876C57.5266 80.5553 57.5346 80.8565 57.4788 81.0468Z" fill="url(#paint22_linear)"/>
<path d="M57.7094 87.5868C57.3588 87.2221 57.0002 86.8495 56.6496 86.4849C56.4583 86.794 56.2671 87.0873 56.4026 87.4758C56.5221 87.8167 56.8329 88.0703 57.1277 88.1734C57.3269 88.2447 57.5182 88.2447 57.7015 88.2051L57.7094 87.5868Z" fill="url(#paint23_linear)"/>
<path d="M60.3626 88.6884C60.4822 88.6964 60.5938 88.7043 60.7053 88.7043C60.522 88.4586 60.3387 88.2683 60.1714 88.1256C60.004 88.2762 59.8366 88.4348 59.6533 88.6012C59.8685 88.6329 60.0996 88.6647 60.3626 88.6884Z" fill="url(#paint24_linear)"/>
<path d="M59.2629 87.7211C58.8007 87.6894 58.4341 87.9193 58.0596 88.0778C58.0675 88.5614 58.0755 89.0529 58.0835 89.5364C58.6891 88.9974 59.2948 88.4663 59.9085 87.9272C59.6614 87.7845 59.4462 87.729 59.2629 87.7211Z" fill="url(#paint25_linear)"/>
<path d="M57.4777 81.0467C57.5335 80.8565 57.5255 80.5473 57.1908 80.0875C56.8162 80.1351 56.4496 80.2302 56.1069 80.365C56.4895 80.6979 56.872 81.0388 57.2545 81.3717C57.3581 81.2924 57.4378 81.1894 57.4777 81.0467Z" fill="url(#paint26_linear)"/>
<path d="M55.008 83.8922C54.9682 83.2422 54.8168 82.83 54.8486 82.8221C54.8725 82.8141 55.0957 83.3056 55.1913 83.9319C55.2471 84.2648 55.2471 84.5423 55.2471 84.7325C55.7811 85.2002 56.307 85.6679 56.841 86.1435C56.9286 85.9612 56.9844 85.7551 56.9525 85.5252C56.841 84.6374 55.6854 84.5423 55.5738 83.5514C55.5021 82.9568 55.8528 82.4495 55.9245 82.3544C56.2592 81.8708 56.7135 81.7123 57.0561 81.522C57.0322 81.4903 57.0004 81.4665 56.9764 81.4348C56.8091 81.4824 56.562 81.53 56.2672 81.5062C55.7492 81.4745 55.3507 81.2525 55.3587 81.2208C55.3666 81.197 55.7571 81.3714 56.307 81.3159C56.4983 81.2921 56.6497 81.2525 56.7613 81.2129C56.5063 80.9434 56.2512 80.6818 55.9962 80.4122C54.7929 80.9037 53.8365 81.855 53.3345 83.044C53.8923 83.5355 54.4502 84.0349 55.008 84.5264C55.016 84.3679 55.024 84.1538 55.008 83.8922Z" fill="url(#paint27_linear)"/>
<path d="M57.1277 88.1732C56.8329 88.0701 56.5141 87.8165 56.4025 87.4756C56.275 87.0951 56.4583 86.8018 56.6496 86.4847C56.538 86.3737 56.4344 86.2627 56.3228 86.1518C56.0917 86.1835 55.749 86.2152 55.3426 86.1993C54.5138 86.1676 53.8683 85.9694 53.8683 85.9457C53.8763 85.9219 54.4341 86.0725 55.2629 86.0329C55.6136 86.017 55.9084 85.9694 56.1077 85.9298C55.1593 85.0182 54.211 84.1066 53.2626 83.2029C53.0554 83.7419 52.9438 84.3285 52.9438 84.9389C52.9438 87.5707 55.0398 89.719 57.6617 89.822L57.6936 88.2128C57.5182 88.2366 57.3349 88.2445 57.1277 88.1732Z" fill="url(#paint28_linear)"/>
<path d="M60.8018 88.8308C60.6903 88.8466 60.5707 88.8546 60.4432 88.8546C60.0607 88.8704 59.718 88.8466 59.4391 88.807L58.5146 89.7662C59.3674 89.6552 60.1484 89.3302 60.8018 88.8308C60.8098 88.8387 60.8178 88.8308 60.8178 88.8308C60.8098 88.8308 60.8098 88.8308 60.8018 88.8308Z" fill="url(#paint29_linear)"/>
<path d="M60.7053 88.7043C60.522 88.4586 60.3387 88.2683 60.1714 88.1256C60.004 88.2762 59.8366 88.4348 59.6533 88.6012C59.8685 88.6409 60.1076 88.6726 60.3626 88.6964C60.4822 88.6964 60.5938 88.6964 60.7053 88.7043Z" fill="url(#paint30_linear)"/>
<path d="M59.2629 87.7211C58.8007 87.6894 58.4341 87.9193 58.0596 88.0778C58.0675 88.5614 58.0755 89.0529 58.0835 89.5364C58.6891 88.9974 59.2948 88.4663 59.9085 87.9272C59.6614 87.7845 59.4462 87.729 59.2629 87.7211Z" fill="url(#paint31_linear)"/>
<path d="M57.2545 81.3717C57.3581 81.2845 57.4378 81.1815 57.4777 81.0467C57.5335 80.8565 57.5255 80.5473 57.1908 80.0875C56.8162 80.1351 56.4496 80.2302 56.1069 80.365C56.4895 80.7058 56.872 81.0388 57.2545 81.3717Z" fill="url(#paint32_linear)"/>
<path d="M55.0079 84.5265C55.0158 84.3759 55.0238 84.1619 55.0158 83.9003C54.976 83.2503 54.8246 82.838 54.8565 82.8301C54.8804 82.8222 55.1035 83.3137 55.1991 83.9399C55.2549 84.2729 55.2549 84.5503 55.2549 84.7406C55.7889 85.2083 56.3148 85.676 56.8488 86.1516C56.9364 85.9693 56.9922 85.7632 56.9604 85.5333C56.8488 84.6454 55.6932 84.5503 55.5817 83.5594C55.5099 82.9649 55.8606 82.4576 55.9323 82.3624C56.267 81.8789 56.7213 81.7203 57.064 81.5301C57.04 81.4984 57.0082 81.4746 56.9843 81.4429C56.8169 81.4904 56.5699 81.538 56.275 81.5142C55.757 81.4825 55.3585 81.2606 55.3665 81.2288C55.3745 81.2051 55.765 81.3795 56.3148 81.324C56.5061 81.3002 56.6575 81.2606 56.7691 81.2209C56.5141 80.9514 56.2591 80.6898 56.004 80.4203C54.8007 80.9118 53.8444 81.863 53.3423 83.0521C53.8922 83.5356 54.45 84.0271 55.0079 84.5265Z" fill="url(#paint33_linear)"/>
<path d="M60.4432 88.8624C60.0606 88.8782 59.718 88.8545 59.4391 88.8148L58.5146 89.774C59.3673 89.663 60.1483 89.3301 60.8018 88.8465C60.8018 88.8465 60.8018 88.8386 60.7938 88.8386C60.6902 88.8465 60.5707 88.8545 60.4432 88.8624Z" fill="url(#paint34_linear)"/>
<path d="M57.7015 88.1968C57.5182 88.2365 57.3349 88.2365 57.1277 88.1651C56.8329 88.0621 56.5141 87.8084 56.4025 87.4675C56.275 87.087 56.4583 86.7937 56.6496 86.4766C56.538 86.3657 56.4344 86.2547 56.3228 86.1437C56.0917 86.1754 55.749 86.2071 55.3426 86.1913C54.5138 86.1596 53.8683 85.9614 53.8683 85.9376C53.8763 85.9138 54.4341 86.0644 55.2629 86.0248C55.6136 86.0089 55.9084 85.9614 56.1077 85.9217C55.1593 85.0101 54.211 84.0985 53.2626 83.1948C53.0554 83.7339 52.9438 84.3205 52.9438 84.9309C52.9438 87.5626 55.0398 89.7109 57.6617 89.814L57.7015 88.1968Z" fill="url(#paint35_linear)"/>
<defs>
<linearGradient id="paint0_linear" x1="28.9146" y1="43.4958" x2="76.1879" y2="2.18273" gradientUnits="userSpaceOnUse">
<stop stop-color="#378A31"/>
<stop offset="0.1258" stop-color="#439038"/>
<stop offset="0.3512" stop-color="#62A149"/>
<stop offset="0.65" stop-color="#94BC66"/>
<stop offset="1" stop-color="#D7E18D"/>
</linearGradient>
<linearGradient id="paint1_linear" x1="50.723" y1="72.3128" x2="93.9715" y2="34.5173" gradientUnits="userSpaceOnUse">
<stop stop-color="#378A31"/>
<stop offset="0.1258" stop-color="#439038"/>
<stop offset="0.3512" stop-color="#62A149"/>
<stop offset="0.65" stop-color="#94BC66"/>
<stop offset="1" stop-color="#D7E18D"/>
</linearGradient>
<linearGradient id="paint2_linear" x1="24.9359" y1="36.5049" x2="68.0333" y2="-1.15865" gradientUnits="userSpaceOnUse">
<stop stop-color="#378A31"/>
<stop offset="0.1258" stop-color="#439038"/>
<stop offset="0.3512" stop-color="#62A149"/>
<stop offset="0.65" stop-color="#94BC66"/>
<stop offset="1" stop-color="#D7E18D"/>
</linearGradient>
<linearGradient id="paint3_linear" x1="38.907" y1="57.1614" x2="83.661" y2="18.0501" gradientUnits="userSpaceOnUse">
<stop stop-color="#378A31"/>
<stop offset="0.1258" stop-color="#439038"/>
<stop offset="0.3512" stop-color="#62A149"/>
<stop offset="0.65" stop-color="#94BC66"/>
<stop offset="1" stop-color="#D7E18D"/>
</linearGradient>
<linearGradient id="paint4_linear" x1="19.9785" y1="30.2231" x2="65.78" y2="-9.80355" gradientUnits="userSpaceOnUse">
<stop stop-color="#378A31"/>
<stop offset="0.1258" stop-color="#439038"/>
<stop offset="0.3512" stop-color="#62A149"/>
<stop offset="0.65" stop-color="#94BC66"/>
<stop offset="1" stop-color="#D7E18D"/>
</linearGradient>
<linearGradient id="paint5_linear" x1="39.6467" y1="55.3053" x2="79.112" y2="20.816" gradientUnits="userSpaceOnUse">
<stop stop-color="#378A31"/>
<stop offset="0.1258" stop-color="#439038"/>
<stop offset="0.3512" stop-color="#62A149"/>
<stop offset="0.65" stop-color="#94BC66"/>
<stop offset="1" stop-color="#D7E18D"/>
</linearGradient>
<linearGradient id="paint6_linear" x1="-1053.11" y1="618.629" x2="1701.89" y2="-774.424" gradientUnits="userSpaceOnUse">
<stop stop-color="#D7E18D"/>
<stop offset="1" stop-color="#D7E18D"/>
</linearGradient>
<linearGradient id="paint7_linear" x1="-2887.12" y1="1530.76" x2="4362.08" y2="-2134.58" gradientUnits="userSpaceOnUse">
<stop stop-color="#D7E18D"/>
<stop offset="1" stop-color="#D7E18D"/>
</linearGradient>
<linearGradient id="paint8_linear" x1="-1361.63" y1="707.851" x2="2098.53" y2="-1041.69" gradientUnits="userSpaceOnUse">
<stop stop-color="#D7E18D"/>
<stop offset="1" stop-color="#D7E18D"/>
</linearGradient>
<linearGradient id="paint9_linear" x1="-4983.69" y1="2535.59" x2="7377.16" y2="-3714.36" gradientUnits="userSpaceOnUse">
<stop stop-color="#D7E18D"/>
<stop offset="1" stop-color="#D7E18D"/>
</linearGradient>
<linearGradient id="paint10_linear" x1="-4081.13" y1="2103.14" x2="6044.51" y2="-3016.63" gradientUnits="userSpaceOnUse">
<stop stop-color="#D7E18D"/>
<stop offset="1" stop-color="#D7E18D"/>
</linearGradient>
<linearGradient id="paint11_linear" x1="-3041.37" y1="1615.43" x2="4600.37" y2="-2248.43" gradientUnits="userSpaceOnUse">
<stop stop-color="#D7E18D"/>
<stop offset="1" stop-color="#D7E18D"/>
</linearGradient>
<linearGradient id="paint12_linear" x1="23.8489" y1="79.8622" x2="62.827" y2="60.1532" gradientUnits="userSpaceOnUse">
<stop stop-color="#378A31"/>
<stop offset="1" stop-color="#D7E18D"/>
</linearGradient>
<linearGradient id="paint13_linear" x1="21.6681" y1="75.5212" x2="60.6342" y2="55.8192" gradientUnits="userSpaceOnUse">
<stop stop-color="#378A31"/>
<stop offset="1" stop-color="#D7E18D"/>
</linearGradient>
<linearGradient id="paint14_linear" x1="-2.46" y1="27.8781" x2="36.517" y2="8.17031" gradientUnits="userSpaceOnUse">
<stop stop-color="#378A31"/>
<stop offset="1" stop-color="#D7E18D"/>
</linearGradient>
<linearGradient id="paint15_linear" x1="3.87651" y1="40.3852" x2="42.8472" y2="20.6807" gradientUnits="userSpaceOnUse">
<stop stop-color="#378A31"/>
<stop offset="1" stop-color="#D7E18D"/>
</linearGradient>
<linearGradient id="paint16_linear" x1="24.7004" y1="81.5249" x2="63.6711" y2="61.8203" gradientUnits="userSpaceOnUse">
<stop stop-color="#378A31"/>
<stop offset="1" stop-color="#D7E18D"/>
</linearGradient>
<linearGradient id="paint17_linear" x1="11.5875" y1="55.6212" x2="50.5695" y2="35.911" gradientUnits="userSpaceOnUse">
<stop stop-color="#378A31"/>
<stop offset="1" stop-color="#D7E18D"/>
</linearGradient>
<linearGradient id="paint18_linear" x1="54.8163" y1="86.3312" x2="61.6504" y2="80.3589" gradientUnits="userSpaceOnUse">
<stop stop-color="#378A31"/>
<stop offset="0.1258" stop-color="#439038"/>
<stop offset="0.3512" stop-color="#62A149"/>
<stop offset="0.65" stop-color="#94BC66"/>
<stop offset="1" stop-color="#D7E18D"/>
</linearGradient>
<linearGradient id="paint19_linear" x1="57.9688" y1="90.4974" x2="64.2211" y2="85.0333" gradientUnits="userSpaceOnUse">
<stop stop-color="#378A31"/>
<stop offset="0.1258" stop-color="#439038"/>
<stop offset="0.3512" stop-color="#62A149"/>
<stop offset="0.65" stop-color="#94BC66"/>
<stop offset="1" stop-color="#D7E18D"/>
</linearGradient>
<linearGradient id="paint20_linear" x1="54.2413" y1="85.3207" x2="60.4717" y2="79.8757" gradientUnits="userSpaceOnUse">
<stop stop-color="#378A31"/>
<stop offset="0.1258" stop-color="#439038"/>
<stop offset="0.3512" stop-color="#62A149"/>
<stop offset="0.65" stop-color="#94BC66"/>
<stop offset="1" stop-color="#D7E18D"/>
</linearGradient>
<linearGradient id="paint21_linear" x1="56.261" y1="88.3072" x2="62.7309" y2="82.6531" gradientUnits="userSpaceOnUse">
<stop stop-color="#378A31"/>
<stop offset="0.1258" stop-color="#439038"/>
<stop offset="0.3512" stop-color="#62A149"/>
<stop offset="0.65" stop-color="#94BC66"/>
<stop offset="1" stop-color="#D7E18D"/>
</linearGradient>
<linearGradient id="paint22_linear" x1="53.5248" y1="84.4126" x2="60.1461" y2="78.6261" gradientUnits="userSpaceOnUse">
<stop stop-color="#378A31"/>
<stop offset="0.1258" stop-color="#439038"/>
<stop offset="0.3512" stop-color="#62A149"/>
<stop offset="0.65" stop-color="#94BC66"/>
<stop offset="1" stop-color="#D7E18D"/>
</linearGradient>
<linearGradient id="paint23_linear" x1="56.3677" y1="88.0387" x2="62.0731" y2="83.0531" gradientUnits="userSpaceOnUse">
<stop stop-color="#378A31"/>
<stop offset="0.1258" stop-color="#439038"/>
<stop offset="0.3512" stop-color="#62A149"/>
<stop offset="0.65" stop-color="#94BC66"/>
<stop offset="1" stop-color="#D7E18D"/>
</linearGradient>
<linearGradient id="paint24_linear" x1="-101.62" y1="169.479" x2="296.683" y2="-31.9258" gradientUnits="userSpaceOnUse">
<stop stop-color="#D7E18D"/>
<stop offset="1" stop-color="#D7E18D"/>
</linearGradient>
<linearGradient id="paint25_linear" x1="-366.743" y1="301.337" x2="681.24" y2="-228.547" gradientUnits="userSpaceOnUse">
<stop stop-color="#D7E18D"/>
<stop offset="1" stop-color="#D7E18D"/>
</linearGradient>
<linearGradient id="paint26_linear" x1="-146.213" y1="182.375" x2="354.013" y2="-70.5559" gradientUnits="userSpaceOnUse">
<stop stop-color="#D7E18D"/>
<stop offset="1" stop-color="#D7E18D"/>
</linearGradient>
<linearGradient id="paint27_linear" x1="-669.835" y1="446.602" x2="1117.12" y2="-456.927" gradientUnits="userSpaceOnUse">
<stop stop-color="#D7E18D"/>
<stop offset="1" stop-color="#D7E18D"/>
</linearGradient>
<linearGradient id="paint28_linear" x1="-539.355" y1="384.085" x2="924.464" y2="-356.059" gradientUnits="userSpaceOnUse">
<stop stop-color="#D7E18D"/>
<stop offset="1" stop-color="#D7E18D"/>
</linearGradient>
<linearGradient id="paint29_linear" x1="-389.041" y1="313.579" x2="715.691" y2="-245.003" gradientUnits="userSpaceOnUse">
<stop stop-color="#D7E18D"/>
<stop offset="1" stop-color="#D7E18D"/>
</linearGradient>
<linearGradient id="paint30_linear" x1="54.0828" y1="91.5888" x2="59.718" y2="88.7393" gradientUnits="userSpaceOnUse">
<stop stop-color="#378A31"/>
<stop offset="1" stop-color="#D7E18D"/>
</linearGradient>
<linearGradient id="paint31_linear" x1="53.7681" y1="90.9608" x2="59.4012" y2="88.1125" gradientUnits="userSpaceOnUse">
<stop stop-color="#378A31"/>
<stop offset="1" stop-color="#D7E18D"/>
</linearGradient>
<linearGradient id="paint32_linear" x1="50.2797" y1="84.0735" x2="55.9145" y2="81.2244" gradientUnits="userSpaceOnUse">
<stop stop-color="#378A31"/>
<stop offset="1" stop-color="#D7E18D"/>
</linearGradient>
<linearGradient id="paint33_linear" x1="51.1965" y1="85.8814" x2="56.8304" y2="83.0328" gradientUnits="userSpaceOnUse">
<stop stop-color="#378A31"/>
<stop offset="1" stop-color="#D7E18D"/>
</linearGradient>
<linearGradient id="paint34_linear" x1="54.2075" y1="91.8286" x2="59.8412" y2="88.9801" gradientUnits="userSpaceOnUse">
<stop stop-color="#378A31"/>
<stop offset="1" stop-color="#D7E18D"/>
</linearGradient>
<linearGradient id="paint35_linear" x1="52.3113" y1="88.084" x2="57.9468" y2="85.2346" gradientUnits="userSpaceOnUse">
<stop stop-color="#378A31"/>
<stop offset="1" stop-color="#D7E18D"/>
</linearGradient>
</defs>
</svg>
