<svg width="100" height="100" viewBox="0 0 100 100" fill="none" xmlns="http://www.w3.org/2000/svg">
<path d="M87.8837 26.6635C87.0184 26.0493 86.1108 25.5199 85.2244 25.1387C83.6415 24.461 80.4335 23.5715 78.1963 23.042V39.773L87.8837 26.6635Z" fill="#5A5A5A"/>
<path d="M85.0547 42.187L92.526 51.9503C95.6496 49.7689 97.9501 47.2275 99.1742 44.4954C101.158 38.0148 98.9421 35.2828 98.9421 35.2828C97.9712 33.3344 96.4094 31.5342 94.3622 29.9458L93.2225 31.4495L85.0547 42.187Z" fill="#5A5A5A"/>
<path d="M41.1136 51.0823H34.0643L31.8271 55.911C35.6472 56.3557 40.0794 56.9275 44.2372 57.4994H44.195L41.1136 51.0823Z" fill="#5A5A5A"/>
<path d="M61.6065 37.6548C61.3743 37.4007 61.0789 37.2524 60.7623 37.2524H58.0186V41.0222H60.7623C61.0789 41.0222 61.3743 40.874 61.6065 40.6198C61.7753 40.4504 61.902 40.2386 61.9864 39.9845C62.0919 39.7727 62.1552 39.4974 62.1552 39.1585C62.1552 38.9044 62.113 38.6926 62.0286 38.502C61.9653 38.1419 61.7964 37.8666 61.6065 37.6548Z" fill="#5A5A5A"/>
<path d="M25.0096 40.6201C24.5031 41.2343 23.891 41.7214 23.1523 42.0602C23.1523 42.0814 23.1523 42.1237 23.1523 42.1449C24.081 42.505 24.8408 43.0556 25.4317 43.7757C26.2337 44.7711 26.6347 45.9359 26.6347 47.2278C26.6347 47.8843 26.5503 48.4985 26.3815 49.0491L33.093 30.052C31.679 30.052 30.3071 30.052 29.0619 30.052C27.9011 31.1109 26.5503 32.5722 25.4317 34.4571C25.8749 35.2407 26.1071 36.1726 26.1071 37.2527C26.1282 38.5658 25.7483 39.7094 25.0096 40.6201Z" fill="#5A5A5A"/>
<path d="M57.9768 52.7764V53.8776H57.9557L57.8291 59.5323C58.5678 59.6382 58.9688 59.7017 58.9688 59.7017C60.6361 59.8076 62.3668 59.85 64.0974 59.8288L57.9979 46.7405L57.9768 52.7764Z" fill="#5A5A5A"/>
<path d="M65.9756 32.318C67.3263 32.9533 68.3816 33.8428 69.057 34.9653C69.7324 36.0666 70.0912 37.3373 70.0912 38.7139C70.0912 40.2176 69.6479 41.5518 68.7615 42.7166C67.9595 43.7756 66.7987 44.5803 65.3424 45.0886L70.4077 54.6401V53.5177V22.1523C69.4158 22.0464 68.466 21.9829 67.7062 22.0041C66.651 22.0252 63.9073 22.2582 63.9073 22.2582C61.9444 22.3641 60.1294 22.8512 58.4198 23.5077L58.061 31.3861H61.1424C62.9997 31.365 64.6248 31.6826 65.9756 32.318Z" fill="#5A5A5A"/>
<path d="M50.1676 31.3648L50.2098 27.6162C48.1837 28.7175 47.4239 29.0352 45.3555 29.4799C44.6591 29.6282 43.4772 29.7341 42.042 29.8188L50.1676 52.5857V31.3648Z" fill="#5A5A5A"/>
<path d="M78.2807 58.2195H78.3018L81.9742 57.0547C84.0636 56.4828 83.9581 56.3769 85.7943 55.5933L78.1963 44.9829L78.2807 58.2195Z" fill="#5A5A5A"/>
<path d="M17.433 44.3049H14.2461V45.0038V47.3546V48.0535H17.433C18.3195 48.0535 19.037 47.2064 19.037 46.1686C19.0159 45.1521 18.2983 44.3049 17.433 44.3049Z" fill="#5A5A5A"/>
<path d="M26.1078 30.0306C24.6093 30.0095 23.6595 30.0095 23.6595 30.0095L19.755 29.7341L19.5439 31.4072C21.359 31.5555 22.8575 32.0214 23.9972 32.8262C24.6515 31.7673 25.3691 30.8354 26.1078 30.0306Z" fill="#5A5A5A"/>
<path d="M5.02327 31.0684C2.36397 32.9744 0.65443 36.0877 0.0634766 39.4762L6.41623 40.0269V33.1015L5.02327 31.0684Z" fill="#5A5A5A"/>
<path d="M15.3436 29.4379L11.0592 29.1414C10.4682 29.1414 9.89835 29.2049 9.34961 29.2896L10.1305 31.3439H15.5757L15.3436 29.4379Z" fill="#5A5A5A"/>
<path d="M20.1347 54.8732C21.7598 54.9579 23.2372 55.0638 24.1658 55.1273C24.2713 55.1273 24.3769 55.1485 24.4824 55.1485C24.0181 54.2802 23.6171 53.433 23.2372 52.5647C22.3085 52.9883 21.211 53.2424 19.9658 53.3483L20.1347 54.8732Z" fill="#5A5A5A"/>
<path d="M18.3402 38.2054C18.3402 37.1677 17.7281 36.3206 16.9683 36.3206H14.2246V37.3583V39.7091V40.0903H16.9683C17.7281 40.0903 18.3402 39.2432 18.3402 38.2054Z" fill="#5A5A5A"/>
<path d="M9.58203 54.047C10.384 54.2376 11.2283 54.3647 12.1147 54.4494C12.1147 54.4494 13.6132 54.5341 15.576 54.64L15.7237 53.4329H9.68756L9.58203 54.047Z" fill="#5A5A5A"/>
<path d="M0 44.5592C0.612059 47.9054 2.59598 50.6163 5.42411 52.3529L6.39496 50.1927V43.5215L0 44.5592Z" fill="#5A5A5A"/>
<path d="M23.8074 71.477C24.335 70.7781 24.6094 69.9733 24.6094 69.0838C24.6094 68.2579 24.3983 67.4955 23.9973 66.8389C23.5963 66.1824 22.9632 65.6317 22.14 65.2505C21.338 64.8693 20.3461 64.6787 19.2064 64.6787H12.6426V77.9365H17.3491V73.9337L19.5863 77.9365H24.7782L21.7601 72.9171C22.6255 72.5995 23.322 72.1124 23.8074 71.477ZM19.5863 70.524C19.4808 70.6087 19.3541 70.6511 19.2064 70.6511H17.3491V67.8978H19.2064C19.5652 67.8978 19.8818 68.2155 20.0506 68.6603C20.1139 68.8509 20.1561 69.0415 20.1561 69.2533C20.135 69.8251 19.9029 70.3122 19.5863 70.524Z" fill="#5A5A5A"/>
<path d="M25.5586 77.9153H35.0772V74.3149H30.244V73.6584H35.0772V70.2275H30.244V68.2579H35.0772V64.6787H25.5586V77.9153Z" fill="#5A5A5A"/>
<path d="M40.9653 69.6557V64.6787H36.2588V77.9153H40.9653V72.8113L44.6166 77.9153H50.2728L45.0809 71.117L50.2939 64.6787H44.6588L40.9653 69.6557Z" fill="#5A5A5A"/>
<path d="M58.6728 64.6787L55.0005 69.6557V64.6787H50.2939V77.9153H55.0005V72.8113L58.6306 77.9153H64.308L59.116 71.117L64.3291 64.6787H58.6728Z" fill="#5A5A5A"/>
<path d="M80.3693 70.7781L76.1694 64.6787H71.5684V77.9153H76.2538V71.9218L80.4749 77.9153H85.0759V64.6787H80.3693V70.7781Z" fill="#5A5A5A"/>
<path d="M92.8218 73.3408H95.7133C95.1857 73.8279 94.5525 74.0608 93.7927 74.0608C92.8218 74.0608 92.0831 73.8279 91.6399 73.3831C91.1756 72.9384 90.9434 72.2183 90.9434 71.2653C90.9434 70.4393 91.1545 69.804 91.5766 69.338C91.9776 68.8721 92.5475 68.6603 93.3284 68.6603C93.7294 68.6603 94.0671 68.7239 94.3625 68.8509C94.6369 68.978 94.848 69.1474 94.9957 69.3592L95.059 69.4439H99.9344L99.8922 69.211C99.6811 67.7708 98.9846 66.606 97.8238 65.78C96.663 64.9541 95.1645 64.5305 93.3284 64.5305C91.8932 64.5305 90.6269 64.827 89.5716 65.3777C88.4952 65.9495 87.6721 66.7543 87.0811 67.7708C86.5113 68.7874 86.2158 69.9522 86.2158 71.2653C86.2158 72.5572 86.5113 73.7432 87.0811 74.7597C87.651 75.7763 88.4952 76.5811 89.5716 77.1529C90.648 77.7247 91.9143 78 93.3706 78C94.9957 78 96.3675 77.64 97.4439 76.9411C98.4992 76.2422 99.3434 75.3951 99.9555 74.4209L99.9766 74.3785V70.5876H92.864V73.3408H92.8218Z" fill="#5A5A5A"/>
<path d="M0 64.6787V64.9752V65.1235V68.2579H3.58793V77.9153H8.29446V68.2579H11.9035V64.6787H0.253268H0Z" fill="#5A5A5A"/>
<path d="M70.0698 64.6787H65.3633V77.9365H70.0698V64.6787Z" fill="#5A5A5A"/>
<path d="M40.1637 42.3777C40.1637 42.3777 39.9526 39.4551 37.5044 39.4551C35.0139 39.4551 34.824 42.3565 34.824 42.3565C33.4732 42.4836 32.418 43.6272 32.418 45.025C32.418 46.4016 33.4521 47.5453 34.7818 47.6935C34.8873 47.7147 34.9717 47.7147 35.0773 47.7147C35.3938 47.7147 35.6893 47.6723 35.9637 47.5664C36.1747 47.5029 36.3647 47.3758 36.5546 47.2699C36.829 47.1429 37.1245 47.1217 37.4411 47.1217C37.7577 47.1217 38.0742 47.1429 38.3275 47.2699C38.5175 47.3758 38.7074 47.5029 38.9185 47.5664C39.1928 47.6723 39.4883 47.7147 39.8049 47.7147C39.9104 47.7147 39.9948 47.7147 40.1004 47.6935C41.43 47.5453 42.4853 46.4228 42.4853 45.025C42.5064 43.6696 41.4722 42.5471 40.1637 42.3777Z" fill="#5A5A5A"/>
<path d="M34.5712 39.7306C34.5712 38.6928 33.727 37.8457 32.6928 37.8457C31.6587 37.8457 30.8145 38.6928 30.8145 39.7306C30.8145 40.7683 31.6587 41.6155 32.6928 41.6155C33.727 41.6155 34.5712 40.7683 34.5712 39.7306Z" fill="#5A5A5A"/>
<path d="M42.5063 37.8457C41.4721 37.8457 40.6279 38.6928 40.6279 39.7306C40.6279 40.7683 41.4721 41.6155 42.5063 41.6155C43.5405 41.6155 44.3847 40.7683 44.3847 39.7306C44.3847 38.6928 43.5405 37.8457 42.5063 37.8457Z" fill="#5A5A5A"/>
<path d="M39.6147 38.0786C40.6489 38.0786 41.4931 37.2315 41.4931 36.1937C41.4931 35.156 40.6489 34.3088 39.6147 34.3088C38.5805 34.3088 37.7363 35.156 37.7363 36.1937C37.7363 37.2315 38.5805 38.0786 39.6147 38.0786Z" fill="#5A5A5A"/>
<path d="M35.3725 38.0786C36.4067 38.0786 37.2509 37.2315 37.2509 36.1937C37.2509 35.156 36.4067 34.3088 35.3725 34.3088C34.3384 34.3088 33.4941 35.156 33.4941 36.1937C33.4941 37.2315 34.3384 38.0786 35.3725 38.0786Z" fill="#5A5A5A"/>
</svg>
