<svg width="100" height="100" viewBox="0 0 100 100" fill="none" xmlns="http://www.w3.org/2000/svg">
<path d="M2.74909 81.0983C2.74909 82.5503 3.63102 83.6093 5.1883 83.6093C6.41189 83.6093 7.00778 83.2643 7.71492 82.5503L9.00206 83.8179C9.22453 84.0345 9.21659 84.4035 8.98617 84.6121C7.98506 85.5025 6.92833 85.9919 5.16447 85.9919C2.52662 85.9919 0 84.7805 0 80.2159C0 76.5416 1.97044 74.4639 4.86254 74.4639C7.96917 74.4639 9.72509 76.7582 9.72509 79.8548V80.5688C9.72509 80.8657 9.48673 81.1144 9.18481 81.1144H2.74909V81.0983ZM6.73764 77.9616C6.43572 77.2877 5.81599 76.7903 4.87049 76.7903C3.925 76.7903 3.30526 77.2877 3.00334 77.9616C2.82854 78.3707 2.76498 78.6756 2.74909 79.173H6.9919C6.96806 78.6756 6.9045 78.3707 6.73764 77.9616Z" fill="#5A5A5A"/>
<path d="M18.7991 85.992V79.181C18.7991 77.6488 17.8377 77.1273 16.9558 77.1273C16.0738 77.1273 15.0886 77.6488 15.0886 79.181V85.4545C15.0886 85.7513 14.8503 86 14.5483 86H12.2998V75.8197C12.2998 75.218 12.7845 74.7287 13.3804 74.7287H15.0251V75.7635C15.756 74.9854 16.781 74.5923 17.8139 74.5923C18.9262 74.5923 19.832 74.9613 20.4517 75.5871C21.3495 76.4936 21.5879 77.5525 21.5879 78.788V85.4465C21.5879 85.7433 21.3495 85.992 21.0476 85.992H18.7991Z" fill="#5A5A5A"/>
<path d="M28.0786 85.9915C25.8062 85.9915 24.8449 84.371 24.8449 82.7666V77.1189H23.6689V76.0679C23.6689 75.4663 24.1536 75.0972 24.7495 75.0972H24.8528V73.6372C24.8528 73.0355 25.3375 72.5461 25.9334 72.5461H27.6416V75.0972H29.6121V76.5814C29.6121 76.8782 29.3737 77.1269 29.0718 77.1269H27.6416V82.5981C27.6416 83.2479 27.9435 83.6169 28.603 83.6169H29.6121V85.454C29.6121 85.7508 29.3737 85.9995 29.0718 85.9995H28.0786V85.9915Z" fill="#5A5A5A"/>
<path d="M34.2442 81.0983C34.2442 82.5503 35.1261 83.6093 36.6834 83.6093C37.907 83.6093 38.5029 83.2643 39.21 82.5503L40.4972 83.8179C40.7197 84.0345 40.7117 84.4035 40.4813 84.6121C39.4802 85.5025 38.4234 85.9919 36.6596 85.9919C34.0217 85.9919 31.4951 84.7805 31.4951 80.2159C31.4951 76.5416 33.4656 74.4639 36.3577 74.4639C39.4643 74.4639 41.2202 76.7582 41.2202 79.8548V81.1063H34.2442V81.0983ZM38.2328 77.9616C37.9308 77.2877 37.3111 76.7903 36.3656 76.7903C35.4201 76.7903 34.8004 77.2877 34.4985 77.9616C34.3237 78.3707 34.2601 78.6756 34.2442 79.173H38.487C38.4632 78.6756 38.3996 78.3707 38.2328 77.9616Z" fill="#5A5A5A"/>
<path d="M50.2226 77.4242C50.0319 77.6167 49.73 77.6408 49.5154 77.4803C49.2135 77.2477 48.8798 77.1193 48.3872 77.1193C47.5291 77.1193 46.5836 77.7691 46.5836 79.1971V85.4465C46.5836 85.7433 46.3452 85.992 46.0433 85.992H43.8027V75.8117C43.8027 75.21 44.2874 74.7206 44.8833 74.7206H46.528V75.8037C47.0603 75.1538 48.1329 74.5923 49.3327 74.5923C50.4291 74.5923 51.1998 74.8731 51.9705 75.6512L50.2226 77.4242Z" fill="#5A5A5A"/>
<path d="M60.5987 84.6043C59.9154 85.3423 58.7793 85.9921 57.1266 85.9921C55.474 85.9921 54.3616 85.3423 53.6783 84.6043C52.6693 83.5453 52.415 82.2698 52.415 80.2161C52.415 78.1784 52.6693 76.9028 53.6783 75.8439C54.3616 75.1059 55.4819 74.4561 57.1266 74.4561C58.7793 74.4561 59.9154 75.1059 60.5987 75.8439C61.6078 76.9028 61.862 78.1784 61.862 80.2161C61.862 82.2698 61.6078 83.5453 60.5987 84.6043ZM58.4376 77.4885C58.1198 77.1676 57.6907 76.9911 57.1266 76.9911C56.5704 76.9911 56.1652 77.1676 55.8395 77.4885C55.2595 78.0741 55.1959 79.0448 55.1959 80.2161C55.1959 81.3873 55.2595 82.3821 55.8395 82.9597C56.1573 83.2806 56.5704 83.4571 57.1266 83.4571C57.6828 83.4571 58.1118 83.2806 58.4376 82.9597C59.0176 82.3741 59.0812 81.3793 59.0812 80.2161C59.0812 79.0448 59.0176 78.0741 58.4376 77.4885Z" fill="#5A5A5A"/>
<path d="M68.1868 85.9918C66.6137 85.9918 65.1756 85.8394 63.8725 84.7724C63.6262 84.5719 63.6024 84.1868 63.8249 83.9622L65.2471 82.5262C66.1687 83.4568 67.3685 83.5851 68.2266 83.5851C69.188 83.5851 70.197 83.2643 70.197 82.4139C70.197 81.8523 69.8951 81.4592 69.0211 81.379L67.2652 81.2025C65.2471 81.01 64.0076 80.1195 64.0076 78.0417C64.0076 75.7072 66.0416 74.4478 68.314 74.4478C70.046 74.4478 71.508 74.7526 72.5806 75.7714L71.4762 76.9026C71.1584 77.2315 70.6658 77.3197 70.2526 77.1272C69.6726 76.8625 68.9655 76.7662 68.2742 76.7662C67.1619 76.7662 66.6852 77.2876 66.6852 77.8492C66.6852 78.2583 66.86 78.7397 67.8452 78.8199L69.6011 78.9964C71.8099 79.213 72.9223 80.4003 72.9223 82.3096C72.9223 84.7965 70.8247 85.9918 68.1868 85.9918Z" fill="#5A5A5A"/>
<path d="M82.9728 84.6043C82.2895 85.3423 81.1533 85.9921 79.5007 85.9921C77.848 85.9921 76.7357 85.3423 76.0524 84.6043C75.0433 83.5453 74.7891 82.2698 74.7891 80.2161C74.7891 78.1784 75.0433 76.9028 76.0524 75.8439C76.7357 75.1059 77.856 74.4561 79.5007 74.4561C81.1453 74.4561 82.2895 75.1059 82.9728 75.8439C83.9818 76.9028 84.2361 78.1784 84.2361 80.2161C84.2361 82.2698 83.9739 83.5453 82.9728 84.6043ZM80.8037 77.4885C80.4859 77.1676 80.0568 76.9911 79.4927 76.9911C78.9365 76.9911 78.5313 77.1676 78.2056 77.4885C77.6255 78.0741 77.562 79.0448 77.562 80.2161C77.562 81.3873 77.6255 82.3821 78.2056 82.9597C78.5234 83.2806 78.9365 83.4571 79.4927 83.4571C80.0489 83.4571 80.4779 83.2806 80.8037 82.9597C81.3837 82.3741 81.4473 81.3793 81.4473 80.2161C81.4473 79.0448 81.3837 78.0741 80.8037 77.4885Z" fill="#5A5A5A"/>
<path d="M90.0206 79.6063V85.4465C90.0206 85.7434 89.7823 85.992 89.4803 85.992H87.2318V79.6063H86.0718V78.6677C86.0718 78.066 86.5564 77.5767 87.1523 77.5767H87.2318V75.7235C87.2318 74.119 88.217 72.4985 90.4894 72.4985H92.0784V74.3356C92.0784 74.6325 91.8401 74.8812 91.5382 74.8812H90.982C90.3146 74.8812 90.0206 75.2502 90.0206 75.9V77.5847H92.0784V79.6063H90.0206Z" fill="#5A5A5A"/>
<path d="M98.4746 85.9917C96.2022 85.9917 95.2409 84.3712 95.2409 82.7668V77.1191H94.0649V75.6349C94.0649 75.3381 94.3033 75.0894 94.6052 75.0894H95.2409V73.6294C95.2409 73.0277 95.7255 72.5383 96.3214 72.5383H98.0297V75.0894H100V76.5735C100 76.8704 99.7617 77.1191 99.4598 77.1191H98.0297V82.5903C98.0297 83.2401 98.3316 83.6091 98.991 83.6091H100V85.4462C100 85.743 99.7617 85.9917 99.4598 85.9917H98.4746Z" fill="#5A5A5A"/>
<path d="M54.9026 25.0147L52.4555 22.5438L51.2796 21.3565C50.5724 20.6425 49.4283 20.6425 48.7212 21.3565L31.6705 38.5724C30.9634 39.2864 30.9634 40.4416 31.6705 41.1556L32.8464 42.3429L35.2936 44.8137L54.9026 25.0147Z" fill="#5A5A5A"/>
<path d="M54.2589 40.5058C54.6085 40.1528 54.6085 39.5752 54.2589 39.2142L52.4474 37.3851L50.6359 35.556C50.2863 35.203 49.7142 35.203 49.3567 35.556L37.7485 47.2846L40.1957 49.7555L42.6429 52.2263L54.2589 40.5058Z" fill="#5A5A5A"/>
<path d="M67.1544 37.3849L64.7072 34.9141L45.0981 54.7051L47.5453 57.1759L48.7212 58.3632C49.4284 59.0772 50.5725 59.0772 51.2796 58.3632L68.3303 41.1474C69.0374 40.4334 69.0374 39.2782 68.3303 38.5642L67.1544 37.3849Z" fill="#5A5A5A"/>
<path d="M50 65.7198C48.3474 65.7198 46.7027 65.086 45.4474 63.8185L26.2673 44.4607C23.7566 41.9256 23.7566 37.8022 26.2673 35.2671L45.4474 15.9013C47.9581 13.3662 52.042 13.3662 54.5527 15.9013L73.7248 35.2591C74.9404 36.4865 75.6079 38.123 75.6079 39.8559C75.6079 41.5887 74.9404 43.2252 73.7248 44.4526L54.5527 63.8185C53.2974 65.086 51.6447 65.7198 50 65.7198ZM50 15.9494C48.848 15.9494 47.688 16.3906 46.814 17.2811L27.6339 36.6389C25.878 38.4119 25.878 41.2999 27.6339 43.0728L46.806 62.4306C48.5619 64.2035 51.4223 64.2035 53.1782 62.4306L72.3503 43.0728C73.2004 42.2144 73.6692 41.0672 73.6692 39.8559C73.6692 38.6365 73.2004 37.4973 72.3503 36.6389L53.1861 17.2811C52.3042 16.3906 51.1521 15.9494 50 15.9494Z" fill="#5A5A5A"/>
</svg>
