<svg width="100" height="82" viewBox="0 0 100 82" fill="none" xmlns="http://www.w3.org/2000/svg">
<path d="M8.82964 58.1904V68.7691H7.09696V64.0602H1.74134V68.7691H0V58.1904H1.74134V62.8186H7.09696V58.1904H8.82964Z" fill="#5A5A5A"/>
<path d="M26.1289 63.4823C26.1289 64.25 25.9999 64.9575 25.7436 65.6041C25.4864 66.2515 25.1244 66.8088 24.6586 67.2767C24.1919 67.7438 23.6316 68.1105 22.977 68.3732C22.3224 68.6369 21.595 68.7691 20.7958 68.7691C20 68.7691 19.2761 68.6369 18.6215 68.3732C17.9669 68.1105 17.4049 67.7438 16.9356 67.2767C16.4663 66.8096 16.1034 66.2524 15.8463 65.6041C15.59 64.9575 15.4609 64.25 15.4609 63.4823C15.4609 62.7164 15.59 62.008 15.8463 61.3614C16.1034 60.714 16.4663 60.1559 16.9356 59.6853C17.4049 59.2157 17.9669 58.849 18.6215 58.5854C19.2761 58.3227 20 58.1904 20.7958 58.1904C21.5959 58.1904 22.3232 58.3227 22.977 58.5854C23.6316 58.849 24.1919 59.2157 24.6586 59.6853C25.1244 60.1559 25.4864 60.714 25.7436 61.3614C25.9999 62.0089 26.1289 62.7164 26.1289 63.4823ZM24.359 63.4823C24.359 62.8881 24.2759 62.3541 24.1105 61.8784C23.9451 61.4035 23.7078 61.0008 23.3987 60.6702C23.0904 60.3396 22.7164 60.0855 22.2765 59.9077C21.8366 59.7309 21.343 59.6416 20.7949 59.6416C20.2511 59.6416 19.7593 59.7309 19.3203 59.9077C18.8804 60.0855 18.5055 60.3396 18.1937 60.6702C17.8829 61.0008 17.643 61.4035 17.475 61.8784C17.307 62.3532 17.2231 62.8881 17.2231 63.4823C17.2231 64.0825 17.307 64.6192 17.475 65.094C17.643 65.5689 17.8829 65.9707 18.1937 66.2987C18.5046 66.6267 18.8804 66.8783 19.3203 67.0535C19.7593 67.2287 20.2511 67.3162 20.7949 67.3162C21.343 67.3162 21.8366 67.2287 22.2765 67.0535C22.7164 66.8783 23.0896 66.6267 23.3987 66.2987C23.707 65.9699 23.9442 65.568 24.1105 65.094C24.2759 64.62 24.359 64.0825 24.359 63.4823Z" fill="#5A5A5A"/>
<path d="M38.9233 67.3291V68.7691H32.7598V58.1904H34.4924V67.33H38.9233V67.3291Z" fill="#5A5A5A"/>
<path d="M47.2955 68.7691H45.5542V58.1904H47.2955V68.7691Z" fill="#5A5A5A"/>
<path d="M60.3639 60.0726C60.3094 60.1593 60.2522 60.222 60.1933 60.2632C60.1336 60.3044 60.06 60.325 59.9708 60.325C59.8764 60.325 59.7725 60.2864 59.6556 60.21C59.5396 60.1336 59.3967 60.0486 59.2261 59.955C59.0555 59.8614 58.8546 59.7755 58.6226 59.6956C58.3905 59.6167 58.1134 59.5772 57.793 59.5772C57.496 59.5772 57.2362 59.6132 57.0111 59.6845C56.7868 59.7566 56.5981 59.8579 56.4448 59.9867C56.2924 60.1155 56.1773 60.2684 56.1011 60.4427C56.024 60.617 55.9859 60.8076 55.9859 61.0137C55.9859 61.2773 56.0578 61.4963 56.2006 61.6723C56.3435 61.8466 56.5323 61.9968 56.7669 62.1214C57.0016 62.245 57.2692 62.3549 57.5705 62.4485C57.8718 62.5421 58.1792 62.6408 58.4935 62.7465C58.807 62.8529 59.1144 62.9714 59.4157 63.1062C59.7171 63.2402 59.9846 63.4102 60.2193 63.6171C60.454 63.8232 60.6427 64.0739 60.7856 64.371C60.9285 64.6681 61.0003 65.0296 61.0003 65.4564C61.0003 65.9166 60.9189 66.3477 60.7562 66.7504C60.5934 67.1531 60.3578 67.5034 60.0487 67.8031C59.7404 68.1028 59.3595 68.338 58.9083 68.5115C58.4554 68.6841 57.9411 68.7699 57.3635 68.7699C57.0224 68.7699 56.6907 68.7382 56.3677 68.6729C56.0439 68.6085 55.7348 68.5166 55.4421 68.3998C55.1477 68.2822 54.8723 68.1405 54.616 67.9714C54.3588 67.8039 54.1294 67.6176 53.9268 67.4115L54.4307 66.6061C54.4749 66.5391 54.5312 66.4868 54.6013 66.449C54.6706 66.4103 54.7468 66.3915 54.8308 66.3915C54.9442 66.3915 55.0706 66.443 55.2083 66.546C55.346 66.6491 55.514 66.7624 55.7079 66.8835C55.9036 67.0062 56.1392 67.1179 56.4154 67.2209C56.6916 67.3248 57.0232 67.3763 57.4077 67.3763C58.0355 67.3763 58.5204 67.2278 58.8633 66.9298C59.2062 66.6327 59.3785 66.2232 59.3785 65.7011C59.3785 65.4092 59.3066 65.1704 59.1638 64.9858C59.02 64.8021 58.8312 64.6475 58.5975 64.523C58.3628 64.3985 58.0944 64.2929 57.7939 64.2062C57.4926 64.1203 57.186 64.0276 56.8752 63.9297C56.5643 63.8318 56.2578 63.7167 55.9564 63.5854C55.6551 63.454 55.3875 63.2814 55.1529 63.0685C54.9182 62.8546 54.7295 62.591 54.5866 62.2776C54.4437 61.9634 54.3718 61.5718 54.3718 61.1021C54.3718 60.7286 54.4463 60.3671 54.5978 60.0168C54.7485 59.6673 54.9684 59.3573 55.2568 59.086C55.546 58.8155 55.9019 58.5983 56.3279 58.436C56.7522 58.2729 57.2362 58.1921 57.78 58.1921C58.3922 58.1921 58.9542 58.2849 59.466 58.4721C59.9777 58.6592 60.4176 58.9254 60.7882 59.2698L60.3639 60.0726Z" fill="#5A5A5A"/>
<path d="M76.0176 59.6227H72.6917V68.7691H70.966V59.6227H67.6313V58.1904H76.0176V59.6227Z" fill="#5A5A5A"/>
<path d="M84.3903 68.7691H82.6489V58.1904H84.3903V68.7691Z" fill="#5A5A5A"/>
<path d="M99.0667 66.3475C99.1611 66.3475 99.2416 66.3836 99.3109 66.4549L100 67.1813C99.5655 67.6888 99.0321 68.0803 98.4 68.3568C97.7679 68.6324 97.0128 68.769 96.133 68.769C95.3537 68.769 94.648 68.6384 94.0185 68.3774C93.389 68.1164 92.8521 67.7523 92.4079 67.2852C91.9637 66.8181 91.6208 66.2608 91.3818 65.6151C91.142 64.9677 91.0225 64.2567 91.0225 63.4796C91.0225 62.7034 91.1498 61.9907 91.4043 61.3424C91.658 60.6924 92.0165 60.1343 92.4781 59.6672C92.9404 59.2001 93.4929 58.8377 94.138 58.5784C94.7822 58.3191 95.4923 58.1912 96.2672 58.1912C97.0379 58.1912 97.7185 58.3122 98.3082 58.5535C98.8979 58.7957 99.4114 59.1177 99.846 59.5195L99.2754 60.3035C99.2364 60.3567 99.1888 60.4013 99.1351 60.44C99.0806 60.4786 99.0061 60.4975 98.9126 60.4975C98.8139 60.4975 98.7022 60.4529 98.5758 60.3644C98.4493 60.276 98.29 60.1781 98.0943 60.0699C97.8986 59.9626 97.6544 59.8638 97.3609 59.7762C97.0665 59.6869 96.7002 59.6432 96.2603 59.6432C95.7512 59.6432 95.2853 59.7299 94.8602 59.9025C94.4359 60.0751 94.0696 60.3266 93.7639 60.6572C93.4574 60.9878 93.2201 61.3905 93.0495 61.8645C92.879 62.3385 92.7941 62.8777 92.7941 63.4813C92.7941 64.0901 92.8833 64.6328 93.0608 65.1094C93.2383 65.5859 93.4825 65.9886 93.7942 66.3166C94.1051 66.6446 94.4714 66.8954 94.8905 67.068C95.3104 67.2405 95.7616 67.3273 96.2465 67.3273C96.5426 67.3273 96.8076 67.3118 97.0422 67.2809C97.2769 67.25 97.4934 67.2002 97.6908 67.1306C97.8874 67.0611 98.0744 66.9735 98.2502 66.8679C98.4251 66.7623 98.5991 66.6335 98.7715 66.4806C98.8693 66.3905 98.968 66.3475 99.0667 66.3475Z" fill="#5A5A5A"/>
<path d="M16.1146 77.6244H16.5069C16.6437 77.6244 16.7511 77.6072 16.8324 77.5737C16.913 77.5394 16.9892 77.4827 17.061 77.4003L19.6241 74.5229C19.7029 74.4345 19.7783 74.3709 19.8519 74.334C19.9255 74.2962 20.0198 74.2773 20.1341 74.2773H21.02L18.0871 77.5651C18.0118 77.6467 17.9408 77.7163 17.875 77.7729C17.8083 77.8305 17.7382 77.876 17.662 77.912C17.7624 77.9438 17.8499 77.9919 17.9261 78.0554C18.0014 78.119 18.0794 78.1997 18.1625 78.2959L21.2252 81.9134H20.3229C20.2545 81.9134 20.1974 81.9082 20.1506 81.8971C20.1038 81.8868 20.064 81.8722 20.0302 81.855C19.9956 81.837 19.9653 81.8138 19.9359 81.7854C19.9073 81.7571 19.8787 81.727 19.8501 81.6944L17.1909 78.6634C17.1511 78.6204 17.1147 78.5835 17.081 78.5543C17.0463 78.5243 17.0074 78.4976 16.9623 78.477C16.9173 78.4556 16.8654 78.441 16.8065 78.4315C16.7476 78.4229 16.6749 78.4178 16.5891 78.4178H16.1163V81.9125H15.0781V74.2773H16.1146V77.6244Z" fill="#5A5A5A"/>
<path d="M26.7809 81.9132H26.3557C26.2631 81.9132 26.1878 81.8995 26.1297 81.8712C26.0726 81.842 26.0354 81.7819 26.0172 81.69L25.9089 81.1894C25.7661 81.3173 25.6267 81.4315 25.4898 81.5328C25.3539 81.635 25.2102 81.7192 25.0604 81.7896C24.9097 81.8591 24.7495 81.9107 24.5789 81.9467C24.4083 81.9828 24.2196 81.9999 24.0126 81.9999C23.8013 81.9999 23.603 81.9699 23.4186 81.9115C23.2342 81.8531 23.074 81.7647 22.9372 81.647C22.8012 81.5294 22.693 81.3809 22.6124 81.2005C22.5319 81.0211 22.4912 80.8081 22.4912 80.5617C22.4912 80.3479 22.5501 80.1418 22.6687 79.9443C22.7873 79.7468 22.9779 79.5708 23.2411 79.418C23.5052 79.2643 23.849 79.1381 24.2758 79.041C24.7027 78.9431 25.2231 78.8942 25.8397 78.8942V78.4709C25.8397 78.0484 25.7487 77.7299 25.5686 77.5135C25.3877 77.2971 25.1201 77.1898 24.7659 77.1898C24.533 77.1898 24.3365 77.2189 24.1771 77.2773C24.0178 77.3357 23.8793 77.4018 23.7632 77.474C23.6463 77.547 23.5467 77.6131 23.4619 77.6715C23.3779 77.7298 23.2948 77.759 23.2125 77.759C23.1484 77.759 23.0921 77.7419 23.0428 77.7084C22.9952 77.6749 22.9562 77.6328 22.9276 77.583L22.7562 77.2799C23.0566 76.9923 23.3814 76.7776 23.7286 76.6351C24.0767 76.4925 24.4611 76.4221 24.8837 76.4221C25.1876 76.4221 25.4587 76.4719 25.6959 76.5707C25.9323 76.6703 26.1306 76.8094 26.2917 76.9871C26.4527 77.1649 26.5748 77.3795 26.6571 77.632C26.7393 77.8836 26.7809 78.1609 26.7809 78.4631V81.9132ZM24.2984 81.3328C24.4663 81.3328 24.6205 81.3156 24.7599 81.2821C24.9002 81.2478 25.0309 81.2005 25.1547 81.1379C25.2786 81.076 25.3972 81.0005 25.5089 80.9112C25.6223 80.8227 25.7323 80.7214 25.8397 80.6081V79.4944C25.3989 79.4944 25.0249 79.5219 24.7166 79.5777C24.4083 79.6326 24.1581 79.7048 23.9641 79.7941C23.771 79.8842 23.6307 79.989 23.5424 80.1109C23.455 80.232 23.4108 80.3685 23.4108 80.5179C23.4108 80.6604 23.4342 80.7841 23.4809 80.8871C23.5277 80.991 23.59 81.076 23.6688 81.1422C23.7476 81.2083 23.8412 81.2563 23.9485 81.2864C24.0559 81.3165 24.1728 81.3328 24.2984 81.3328Z" fill="#5A5A5A"/>
<path d="M28.875 81.9132V76.5157H29.4231C29.5262 76.5157 29.5989 76.5346 29.6379 76.5741C29.6777 76.6128 29.7045 76.6806 29.7184 76.7759L29.7825 77.6182C29.9686 77.2413 30.1981 76.9476 30.4726 76.7355C30.7471 76.5243 31.0675 76.4187 31.4372 76.4187C31.587 76.4187 31.7238 76.4359 31.8451 76.4694C31.9672 76.5028 32.0797 76.5501 32.1836 76.6102L32.0598 77.3186C32.0347 77.4079 31.9793 77.4517 31.8936 77.4517C31.8433 77.4517 31.7663 77.4353 31.6624 77.401C31.5584 77.3675 31.4138 77.3503 31.2268 77.3503C30.8943 77.3503 30.6155 77.4465 30.3912 77.638C30.1678 77.8295 29.9808 78.1094 29.8301 78.4752V81.9115H28.875V81.9132Z" fill="#5A5A5A"/>
<path d="M36.0534 76.4307C36.4518 76.4307 36.8102 76.4968 37.1315 76.6273C37.4519 76.7587 37.7238 76.9459 37.948 77.1871C38.1723 77.4284 38.3438 77.7212 38.4641 78.0638C38.5845 78.4064 38.6442 78.7894 38.6442 79.2119C38.6442 79.6377 38.5845 80.0216 38.4641 80.3625C38.3438 80.7033 38.1723 80.9953 37.948 81.2366C37.7238 81.4778 37.4519 81.6633 37.1315 81.793C36.8102 81.9226 36.4518 81.987 36.0534 81.987C35.656 81.987 35.2975 81.9226 34.9763 81.793C34.655 81.6625 34.3822 81.4778 34.1571 81.2366C33.9311 80.9953 33.7579 80.7033 33.6358 80.3625C33.5137 80.0216 33.4531 79.6377 33.4531 79.2119C33.4531 78.7885 33.5137 78.4064 33.6358 78.0638C33.7571 77.7212 33.9311 77.4293 34.1571 77.1871C34.3831 76.9459 34.6559 76.7587 34.9763 76.6273C35.2975 76.4968 35.656 76.4307 36.0534 76.4307ZM36.0534 81.2469C36.5912 81.2469 36.9921 81.0683 37.2571 80.7119C37.522 80.3547 37.6545 79.8567 37.6545 79.217C37.6545 78.5739 37.5229 78.0733 37.2571 77.7144C36.9921 77.3554 36.5903 77.176 36.0534 77.176C35.7815 77.176 35.5452 77.2223 35.3443 77.3142C35.1442 77.4061 34.9763 77.54 34.842 77.7144C34.7078 77.8887 34.6074 78.1025 34.5416 78.3558C34.4749 78.6099 34.442 78.8967 34.442 79.2161C34.442 79.5356 34.4749 79.8224 34.5416 80.0739C34.6074 80.3255 34.7078 80.5385 34.842 80.7111C34.9763 80.8828 35.1442 81.015 35.3443 81.1078C35.5452 81.2005 35.7815 81.2469 36.0534 81.2469Z" fill="#5A5A5A"/>
<path d="M41.5349 74.0652V81.9133H40.5781V74.0652H41.5349Z" fill="#5A5A5A"/>
<path d="M45.1458 74.8214C45.1458 74.9142 45.1259 75.0009 45.0887 75.0799C45.0514 75.1597 45.0012 75.231 44.9389 75.2928C44.8756 75.3547 44.8029 75.4036 44.7207 75.4397C44.6384 75.4757 44.5501 75.4929 44.4574 75.4929C44.3648 75.4929 44.2773 75.4749 44.1968 75.4397C44.1162 75.4036 44.0444 75.3547 43.982 75.2928C43.9188 75.2301 43.8695 75.1597 43.834 75.0799C43.7976 75 43.7803 74.9142 43.7803 74.8214C43.7803 74.7296 43.7985 74.642 43.834 74.5587C43.8695 74.4745 43.9188 74.4015 43.982 74.3397C44.0444 74.277 44.1162 74.2281 44.1968 74.1929C44.2773 74.1568 44.3648 74.1396 44.4574 74.1396C44.5501 74.1396 44.6384 74.1577 44.7207 74.1929C44.8029 74.2281 44.8756 74.277 44.9389 74.3397C45.0012 74.4015 45.0514 74.4745 45.0887 74.5587C45.1259 74.642 45.1458 74.7296 45.1458 74.8214ZM44.9302 76.5164V81.9139H43.9734V76.5164H44.9302Z" fill="#5A5A5A"/>
<path d="M47.2627 81.9133V76.5158H47.8316C47.9684 76.5158 48.0541 76.5811 48.0896 76.7124L48.165 77.2989C48.4014 77.0396 48.6646 76.8301 48.9573 76.6704C49.2491 76.5106 49.5868 76.4299 49.9704 76.4299C50.2683 76.4299 50.5306 76.4789 50.7575 76.5768C50.9852 76.6746 51.1749 76.8129 51.3273 76.9924C51.4797 77.1718 51.5948 77.3882 51.6736 77.6398C51.7533 77.8922 51.7922 78.1713 51.7922 78.477V81.9133H50.8354V78.477C50.8354 78.0682 50.7419 77.7514 50.554 77.5256C50.3661 77.3006 50.0786 77.1873 49.6916 77.1873C49.4093 77.1873 49.1443 77.2551 48.8993 77.3891C48.6542 77.5247 48.4273 77.7076 48.2195 77.9386V81.9133H47.2627Z" fill="#5A5A5A"/>
<path d="M57.8795 81.9132H57.4544C57.3617 81.9132 57.2864 81.8995 57.2284 81.8712C57.1712 81.842 57.134 81.7819 57.1158 81.69L57.0076 81.1894C56.8647 81.3173 56.7253 81.4315 56.5885 81.5328C56.4525 81.635 56.3088 81.7192 56.159 81.7896C56.0083 81.8591 55.8481 81.9107 55.6775 81.9467C55.507 81.9828 55.3182 81.9999 55.1112 81.9999C54.9 81.9999 54.7017 81.9699 54.5172 81.9115C54.3328 81.8531 54.1726 81.7647 54.0358 81.647C53.8998 81.5294 53.7916 81.3809 53.7111 81.2005C53.6305 81.0211 53.5898 80.8081 53.5898 80.5617C53.5898 80.3479 53.6487 80.1418 53.7674 79.9443C53.886 79.7468 54.0765 79.5708 54.3397 79.418C54.6038 79.2643 54.9476 79.1381 55.3745 79.041C55.8014 78.9431 56.3218 78.8942 56.9383 78.8942V78.4709C56.9383 78.0484 56.8474 77.7299 56.6673 77.5135C56.4863 77.2971 56.2187 77.1898 55.8646 77.1898C55.6316 77.1898 55.4351 77.2189 55.2758 77.2773C55.1164 77.3357 54.9779 77.4018 54.8619 77.474C54.745 77.547 54.6454 77.6131 54.5605 77.6715C54.4765 77.7298 54.3934 77.759 54.3111 77.759C54.2471 77.759 54.1908 77.7419 54.1414 77.7084C54.0938 77.6749 54.0548 77.6328 54.0263 77.583L53.8548 77.2799C54.1553 76.9923 54.48 76.7776 54.8272 76.6351C55.1753 76.4925 55.5598 76.4221 55.9823 76.4221C56.2863 76.4221 56.5573 76.4719 56.7946 76.5707C57.0309 76.6703 57.2292 76.8094 57.3903 76.9871C57.5514 77.1649 57.6735 77.3795 57.7557 77.632C57.838 77.8836 57.8795 78.1609 57.8795 78.4631V81.9132ZM55.397 81.3328C55.565 81.3328 55.7191 81.3156 55.8585 81.2821C55.9988 81.2478 56.1295 81.2005 56.2534 81.1379C56.3772 81.076 56.4958 81.0005 56.6075 80.9112C56.721 80.8227 56.8309 80.7214 56.9383 80.6081V79.4944C56.4976 79.4944 56.1235 79.5219 55.8152 79.5777C55.507 79.6326 55.2567 79.7048 55.0627 79.7941C54.8696 79.8842 54.7294 79.989 54.641 80.1109C54.5536 80.232 54.5094 80.3685 54.5094 80.5179C54.5094 80.6604 54.5328 80.7841 54.5796 80.8871C54.6263 80.991 54.6887 81.076 54.7675 81.1422C54.8463 81.2083 54.9398 81.2563 55.0472 81.2864C55.1545 81.3165 55.2714 81.3328 55.397 81.3328Z" fill="#5A5A5A"/>
<path d="M63.9877 79.0574V81.9133H62.9512V74.2781H65.2242C65.7108 74.2781 66.1351 74.3348 66.4945 74.4464C66.8547 74.5589 67.1525 74.7169 67.3889 74.9238C67.6262 75.1299 67.802 75.378 67.918 75.6691C68.0349 75.9602 68.0929 76.2856 68.0929 76.6445C68.0929 77 68.0306 77.3246 67.905 77.62C67.7795 77.9145 67.5959 78.1687 67.3552 78.3816C67.1127 78.5945 66.8131 78.7611 66.4546 78.8796C66.0961 78.999 65.6866 79.0582 65.2242 79.0582H63.9877V79.0574ZM63.9877 78.2365H65.2242C65.5212 78.2365 65.7835 78.1979 66.0113 78.1189C66.2381 78.0407 66.4295 77.9317 66.5836 77.7917C66.7378 77.6509 66.8547 77.4834 66.9326 77.2877C67.0114 77.0919 67.0512 76.8772 67.0512 76.6428C67.0512 76.156 66.8997 75.7764 66.5966 75.5025C66.2936 75.2286 65.8364 75.0921 65.2242 75.0921H63.9877V78.2365Z" fill="#5A5A5A"/>
<path d="M69.9043 81.9132V76.5157H70.4524C70.5555 76.5157 70.6282 76.5346 70.6672 76.5741C70.707 76.6128 70.7338 76.6806 70.7477 76.7759L70.8118 77.6182C70.9979 77.2413 71.2274 76.9476 71.5019 76.7355C71.7764 76.5243 72.0968 76.4187 72.4665 76.4187C72.6163 76.4187 72.7531 76.4359 72.8744 76.4694C72.9965 76.5028 73.109 76.5501 73.2129 76.6102L73.0891 77.3186C73.064 77.4079 73.0086 77.4517 72.9228 77.4517C72.8726 77.4517 72.7956 77.4353 72.6917 77.401C72.5877 77.3675 72.4431 77.3503 72.2561 77.3503C71.9236 77.3503 71.6448 77.4465 71.4205 77.638C71.1971 77.8295 71.0101 78.1094 70.8594 78.4752V81.9115H69.9043V81.9132Z" fill="#5A5A5A"/>
<path d="M75.7068 76.5156V79.9571C75.7068 80.3658 75.8021 80.6818 75.9917 80.9059C76.1822 81.13 76.4688 81.2417 76.8516 81.2417C77.1312 81.2417 77.3945 81.1756 77.6413 81.045C77.8889 80.9137 78.1158 80.7308 78.3236 80.4955V76.5156H79.2804V81.9131H78.7107C78.5747 81.9131 78.489 81.8479 78.4526 81.7165L78.3773 81.1352C78.1409 81.3945 77.8759 81.6032 77.5824 81.762C77.2888 81.92 76.952 81.999 76.5719 81.999C76.2749 81.999 76.0125 81.9501 75.7848 81.8522C75.5579 81.7543 75.3665 81.6169 75.2124 81.4392C75.0583 81.2614 74.9422 81.0468 74.866 80.7943C74.789 80.5419 74.75 80.2628 74.75 79.9571V76.5156H75.7068Z" fill="#5A5A5A"/>
<path d="M84.6155 77.4052C84.5731 77.4834 84.5064 77.5229 84.4172 77.5229C84.3635 77.5229 84.3029 77.5031 84.2345 77.4645C84.1661 77.425 84.083 77.3821 83.9851 77.334C83.8864 77.2867 83.7695 77.2421 83.6327 77.2009C83.4968 77.1597 83.3357 77.1391 83.1495 77.1391C82.9885 77.1391 82.8439 77.1597 82.714 77.2009C82.585 77.2421 82.4758 77.2979 82.3841 77.3692C82.2923 77.4396 82.223 77.522 82.1745 77.6165C82.1269 77.7109 82.1018 77.8131 82.1018 77.923C82.1018 78.0621 82.1425 78.1772 82.223 78.2691C82.3035 78.3609 82.41 78.4416 82.5425 78.5095C82.675 78.5764 82.8257 78.6366 82.9937 78.6881C83.1625 78.7396 83.3348 78.7945 83.5123 78.8529C83.689 78.9113 83.8622 78.9766 84.031 79.0478C84.199 79.1183 84.3497 79.2076 84.4821 79.314C84.6146 79.4205 84.7211 79.551 84.8017 79.7056C84.8822 79.8601 84.9229 80.0456 84.9229 80.262C84.9229 80.5101 84.8779 80.7403 84.7878 80.9515C84.6986 81.1636 84.5661 81.3465 84.3904 81.5002C84.2146 81.6547 83.9998 81.7767 83.7461 81.8651C83.4916 81.9544 83.198 81.9991 82.8646 81.9991C82.4854 81.9991 82.1416 81.9372 81.8333 81.8144C81.5251 81.6925 81.2636 81.5354 81.0488 81.343L81.2748 80.9807C81.3043 80.9343 81.338 80.8991 81.3779 80.8734C81.4168 80.8485 81.4697 80.8364 81.5337 80.8364C81.5978 80.8364 81.6654 80.8613 81.7372 80.9111C81.8082 80.9609 81.8957 81.0159 81.9979 81.0769C82.1 81.137 82.2239 81.1919 82.3685 81.2417C82.514 81.2915 82.6949 81.3164 82.914 81.3164C83.1002 81.3164 83.263 81.2924 83.4024 81.2443C83.5418 81.1971 83.6587 81.1318 83.7513 81.0502C83.844 80.9687 83.9133 80.8742 83.9583 80.7677C84.0033 80.6613 84.0249 80.5479 84.0249 80.4269C84.0249 80.2774 83.9851 80.1538 83.9046 80.0568C83.8241 79.9597 83.7176 79.8756 83.5851 79.806C83.4526 79.7365 83.3011 79.6764 83.1305 79.6249C82.9599 79.5733 82.7867 79.5192 82.6092 79.4626C82.4317 79.405 82.2576 79.3407 82.0871 79.2677C81.9165 79.1947 81.7658 79.1037 81.6333 78.9938C81.5008 78.8838 81.3943 78.7473 81.3129 78.5867C81.2324 78.4245 81.1926 78.2287 81.1926 77.9977C81.1926 77.7908 81.235 77.5933 81.3216 77.4027C81.4082 77.2129 81.5329 77.0455 81.6983 76.9021C81.8628 76.7587 82.0654 76.6445 82.3053 76.5586C82.5451 76.4727 82.8187 76.4307 83.127 76.4307C83.4855 76.4307 83.8067 76.4865 84.0916 76.599C84.3765 76.7106 84.6224 76.8643 84.8311 77.0601L84.6155 77.4052Z" fill="#5A5A5A"/>
<path d="M64.7385 0.00601123V0H64.6146H58.5169C55.1546 0 52.4253 2.70649 52.4253 6.04065V15.1115C52.4253 18.4482 49.7029 21.1513 46.3397 21.1582H46.3267V6.04065C46.3267 2.70563 43.5974 0 40.2281 0V15.1115C40.2281 18.45 37.5023 21.1547 34.1365 21.1582H34.1304V6.04065C34.1304 2.70563 31.4011 0 28.0327 0V21.1582V21.1882V42.3232C31.402 42.3232 34.1304 39.6167 34.1304 36.2765V21.1882H40.2281V42.3232C43.5974 42.3232 46.3267 39.6167 46.3267 36.2765V21.1882H46.3458H46.4081C49.7384 21.2329 52.4244 23.923 52.4244 27.2297V42.3223C55.7867 42.3223 58.5161 39.6158 58.5161 36.2757V27.2297H64.7385C68.1077 27.2297 70.7123 24.4983 70.7123 21.1582V6.04065C70.7123 2.7477 68.0497 0.0721278 64.7385 0.00601123ZM58.5161 27.1997C58.5152 26.0946 58.2208 25.0693 57.7004 24.1815C56.7271 22.508 54.9658 21.3496 52.9249 21.1848L52.9344 21.1796C54.9607 20.9993 56.741 19.8144 57.7073 18.1469C58.2217 17.2633 58.5169 16.2372 58.5169 15.1355V0.0300535H59.1205C62.2057 0.330583 64.6146 2.90741 64.6146 6.04065V21.1831C64.6146 24.3214 62.2057 26.8991 59.1205 27.1997H58.5161Z" fill="#5A5A5A"/>
<path d="M65.3663 0.00601123V0H65.2425H59.1439C55.7816 0 53.0522 2.70649 53.0522 6.04065V15.1115C53.0522 18.4482 50.3298 21.1513 46.9666 21.1582H46.9537V6.04065C46.9537 2.70563 44.2243 0 40.8551 0V15.1115C40.8551 18.45 38.1292 21.1547 34.7634 21.1582H34.7574V6.04065C34.7574 2.70563 32.028 0 28.6597 0V21.1582V21.1882V42.3232C32.0289 42.3232 34.7574 39.6167 34.7574 36.2765V21.1882H40.8551V42.3232C44.2243 42.3232 46.9537 39.6167 46.9537 36.2765V21.1882H46.9727H47.0351C50.3653 21.2329 53.0514 23.923 53.0514 27.2297V42.3223C56.4137 42.3223 59.143 39.6158 59.143 36.2757V27.2297H65.3654C68.7347 27.2297 71.3393 24.4983 71.3393 21.1582V6.04065C71.3402 2.7477 68.6775 0.0721278 65.3663 0.00601123ZM59.1439 27.1997C59.143 26.0946 58.8486 25.0693 58.3282 24.1815C57.3549 22.508 55.5937 21.3496 53.5527 21.1848L53.5623 21.1796C55.5885 20.9993 57.3688 19.8144 58.3351 18.1469C58.8495 17.2633 59.1447 16.2372 59.1447 15.1355V0.0300535H59.7483C62.8335 0.330583 65.2425 2.90741 65.2425 6.04065V21.1831C65.2425 24.3214 62.8335 26.8991 59.7483 27.1997H59.1439Z" fill="#5A5A5A"/>
</svg>
