<svg width="100" height="100" viewBox="0 0 100 100" fill="none" xmlns="http://www.w3.org/2000/svg">
<path d="M55.091 35.0994C53.7108 34.2587 52.3306 33.8233 51.4772 33.6131C50.98 33.4855 50.6461 33.4405 50.6016 33.4329C50.5867 33.4329 50.5719 33.4329 50.5496 33.4329C50.5348 33.4329 50.5274 33.4329 50.5125 33.4329C50.4902 33.4329 50.4754 33.4405 50.4606 33.4405C50.4531 33.4405 50.4383 33.4405 50.4309 33.448C50.416 33.4555 50.4012 33.4555 50.3864 33.463C50.3789 33.4705 50.3641 33.4705 50.3567 33.478C50.3418 33.4855 50.3344 33.493 50.327 33.5005C50.3122 33.508 50.3047 33.5155 50.2899 33.523C50.2825 33.5305 50.2751 33.538 50.2676 33.5455C50.2528 33.5606 50.2454 33.5681 50.2305 33.5831C50.2231 33.5906 50.2157 33.6056 50.2083 33.6131C50.2008 33.6281 50.186 33.6356 50.1786 33.6506C50.1712 33.6657 50.1637 33.6807 50.1563 33.6882C50.1489 33.7032 50.1415 33.7107 50.1415 33.7257C50.1341 33.7407 50.1341 33.7632 50.1266 33.7783C50.1266 33.7858 50.1192 33.7933 50.1192 33.8083C50.1192 33.8083 50.1192 33.8083 50.1192 33.8158C50.1192 33.8308 50.1192 33.8533 50.1192 33.8683C50.1192 33.8758 50.1192 33.8909 50.1192 33.8984C50.1192 33.9209 50.1266 33.9359 50.1266 33.9509C50.1266 33.9584 50.1266 33.9734 50.1341 33.9809C50.1415 33.9959 50.1489 34.0185 50.1563 34.0335C50.1563 34.041 50.1637 34.0485 50.1637 34.056C50.1712 34.071 50.186 34.086 50.1934 34.101C50.2008 34.1085 50.2008 34.116 50.2083 34.1236C50.2157 34.1386 50.2305 34.1536 50.2454 34.1611C50.2528 34.1686 50.2602 34.1761 50.2676 34.1836C50.2825 34.1986 50.2973 34.2061 50.3122 34.2136C50.3196 34.2211 50.327 34.2286 50.3418 34.2286C50.3567 34.2362 50.3715 34.2437 50.3864 34.2512C50.3938 34.2587 50.4086 34.2587 50.416 34.2662C50.4309 34.2737 50.4457 34.2737 50.468 34.2812C50.4828 34.2812 50.4902 34.2887 50.4977 34.2887C50.5051 34.2887 50.7648 34.3262 51.1952 34.4313C52.3157 34.7166 54.4899 35.5273 55.4249 37.6366C55.4546 37.7117 55.4917 37.7868 55.5214 37.8618C57.1168 41.8779 53.9705 46.2017 49.6962 46.029C44.7467 45.8338 41.5707 43.2366 41.5336 43.2065C41.5262 43.199 41.5188 43.1915 41.5113 43.1915C41.4446 43.139 34.8773 38.2146 35.6936 30.4754C36.124 26.4218 37.6007 23.8095 38.7731 22.3382C40.0346 20.7468 41.2071 20.0862 41.2294 20.0787C41.4371 19.9661 41.5188 19.7034 41.4075 19.4857C41.2961 19.2755 41.0364 19.1929 40.8212 19.3055C40.6951 19.3731 38.877 20.3865 37.2593 22.9688C37.4003 22.5859 37.571 22.1806 37.7714 21.7677C39.4707 18.2621 42.476 15.7024 46.7058 14.1635C47.7892 13.9759 48.9022 13.8783 50.0376 13.8783C51.8482 13.8783 53.644 14.126 55.3804 14.6064C55.5808 14.6665 55.8034 14.5764 55.8999 14.3887C56.026 14.1335 55.885 13.8407 55.6327 13.7657C53.8221 13.2552 51.9447 13 50.045 13C48.8651 13 47.7001 13.1051 46.5722 13.2928C46.5573 13.2928 46.5351 13.3003 46.5202 13.3003C40.3611 14.3662 35.1222 18.172 32.0649 23.4267C32.0353 23.4642 32.0056 23.5092 31.9907 23.5543C30.2172 26.6545 29.208 30.2426 29.208 34.071C29.208 41.2548 32.7773 47.6054 38.2166 51.4112C38.2463 51.4488 38.2834 51.4788 38.3279 51.5013C38.3353 51.5088 38.3502 51.5088 38.3576 51.5163C41.6894 53.8134 45.7188 55.1495 50.045 55.1495C50.5274 55.1495 51.0097 55.1345 51.492 55.097C51.7221 55.082 51.9224 54.8868 51.915 54.6466C51.9076 54.3914 51.6998 54.2037 51.4549 54.2187C50.9874 54.2487 50.5199 54.2713 50.045 54.2713C47.2104 54.2713 44.5093 53.6707 42.0679 52.5898C43.2849 52.7699 44.4499 52.815 45.3033 52.815C46.0898 52.815 46.6241 52.7774 46.7132 52.7699C53.3991 52.4847 56.5232 49.9024 57.9628 47.7856C59.5063 45.5261 59.5137 43.3492 59.5063 43.1465C59.573 38.7701 57.1465 36.353 55.091 35.0994ZM42.0159 15.5823C39.3223 17.4514 37.801 19.6583 36.9477 21.4374C36.0424 23.3291 35.7381 24.988 35.6342 25.9038C35.5749 26.4068 35.4858 26.9097 35.3523 27.4052C35.1148 28.3135 34.9293 29.3043 34.8106 30.4003C34.3505 34.7166 36.0572 38.1621 37.5636 40.294C39.1442 42.5234 40.799 43.7845 40.9696 43.9046C41.2368 44.1223 44.5686 46.7872 49.7705 46.9298C49.162 47.0499 48.4867 47.1325 47.7446 47.14C47.6778 47.14 47.6111 47.14 47.5517 47.14C36.547 46.7797 32.3766 36.4356 32.6957 25.6486C32.7328 24.4025 33.1558 23.2015 33.8756 22.2031C35.9533 19.3281 38.7583 17.0235 42.0159 15.5823ZM57.191 47.3577C55.2765 50.1351 51.6256 51.7115 46.6315 51.9217C46.6241 51.9217 46.6241 51.9217 46.6167 51.9217C46.5648 51.9292 41.7859 52.2745 38.7583 50.7807C33.4971 47.14 30.0317 41.0221 30.0317 34.0935C30.0317 31.1134 30.6699 28.2834 31.8201 25.7387C31.6791 40.1589 37.571 47.9657 47.5517 48.0183C47.6333 48.0183 47.7224 48.0183 47.804 48.0183C51.0245 47.9507 53.1542 46.6821 53.2359 46.6295C53.2433 46.6295 53.2507 46.622 53.2507 46.622C56.3896 44.7679 57.6808 40.6768 56.1893 37.2988C56.1151 37.1262 56.0334 36.9686 55.9444 36.8109C57.7698 38.4023 58.6603 40.5342 58.601 43.1615C58.601 43.169 58.601 43.1765 58.601 43.184C58.6084 43.199 58.6306 45.2633 57.191 47.3577Z" fill="#5A5A5A"/>
<path d="M55.8476 13.8559C55.7289 13.8184 53.0426 12.9852 49.8147 13.2404C47.6256 13.4131 45.7334 14.0586 44.175 15.1321C44.1305 15.1546 44.086 15.1846 44.0489 15.2221C42.587 16.2731 41.422 17.7143 40.6057 19.5234C40.576 19.5985 39.7969 21.3926 39.7969 23.8547C39.7969 26.1367 40.4944 29.4396 43.804 32.2171C44.0118 32.4122 46.327 34.4615 51.2914 34.2964C56.3671 34.1313 58.3484 36.4583 59.4095 38.2223C60.1293 39.4234 61.6802 43.3944 60.2109 47.2603C58.994 50.4656 56.0109 52.8152 51.3433 54.2489C47.2249 54.6843 42.4534 53.746 42.6761 53.8286C45.0136 54.7143 47.4698 55.1647 49.9928 55.1647C50.4825 55.1647 50.9723 55.1497 51.4621 55.1122C56.7158 54.7444 61.5986 52.3873 65.205 48.4914C68.8337 44.5729 70.8298 39.4534 70.8298 34.0862C70.8447 24.748 64.693 16.4682 55.8476 13.8559ZM63.9287 44.4453C63.8396 46.8624 63.2905 48.8367 63.1495 49.3096C60.8936 51.3063 58.2445 52.7551 55.3801 53.5583C58.1925 52.0645 60.0922 50.0602 61.0346 47.5756C62.6226 43.3794 60.9456 39.0706 60.1664 37.7644C58.3335 34.7018 55.4321 33.283 51.284 33.4181C48.8203 33.4932 47.0765 32.9902 46.0524 32.5474C44.9468 32.0744 44.4125 31.5715 44.4051 31.564C44.3976 31.5565 44.3902 31.549 44.3828 31.5415C43.6036 30.8884 42.9432 30.1753 42.4089 29.4171C43.7595 30.8959 45.7705 31.8718 48.2267 32.2546C50.0744 32.5399 51.5066 32.3897 51.5585 32.3822C58.4152 31.7366 61.1682 35.7076 61.1905 35.7452C61.2053 35.7677 61.2201 35.7827 61.235 35.8052C63.6393 38.38 64.0251 41.9231 63.9287 44.4453ZM66.3849 45.6614C65.8432 46.4421 65.2421 47.1927 64.5891 47.9058C64.5001 47.9959 64.4184 48.0935 64.3294 48.1836C64.5297 47.2528 64.7375 45.9692 64.7969 44.5054C64.9453 40.6545 63.9435 37.4492 61.888 35.2347C61.5838 34.7993 58.6229 30.8434 51.4695 31.519C51.4546 31.519 50.067 31.6616 48.3231 31.3913C46.7426 31.1436 44.5461 30.4981 43.01 28.8091C42.6464 28.4112 42.3347 27.9683 42.075 27.4804C42.216 27.6531 42.357 27.8257 42.5128 27.9834C43.715 29.237 45.4069 30.0702 47.5217 30.4605C49.5401 30.8284 51.3804 30.6932 52.3006 30.5731C55.9738 30.1077 59.4392 31.4364 59.4615 31.4514C63.0753 32.9677 65.3386 35.8202 66.1845 39.9263C66.7633 42.7188 66.4591 45.1735 66.3849 45.6614ZM67.9655 37.8845C67.9061 39.5285 67.6538 41.0749 67.3718 42.351C67.3273 41.5703 67.2308 40.6995 67.0453 39.7837C66.1548 35.4224 63.6541 32.2621 59.7954 30.6407C59.647 30.5806 56.0999 29.2144 52.2041 29.7099C47.7221 30.2804 44.5906 28.8766 43.1436 27.3753C41.5185 25.6863 40.9471 23.1416 41.4368 19.8237C41.7708 19.088 42.164 18.42 42.6167 17.8269C42.4906 18.3374 42.446 18.8478 42.4831 19.3733C42.6612 21.858 44.6425 23.577 44.7316 23.652C44.739 23.6596 44.7464 23.6596 44.7538 23.6671C47.6776 25.8815 53.0278 25.1384 53.243 25.1083C57.5098 24.6054 60.7823 25.6263 61.6802 25.9491C61.8286 26.0016 61.9696 26.0692 62.1032 26.1367C66.1845 28.4037 68.1658 32.3522 67.9655 37.8845ZM62.5039 25.3786C62.3332 25.2885 62.1551 25.2059 61.9622 25.1308C61.0124 24.793 57.5766 23.7196 53.1169 24.2451C53.0797 24.2526 50.0447 24.6729 47.4401 23.9748C45.8298 23.547 44.457 22.4435 43.7595 20.9196C43.5443 20.4467 43.3736 19.8987 43.3365 19.3132C43.2549 18.1197 43.7001 16.9487 44.6722 15.8377C46.0895 14.8543 47.826 14.2763 49.8666 14.1112C52.449 13.901 54.7197 14.449 55.3876 14.6291C63.9806 17.0538 69.9839 25.0558 69.9839 34.0937C69.9839 36.9462 69.3976 39.7237 68.2771 42.2759C68.5443 41.0223 68.7743 39.5285 68.8337 37.9371C69.0415 32.1195 66.8524 27.7807 62.5039 25.3786Z" fill="#5A5A5A"/>
<path d="M0 71.2362C0 71.1461 0.0742059 71.071 0.170674 71.071H0.764321C0.853368 71.071 0.934995 71.1536 0.934995 71.2362V76.4007H3.36895C3.46542 76.4007 3.53962 76.4833 3.53962 76.5659V77.0463C3.53962 77.1364 3.46542 77.2114 3.36895 77.2114H0.170674C0.0742059 77.2114 0 77.1289 0 77.0463V71.2362Z" fill="#5A5A5A"/>
<path d="M6.81934 71.2362C6.81934 71.1461 6.89354 71.071 6.99001 71.071H10.589C10.6855 71.071 10.7597 71.1536 10.7597 71.2362V71.7316C10.7597 71.8217 10.6855 71.8968 10.589 71.8968H7.74691V73.6908H10.1438C10.2328 73.6908 10.3144 73.7734 10.3144 73.856V74.3514C10.3144 74.449 10.2328 74.5166 10.1438 74.5166H7.74691V76.4082H10.589C10.6855 76.4082 10.7597 76.4908 10.7597 76.5734V77.0538C10.7597 77.1439 10.6855 77.2189 10.589 77.2189H6.99001C6.89354 77.2189 6.81934 77.1364 6.81934 77.0538V71.2362Z" fill="#5A5A5A"/>
<path d="M13.6089 76.9936L16.3693 71.0859C16.399 71.0333 16.4806 70.9883 16.5251 70.9883H16.6142C16.6587 70.9883 16.7403 71.0333 16.77 71.0859L19.5082 76.9936C19.5602 77.1062 19.4934 77.2188 19.3524 77.2188H18.7884C18.6771 77.2188 18.6178 77.1662 18.5807 77.0836L18.0241 75.8826H15.0855C14.9075 76.2879 14.7145 76.6783 14.5364 77.0836C14.5067 77.1437 14.44 77.2188 14.3286 77.2188H13.7647C13.6237 77.2188 13.5569 77.1062 13.6089 76.9936ZM17.6828 75.1319L16.5771 72.7223H16.5326L15.4343 75.1319H17.6828Z" fill="#5A5A5A"/>
<path d="M22.7441 71.1459C22.7441 71.0558 22.8258 70.9883 22.9148 70.9883H23.0484C23.1078 70.9883 23.1671 71.0108 23.2042 71.0558L27.0407 75.3947H27.0481V71.2435C27.0481 71.1534 27.1223 71.0784 27.2188 71.0784H27.7976C27.8866 71.0784 27.9682 71.1609 27.9682 71.2435V77.1512C27.9682 77.2413 27.8866 77.3088 27.7976 77.3088H27.6566C27.5972 77.3088 27.5378 77.2788 27.5007 77.2338L23.6643 72.7748H23.6569V77.0536C23.6569 77.1437 23.5827 77.2188 23.4862 77.2188H22.9222C22.8332 77.2188 22.7516 77.1362 22.7516 77.0536L22.7441 71.1459Z" fill="#5A5A5A"/>
<path d="M39.1505 70.981C40.0558 70.981 40.7163 71.2812 41.3248 71.7992C41.4064 71.8667 41.4064 71.9718 41.3322 72.0469L40.9389 72.4447C40.8795 72.5273 40.7979 72.5273 40.7163 72.4447C40.2933 72.0844 39.7219 71.8592 39.1579 71.8592C37.8742 71.8592 36.9021 72.9101 36.9021 74.1412C36.9021 75.3723 37.8816 76.4157 39.1654 76.4157C39.8184 76.4157 40.2785 76.1605 40.7089 75.8377C40.7905 75.7777 40.8721 75.7852 40.9241 75.8302L41.3396 76.2281C41.4138 76.2881 41.3916 76.4007 41.3322 76.4683C40.7237 77.0463 39.9445 77.324 39.1505 77.324C37.3547 77.324 35.9077 75.9278 35.9077 74.1713C35.9077 72.3997 37.3547 70.981 39.1505 70.981Z" fill="#5A5A5A"/>
<path d="M53.6801 76.9936L56.4406 71.0859C56.4703 71.0333 56.5519 70.9883 56.5964 70.9883H56.6855C56.73 70.9883 56.8116 71.0333 56.8413 71.0859L59.5795 76.9936C59.6315 77.1062 59.5647 77.2188 59.4237 77.2188H58.8597C58.7484 77.2188 58.689 77.1662 58.6519 77.0836L58.0954 75.8826H55.1568C54.9787 76.2879 54.7858 76.6783 54.6077 77.0836C54.578 77.1437 54.5112 77.2188 54.3999 77.2188H53.836C53.695 77.2188 53.6282 77.1062 53.6801 76.9936ZM57.754 75.1319L56.6484 72.7223H56.6039L55.5056 75.1319H57.754Z" fill="#5A5A5A"/>
<path d="M65.5685 70.981C66.4738 70.981 67.1343 71.2812 67.7427 71.7992C67.8244 71.8667 67.8244 71.9718 67.7502 72.0469L67.3569 72.4447C67.2975 72.5273 67.2159 72.5273 67.1343 72.4447C66.7113 72.0844 66.1399 71.8592 65.5759 71.8592C64.2922 71.8592 63.3201 72.9101 63.3201 74.1412C63.3201 75.3723 64.2996 76.4157 65.5834 76.4157C66.2364 76.4157 66.6964 76.1605 67.1268 75.8377C67.2085 75.7777 67.2901 75.7852 67.342 75.8302L67.7576 76.2281C67.8318 76.2881 67.8095 76.4007 67.7502 76.4683C67.1417 77.0463 66.3625 77.324 65.5685 77.324C63.7727 77.324 62.3257 75.9278 62.3257 74.1713C62.3183 72.3997 63.7653 70.981 65.5685 70.981Z" fill="#5A5A5A"/>
<path d="M71.3716 71.2362C71.3716 71.1461 71.4532 71.071 71.5423 71.071H72.1359C72.2324 71.071 72.3066 71.1536 72.3066 71.2362V73.6833H75.5939V71.2362C75.5939 71.1461 75.6681 71.071 75.7646 71.071H76.3582C76.4473 71.071 76.5289 71.1536 76.5289 71.2362V77.0538C76.5289 77.1439 76.4473 77.2189 76.3582 77.2189H75.7646C75.6681 77.2189 75.5939 77.1364 75.5939 77.0538V74.5166H72.3066V77.0538C72.3066 77.1439 72.2324 77.2189 72.1359 77.2189H71.5423C71.4532 77.2189 71.3716 77.1364 71.3716 77.0538V71.2362Z" fill="#5A5A5A"/>
<path d="M80.6172 71.2362C80.6172 71.1461 80.6988 71.071 80.7879 71.071H81.3815C81.4705 71.071 81.5522 71.1536 81.5522 71.2362V77.0538C81.5522 77.1439 81.4705 77.2189 81.3815 77.2189H80.7879C80.6988 77.2189 80.6172 77.1364 80.6172 77.0538V71.2362Z" fill="#5A5A5A"/>
<path d="M85.6338 71.1459C85.6338 71.0558 85.7154 70.9883 85.8045 70.9883H85.938C85.9974 70.9883 86.0568 71.0108 86.0939 71.0558L89.9303 75.3947H89.9377V71.2435C89.9377 71.1534 90.0119 71.0784 90.1084 71.0784H90.6872C90.7763 71.0784 90.8579 71.1609 90.8579 71.2435V77.1512C90.8579 77.2413 90.7763 77.3088 90.6872 77.3088H90.5462C90.4869 77.3088 90.4275 77.2788 90.3904 77.2338L86.5539 72.7748H86.5465V77.0536C86.5465 77.1437 86.4723 77.2188 86.3758 77.2188H85.8119C85.7228 77.2188 85.6412 77.1362 85.6412 77.0536V71.1459H85.6338Z" fill="#5A5A5A"/>
<path d="M97.7146 70.981C98.5754 70.981 99.2877 71.2887 99.8962 71.7992C99.9704 71.8667 99.9779 71.9718 99.9037 72.0469C99.7701 72.1895 99.6365 72.3171 99.4955 72.4598C99.4213 72.5423 99.3545 72.5273 99.2581 72.4522C98.8351 72.0919 98.2785 71.8517 97.7294 71.8517C96.4531 71.8517 95.4736 72.9026 95.4736 74.1337C95.4736 75.3573 96.4531 76.4082 97.7294 76.4082C98.4789 76.4082 98.9909 76.1455 99.08 76.108V75.1246H98.1969C98.1005 75.1246 98.0262 75.057 98.0262 74.967V74.4565C98.0262 74.3589 98.1005 74.2914 98.1969 74.2914H99.8295C99.9185 74.2914 99.9927 74.3739 99.9927 74.4565C99.9927 75.1621 100 75.8828 100 76.5809C100 76.6259 99.963 76.6935 99.9259 76.7235C99.9259 76.7235 98.9983 77.3015 97.6997 77.3015C95.9114 77.3015 94.4644 75.9053 94.4644 74.1487C94.4792 72.3997 95.9262 70.981 97.7146 70.981Z" fill="#5A5A5A"/>
<path d="M48.3003 74.2686C48.0926 74.141 47.8922 74.0734 47.7512 74.0434C47.677 74.0209 47.625 74.0209 47.6176 74.0134H47.6102H47.6028C47.5954 74.0134 47.5879 74.0134 47.5879 74.0134H47.5805H47.5731H47.5657C47.5657 74.0134 47.5583 74.0134 47.5583 74.0209C47.5508 74.0209 47.5508 74.0284 47.5508 74.0284L47.5434 74.0359L47.536 74.0434C47.536 74.0434 47.536 74.0509 47.5286 74.0509C47.5286 74.0584 47.5212 74.0584 47.5212 74.0584C47.5212 74.0584 47.5212 74.0659 47.5137 74.0659L47.5063 74.0734V74.0809V74.0884C47.5063 74.096 47.5063 74.096 47.5063 74.1035V74.111C47.5063 74.1185 47.5063 74.1185 47.5063 74.126V74.1335C47.5063 74.141 47.5063 74.141 47.5137 74.1485V74.156L47.5212 74.1635C47.5212 74.1635 47.5212 74.171 47.5286 74.171L47.536 74.1785L47.5434 74.186L47.5508 74.1935L47.5583 74.201C47.5583 74.201 47.5657 74.201 47.5657 74.2086H47.5731H47.5805H47.5879C47.5879 74.2086 47.625 74.2161 47.6844 74.2311C47.8551 74.2761 48.1593 74.3887 48.2855 74.689C48.2929 74.6965 48.2929 74.7115 48.3003 74.719C48.4042 74.9817 48.3745 75.267 48.2187 75.4997C48.0554 75.7399 47.7957 75.8825 47.5063 75.8825C47.4915 75.8825 47.4841 75.8825 47.4692 75.8825C46.7494 75.8525 46.2819 75.4772 46.2819 75.4697C46.2671 75.4622 45.3098 74.734 45.4285 73.6155C45.4879 73.0225 45.7105 72.6397 45.8738 72.4295C46.0519 72.1968 46.2225 72.1067 46.23 72.1067C46.2745 72.0842 46.2968 72.0166 46.2671 71.9716C46.2522 71.9416 46.2151 71.919 46.178 71.919C46.1632 71.919 46.1483 71.9265 46.1335 71.9341C46.1261 71.9416 45.9777 72.0241 45.7996 72.2193C46.0593 71.7764 46.4748 71.4461 47.0388 71.2359C47.1947 71.2134 47.3579 71.1984 47.5212 71.1984C47.7883 71.1984 48.048 71.2359 48.3003 71.3035C48.3077 71.3035 48.3226 71.311 48.33 71.311C48.3671 71.311 48.4042 71.2885 48.4191 71.2585C48.4339 71.2284 48.4339 71.1984 48.4191 71.1759C48.4042 71.1459 48.382 71.1308 48.3523 71.1233C48.0777 71.0483 47.7957 71.0107 47.5137 71.0107C47.3431 71.0107 47.165 71.0258 46.9943 71.0558H46.9869C46.0816 71.2134 45.2875 71.7689 44.82 72.5721C44.82 72.5721 44.8126 72.5871 44.8052 72.5946C44.5306 73.0676 44.3896 73.6155 44.3896 74.171C44.3896 75.2069 44.8943 76.1828 45.7402 76.7758C45.7402 76.7833 45.755 76.7833 45.7625 76.7908C46.2819 77.1436 46.8904 77.3388 47.5137 77.3388C47.5879 77.3388 47.6622 77.3388 47.7289 77.3313C47.7809 77.3313 47.8254 77.2787 47.8254 77.2262C47.8254 77.1737 47.7809 77.1286 47.7289 77.1286C47.6547 77.1361 47.5879 77.1361 47.5137 77.1361C47.1946 77.1361 46.883 77.0836 46.5862 76.986C46.6752 76.9935 46.7494 76.9935 46.8088 76.9935C46.9275 76.9935 47.0091 76.986 47.024 76.986C48.0258 76.941 48.5007 76.5506 48.7159 76.2353C48.9533 75.89 48.9533 75.5597 48.9533 75.5297C48.983 74.8241 48.612 74.4563 48.3003 74.2686ZM44.9907 72.8949C44.9981 72.7222 45.0575 72.5496 45.1614 72.407C45.3989 72.0767 45.7031 71.7989 46.0445 71.5963C45.8367 71.7914 45.6734 72.0091 45.5547 72.2568C45.4137 72.5496 45.3692 72.8048 45.3543 72.9324C45.3469 73 45.3321 73.0751 45.3172 73.1501C45.2801 73.2927 45.2504 73.4429 45.2356 73.6005C45.1688 74.2536 45.4211 74.7715 45.6512 75.0943C45.8886 75.4321 46.1335 75.6198 46.1632 75.6348C46.2077 75.6723 46.5491 75.9426 47.1056 76.0477C45.4879 75.9576 44.9536 74.3662 44.9907 72.8949ZM48.5601 76.0927C48.2855 76.4981 47.7512 76.7233 47.024 76.7533C47.0166 76.7533 46.9423 76.7608 46.831 76.7608C46.601 76.7608 46.178 76.7383 45.8738 76.5881C45.0798 76.0402 44.5974 75.1244 44.5974 74.1485C44.5974 73.7807 44.6642 73.4204 44.7904 73.0826C44.8052 74.2161 45.0872 75.0943 45.6066 75.6273C45.9999 76.0327 46.5268 76.2428 47.1575 76.2428H47.1947C47.6844 76.2353 48.0035 76.0402 48.0183 76.0327C48.471 75.7624 48.6714 75.1994 48.5081 74.704C48.6788 74.9142 48.7678 75.1769 48.7604 75.4847C48.7678 75.4997 48.7678 75.7999 48.5601 76.0927Z" fill="#5A5A5A"/>
<path d="M48.4036 71.1157C48.3887 71.1081 48.0845 71.0181 47.6838 71.0181C47.617 71.0181 47.5576 71.0181 47.4983 71.0256C47.1718 71.0556 46.8824 71.1457 46.6449 71.3108C46.6375 71.3108 46.6301 71.3183 46.6226 71.3258C46.4 71.4835 46.2294 71.7012 46.1032 71.9714C46.0958 71.9864 45.9771 72.2567 45.9771 72.632C45.9771 72.9773 46.0809 73.4802 46.5855 73.9006C46.6226 73.9306 46.9492 74.2159 47.6393 74.2159C47.669 74.2159 47.6912 74.2159 47.7209 74.2159C47.7432 74.2159 47.7728 74.2159 47.7951 74.2159C48.4778 74.2159 48.7524 74.5387 48.8934 74.7789C48.9972 74.9515 49.2199 75.5295 49.0121 76.085C48.834 76.5504 48.4036 76.8882 47.7209 77.0984C47.6244 77.1059 47.5057 77.1134 47.3795 77.1134C46.9937 77.1134 46.6375 77.0609 46.5039 77.0383C46.4742 77.0308 46.452 77.0308 46.4446 77.0308C46.4297 77.0308 46.4149 77.0459 46.4074 77.0609C46.4074 77.0759 46.4149 77.0984 46.4297 77.0984C46.7785 77.2335 47.1495 77.3011 47.528 77.3011C47.6022 77.3011 47.6764 77.3011 47.7506 77.2936C48.5372 77.241 49.2718 76.8882 49.8135 76.3027C50.3552 75.7172 50.6595 74.944 50.6595 74.1408C50.652 72.7521 49.7245 71.506 48.4036 71.1157ZM49.5538 75.6797C49.5389 76.0175 49.4722 76.2952 49.4425 76.3853C49.1902 76.603 48.9082 76.7831 48.6039 76.9032C48.8859 76.7005 49.0789 76.4528 49.1902 76.1601C49.4276 75.522 49.1753 74.8689 49.0566 74.6738C48.7895 74.2309 48.3739 74.0132 47.7877 74.0132C47.758 74.0132 47.7357 74.0132 47.7061 74.0132C47.6838 74.0132 47.6541 74.0132 47.6318 74.0132C47.3053 74.0132 47.0827 73.9456 46.9417 73.8856C46.7859 73.818 46.7117 73.7505 46.7043 73.743C46.6969 73.7354 46.6894 73.7279 46.682 73.7279C46.8453 73.818 47.0308 73.8781 47.2386 73.9081C47.3499 73.9231 47.4686 73.9306 47.5799 73.9306C47.6764 73.9306 47.7357 73.9231 47.7432 73.9231C47.8174 73.9156 47.8916 73.9156 47.9584 73.9156C48.7895 73.9156 49.1382 74.4035 49.1382 74.411C49.1382 74.4185 49.1456 74.4185 49.1456 74.4261C49.5167 74.8014 49.5686 75.3118 49.5538 75.6797ZM49.9248 75.8523C49.858 75.9499 49.7838 76.04 49.7096 76.1225C49.7319 75.9799 49.7467 75.8298 49.7541 75.6947C49.7764 75.1167 49.628 74.6287 49.3163 74.2909C49.2792 74.2384 48.8933 73.7204 47.9806 73.7204C47.899 73.7204 47.8248 73.7279 47.7432 73.7354C47.7432 73.7354 47.6912 73.743 47.6022 73.743C47.4983 73.743 47.387 73.7355 47.2831 73.7204C47.105 73.6904 46.8749 73.6304 46.682 73.4952C46.8156 73.5703 46.9788 73.6228 47.1495 73.6529C47.2831 73.6754 47.4166 73.6904 47.5651 73.6904C47.6986 73.6904 47.8025 73.6829 47.8693 73.6679C47.9435 73.6604 48.0251 73.6529 48.1068 73.6529C48.5446 73.6529 48.9156 73.7955 48.9156 73.7955C49.4425 74.0132 49.769 74.4336 49.8877 75.0266C49.9693 75.4169 49.9322 75.7622 49.9248 75.8523ZM50.1103 75.1317C50.1029 75.0791 50.0955 75.0341 50.0881 74.989C49.9545 74.3285 49.576 73.8556 48.9898 73.6078C48.975 73.6003 48.5817 73.4502 48.1068 73.4502C48.0177 73.4502 47.9287 73.4577 47.8396 73.4652C47.7432 73.4802 47.6467 73.4877 47.5502 73.4877C47.1198 73.4877 46.7414 73.3526 46.5262 73.1349C46.2961 72.8947 46.2145 72.5269 46.2813 72.054C46.3036 72.0014 46.3332 71.9489 46.3629 71.8963C46.3629 71.9264 46.3629 71.9564 46.3629 71.9789C46.3926 72.3617 46.6969 72.6245 46.7117 72.6395C46.9788 72.8422 47.3721 72.8872 47.6541 72.8872C47.8545 72.8872 47.9955 72.8647 48.0029 72.8647C48.1142 72.8497 48.2329 72.8422 48.3442 72.8422C48.8043 72.8422 49.1457 72.9548 49.2347 72.9848C49.257 72.9923 49.2718 72.9998 49.2941 73.0073C49.8877 73.3376 50.1771 73.9081 50.1474 74.7188C50.1474 74.8464 50.1326 74.9815 50.1103 75.1317ZM49.398 72.8272C49.3683 72.8121 49.346 72.7971 49.3089 72.7896C49.1828 72.7446 48.8266 72.632 48.3516 72.632C48.2255 72.632 48.1068 72.6395 47.988 72.6545C47.988 72.6545 47.8545 72.677 47.669 72.677C47.476 72.677 47.3053 72.6545 47.1643 72.617C46.9269 72.5569 46.7414 72.3993 46.6449 72.1816C46.6078 72.1065 46.593 72.0315 46.5855 71.9564C46.5707 71.7912 46.6375 71.6261 46.7711 71.4685C46.9788 71.3258 47.2311 71.2433 47.5205 71.2207C47.5799 71.2132 47.6393 71.2132 47.6912 71.2132C47.988 71.2132 48.2329 71.2733 48.322 71.2958C49.5835 71.6486 50.4591 72.8271 50.4591 74.1483C50.4591 74.4411 50.4146 74.7263 50.3404 74.9966C50.3478 74.9065 50.3552 74.8089 50.3626 74.7188C50.3849 73.8405 50.051 73.1875 49.398 72.8272Z" fill="#5A5A5A"/>
<path d="M8.55612 82.8039C8.57096 82.7589 8.61549 82.7139 8.66001 82.7139H8.75648C8.79358 82.7139 8.84553 82.7439 8.85295 82.7814L10.0848 85.8216H10.107L11.3314 82.7814C11.3463 82.7439 11.3908 82.7139 11.4279 82.7139H11.5244C11.5689 82.7139 11.6208 82.7589 11.6283 82.8039L12.348 86.7974C12.3629 86.88 12.3258 86.9326 12.2442 86.9326H11.8657C11.8138 86.9326 11.7692 86.8875 11.7544 86.85L11.3166 84.1927C11.3092 84.1927 11.3017 84.1927 11.3017 84.1927L10.2406 86.9251C10.2258 86.9626 10.1961 86.9926 10.1441 86.9926H10.0402C9.99572 86.9926 9.95119 86.9626 9.94377 86.9251L8.88263 84.1927C8.87521 84.1927 8.86779 84.1927 8.86037 84.1927L8.43739 86.85C8.42997 86.895 8.37803 86.9326 8.3335 86.9326H7.94763C7.86601 86.9326 7.82148 86.88 7.83632 86.7974L8.55612 82.8039Z" fill="#5A5A5A"/>
<path d="M14.1961 86.7824L15.9993 82.7814C16.0142 82.7439 16.0735 82.7139 16.0958 82.7139H16.1552C16.1848 82.7139 16.2368 82.7439 16.2516 82.7814L18.0474 86.7824C18.0845 86.8575 18.0326 86.9401 17.951 86.9401H17.5799C17.5057 86.9401 17.4686 86.9025 17.4464 86.85L17.0827 86.0318H15.1608C15.0421 86.302 14.9233 86.5723 14.8046 86.85C14.7898 86.895 14.7378 86.9401 14.671 86.9401H14.3C14.2035 86.9401 14.159 86.865 14.1961 86.7824ZM16.8601 85.5213L16.1403 83.8924H16.1106L15.3908 85.5213H16.8601Z" fill="#5A5A5A"/>
<path d="M20.5183 83.3363H19.561C19.4942 83.3363 19.4497 83.2837 19.4497 83.2237V82.8934C19.4497 82.8333 19.4942 82.7808 19.561 82.7808H22.0914C22.1582 82.7808 22.2028 82.8333 22.2028 82.8934V83.2237C22.2028 83.2837 22.1582 83.3363 22.0914 83.3363H21.1342V86.8268C21.1342 86.8869 21.0822 86.9394 21.0229 86.9394H20.637C20.5776 86.9394 20.5257 86.8869 20.5257 86.8268V83.3363H20.5183Z" fill="#5A5A5A"/>
<path d="M24.3101 82.8858C24.3101 82.8257 24.362 82.7732 24.4214 82.7732H24.8147C24.8814 82.7732 24.926 82.8257 24.926 82.8858V85.3404C24.926 85.9335 25.3044 86.3989 25.9055 86.3989C26.514 86.3989 26.8924 85.941 26.8924 85.3555V82.8858C26.8924 82.8257 26.9369 82.7732 27.0037 82.7732H27.397C27.4564 82.7732 27.5083 82.8257 27.5083 82.8858V85.3855C27.5083 86.2863 26.8331 86.9994 25.9055 86.9994C24.9853 86.9994 24.3101 86.2938 24.3101 85.3855V82.8858Z" fill="#5A5A5A"/>
<path d="M29.861 86.3396C29.913 86.2646 29.9575 86.1745 30.0169 86.0994C30.0688 86.0243 30.1504 86.0018 30.2172 86.0544C30.2543 86.0844 30.707 86.4672 31.1596 86.4672C31.5678 86.4672 31.8275 86.2195 31.8275 85.9117C31.8275 85.5514 31.5233 85.3262 30.937 85.086C30.336 84.8308 29.8685 84.5155 29.8685 83.8249C29.8685 83.3595 30.2247 82.7214 31.1596 82.7214C31.7459 82.7214 32.1911 83.0292 32.2505 83.0742C32.295 83.1043 32.3469 83.1868 32.2876 83.2769C32.2431 83.3445 32.1911 83.4346 32.1392 83.5021C32.0946 83.5772 32.013 83.6147 31.9314 83.5622C31.8869 83.5397 31.4787 83.2619 31.1374 83.2619C30.6402 83.2619 30.4695 83.5772 30.4695 83.7949C30.4695 84.1327 30.7293 84.3429 31.219 84.5455C31.9017 84.8233 32.4805 85.1536 32.4805 85.8742C32.4805 86.4898 31.9314 87.0002 31.1671 87.0002C30.4473 87.0002 29.9946 86.6174 29.9056 86.5273C29.8462 86.4823 29.8017 86.4372 29.861 86.3396Z" fill="#5A5A5A"/>
<path d="M34.8101 82.8858C34.8101 82.8257 34.862 82.7732 34.9214 82.7732H35.3072C35.3666 82.7732 35.4185 82.8257 35.4185 82.8858V86.8268C35.4185 86.8868 35.3666 86.9394 35.3072 86.9394H34.9214C34.862 86.9394 34.8101 86.8868 34.8101 86.8268V82.8858Z" fill="#5A5A5A"/>
<path d="M37.5409 86.7824L39.3441 82.7814C39.359 82.7439 39.4183 82.7139 39.4406 82.7139H39.5C39.5297 82.7139 39.5816 82.7439 39.5964 82.7814L41.3922 86.7824C41.4293 86.8575 41.3774 86.9401 41.2958 86.9401H40.9247C40.8505 86.9401 40.8134 86.9025 40.7912 86.85L40.4276 86.0318H38.5056C38.3869 86.302 38.2681 86.5723 38.1494 86.85C38.1346 86.895 38.0826 86.9401 38.0158 86.9401H37.6448C37.5558 86.9401 37.5038 86.865 37.5409 86.7824ZM40.2049 85.5213L39.4851 83.8924H39.4554L38.7356 85.5213H40.2049Z" fill="#5A5A5A"/>
<path d="M43.5143 82.916C43.5143 82.8409 43.5736 82.7734 43.6552 82.7734H43.9966C44.0708 82.7734 44.1376 82.8409 44.1376 82.916V84.5599L45.7924 82.8259C45.8146 82.7959 45.8592 82.7659 45.9037 82.7659H46.3415C46.4454 82.7659 46.5047 82.8935 46.4231 82.9836L44.7238 84.7326L46.5196 86.7369C46.5641 86.7969 46.5344 86.932 46.4157 86.932H45.9482C45.8888 86.932 45.8517 86.9095 45.8443 86.887L44.1302 84.9353V86.7819C44.1302 86.857 44.0634 86.9245 43.9892 86.9245H43.6478C43.5662 86.9245 43.5068 86.857 43.5068 86.7819V82.916H43.5143Z" fill="#5A5A5A"/>
<path d="M52.3233 84.7031V84.6881L52.1897 84.538C51.9597 84.2978 51.7816 84.035 51.7816 83.6747C51.7816 83.2243 52.1378 82.7139 52.8576 82.7139C53.5032 82.7139 53.9113 83.1417 53.9113 83.6597C53.9113 84.2302 53.3473 84.613 53.1173 84.7707L53.941 85.6039C54.0671 85.3562 54.1487 85.0484 54.1636 84.7482C54.171 84.6205 54.2155 84.583 54.3268 84.6055L54.5643 84.6506C54.6979 84.6731 54.6682 84.7782 54.6608 84.8382C54.6162 85.2811 54.4456 85.709 54.3046 85.9792L54.8537 86.5122C54.9279 86.5873 54.9798 86.6473 54.8389 86.7824L54.683 86.9401C54.6088 87.0076 54.5198 87.0151 54.4307 86.9251L53.9632 86.4521C53.748 86.6924 53.3251 87.0001 52.6795 87.0001C51.9374 87.0001 51.4922 86.4897 51.4922 85.8967C51.4996 85.176 52.1081 84.8307 52.3233 84.7031ZM52.7388 86.4972C53.1618 86.4972 53.4512 86.272 53.6219 86.0693L52.6424 85.0259C52.4569 85.1385 52.0636 85.3862 52.0636 85.8591C52.0636 86.2345 52.3604 86.4972 52.7388 86.4972ZM53.3844 83.6822C53.3844 83.427 53.1767 83.1718 52.8279 83.1718C52.5014 83.1718 52.301 83.4045 52.301 83.6822C52.2936 83.9149 52.442 84.0876 52.6424 84.2903L52.7685 84.4179C52.9466 84.3128 53.3844 84.0876 53.3844 83.6822Z" fill="#5A5A5A"/>
<path d="M59.5804 82.9165C59.5582 82.834 59.6027 82.7739 59.6843 82.7739H60.0776C60.1221 82.7739 60.1741 82.819 60.1815 82.8565L60.8939 85.5889H60.9161L61.8734 82.7814C61.8882 82.7439 61.9253 82.7139 61.9698 82.7139H62.0737C62.1183 82.7139 62.1628 82.7439 62.1702 82.7814L63.1423 85.5889H63.1646L63.8621 82.8565C63.8769 82.8115 63.9215 82.7739 63.966 82.7739H64.3593C64.4409 82.7739 64.4854 82.834 64.4632 82.9165L63.3501 86.91C63.3352 86.9551 63.2907 86.9926 63.2462 86.9926H63.1497C63.1052 86.9926 63.0607 86.9626 63.0533 86.9251L62.0218 83.9675H61.9921L60.9755 86.9251C60.9606 86.9626 60.9161 86.9926 60.879 86.9926H60.7825C60.738 86.9926 60.6861 86.9551 60.6787 86.91L59.5804 82.9165Z" fill="#5A5A5A"/>
<path d="M66.7559 82.8858C66.7559 82.8257 66.8078 82.7732 66.8672 82.7732H67.253C67.3124 82.7732 67.3643 82.8257 67.3643 82.8858V86.8268C67.3643 86.8868 67.3124 86.9394 67.253 86.9394H66.8672C66.8078 86.9394 66.7559 86.8868 66.7559 86.8268V82.8858Z" fill="#5A5A5A"/>
<path d="M70.0356 82.8858C70.0356 82.8257 70.0802 82.7732 70.147 82.7732H72.4992C72.566 82.7732 72.6105 82.8257 72.6105 82.8858V83.2161C72.6105 83.2761 72.566 83.3287 72.4992 83.3287H70.6441V84.5448H72.2173C72.2766 84.5448 72.3286 84.5973 72.3286 84.6573V84.9876C72.3286 85.0552 72.2766 85.1002 72.2173 85.1002H70.6441V86.3764H72.4992C72.566 86.3764 72.6105 86.4289 72.6105 86.489V86.8193C72.6105 86.8793 72.566 86.9319 72.4992 86.9319H70.147C70.0802 86.9319 70.0356 86.8793 70.0356 86.8193V82.8858Z" fill="#5A5A5A"/>
<path d="M75.0298 82.8858C75.0298 82.8257 75.0743 82.7732 75.1411 82.7732H76.7439C77.4489 82.7732 78.0277 83.3362 78.0277 84.0493C78.0277 84.5973 77.6715 85.0477 77.1595 85.2579L77.9683 86.7667C78.0129 86.8418 77.9683 86.9394 77.8719 86.9394H77.4118C77.3673 86.9394 77.3302 86.9093 77.3153 86.8868L76.5362 85.3104H75.6457V86.8268C75.6457 86.8868 75.5938 86.9394 75.5344 86.9394H75.1485C75.0817 86.9394 75.0372 86.8868 75.0372 86.8268V82.8858H75.0298ZM76.692 84.8C77.0779 84.8 77.4118 84.4697 77.4118 84.0643C77.4118 83.674 77.0779 83.3587 76.692 83.3587H75.6457V84.8075L76.692 84.8Z" fill="#5A5A5A"/>
<path d="M81.0329 83.3363H80.0757C80.0089 83.3363 79.9644 83.2837 79.9644 83.2237V82.8934C79.9644 82.8333 80.0089 82.7808 80.0757 82.7808H82.6061C82.6729 82.7808 82.7174 82.8333 82.7174 82.8934V83.2237C82.7174 83.2837 82.6729 83.3363 82.6061 83.3363H81.6488V86.8268C81.6488 86.8869 81.5969 86.9394 81.5375 86.9394H81.1516C81.0923 86.9394 81.0403 86.8869 81.0403 86.8268L81.0329 83.3363Z" fill="#5A5A5A"/>
<path d="M84.8848 82.8858C84.8848 82.8257 84.9293 82.7732 84.9961 82.7732H87.3484C87.4152 82.7732 87.4597 82.8257 87.4597 82.8858V83.2161C87.4597 83.2761 87.4152 83.3287 87.3484 83.3287H85.4933V84.5448H87.0664C87.1258 84.5448 87.1777 84.5973 87.1777 84.6573V84.9876C87.1777 85.0552 87.1258 85.1002 87.0664 85.1002H85.4933V86.3764H87.3484C87.4152 86.3764 87.4597 86.4289 87.4597 86.489V86.8193C87.4597 86.8793 87.4152 86.9319 87.3484 86.9319H84.9961C84.9293 86.9319 84.8848 86.8793 84.8848 86.8193V82.8858Z" fill="#5A5A5A"/>
<path d="M89.8789 82.8858C89.8789 82.8257 89.9234 82.7732 89.9902 82.7732H90.3761C90.4355 82.7732 90.4874 82.8257 90.4874 82.8858V86.3839H92.0828C92.1496 86.3839 92.1941 86.4364 92.1941 86.4965V86.8268C92.1941 86.8868 92.1496 86.9394 92.0828 86.9394H89.9902C89.9234 86.9394 89.8789 86.8868 89.8789 86.8268V82.8858Z" fill="#5A5A5A"/>
</svg>
