<svg width="100" height="100" viewBox="0 0 100 100" fill="none" xmlns="http://www.w3.org/2000/svg">
<path d="M69.1037 39C65.1902 39 61.8947 41.5489 60.7876 45.0762C59.8607 43.4027 58.0584 42.2698 56.0244 42.2698C53.9647 42.2698 52.1882 43.4027 51.2613 45.0762C50.1027 41.5489 46.8071 39 42.8936 39C38.079 39 34.1655 42.9135 34.1655 47.7281C34.1655 52.5427 38.079 56.4562 42.8936 56.4562C46.8071 56.4562 50.1027 53.9073 51.2098 50.38C51.4673 49.5561 51.6218 48.655 51.6218 47.7281C51.6218 45.3079 53.5785 43.3512 55.9987 43.3512C58.4189 43.3512 60.3756 45.3079 60.3756 47.7281C60.3756 48.655 60.5301 49.5304 60.7876 50.38C61.8947 53.9073 65.216 56.4562 69.1037 56.4562C73.9184 56.4562 77.8319 52.5427 77.8319 47.7281C77.8319 42.9135 73.9184 39 69.1037 39ZM42.8936 55.3749C38.6712 55.3749 35.2469 51.9506 35.2469 47.7281C35.2469 43.5057 38.6712 40.0814 42.8936 40.0814C47.1161 40.0814 50.5404 43.5057 50.5404 47.7281C50.5404 51.9506 47.1161 55.3749 42.8936 55.3749ZM69.1037 55.3749C64.8813 55.3749 61.457 51.9506 61.457 47.7281C61.457 43.5057 64.8813 40.0814 69.1037 40.0814C73.3262 40.0814 76.7505 43.5057 76.7505 47.7281C76.7248 51.9506 73.3004 55.3749 69.1037 55.3749Z" fill="#5A5A5A"/>
<path d="M9.88671 54.551H0.7724V39.1545C0.7724 39.0772 0.69516 39 0.61792 39H0.15448C0.07724 39 0 39.0772 0 39.1545V55.1174C0 55.1946 0.07724 55.2719 0.15448 55.2719H9.70649C9.75798 55.2719 9.83522 55.2204 9.86097 55.1689L10.0154 54.757C10.0412 54.7055 10.0154 54.654 9.9897 54.6025C9.96395 54.5767 9.93821 54.551 9.88671 54.551Z" fill="#5A5A5A"/>
<path d="M20.3403 51.9505V43.5571C20.3403 43.4798 20.2631 43.4026 20.1859 43.4026H19.6967C19.6194 43.4026 19.5422 43.4798 19.5422 43.5571V49.9165C19.5422 53.0061 18.1004 54.7569 15.5772 54.7569C14.7791 54.7569 12.1786 54.4994 12.1786 51.1781V43.5571C12.1786 43.4798 12.1014 43.4026 12.0242 43.4026H11.5607C11.4835 43.4026 11.4062 43.4798 11.4062 43.5571V50.9978C11.4062 55.0658 14.3156 55.5035 15.5515 55.5035C17.4052 55.5035 18.7698 54.6539 19.5422 53.0833C19.5422 54.036 19.5679 54.9886 19.5937 55.1173C19.5937 55.1946 19.6709 55.246 19.7482 55.246H20.2116C20.2888 55.246 20.3661 55.1688 20.3661 55.0916C20.3661 54.8856 20.3661 54.5251 20.3661 54.0874C20.3403 53.4438 20.3403 52.6456 20.3403 51.9505Z" fill="#5A5A5A"/>
<path d="M27.6517 49.1697L31.8999 43.6599C31.9257 43.6084 31.9514 43.557 31.9257 43.5055C31.8999 43.454 31.8484 43.4282 31.797 43.4282H31.2048C31.1533 43.4282 31.1018 43.454 31.076 43.4797C29.1193 46.0286 27.8062 47.7537 27.1368 48.6033C26.9566 48.3716 26.7249 48.0626 26.4417 47.6764C25.7722 46.7753 24.7424 45.4365 23.3263 43.4797C23.3006 43.4282 23.2491 43.4282 23.1976 43.4282H22.6054C22.5539 43.4282 22.5024 43.454 22.4767 43.5055C22.4509 43.557 22.4509 43.6084 22.5024 43.6599L26.6734 49.247L22.3479 55.0142C22.3222 55.0657 22.2964 55.1172 22.3222 55.1687C22.3479 55.2202 22.3994 55.2459 22.4509 55.2459H23.0431C23.0946 55.2459 23.1461 55.2202 23.1718 55.1944C24.0987 53.9329 24.8969 52.8515 25.5148 52.0019C26.2614 51.0235 26.8021 50.2768 27.1368 49.7876C27.7032 50.56 29.0421 52.2851 31.1018 55.1944C31.1275 55.2459 31.179 55.2459 31.2305 55.2459H31.8484C31.8999 55.2459 31.9514 55.2202 31.9772 55.1687C32.0029 55.1172 32.0029 55.0657 31.9514 55.0142L27.6517 49.1697Z" fill="#5A5A5A"/>
<path d="M84.7067 43.4027H81.9776V39.1545C81.9776 39.0772 81.9004 39 81.8231 39H81.3597C81.2824 39 81.2052 39.0772 81.2052 39.1545V43.4027H79.197C79.1197 43.4027 79.0425 43.4799 79.0425 43.5572V43.9691C79.0425 44.0463 79.1197 44.1236 79.197 44.1236H81.2052V52.5942C81.2052 54.7055 81.8231 55.5036 83.4967 55.5036C83.7541 55.5036 84.1661 55.4779 84.5008 55.3491C84.5523 55.3234 84.6038 55.2719 84.6038 55.1946V54.7827C84.6038 54.7312 84.578 54.6797 84.5265 54.654C84.475 54.6282 84.4235 54.6282 84.372 54.654C84.2176 54.7312 83.9086 54.757 83.4967 54.757C82.2093 54.757 81.9519 53.9846 81.9519 52.723V44.1236H84.7067C84.784 44.1236 84.8612 44.0463 84.8612 43.9691V43.5572C84.8612 43.4799 84.784 43.4027 84.7067 43.4027Z" fill="#5A5A5A"/>
<path d="M87.4099 43.4026H86.9465C86.8692 43.4026 86.792 43.4798 86.792 43.5571V55.1173C86.792 55.1946 86.8692 55.2718 86.9465 55.2718H87.4099C87.4871 55.2718 87.5644 55.1946 87.5644 55.1173V43.5571C87.5644 43.4798 87.5129 43.4026 87.4099 43.4026Z" fill="#5A5A5A"/>
<path d="M87.4099 39H86.9465C86.8692 39 86.792 39.0772 86.792 39.1545V41.2657C86.792 41.3429 86.8692 41.4202 86.9465 41.4202H87.4099C87.4871 41.4202 87.5644 41.3429 87.5644 41.2657V39.1545C87.5644 39.0772 87.5129 39 87.4099 39Z" fill="#5A5A5A"/>
<path d="M99.9744 51.8732C99.9486 51.8475 99.8971 51.8217 99.8456 51.8217H99.3822C99.305 51.8217 99.2535 51.8732 99.2277 51.9247C98.6098 53.8557 97.3482 54.8084 95.4687 54.8084C92.791 54.8084 91.1948 52.7744 91.1948 49.3243C91.1948 46.5952 92.5336 43.8145 95.4944 43.8145C97.4254 43.8145 98.6613 44.8187 99.1762 46.8012C99.202 46.8784 99.2535 46.9041 99.3307 46.9041H99.8199C99.8714 46.9041 99.9229 46.8784 99.9486 46.8526C99.9744 46.8269 100 46.7754 99.9744 46.7239C99.6397 44.9989 98.2751 43.1194 95.5717 43.1194C92.4821 43.1194 90.4224 45.6168 90.4224 49.3501C90.4224 53.1863 92.3534 55.555 95.4687 55.555C97.8116 55.555 99.3307 54.3707 100 52.0277C100 51.9762 100 51.9247 99.9744 51.8732Z" fill="#5A5A5A"/>
<path d="M60.7624 52.6199C60.7109 52.4396 60.6594 52.2337 60.5822 52.0534C60.5822 52.0019 60.5307 51.9504 60.4534 51.9504C60.3762 51.9504 60.3247 52.0019 60.3247 52.0792V60.4211C60.3247 60.7301 60.5822 60.9618 60.8654 60.9618C61.1743 60.9618 61.4061 60.7043 61.4061 60.4211V54.2161C61.1743 53.727 60.9426 53.1863 60.7624 52.6199Z" fill="#5A5A5A"/>
</svg>
