<svg width="100" height="100" viewBox="0 0 100 100" fill="none" xmlns="http://www.w3.org/2000/svg">
<g clip-path="url(#clip0)">
<path d="M25.3032 46.3931C25.0236 46.8147 24.6974 47.1894 24.3712 47.5642C24.0917 47.5642 23.8121 47.5642 23.5325 47.5642C22.5073 46.3462 21.5287 45.0815 20.5502 43.7699C20.69 43.5825 20.8764 43.3951 20.9696 43.2077C21.1094 42.9735 21.2026 42.5988 21.2958 42.1772C22.5539 43.6293 23.9053 45.0346 25.3032 46.3931ZM18.4999 44.613C19.2454 45.6436 20.0376 46.6741 20.8764 47.6578C21.4821 47.6578 22.0413 47.611 22.6471 47.611C21.7617 46.4868 20.923 45.3157 20.0842 44.1914C19.6182 44.4725 19.1056 44.613 18.4999 44.613ZM10.5781 43.6293C11.7897 45.1283 13.0479 46.5804 14.3526 47.9857C14.772 47.9389 15.238 47.9389 15.6574 47.8921C13.7002 45.7841 11.8829 43.5356 10.252 41.1466C10.2986 42.1303 10.4383 42.9267 10.5781 43.6293ZM15.9369 43.0204C15.8438 42.833 15.7506 42.4114 15.704 41.8024C13.9798 39.1792 12.3955 36.4623 10.9043 33.6517C10.6713 33.2301 10.4383 32.8086 10.252 32.3401V39.9287C10.252 40.0224 10.252 40.1629 10.252 40.2566C12.1625 42.9735 14.306 45.5031 16.5893 47.7984C17.7077 47.7515 18.826 47.7047 19.8978 47.611C19.059 46.5336 18.2669 45.4562 17.5213 44.3788C16.8223 44.2383 16.3097 43.7699 15.9369 43.0204ZM25.6294 47.5173C25.909 47.5173 26.2352 47.5173 26.5148 47.5173C26.2352 47.2363 25.909 47.002 25.6294 46.721V47.5173ZM13.2808 48.0794C13.3274 48.0794 13.374 48.0794 13.4206 48.0794C12.6751 47.2363 11.9295 46.3462 11.2305 45.5031C11.7431 46.4868 12.3955 47.3768 13.2808 48.0794ZM39.7953 47.611C40.5875 47.6578 41.3796 47.6578 42.1718 47.7047C41.3796 46.8147 40.5409 45.9246 39.7953 45.0346V47.611ZM39.7953 44.0978C40.8671 45.3157 41.9854 46.5336 43.1504 47.7047C44.2221 47.7515 45.2939 47.7984 46.3657 47.8452C44.0357 45.3157 41.8456 42.6925 39.7953 39.9287V44.0978ZM21.4356 38.1018V40.2098C21.4356 40.5845 21.4356 40.9593 21.389 41.2872C23.3927 43.5356 25.5362 45.5967 27.8195 47.5173C28.4719 47.5173 29.1709 47.5173 29.8232 47.5173C26.6546 44.7067 23.8587 41.5682 21.4356 38.1018ZM36.6732 41.1466C35.3684 39.4603 34.1569 37.7271 32.9919 35.9002C31.128 33.0428 29.4505 30.0448 27.9593 27H26.841H25.6294H21.4356V28.7332C22.6471 31.3096 24.0917 33.7923 25.7692 36.0876C28.9379 40.5377 32.8055 44.4257 37.1392 47.5173C37.9314 47.5173 38.7701 47.5642 39.5623 47.5642L35.9742 41.5682C36.2072 41.4277 36.4402 41.2872 36.6732 41.1466ZM25.3964 36.2749C23.8587 34.0265 22.5539 31.6375 21.4356 29.1548V37.3055C24.1849 41.0998 27.4001 44.5194 31.0348 47.3768V43.723L33.2249 47.4236C34.1103 47.4236 34.9957 47.4236 35.881 47.4705C31.827 44.3788 28.2855 40.5845 25.3964 36.2749ZM78.3787 45.4562V41.943C77.8195 40.6314 77.3535 39.2729 76.9342 37.9145L76.3284 35.7597L75.8158 33.6049C75.5362 32.1528 75.2566 30.6538 75.1168 29.2016C75.1168 29.1548 75.1168 29.0611 75.1168 29.0143L72.9733 27V32.8554C73.4393 34.167 73.9519 35.4786 74.4644 36.7902C75.6294 39.7413 76.9808 42.6456 78.3787 45.4562ZM66.3563 37.3992C66.3563 37.3992 66.3563 37.3523 66.3097 37.3523C65.4244 34.9165 64.5856 32.4807 63.8866 29.998L62.3955 27L61.9761 27.8432C63.141 31.0285 64.539 34.1202 66.1699 37.0713C66.2165 37.2118 66.2631 37.3055 66.3563 37.3992ZM67.6611 39.6008C68.9658 41.7088 70.4104 43.723 71.9015 45.6436L64.3992 30.9817C65.0982 33.0896 65.8438 35.1976 66.6359 37.2587C66.9621 38.0081 67.2883 38.8045 67.6611 39.6008ZM76.608 35.7128L77.2603 37.8208C77.5865 38.8045 77.9593 39.7882 78.3787 40.7719V39.2729L82.7589 43.3951C81.8736 41.3809 81.0348 39.3198 80.2892 37.2587C79.73 35.666 79.2175 34.0733 78.7515 32.4807L75.2566 29.1548C75.443 30.6069 75.7226 32.0591 76.0488 33.5112L76.608 35.7128ZM53.5884 40.2566C53.3088 39.4603 52.8428 38.664 52.237 37.9145C53.0758 36.556 53.5418 35.1976 53.5418 33.8859C53.5418 31.9185 52.8894 30.3259 51.5381 29.0143C50.2333 27.7026 48.6024 27 46.6452 27H46.0395C47.0646 29.4827 48.2762 31.9185 49.6275 34.2138C50.7925 36.3218 52.1438 38.336 53.5884 40.2566ZM42.3582 38.0081C41.4262 36.4155 40.5409 34.776 39.7953 33.0428V33.9796C39.6089 32.1996 38.8167 30.6538 37.5586 29.3422C36.0674 27.8432 34.2501 27.0468 32.06 27H31.827C33.2249 29.5295 34.7627 32.0122 36.3936 34.4012C37.279 35.7128 38.2109 36.9776 39.1429 38.2424C39.4691 37.4929 39.7021 36.6965 39.7953 35.8065V39.0855C42.1718 42.1772 44.7813 45.1752 47.484 47.9389C47.6704 47.9389 47.8568 47.9389 48.0432 47.9857C48.7888 48.0326 49.5809 48.0794 50.3265 48.1263C47.2976 45.1283 44.5949 41.7556 42.3582 38.0081ZM15.6574 36.3686V34.4949C14.1662 32.1059 12.8615 29.6232 11.7431 27.0468H10.9509C12.0693 29.7169 13.3274 32.2933 14.7254 34.776C15.0516 35.2912 15.3312 35.8065 15.6574 36.3686ZM15.6574 40.6314C15.6574 40.444 15.6574 40.2098 15.6574 40.0224V37.165C15.238 36.4155 14.8186 35.666 14.3992 34.9165C13.0479 32.3401 11.8829 29.6701 10.8111 27H10.252V31.5906C10.5781 32.2464 10.9509 32.8554 11.2771 33.5112C12.6285 35.947 14.1196 38.3361 15.6574 40.6314ZM15.6574 27.3279C15.6108 27.2342 15.5642 27.0937 15.5176 27H12.0227C13.0945 29.2953 14.306 31.5438 15.6574 33.6517V27.3279ZM37.046 40.8656C37.7916 40.2566 38.4439 39.554 38.8633 38.7576C37.8848 37.3992 36.9528 36.0407 36.0208 34.6354C34.4365 32.1527 32.9453 29.6232 31.594 27H28.0991C29.6369 29.998 31.4076 32.9491 33.2715 35.7128C34.4831 37.4929 35.7412 39.1792 37.046 40.8656ZM53.868 44.2383C53.9612 43.723 54.0078 43.2077 54.0078 42.6925C54.0078 42.3646 53.9612 41.9898 53.9146 41.6619C52.1904 39.3666 50.6527 36.9308 49.2547 34.4481C47.95 32.0591 46.785 29.5764 45.7599 27.0468H43.6164C44.6881 30.0448 46.0395 32.9022 47.6238 35.666C49.4411 38.7108 51.4915 41.6151 53.868 44.2383ZM85.415 52.5764C85.648 52.6232 85.8344 52.6701 86.0674 52.7169L83.7375 50.5153C84.2967 51.1711 84.8559 51.8737 85.415 52.5764ZM84.2501 38.0081L84.1569 37.6802L83.1783 36.7902C83.4579 37.7739 83.7375 38.7576 84.0637 39.7413C84.9491 42.4114 86.0674 44.9878 87.3722 47.4705C87.512 47.7515 87.6518 48.0326 87.7916 48.2668L89.4691 49.8595C89.0031 49.11 88.5837 48.3136 88.1643 47.5642C86.58 44.4257 85.2753 41.2403 84.2501 38.0081ZM82.8055 36.3686L79.1709 32.9491C79.6368 34.4012 80.1028 35.8065 80.662 37.2118C81.594 39.6945 82.6657 42.1303 83.8307 44.5194L86.58 47.0957C85.415 44.7536 84.4831 42.2709 83.6909 39.7882C83.4113 38.6171 83.0851 37.4929 82.8055 36.3686ZM78.3787 49.9532V46.9084C76.7944 43.6293 75.3498 40.3035 74.0917 36.9308C73.7189 35.9002 73.3461 34.8697 72.9733 33.8391V40.0692C73.7655 41.943 74.6042 43.8167 75.5362 45.6436C76.2352 47.0489 77.1671 48.6415 78.0059 50C78.0059 50.0468 78.0525 50.0937 78.0525 50.0937C78.0991 50.1405 78.0991 50.1874 78.1457 50.2811C78.3787 50.7027 78.6583 51.0774 78.8913 51.4521C79.5437 51.5458 80.196 51.6395 80.8484 51.78C80.5222 51.1711 80.196 50.609 79.9164 50H78.3787V49.9532ZM80.7552 49.9532C81.128 50.609 81.5008 51.2648 81.8736 51.9206C82.7123 52.0611 83.5511 52.2016 84.3899 52.3422C83.7841 51.5927 83.1783 50.7495 82.6191 49.9532H80.7552ZM89.5157 34.4481C89.5623 35.2444 89.6089 36.0407 89.7021 36.8371V29.3422C89.5157 31.0285 89.4225 32.7149 89.5157 34.4481ZM94.5483 49.9532V50.9837C95.4337 52.389 96.4122 53.7475 97.484 54.9654C97.9966 55.0591 98.5092 55.1996 99.0218 55.2933C99.3479 55.3401 99.6275 55.4338 99.9537 55.4807V54.8249C98.882 53.2322 97.9034 51.5927 97.018 49.9063H94.5483V49.9532ZM99.7673 50.7026C99.6741 50.4684 99.5809 50.1874 99.4877 49.9532H97.7636C98.4626 51.1711 99.2082 52.389 100 53.5132V51.2179C99.9071 51.0774 99.8139 50.89 99.7673 50.7026ZM84.2967 36.7434L84.6695 37.8676C85.7412 41.0998 87.0926 44.2383 88.7701 47.1894C89.0963 47.7515 89.4225 48.3136 89.7487 48.8289V38.7576C89.5157 37.3055 89.4225 35.8534 89.3759 34.4012C89.3293 32.5743 89.4691 30.7006 89.7487 28.8737V27H84.3433V36.7434H84.2967ZM94.5483 54.3564C95.1541 54.4969 95.8065 54.6375 96.4122 54.7312C95.7599 53.888 95.1541 52.998 94.5483 52.1079V54.3564ZM75.0702 45.831C74.3246 44.2851 73.6257 42.7393 72.9733 41.1466V46.9552C73.7655 47.8921 74.6042 48.8289 75.443 49.7189C75.4896 49.7658 75.5362 49.8126 75.6294 49.9063L75.676 49.9532C76.0488 50.3279 76.4682 50.7963 76.7944 51.0774C77.2137 51.1242 77.6331 51.2179 78.0525 51.2648C77.8195 50.89 77.4467 50.2811 77.2137 49.8595C76.4216 48.5479 75.7226 47.1894 75.0702 45.831ZM54.9863 42.0835C56.1513 43.5356 57.4095 44.9409 58.7142 46.2994L59.6928 44.332C58.5278 42.5988 57.5027 40.7719 56.5707 38.8982L54.9863 42.0835ZM59.1802 33.5112L58.2482 35.4318C58.2482 35.4318 58.2482 35.4786 58.2948 35.4786C59.1802 37.3992 60.2054 39.2261 61.2771 41.053L62.0227 39.5071C61.8829 39.2261 61.6965 38.945 61.5567 38.6171C60.6713 36.9308 59.8792 35.2444 59.1802 33.5112ZM53.868 44.2851C55.0795 45.6436 56.3843 46.9552 57.7356 48.22L58.3414 46.9552C57.0367 45.5967 55.8251 44.1446 54.6602 42.6456L53.868 44.2851ZM47.2976 35.8065C45.7599 32.9959 44.4551 30.0916 43.43 27.0468H40.9137C42.265 30.6069 43.9425 33.9796 45.8997 37.165C48.5558 41.3809 51.7711 45.222 55.3591 48.5479C55.9649 48.5947 56.5707 48.6415 57.2231 48.6884C53.3088 44.9409 49.9537 40.5845 47.2976 35.8065ZM56.7571 38.4297C57.689 40.2566 58.7608 42.0367 59.9258 43.723L60.9509 41.6151C59.8792 39.7413 58.854 37.8676 57.9686 35.9002L56.7571 38.4297ZM68.0339 49.8595C68.3135 49.9063 68.5931 49.9532 68.8726 49.9532H69.5716C68.1737 48.4542 66.9155 46.8615 65.704 45.1752L68.0339 49.8595ZM69.059 42.7862C70.1774 45.1752 71.389 47.4705 72.6937 49.7189C72.7869 49.9063 73.0665 50.3747 73.1597 50.5621C73.6257 50.609 74.0917 50.7027 74.5576 50.7495C74.8372 50.7963 75.1634 50.8432 75.443 50.89C75.21 50.6558 74.8372 50.1874 74.511 49.9063C72.6005 47.6578 70.7366 45.2688 69.059 42.7862ZM40.7739 27H39.7953V32.5275C40.6341 34.3544 41.6126 36.1344 42.6844 37.8208C45.1075 41.6619 48.0898 45.1752 51.4449 48.1731C52.3768 48.22 53.3088 48.3136 54.1942 48.4073C50.8857 45.1283 47.9966 41.3809 45.5735 37.3055C43.6164 34.0733 42.032 30.6069 40.7739 27ZM67.4281 40.1629C66.8689 39.2261 66.3097 38.2424 65.7971 37.3055C64.2594 34.3544 62.9081 31.3096 61.8363 28.1242L59.32 33.277C60.0656 35.057 60.9509 36.7902 61.8829 38.5234C61.9761 38.7108 62.1159 38.945 62.2557 39.1324L62.3955 38.8045L64.0264 41.9898C65.8903 44.7536 67.9407 47.3768 70.2706 49.7658C70.3638 49.8595 70.6434 50.1874 70.7366 50.2342C71.2958 50.3279 71.8549 50.3747 72.3675 50.4684C72.3209 50.3747 72.2277 50.2342 72.1811 50.1405C70.457 46.9084 68.7794 43.4888 67.4281 40.1629Z" fill="#5A5A5A"/>
<path d="M97.9497 57.4012C96.7847 58.057 95.6664 58.7596 94.5946 59.5091V56.9796C94.7344 56.9328 94.8742 56.8391 95.014 56.7922C95.9459 56.9796 96.9245 57.167 97.9497 57.4012ZM78.8444 55.3869C79.4501 54.9653 80.0559 54.5906 80.6617 54.169C80.0093 54.0753 79.4035 53.9816 78.7512 53.888C78.0522 54.4032 77.3998 54.8717 76.7474 55.3869H78.8444ZM83.2246 58.3849C84.5294 57.3075 85.8341 56.3238 87.1855 55.2932C86.4865 55.1527 85.7875 55.059 85.1351 54.9185C84.4828 55.1996 83.877 55.5275 83.2246 55.8554V58.3849ZM29.7297 49.9531L27.6794 54.1222C28.6114 53.2321 29.5899 52.389 30.5685 51.5926L29.7297 49.9531ZM48.1361 50.5621C47.2973 50.5152 46.4585 50.4684 45.6198 50.4216C43.2432 51.4521 41.0065 52.67 38.8164 53.9816V57.7291C42.1715 55.2464 45.7596 53.0916 49.534 51.3116C49.1146 51.0305 48.6486 50.7495 48.1361 50.5621ZM52.6561 55.3401C52.6561 55.2932 52.6095 55.1996 52.6095 55.1527C50.6058 56.4643 48.6952 57.9165 46.8779 59.5091C48.7884 58.057 50.699 56.6985 52.6561 55.3401ZM10.2516 65.833H13.6067C14.3989 64.0529 15.2377 62.3197 16.2162 60.6334H10.2516V65.833ZM66.9618 52.2953C66.6356 52.2484 66.3094 52.2016 65.9832 52.2016C65.0513 52.8106 64.1193 53.4664 63.2339 54.1222C64.4455 53.4664 65.657 52.8574 66.9618 52.2953ZM43.616 62.1792C43.7092 62.0855 43.8024 62.0387 43.8956 61.945C44.6412 61.1486 45.3868 60.3992 46.1789 59.6965C48.1361 57.8696 50.1864 56.2301 52.4231 54.6843C52.1435 54.0285 51.7241 53.4195 51.2582 52.8574C47.2973 55.1996 43.5694 57.8228 39.9814 60.6802C39.6086 61.0081 39.2358 61.2892 38.863 61.6171V66.4419C39.0494 66.2546 39.2824 66.0672 39.4688 65.8798C40.8201 64.615 42.1715 63.3503 43.616 62.1792ZM39.1426 50.0937C39.0494 50.1405 38.9096 50.1873 38.8164 50.281V53.4195C40.5871 52.2953 42.4045 51.2647 44.2684 50.3279C42.5909 50.2342 40.8667 50.1873 39.1426 50.0937ZM98.9748 57.5886C97.4837 58.3849 95.9925 59.2281 94.5946 60.1649V60.7271L94.2218 60.3992C92.7307 61.3829 91.3327 62.4134 89.9348 63.4908L92.3113 65.7393C94.781 63.3971 97.3439 61.1486 100 59.0407V57.8696C99.6272 57.7291 99.301 57.6823 98.9748 57.5886ZM93.6626 67.004C95.6664 65.0835 97.7633 63.2566 99.9534 61.5234V59.9307C97.4371 61.8513 95.014 63.9124 92.6841 66.0672L93.6626 67.004ZM82.8052 55.3869C83.2246 55.1527 83.5974 54.9653 84.0168 54.7311C83.4576 54.6374 82.8984 54.5438 82.2926 54.4501C82.1062 54.4032 81.9664 54.4032 81.7801 54.3564C81.2209 54.6843 80.6617 55.0122 80.1025 55.3869H82.8052ZM81.3607 63.5845C81.0811 63.8187 80.8481 64.0529 80.6151 64.334H81.3607V63.5845ZM31.8733 54.169L30.8481 52.1548C29.5433 53.1385 28.3318 54.169 27.1668 55.2932L22.9264 63.9592C23.9981 62.3666 25.2097 60.8676 26.4678 59.4154C28.0988 57.4949 29.9161 55.7617 31.8733 54.169ZM81.3607 60.7739C79.9627 61.8981 78.6114 63.0692 77.3066 64.2871H79.9627C80.4287 63.8187 80.8947 63.3971 81.3141 62.9287V60.7739H81.3607ZM83.2246 61.1955C85.2283 59.3686 87.3253 57.5886 89.4688 55.9022L89.1892 55.668C88.863 55.6212 88.5834 55.5743 88.2572 55.4806C86.5331 56.6985 84.8089 57.9633 83.178 59.2749V61.1955H83.2246ZM83.2246 62.9287C85.7409 60.9613 88.4902 59.2281 91.3327 57.6822L89.9814 56.4175C87.6514 58.1507 85.4147 59.9776 83.2246 61.8981V62.9287ZM54.4734 51.0305C53.9609 51.3116 53.4949 51.5926 52.9823 51.8737V54.3095C54.5666 53.2321 56.2442 52.2484 57.9683 51.3584C56.8034 51.2179 55.6384 51.1242 54.4734 51.0305ZM71.7148 52.9042C71.2488 53.1853 70.7828 53.4664 70.3169 53.7474V55.4338C71.342 54.6374 72.4138 53.888 73.4855 53.1385C72.8798 53.0448 72.274 52.9511 71.7148 52.9042ZM56.9431 58.6191C55.5918 59.556 54.287 60.5397 52.9823 61.5702V62.6476C53.4017 62.1792 53.8677 61.7108 54.287 61.2423C55.1724 60.3523 56.0578 59.4623 56.9431 58.6191ZM54.5666 61.4765C54.0541 61.9918 53.4949 62.5539 52.9823 63.0692V70.1425C55.0326 67.004 57.3625 64.0529 59.972 61.336C62.6281 58.6191 65.5638 56.1364 68.7325 53.9348C68.5461 53.7006 68.3597 53.5132 68.1267 53.279C67.9404 53.0916 67.8006 52.9511 67.6142 52.7637C64.8183 53.9348 62.1156 55.2932 59.5527 56.8391C57.8285 58.3849 56.151 59.8839 54.5666 61.4765ZM16.9618 58.3381L18.1733 57.448C18.8723 56.4175 19.6179 55.3869 20.3635 54.4032C19.4315 53.279 18.4063 52.3421 17.3346 51.6395C16.1696 52.9511 15.0047 54.2627 13.9329 55.668C15.0047 56.1833 16.0298 57.0733 16.9618 58.3381ZM13.2339 55.4338C14.3057 54.0285 15.424 52.6232 16.589 51.2647C16.4026 51.171 16.1696 51.0774 15.9832 50.9837C14.7717 52.389 13.5601 53.7943 12.4418 55.2464C12.7679 55.2932 13.0009 55.3401 13.2339 55.4338ZM21.0624 55.2932C20.9226 55.1059 20.7829 54.9185 20.6431 54.778C20.1305 55.4338 19.6179 56.0896 19.1053 56.7454L21.0624 55.2932ZM18.1733 60.6334H16.4958C15.4706 62.3197 14.5387 64.0529 13.6999 65.833H15.1911C16.0764 64.0529 17.1016 62.3197 18.1733 60.6334ZM52.9823 54.9185V55.1059C54.3802 54.169 55.7782 53.279 57.2227 52.389C55.7782 53.1853 54.3802 54.0285 52.9823 54.9185ZM50.8388 52.389C50.7922 52.3421 50.7922 52.3421 50.7456 52.2953C50.6058 52.1548 50.4194 51.9674 50.233 51.8269C46.2255 53.56 42.3579 55.7617 38.8164 58.2912V61.1486C39.1426 60.8676 39.4222 60.6334 39.7484 60.3523C43.2432 57.448 46.9245 54.778 50.8388 52.389ZM42.1715 72.9531H44.1752V70.3299C43.7558 70.8452 43.3364 71.3605 42.9171 71.9226C42.6841 72.2505 42.4511 72.5784 42.1715 72.9531ZM49.301 64.8024C47.9497 66.0672 46.6449 67.4256 45.4334 68.8309L46.5517 70.7515C47.6701 69.1588 48.7884 67.5662 50.0466 66.0672L49.301 64.8024ZM50.1864 63.3971C50.7922 62.835 51.4445 62.2729 52.0503 61.7108C52.5163 60.8676 52.8425 59.9307 52.9823 58.947V60.9613C55.1724 59.1812 57.4557 57.4949 59.8788 56.0427C61.5098 54.6374 63.2339 53.3258 64.9581 52.1079C63.3737 51.9205 61.836 51.78 60.2516 51.5926C57.7819 52.9511 55.3588 54.4032 52.9823 55.9491V56.7922C52.9357 56.558 52.8891 56.277 52.8425 56.0427C49.7204 58.057 46.7381 60.2586 43.849 62.5539C43.7092 62.6476 43.5694 62.7882 43.4296 62.8818C42.1715 64.2403 40.9599 65.6456 39.8416 67.0977C38.397 68.9715 37.1389 70.9389 35.9739 72.9531H41.9385C42.2181 72.5784 42.4977 72.1568 42.7773 71.782C43.2432 71.1731 43.7092 70.5641 44.1752 69.9552V66.723L45.2936 68.5967C46.8313 66.7698 48.4623 65.0366 50.1864 63.3971ZM75.6757 57.7291V56.2301C72.1342 58.9939 68.8257 61.9918 65.7036 65.224C63.3271 67.6598 61.137 70.2362 59.0401 72.9063H60.0652C60.5778 72.9063 61.0438 72.8594 61.5098 72.8126C63.6533 69.6741 66.0298 66.6761 68.6859 63.9124C70.876 61.7576 73.206 59.6497 75.6757 57.7291ZM42.0317 64.0061C41.2395 64.7087 40.4473 65.3645 39.6552 66.0672C39.3756 66.3014 39.096 66.5356 38.863 66.8167V67.8004L38.5368 67.1446C37.5582 68.0346 36.5797 68.9246 35.6477 69.8615C35.2749 70.2362 34.8555 70.6578 34.4828 71.0326L35.4613 72.9063H35.9273C37.0457 70.8452 38.3504 68.8309 39.7484 66.9572C40.4473 65.9735 41.2395 64.9898 42.0317 64.0061ZM75.6757 55.4806V55.4338H75.7223C76.4212 54.8717 77.1202 54.3095 77.8192 53.7943C76.794 53.6537 75.7689 53.4664 74.6971 53.3258C69.3849 56.6985 64.4921 60.5865 60.1118 65.0366C57.5955 67.5193 55.2656 70.1894 53.1221 73H58.8537C60.904 70.2362 63.1407 67.5662 65.4706 65.0366C68.5927 61.5702 72.041 58.3849 75.6757 55.4806ZM69.9441 55.668C69.7111 55.2464 69.4315 54.8717 69.1519 54.4501C65.9366 56.558 62.9543 58.947 60.2516 61.6171C57.5489 64.2871 55.1258 67.2383 53.0289 70.3768V70.9857L52.8425 70.6578C52.3299 71.4073 51.8639 72.1568 51.3979 72.9063H52.8891C55.0326 70.002 57.3159 67.2383 59.8322 64.6619C62.9543 61.4297 66.3094 58.3849 69.9441 55.668ZM50.1864 66.2546C48.9282 67.7535 47.7633 69.2525 46.6449 70.8452L47.8565 72.9063H51.3048C51.7707 72.1099 52.2367 71.3136 52.7027 70.5641L50.1864 66.2546ZM38.3504 66.8635L36.6263 63.4908C36.5331 63.5845 36.3933 63.6782 36.3001 63.7719C35.0885 64.8493 33.9236 65.9266 32.8052 67.0509C32.712 67.1446 32.6654 67.1914 32.5722 67.2851L34.3896 70.8452C34.7623 70.4704 35.1351 70.0957 35.5079 69.6741C36.4399 68.7372 37.3719 67.8004 38.3504 66.8635ZM6.10438 65.0366C5.21901 66.6761 4.38024 68.3157 3.63467 70.0488C3.77446 70.1894 3.91426 70.3299 4.10065 70.4236C4.89282 68.7841 5.73159 67.1914 6.57036 65.6456C6.38397 65.4114 6.24418 65.224 6.10438 65.0366ZM11.0438 50.4216C10.7176 50.4216 10.3448 50.4684 10.0186 50.4684C6.75676 53.56 3.77446 56.9796 1.11836 60.5865C0.745573 61.1018 0.372787 61.6171 0 62.1324C0 62.6008 0.0465983 63.0224 0.139795 63.444C0.27959 63.2566 0.372787 63.0692 0.512582 62.8818C3.63467 58.4317 7.12954 54.2627 11.0438 50.4216ZM5.12582 61.4297C5.12582 59.6497 5.73159 58.1507 6.94315 56.9328C8.15471 55.7148 9.64585 55.1059 11.37 55.1059C11.5564 55.1059 11.6962 55.1059 11.8826 55.1527C13.0009 53.6069 14.1659 52.1548 15.3774 50.7026C14.9115 50.5152 14.3989 50.3747 13.9329 50.281C13.3737 50.3279 12.8145 50.3279 12.2554 50.3747C8.06151 54.2627 4.24045 58.5723 0.83877 63.1629C0.652376 63.444 0.465983 63.725 0.232992 64.0061C0.652376 66.1609 1.67754 68.0814 3.26188 69.6741C3.35508 69.7678 3.44828 69.8615 3.54147 69.9552C4.28705 68.222 5.07922 66.4888 5.96459 64.8024C5.40541 63.8187 5.12582 62.6945 5.12582 61.4297ZM8.99348 50.5152C8.4343 50.5621 7.92171 50.6089 7.36253 50.6558C5.87139 51.2179 4.52004 52.0611 3.30848 53.279C1.11836 55.4806 0 58.1975 0 61.4297C0 61.4765 0 61.5234 0 61.5702C0.27959 61.1486 0.55918 60.7739 0.83877 60.3523C3.26188 56.8859 6.01118 53.6069 8.99348 50.5152ZM33.644 57.6354C29.7297 60.7271 26.3281 64.334 23.439 68.3157C26.2349 64.2403 29.6365 60.4928 33.5042 57.3075L32.1528 54.6843C30.2423 56.2301 28.425 57.8696 26.7474 59.6497C23.1128 63.5376 20.1305 68.0346 17.987 72.9063C21.1556 72.9063 24.2777 72.9063 24.2777 72.9063L29.7763 61.7108L31.1743 64.4745C32.479 63.1161 33.8304 61.8513 35.2283 60.6334L33.644 57.6354ZM12.9077 67.613C12.6747 68.1283 12.4883 68.6436 12.2554 69.1588C12.4418 68.6436 12.6281 68.1283 12.8145 67.613C12.3486 67.7067 11.8826 67.7535 11.37 67.7535C9.55266 67.7535 8.06151 67.1446 6.89655 65.9735C6.84995 65.9266 6.84995 65.9266 6.80336 65.8798C5.91799 67.4256 5.03262 68.9715 4.24045 70.5173C6.24418 72.1099 8.62069 72.9063 11.37 72.9063C11.37 72.9063 11.6496 72.9063 12.069 72.9063C12.8145 70.892 13.6067 68.9246 14.5387 67.004C14.0727 67.3319 13.5135 67.5193 12.9077 67.613ZM36.1137 63.5845C36.2535 63.4908 36.3467 63.3503 36.4865 63.2566L35.3215 61.0081C33.877 62.1792 32.5256 63.444 31.2209 64.7556L32.479 67.1914C32.5256 67.1446 32.6188 67.0509 32.6654 67.004C33.7838 65.7861 34.9487 64.6619 36.1137 63.5845ZM22.74 60.6802H22.3672C20.4101 63.3034 18.7791 66.2077 17.4744 69.2057C18.6859 66.2077 20.2237 63.3503 22.041 60.6802H18.6393C17.4744 62.3666 16.4026 64.0998 15.424 65.8798H16.0764C15.7036 66.3014 15.3308 66.6293 14.8649 66.9104C13.8397 68.8778 12.9077 70.892 12.069 73C13.2339 73 15.5638 73 17.8938 73C19.1053 70.0488 20.6431 67.2383 22.4138 64.5682C22.74 63.3034 22.8332 62.0387 22.74 60.6802ZM73.3458 62.1324C74.6505 60.9613 76.0019 59.8839 77.3998 58.8533H75.6757V58.5254C73.3458 60.3055 71.109 62.226 69.0121 64.2871C66.356 66.9104 63.9329 69.8146 61.7428 72.8594C63.0009 72.7189 64.1193 72.3442 65.191 71.8289C67.4744 68.2688 70.2237 64.9898 73.3458 62.1324ZM88.63 72.9063V72.6252C88.5368 72.7189 88.4902 72.8126 88.397 72.9063H88.63ZM85.8341 72.9063H88.164C88.3038 72.7189 88.4902 72.5315 88.63 72.3442V69.9552C88.4902 70.0957 88.3038 70.2362 88.164 70.4236C87.3718 71.2668 86.6263 72.0631 85.8341 72.9063ZM95.3868 68.5967C96.8779 67.2851 98.3691 65.9735 99.9534 64.8024V62.226C97.8565 63.8187 95.8528 65.5051 93.9422 67.2383L95.3868 68.5967ZM99.9534 72.9531V71.8757C99.767 72.0631 99.6272 72.2973 99.4408 72.4847L99.9534 72.9531ZM91.8919 58.1975C88.863 59.6965 85.9273 61.5234 83.2246 63.5376V67.5193H78.4716C76.7008 69.2057 75.0233 70.9857 73.4855 72.9063H80.1491C81.9664 70.5173 83.9702 68.2688 86.1603 66.1609C86.9525 65.4114 87.7912 64.6619 88.63 63.9124V62.226L89.562 63.1161C90.9133 61.9918 92.3113 60.9613 93.7558 59.9307L91.8919 58.1975ZM99.1612 72.2036C99.4408 71.8757 99.6738 71.5478 99.9534 71.2668V65.5519C98.5089 66.6293 97.0643 67.7535 95.713 68.9715L99.1612 72.2036ZM80.3821 72.9063H85.3681C86.2069 71.9694 87.0457 71.0326 87.8844 70.1425C88.1174 69.8615 88.397 69.6273 88.63 69.3462V64.5214C87.8844 65.1303 87.1389 65.7861 86.3933 66.4419C84.2498 68.4562 82.246 70.611 80.3821 72.9063ZM77.3532 67.5193C75.6757 69.2525 74.0913 71.0794 72.6002 72.9063H73.206C74.6505 71.0326 76.2349 69.2057 77.959 67.5193H77.3532ZM70.3169 70.7047C70.7363 70.2362 71.109 69.8146 71.5284 69.3462C72.8798 67.8941 74.2311 66.4888 75.6757 65.0835V64.2403H76.5144C78.0988 62.7413 79.7297 61.2892 81.3607 59.8839V58.8533H78.192C76.561 59.9307 75.0233 61.1486 73.5322 62.4134C70.4101 65.1303 67.6142 68.2688 65.2842 71.6884C66.3094 71.1731 67.2414 70.4704 68.0801 69.6273C68.9655 68.7372 69.6645 67.7535 70.2237 66.6761V70.7047H70.3169ZM75.6757 67.5193V65.833C74.3709 67.0977 73.0662 68.3625 71.808 69.6273C71.2954 70.1425 70.7828 70.7047 70.3169 71.2199V72.9063H72.3672C73.8117 71.0326 75.3495 69.2525 76.9338 67.5193H75.6757Z" fill="#5A5A5A"/>
</g>
<defs>
<clipPath id="clip0">
<rect width="100" height="100" fill="white"/>
</clipPath>
</defs>
</svg>
