<svg width="100" height="100" viewBox="0 0 100 100" fill="none" xmlns="http://www.w3.org/2000/svg">
<path d="M22.8198 80.1825H22.1982C22.0707 80.1825 21.9592 80.2697 21.9273 80.3965L20.6044 86.6351C20.5805 86.762 20.5486 86.9047 20.5247 87.0553C20.5008 86.9205 20.4769 86.7857 20.445 86.6351L19.1779 80.3965C19.154 80.2697 19.0424 80.1746 18.9069 80.1746H18.2136C18.0861 80.1746 17.9666 80.2697 17.9427 80.3965L16.6676 86.6589C16.6357 86.8333 16.6038 86.9998 16.572 87.1662C16.5401 86.9998 16.5082 86.8175 16.4684 86.6351L15.1853 80.3965C15.1614 80.2697 15.0498 80.1746 14.9143 80.1746H14.2768C14.1971 80.1746 14.1174 80.2142 14.0616 80.2776C14.0059 80.341 13.9899 80.4282 14.0059 80.5075L15.9583 89.5602C15.9822 89.6871 16.1018 89.7743 16.2293 89.7743H16.9545C17.082 89.7743 17.2015 89.6791 17.2254 89.5523L18.5404 82.9966L19.8792 89.5523C19.9031 89.6791 20.0147 89.7743 20.1501 89.7743H20.8913C21.0188 89.7743 21.1304 89.6871 21.1622 89.5602L23.0988 80.5075C23.1147 80.4282 23.0988 80.341 23.043 80.2776C22.9872 80.2221 22.9075 80.1825 22.8198 80.1825Z" fill="#5A5A5A"/>
<path d="M29.5537 84.3996C29.0039 84.1221 28.6293 83.8526 28.454 83.6069C28.2866 83.377 28.199 83.0282 28.199 82.5843C28.199 82.1483 28.3105 81.8154 28.5496 81.5617C28.7807 81.3159 29.0676 81.197 29.4422 81.197C29.8725 81.197 30.3028 81.308 30.7252 81.5221C30.7969 81.5538 30.8766 81.5617 30.9483 81.5379C31.0201 81.5141 31.0759 81.4586 31.1077 81.3873L31.3468 80.8086C31.4026 80.6818 31.3468 80.5312 31.2273 80.4678C31.036 80.3647 30.7969 80.2775 30.4861 80.1903C30.1753 80.1031 29.8247 80.0635 29.4501 80.0635C29.0118 80.0635 28.6054 80.1745 28.2308 80.3885C27.8563 80.6025 27.5694 80.9117 27.3622 81.308C27.163 81.6965 27.0594 82.1324 27.0594 82.6239C27.0594 83.0678 27.1231 83.4483 27.2427 83.7733C27.3702 84.1063 27.5694 84.3996 27.8244 84.6453C28.0794 84.8831 28.446 85.1289 28.9481 85.3746C29.5059 85.6441 29.8725 85.9137 30.0638 86.1673C30.2391 86.4131 30.3267 86.7539 30.3267 87.1978C30.3267 87.6735 30.1992 88.054 29.9442 88.3552C29.6972 88.6406 29.3943 88.7833 29.0118 88.7833C28.717 88.7833 28.4221 88.7515 28.1272 88.6881C27.8324 88.6247 27.5933 88.5375 27.402 88.4345C27.3144 88.3869 27.2108 88.3869 27.1311 88.4345C27.0434 88.482 26.9956 88.5772 26.9956 88.6723V89.3302C26.9956 89.4333 27.0594 89.5284 27.155 89.576C27.6331 89.8059 28.2627 89.9168 29.0198 89.9168C29.737 89.9168 30.3427 89.6552 30.8049 89.132C31.2671 88.6247 31.4982 87.9509 31.4982 87.1424C31.4982 86.5161 31.3388 85.9771 31.0201 85.5332C30.6933 85.0972 30.2072 84.7167 29.5537 84.3996Z" fill="#5A5A5A"/>
<path d="M40.1206 80.4679C39.6663 80.1825 39.1244 80.0398 38.5188 80.0398C37.5306 80.0398 36.7416 80.4996 36.1678 81.4112C35.6259 82.2752 35.355 83.4722 35.355 84.9625C35.355 85.9534 35.4825 86.8254 35.7216 87.5547C35.9766 88.2998 36.3352 88.8864 36.8054 89.2907C37.2915 89.7029 37.8573 89.9169 38.5028 89.9169C39.0766 89.9169 39.5548 89.8139 39.9134 89.5998C40.001 89.5523 40.0489 89.4572 40.0489 89.362V88.8071C40.0489 88.712 40.001 88.6248 39.9214 88.5773C39.8417 88.5297 39.7381 88.5218 39.6504 88.5614C39.3476 88.712 38.981 88.7834 38.5506 88.7834C38.1602 88.7834 37.8254 88.6486 37.5306 88.3632C37.2198 88.0699 36.9727 87.6339 36.7974 87.0632C36.6221 86.4766 36.5265 85.7711 36.5265 84.9784C36.5265 83.7576 36.7177 82.7905 37.1002 82.1167C37.4589 81.4825 37.9131 81.1734 38.4949 81.1734C38.8854 81.1734 39.228 81.2685 39.5309 81.4667C39.5946 81.5063 39.6743 81.5222 39.754 81.4984C39.8257 81.4746 39.8895 81.427 39.9293 81.3636L40.2082 80.8325C40.2879 80.6977 40.2481 80.5471 40.1206 80.4679Z" fill="#5A5A5A"/>
<path d="M48.8 80.1824H48.1864C48.035 80.1824 47.9075 80.3013 47.9075 80.4598V84.2014H45.2935V80.4598C45.2935 80.3092 45.174 80.1824 45.0146 80.1824H44.401C44.2496 80.1824 44.1221 80.3013 44.1221 80.4598V89.5125C44.1221 89.6632 44.2416 89.79 44.401 89.79H45.0146C45.166 89.79 45.2935 89.6711 45.2935 89.5125V85.335H47.9154V89.5125C47.9154 89.6632 48.035 89.79 48.1944 89.79H48.808C48.9594 89.79 49.0869 89.6711 49.0869 89.5125V80.4598C49.0789 80.3092 48.9514 80.1824 48.8 80.1824Z" fill="#5A5A5A"/>
<path d="M68.5801 80.1824H66.9225C66.7711 80.1824 66.6436 80.3013 66.6436 80.4598V89.5125C66.6436 89.6632 66.7631 89.79 66.9225 89.79H68.5402C70.6441 89.79 71.712 88.1491 71.712 84.899C71.712 83.4008 71.457 82.2355 70.9469 81.4428C70.413 80.6104 69.6161 80.1824 68.5801 80.1824ZM67.815 81.2922H68.5562C69.1937 81.2922 69.6639 81.5775 69.9906 82.1562C70.3413 82.7824 70.5246 83.7178 70.5246 84.9386C70.5246 86.1911 70.3492 87.1582 70.0066 87.8003C69.6878 88.3948 69.1937 88.6802 68.5163 88.6802H67.823V81.2922H67.815Z" fill="#5A5A5A"/>
<path d="M80.6599 80.1824H80.0622C79.9108 80.1824 79.7833 80.3013 79.7833 80.4598V86.7856C79.7833 86.8887 79.7833 86.9917 79.7833 87.1106L76.9064 80.3568C76.8665 80.2537 76.7629 80.1903 76.6514 80.1903H75.8624C75.711 80.1903 75.5835 80.3092 75.5835 80.4677V89.5205C75.5835 89.6711 75.703 89.7979 75.8624 89.7979H76.4601C76.6115 89.7979 76.739 89.679 76.739 89.5205V83.0282C76.739 82.9568 76.739 82.8855 76.739 82.8221L79.6239 89.6314C79.6637 89.7345 79.7673 89.7979 79.8789 89.7979H80.6599C80.8113 89.7979 80.9388 89.679 80.9388 89.5205V80.4677C80.9388 80.3092 80.8113 80.1824 80.6599 80.1824Z" fill="#5A5A5A"/>
<path d="M85.7212 80.1824H85.1075C84.9561 80.1824 84.8286 80.3013 84.8286 80.4598V89.5125C84.8286 89.6632 84.9482 89.79 85.1075 89.79H85.7212C85.8726 89.79 86.0001 89.6711 86.0001 89.5125V80.4598C85.9921 80.3092 85.8726 80.1824 85.7212 80.1824Z" fill="#5A5A5A"/>
<path d="M20.5563 95.8462C20.134 95.8462 19.8152 96.0364 19.592 96.409C19.3848 96.7657 19.2812 97.281 19.2812 97.9389C19.2812 98.589 19.3848 99.0963 19.5841 99.4451C19.7992 99.8097 20.118 99.992 20.5404 99.992C20.628 99.992 20.7316 99.9762 20.8512 99.9524C20.9707 99.9286 21.0823 99.889 21.162 99.8414C21.2018 99.8256 21.2178 99.7859 21.2178 99.7463V99.4689C21.2178 99.4292 21.2018 99.3975 21.17 99.3737C21.1381 99.35 21.0982 99.35 21.0664 99.3579C20.8831 99.4292 20.7157 99.4609 20.5643 99.4609C20.0861 99.4609 19.8391 98.9457 19.8391 97.9231C19.8391 96.8926 20.0861 96.3694 20.5643 96.3694C20.6759 96.3694 20.8034 96.4011 20.9468 96.4645C20.9707 96.4804 21.0026 96.4804 21.0345 96.4645C21.0664 96.4566 21.0823 96.4328 21.0982 96.409L21.2257 96.1157C21.2497 96.0602 21.2257 96.0047 21.1779 95.973C21.0265 95.8938 20.8113 95.8462 20.5563 95.8462Z" fill="#5A5A5A"/>
<path d="M26.1748 95.8462C25.9915 95.8462 25.8082 95.9017 25.6409 96.0206C25.5771 96.0681 25.5134 96.1157 25.4656 96.1791C25.4656 96.1712 25.4656 96.1633 25.4656 96.1553V94.3876C25.4656 94.3242 25.4177 94.2766 25.354 94.2766H25.0193C24.9555 94.2766 24.9077 94.3242 24.9077 94.3876V99.8097C24.9077 99.8731 24.9555 99.9207 25.0193 99.9207H25.354C25.4177 99.9207 25.4656 99.8731 25.4656 99.8097V97.7407C25.4656 97.2493 25.5293 96.8926 25.6568 96.6706C25.7684 96.4724 25.9357 96.3694 26.1669 96.3694C26.3262 96.3694 26.4458 96.4249 26.5095 96.5279C26.5892 96.6547 26.6291 96.8767 26.6291 97.1938V99.8018C26.6291 99.8652 26.6769 99.9128 26.7406 99.9128H27.0674C27.1311 99.9128 27.1789 99.8652 27.1789 99.8018V97.1938C27.1789 96.7578 27.1072 96.4328 26.9558 96.2029C26.8044 95.9651 26.5414 95.8462 26.1748 95.8462Z" fill="#5A5A5A"/>
<path d="M31.6255 95.9175H31.2908C31.227 95.9175 31.1792 95.965 31.1792 96.0285V99.8097C31.1792 99.8731 31.227 99.9207 31.2908 99.9207H31.6255C31.6892 99.9207 31.737 99.8731 31.737 99.8097V96.0285C31.737 95.965 31.6892 95.9175 31.6255 95.9175Z" fill="#5A5A5A"/>
<path d="M31.2195 94.6723C31.1637 94.7516 31.1318 94.8546 31.1318 94.9815C31.1318 95.1083 31.1637 95.2034 31.2195 95.2827C31.2833 95.3699 31.3709 95.4174 31.4745 95.4174C31.5462 95.4174 31.6498 95.3937 31.7216 95.2748C31.7694 95.1955 31.7933 95.1004 31.7933 94.9735C31.7933 94.8467 31.7694 94.7436 31.7216 94.6723C31.61 94.4979 31.347 94.4979 31.2195 94.6723Z" fill="#5A5A5A"/>
<path d="M36.208 94.2766H35.8733C35.8095 94.2766 35.7617 94.3242 35.7617 94.3876V99.8097C35.7617 99.8731 35.8095 99.9207 35.8733 99.9207H36.208C36.2717 99.9207 36.3196 99.8731 36.3196 99.8097V94.3876C36.3196 94.3242 36.2638 94.2766 36.208 94.2766Z" fill="#5A5A5A"/>
<path d="M40.7822 94.2766H40.4475C40.3838 94.2766 40.3359 94.3242 40.3359 94.3876V99.8097C40.3359 99.8731 40.3838 99.9207 40.4475 99.9207H40.7822C40.846 99.9207 40.8938 99.8731 40.8938 99.8097V94.3876C40.8938 94.3242 40.838 94.2766 40.7822 94.2766Z" fill="#5A5A5A"/>
<path d="M46.0104 95.8462C45.1657 95.8462 44.7354 96.5438 44.7354 97.9152C44.7354 98.5652 44.839 99.0804 45.0462 99.4292C45.2613 99.8018 45.5801 99.992 45.9945 99.992C46.4089 99.992 46.7356 99.8018 46.9588 99.4292C47.1739 99.0725 47.2775 98.5652 47.2775 97.9072C47.2775 97.2731 47.166 96.7657 46.9588 96.409C46.7277 96.0364 46.4089 95.8462 46.0104 95.8462ZM46.0025 99.453C45.7714 99.453 45.604 99.3341 45.4924 99.0963C45.3729 98.8347 45.3091 98.4304 45.3091 97.9072C45.3091 97.384 45.3729 96.9798 45.4924 96.7261C45.604 96.4962 45.7714 96.3773 46.0104 96.3773C46.4806 96.3773 46.7117 96.8926 46.7117 97.9072C46.7038 98.9378 46.4647 99.453 46.0025 99.453Z" fill="#5A5A5A"/>
<path d="M53.2537 95.9175H52.927C52.8632 95.9175 52.8154 95.965 52.8154 96.0285V98.1054C52.8154 98.5968 52.7517 98.9536 52.6321 99.1676C52.5206 99.3658 52.3453 99.4609 52.0982 99.4609C51.9548 99.4609 51.8512 99.3975 51.7794 99.2627C51.6997 99.1042 51.6599 98.8505 51.6599 98.4938V96.0285C51.6599 95.965 51.6121 95.9175 51.5483 95.9175H51.2136C51.1499 95.9175 51.1021 95.965 51.1021 96.0285V98.4938C51.1021 99.009 51.1738 99.3737 51.3332 99.6115C51.4925 99.8572 51.7555 99.9841 52.0982 99.9841C52.2895 99.9841 52.4728 99.9286 52.6401 99.8097C52.7198 99.7542 52.7915 99.6828 52.8553 99.6036L52.8712 99.8176C52.8792 99.8731 52.927 99.9207 52.9828 99.9207H53.2617C53.3255 99.9207 53.3733 99.8731 53.3733 99.8097V96.0285C53.3733 95.965 53.3175 95.9175 53.2537 95.9175Z" fill="#5A5A5A"/>
<path d="M58.4335 99.4211C58.3698 99.4449 58.2901 99.4528 58.1944 99.4528C58.0669 99.4528 58.0191 99.4053 57.9952 99.3656C57.9713 99.326 57.9235 99.2071 57.9235 98.8979V96.4247H58.4176C58.4813 96.4247 58.5291 96.3771 58.5291 96.3137V96.0204C58.5291 95.957 58.4813 95.9094 58.4176 95.9094H57.9235V95.1247C57.9235 95.0612 57.8757 95.0137 57.8119 95.0137H57.5808C57.525 95.0137 57.4772 95.0533 57.4692 95.1088L57.3656 95.9332L57.1026 96.0125C57.0548 96.0283 57.0229 96.068 57.0229 96.1235V96.3216C57.0229 96.3851 57.0708 96.4326 57.1345 96.4326H57.3656V99.001C57.3656 99.8175 57.7481 99.9839 58.0669 99.9839C58.2422 99.9839 58.3937 99.9602 58.5052 99.9047C58.5451 99.8888 58.569 99.8492 58.569 99.8016V99.5242C58.569 99.4845 58.553 99.4528 58.5212 99.437C58.5052 99.4211 58.4654 99.4132 58.4335 99.4211Z" fill="#5A5A5A"/>
<path d="M68.0522 95.854C67.7574 95.854 67.5183 95.965 67.3191 96.1949V94.3954C67.3191 94.332 67.2713 94.2844 67.2075 94.2844H66.8728C66.809 94.2844 66.7612 94.332 66.7612 94.3954V99.8175C66.7612 99.8809 66.809 99.9285 66.8728 99.9285H67.1438C67.1995 99.9285 67.2473 99.8809 67.2553 99.8255L67.2792 99.5956C67.351 99.6907 67.4386 99.77 67.5263 99.8334C67.6936 99.9444 67.8849 99.9999 68.0841 99.9999C68.4746 99.9999 68.7774 99.8096 68.9846 99.437C69.1759 99.0882 69.2715 98.573 69.2715 97.915C69.2795 96.5436 68.8651 95.854 68.0522 95.854ZM68.0363 96.3851C68.2674 96.3851 68.4268 96.4961 68.5304 96.7339C68.6499 96.9955 68.7057 97.3918 68.7057 97.915C68.7057 98.462 68.642 98.8742 68.5224 99.1279C68.4109 99.3578 68.2594 99.4687 68.0443 99.4687C67.861 99.4687 67.3111 99.4687 67.3111 98.0022V97.915C67.3111 97.3522 67.3749 96.9479 67.4944 96.7101C67.6139 96.4882 67.7893 96.3851 68.0363 96.3851Z" fill="#5A5A5A"/>
<path d="M74.0937 95.8462C73.7829 95.8462 73.488 95.9334 73.2011 96.1078C73.1533 96.1395 73.1294 96.2029 73.1612 96.2584L73.3047 96.52C73.3206 96.5438 73.3445 96.5676 73.3764 96.5755C73.4083 96.5834 73.4402 96.5755 73.4641 96.5596C73.6713 96.4328 73.8785 96.3615 74.0697 96.3615C74.2371 96.3615 74.3407 96.4169 74.4124 96.5438C74.4921 96.6865 74.532 96.9322 74.532 97.2651V97.4712L74.2291 97.4871C73.8068 97.5109 73.48 97.6298 73.2409 97.8597C73.0019 98.0896 72.8823 98.4066 72.8823 98.7951C72.8823 99.1518 72.97 99.4372 73.1294 99.6512C73.3047 99.8731 73.5358 99.992 73.8147 99.992C74.1255 99.992 74.3805 99.8652 74.5718 99.6195L74.5877 99.8177C74.5957 99.8731 74.6435 99.9207 74.6993 99.9207H74.9703C75.034 99.9207 75.0818 99.8731 75.0818 99.8097V97.2334C75.0818 96.742 75.0101 96.4011 74.8587 96.187C74.6993 95.9572 74.4443 95.8462 74.0937 95.8462ZM73.8944 99.4847C73.7589 99.4847 73.6633 99.4372 73.5836 99.3341C73.5039 99.2231 73.4561 99.0487 73.4561 98.803C73.4561 98.5414 73.5199 98.3432 73.6474 98.2164C73.7749 98.0896 73.9821 98.0103 74.253 97.9944L74.532 97.9786V98.256C74.532 98.6603 74.4682 98.9774 74.3487 99.1914C74.2371 99.3896 74.0857 99.4847 73.8944 99.4847Z" fill="#5A5A5A"/>
<path d="M80.6209 95.9017C80.5093 95.862 80.3818 95.8462 80.2543 95.8462C79.9913 95.8462 79.7762 95.9968 79.6009 96.2822L79.5849 96.0206C79.5849 95.9651 79.5291 95.9175 79.4733 95.9175H79.2024C79.1386 95.9175 79.0908 95.9651 79.0908 96.0285V99.8097C79.0908 99.8731 79.1386 99.9207 79.2024 99.9207H79.5371C79.6008 99.9207 79.6487 99.8731 79.6487 99.8097V97.8042C79.6487 97.5347 79.6805 97.281 79.7363 97.059C79.7921 96.845 79.8718 96.6706 79.9754 96.5517C80.1348 96.3615 80.3021 96.3694 80.4615 96.4407C80.4934 96.4566 80.5253 96.4486 80.5572 96.4407C80.589 96.4249 80.605 96.4011 80.6129 96.3694L80.6926 96.0364C80.7165 95.973 80.6767 95.9175 80.6209 95.9017Z" fill="#5A5A5A"/>
<path d="M49.0063 47.5704C49.1896 36.9164 49.3809 26.2544 49.5642 15.6005C47.8349 13.7931 46.1055 11.9778 44.3762 10.1704C42.0492 11.4863 38.9013 12.5882 36.5743 15.9492C36.0962 16.631 33.6735 20.1347 34.1437 24.2489C34.9327 31.1217 42.9099 31.7796 43.6988 37.8993C43.906 39.5244 43.5315 40.9195 42.9258 42.2037C44.95 43.9873 46.9822 45.7788 49.0063 47.5704Z" fill="#5A5A5A"/>
<path d="M65.9331 55.87C67.1126 56.853 68.3558 58.1609 69.6468 59.8811C70.3162 59.889 70.9697 59.889 71.5992 59.8653C78.0702 54.5462 82.533 46.8886 83.6646 38.1926C80.1582 42.1245 74.6435 47.8637 65.9331 55.87Z" fill="#5A5A5A"/>
<path d="M64.555 12.6516C64.5949 13.6346 64.7224 14.5224 64.8818 15.3072C67.3522 12.9687 69.8227 10.6381 72.2932 8.29965C66.4198 3.21047 58.7694 0.0951249 50.3857 0C50.4017 1.10979 50.4176 2.283 50.4336 3.5117C50.585 14.1181 50.7523 22.7903 50.8719 28.5613C55.239 24.4075 59.6061 20.2458 63.9733 16.092C63.7342 15.0456 63.527 13.5632 63.6944 11.8193C63.9733 8.94967 65.1209 6.84107 65.8381 5.73128C65.1846 7.30084 64.4435 9.70274 64.555 12.6516Z" fill="#5A5A5A"/>
<path d="M58.9521 22.8378C59.5657 22.9647 60.4105 23.1232 61.4226 23.2421C66.9453 23.9159 70.8263 22.822 70.8741 23.0439C70.9139 23.258 67.6147 24.4312 63.3989 24.6928C60.9604 24.8434 58.9202 24.6373 57.4937 24.4153L50.9351 31.51C51.0785 39.5322 51.214 47.5545 51.3574 55.5687C53.9315 54.4589 56.4976 52.8814 59.6853 53.0875C60.9683 53.1668 62.4745 53.5552 64.1401 54.562C65.5427 53.3254 66.9373 52.0967 68.3399 50.86C68.1884 49.5441 68.1008 47.6337 68.5152 45.4062C69.1687 41.8945 70.7545 39.2786 70.9378 39.3499C71.1052 39.4133 69.9337 41.7598 69.7504 45.3269C69.6628 47.0154 69.8301 48.4264 69.9975 49.4015C72.5317 47.0313 76.2453 43.5354 80.7161 39.2072C81.8637 38.0895 82.9315 37.059 83.8878 36.1236C83.9436 35.3547 83.9675 34.5778 83.9675 33.793C83.9675 23.8287 79.6323 14.8711 72.7469 8.68799C68.1406 13.4125 63.5424 18.1212 58.9521 22.8378Z" fill="#5A5A5A"/>
<path d="M47.3413 6.95205C47.0703 7.91122 46.5204 8.61673 45.7952 9.21126C47.0703 10.329 48.3454 11.4467 49.6205 12.5644C49.6762 7.56243 49.7241 3.41657 49.7639 0C48.2577 0.00792708 46.7834 0.118906 45.333 0.317083C47.66 3.51962 47.7238 5.6203 47.3413 6.95205Z" fill="#5A5A5A"/>
<path d="M48.9274 52.16C46.4888 49.6154 44.0423 47.0788 41.6037 44.5342C40.2728 46.6903 38.9738 48.7276 39.8744 51.3753C40.6793 53.7296 42.8549 55.4894 44.9109 56.2108C46.3135 56.7022 47.6045 56.6943 48.8557 56.4248L48.9274 52.16Z" fill="#5A5A5A"/>
<path d="M67.2722 59.7862C68.085 59.8417 68.874 59.8734 69.647 59.8893C68.356 58.1612 67.1128 56.8611 65.9333 55.8782C64.7937 56.9245 63.5983 58.0185 62.3472 59.1441C63.8454 59.4216 65.495 59.6594 67.2722 59.7862Z" fill="#5A5A5A"/>
<path d="M59.6687 53.104C56.481 52.8979 53.9149 54.4754 51.3408 55.5852C51.3966 58.9542 51.4604 62.3153 51.5161 65.6843C55.7159 61.9823 59.9157 58.2804 64.1235 54.5784C62.4579 53.5638 60.9597 53.1833 59.6687 53.104Z" fill="#5A5A5A"/>
<path d="M47.3401 6.95235C47.7227 5.6206 47.6589 3.51992 45.3319 0.317383C42.726 0.674101 40.2236 1.32412 37.8408 2.22781C40.4946 4.55044 43.1483 6.881 45.7941 9.20364C46.5193 8.62496 47.0692 7.91945 47.3401 6.95235Z" fill="#5A5A5A"/>
<path d="M30.2627 26.6431C30.0077 22.1484 28.9557 19.2788 29.1311 19.2233C29.3223 19.1679 30.8365 22.5448 31.5218 26.9126C31.8805 29.1877 31.9203 31.114 31.8884 32.4457C35.5622 35.6958 39.244 38.938 42.9178 42.1881C43.5155 40.9039 43.8981 39.5167 43.6909 37.8837C42.9019 31.764 34.9247 31.0981 34.1357 24.2333C33.6656 20.1191 36.0962 16.6233 36.5664 15.9336C38.8934 12.5725 42.0492 11.4707 44.3682 10.1548C44.1849 9.96452 44.0017 9.76634 43.8184 9.57609C42.6549 9.89318 40.9574 10.2103 38.9332 10.0834C35.3311 9.85354 32.6136 8.31569 32.6694 8.12544C32.7332 7.93519 35.4427 9.17974 39.2201 8.76753C40.535 8.62484 41.6109 8.32362 42.368 8.06202C40.6068 6.21501 38.8376 4.36801 37.0764 2.521C28.7725 5.91379 22.1181 12.4933 18.6436 20.7295C22.5007 24.1461 26.3578 27.5626 30.2149 30.9792C30.3025 29.9408 30.3583 28.4425 30.2627 26.6431Z" fill="#5A5A5A"/>
<path d="M44.9095 56.2111C42.8534 55.4898 40.6778 53.73 39.8729 51.3756C38.9724 48.728 40.2714 46.6907 41.6022 44.5345C40.8611 43.7577 40.112 42.9888 39.3708 42.2119C37.7451 42.4259 35.4101 42.6321 32.597 42.5369C26.8432 42.3387 22.3964 40.9594 22.4203 40.785C22.4522 40.6186 26.3571 41.6412 32.0392 41.3875C34.4857 41.2765 36.5099 40.9674 37.9045 40.6978C31.3458 34.4037 24.7872 28.1017 18.2285 21.8076C16.802 25.5333 16.021 29.5762 16.021 33.8013C16.021 52.0256 30.5091 66.8731 48.647 67.5706L48.8383 56.4252C47.6031 56.6947 46.3121 56.7105 44.9095 56.2111Z" fill="#5A5A5A"/>
<path d="M70.3163 60.8009C69.5274 60.8881 68.7066 60.9515 67.8539 60.9911C65.216 61.1021 62.8651 60.9277 60.8967 60.6582L54.5293 67.3011C60.4106 66.5163 65.8217 64.2412 70.3562 60.8564C70.3881 60.8326 70.412 60.8088 70.4439 60.785C70.396 60.793 70.3562 60.8009 70.3163 60.8009Z" fill="#5A5A5A"/>
<path d="M69.647 59.8893C68.356 58.1612 67.1128 56.8611 65.9333 55.8782C64.7937 56.9245 63.5983 58.0185 62.3472 59.1441C63.8454 59.4295 65.495 59.6594 67.2801 59.7862C68.085 59.8417 68.874 59.8734 69.647 59.8893Z" fill="#5A5A5A"/>
<path d="M59.6687 53.104C56.481 52.8979 53.9149 54.4754 51.3408 55.5852C51.3966 58.9542 51.4604 62.3153 51.5161 65.6843C55.7159 61.9823 59.9157 58.2804 64.1235 54.5784C62.4579 53.5638 60.9597 53.1833 59.6687 53.104Z" fill="#5A5A5A"/>
<path d="M45.8024 9.21156C46.5276 8.61703 47.0695 7.91152 47.3484 6.95235C47.731 5.6206 47.6672 3.51992 45.3402 0.317383C42.7343 0.674101 40.2319 1.32412 37.8491 2.22781C40.4949 4.55837 43.1487 6.88893 45.8024 9.21156Z" fill="#5A5A5A"/>
<path d="M30.2308 30.9871C30.3025 29.9408 30.3583 28.4425 30.2627 26.6431C30.0077 22.1484 28.9557 19.2788 29.1311 19.2233C29.3223 19.1679 30.8365 22.5448 31.5218 26.9126C31.8805 29.1877 31.9203 31.114 31.8884 32.4457C35.5622 35.6958 39.244 38.938 42.9178 42.1881C43.5155 40.9039 43.8981 39.5167 43.6909 37.8837C42.9019 31.764 34.9247 31.0981 34.1357 24.2333C33.6656 20.1191 36.0962 16.6233 36.5664 15.9336C38.8934 12.5725 42.0492 11.4707 44.3682 10.1548C44.1849 9.96452 44.0017 9.76634 43.8184 9.57609C42.6549 9.89318 40.9574 10.2103 38.9332 10.0834C35.3311 9.85354 32.6136 8.31569 32.6694 8.12544C32.7332 7.93519 35.4427 9.17974 39.2201 8.76753C40.535 8.62484 41.6109 8.32362 42.368 8.06202C40.6068 6.21501 38.8376 4.36801 37.0764 2.521C28.7725 5.91379 22.1181 12.4933 18.6436 20.7295C22.5166 24.154 26.3737 27.5706 30.2308 30.9871Z" fill="#5A5A5A"/>
<path d="M67.8539 60.9911C65.216 61.1021 62.8651 60.9277 60.8967 60.6582L54.5293 67.3011C60.4106 66.5163 65.8217 64.2412 70.3562 60.8564C70.3403 60.8405 70.3323 60.8247 70.3163 60.8009C69.5194 60.8881 68.7066 60.9515 67.8539 60.9911Z" fill="#5A5A5A"/>
<path d="M48.8542 56.4252C47.611 56.6947 46.3121 56.7105 44.9095 56.2111C42.8534 55.4898 40.6778 53.73 39.8729 51.3756C38.9724 48.728 40.2714 46.6907 41.6022 44.5345C40.8611 43.7577 40.112 42.9888 39.3708 42.2119C37.7451 42.4259 35.4101 42.6321 32.597 42.5369C26.8432 42.3387 22.3964 40.9594 22.4203 40.785C22.4522 40.6186 26.3571 41.6412 32.0392 41.3875C34.4857 41.2765 36.5099 40.9674 37.9045 40.6978C31.3458 34.4037 24.7872 28.1017 18.2285 21.8076C16.802 25.5333 16.021 29.5762 16.021 33.8013C16.021 52.0256 30.5091 66.8731 48.647 67.5706L48.8542 56.4252Z" fill="#5A5A5A"/>
<path d="M57.717 86.9204C57.7409 85.3826 57.7728 83.8368 57.7967 82.2989C57.5496 82.0373 57.2946 81.7758 57.0476 81.5142C56.7128 81.7044 56.2586 81.863 55.9159 82.3465C55.8442 82.4416 55.4936 82.949 55.5653 83.5435C55.6769 84.5344 56.8324 84.6295 56.944 85.5173C56.9758 85.7551 56.92 85.9533 56.8324 86.1357C57.1352 86.4052 57.4301 86.6588 57.717 86.9204Z" fill="#5A5A5A"/>
<path d="M60.1724 88.1175C60.3397 88.2602 60.523 88.4504 60.7063 88.6961C60.8019 88.6961 60.8976 88.6961 60.9852 88.6961C61.9176 87.9272 62.5631 86.8174 62.7305 85.5649C62.2284 86.1357 61.4235 86.9601 60.1724 88.1175Z" fill="#5A5A5A"/>
<path d="M59.9646 81.8709C59.9726 82.0136 59.9885 82.1405 60.0124 82.2515C60.371 81.9106 60.7296 81.5776 61.0803 81.2368C60.2276 80.4996 59.1278 80.0477 57.9165 80.0398C57.9165 80.1983 57.9245 80.3727 57.9245 80.5471C57.9484 82.0771 57.9723 83.3375 57.9882 84.1698C58.6178 83.5673 59.2474 82.9649 59.8849 82.3704C59.853 82.2197 59.8211 82.0057 59.8451 81.752C59.8849 81.3398 60.0523 81.0307 60.1559 80.8721C60.0602 81.102 59.9487 81.4429 59.9646 81.8709Z" fill="#5A5A5A"/>
<path d="M59.1596 83.3452C59.2473 83.3611 59.3668 83.3849 59.5182 83.4007C60.3151 83.4958 60.881 83.3373 60.881 83.369C60.8889 83.4007 60.4108 83.5672 59.7971 83.6068C59.4465 83.6306 59.1516 83.5989 58.9444 83.5672L57.9961 84.5898C58.02 85.7471 58.0359 86.9124 58.0598 88.0698C58.4344 87.9112 58.801 87.6813 59.2632 87.7131C59.4465 87.7289 59.6696 87.7765 59.9087 87.9271C60.1079 87.7527 60.3151 87.5704 60.5144 87.396C60.4905 87.2057 60.4825 86.9283 60.5383 86.6112C60.6339 86.1039 60.865 85.7234 60.8889 85.7392C60.9128 85.7471 60.7455 86.088 60.7136 86.6033C60.6977 86.849 60.7216 87.0551 60.7455 87.1899C61.1121 86.849 61.646 86.3417 62.2915 85.7154C62.4589 85.5569 62.6103 85.4063 62.7537 85.2715C62.7617 85.1605 62.7697 85.0496 62.7697 84.9306C62.7697 83.4879 62.1401 82.1958 61.1439 81.3C60.4905 81.9818 59.821 82.6635 59.1596 83.3452Z" fill="#5A5A5A"/>
<path d="M57.4788 81.0465C57.4389 81.1892 57.3592 81.2844 57.2556 81.3715C57.4389 81.5301 57.6222 81.6966 57.8055 81.8551C57.8135 81.1337 57.8215 80.5313 57.8294 80.0398C57.6143 80.0398 57.3991 80.0556 57.1919 80.0874C57.5266 80.5551 57.5346 80.8563 57.4788 81.0465Z" fill="#5A5A5A"/>
<path d="M57.7095 87.5862C57.3589 87.2216 57.0002 86.849 56.6496 86.4844C56.4583 86.7935 56.2671 87.0868 56.4026 87.4753C56.5221 87.8161 56.8329 88.0698 57.1278 88.1728C57.327 88.2442 57.5182 88.2442 57.7015 88.2045L57.7095 87.5862Z" fill="#5A5A5A"/>
<path d="M60.3631 88.6881C60.4826 88.696 60.5942 88.7039 60.7057 88.7039C60.5225 88.4582 60.3392 88.2679 60.1718 88.1252C60.0045 88.2759 59.8371 88.4344 59.6538 88.6009C59.869 88.6326 60.1001 88.6643 60.3631 88.6881Z" fill="#5A5A5A"/>
<path d="M59.2634 87.721C58.8012 87.6893 58.4346 87.9192 58.0601 88.0777C58.068 88.5612 58.076 89.0527 58.084 89.5363C58.6896 88.9972 59.2953 88.4661 59.9089 87.9271C59.6619 87.7844 59.4467 87.7289 59.2634 87.721Z" fill="#5A5A5A"/>
<path d="M57.4786 81.0463C57.5344 80.8561 57.5264 80.5469 57.1917 80.0872C56.8172 80.1347 56.4506 80.2298 56.1079 80.3646C56.4904 80.6975 56.873 81.0384 57.2555 81.3714C57.3591 81.2921 57.4388 81.189 57.4786 81.0463Z" fill="#5A5A5A"/>
<path d="M55.0075 83.8921C54.9677 83.2421 54.8163 82.8299 54.8481 82.8219C54.872 82.814 55.0952 83.3055 55.1908 83.9317C55.2466 84.2647 55.2466 84.5421 55.2466 84.7324C55.7805 85.2001 56.3065 85.6678 56.8404 86.1434C56.9281 85.9611 56.9839 85.755 56.952 85.5251C56.8404 84.6372 55.6849 84.5421 55.5733 83.5512C55.5016 82.9567 55.8523 82.4494 55.924 82.3542C56.2587 81.8707 56.7129 81.7122 57.0556 81.5219C57.0317 81.4902 56.9998 81.4664 56.9759 81.4347C56.8086 81.4823 56.5615 81.5298 56.2667 81.506C55.7487 81.4743 55.3502 81.2524 55.3582 81.2207C55.3661 81.1969 55.7566 81.3713 56.3065 81.3158C56.4978 81.292 56.6492 81.2524 56.7608 81.2128C56.5057 80.9432 56.2507 80.6816 55.9957 80.4121C54.7924 80.9036 53.836 81.8548 53.334 83.0439C53.8918 83.5354 54.4497 84.0348 55.0075 84.5263C55.0155 84.3677 55.0235 84.1537 55.0075 83.8921Z" fill="#5A5A5A"/>
<path d="M57.1277 88.1729C56.8328 88.0699 56.5141 87.8162 56.4025 87.4753C56.275 87.0948 56.4583 86.8015 56.6495 86.4844C56.538 86.3735 56.4344 86.2625 56.3228 86.1515C56.0917 86.1832 55.749 86.2149 55.3426 86.1991C54.5138 86.1674 53.8683 85.9692 53.8683 85.9454C53.8762 85.9216 54.4341 86.0722 55.2629 86.0326C55.6135 86.0167 55.9084 85.9692 56.1076 85.9296C55.1593 85.0179 54.211 84.1063 53.2626 83.2026C53.0554 83.7417 52.9438 84.3283 52.9438 84.9387C52.9438 87.5705 55.0398 89.7187 57.6616 89.8217L57.6935 88.2125C57.5182 88.2363 57.3349 88.2443 57.1277 88.1729Z" fill="#5A5A5A"/>
<path d="M60.8018 88.8307C60.6902 88.8465 60.5707 88.8544 60.4432 88.8544C60.0607 88.8703 59.718 88.8465 59.4391 88.8069L58.5146 89.7661C59.3674 89.6551 60.1483 89.3301 60.8018 88.8307C60.8098 88.8386 60.8178 88.8307 60.8178 88.8307C60.8098 88.8307 60.8098 88.8307 60.8018 88.8307Z" fill="#5A5A5A"/>
<path d="M60.7057 88.7039C60.5225 88.4582 60.3392 88.2679 60.1718 88.1252C60.0045 88.2759 59.8371 88.4344 59.6538 88.6009C59.869 88.6405 60.1081 88.6722 60.3631 88.696C60.4826 88.696 60.5942 88.696 60.7057 88.7039Z" fill="#5A5A5A"/>
<path d="M59.2634 87.721C58.8012 87.6893 58.4346 87.9192 58.0601 88.0777C58.068 88.5612 58.076 89.0527 58.084 89.5363C58.6896 88.9972 59.2953 88.4661 59.9089 87.9271C59.6619 87.7844 59.4467 87.7289 59.2634 87.721Z" fill="#5A5A5A"/>
<path d="M57.2555 81.3714C57.3591 81.2842 57.4388 81.1811 57.4786 81.0463C57.5344 80.8561 57.5264 80.5469 57.1917 80.0872C56.8172 80.1347 56.4506 80.2298 56.1079 80.3646C56.4904 80.7055 56.873 81.0384 57.2555 81.3714Z" fill="#5A5A5A"/>
<path d="M55.0083 84.5264C55.0163 84.3758 55.0243 84.1617 55.0163 83.9001C54.9765 83.2501 54.8251 82.8379 54.8569 82.83C54.8808 82.8221 55.104 83.3135 55.1996 83.9398C55.2554 84.2727 55.2554 84.5502 55.2554 84.7404C55.7893 85.2081 56.3153 85.6758 56.8492 86.1514C56.9369 85.9691 56.9927 85.763 56.9608 85.5331C56.8492 84.6453 55.6937 84.5502 55.5821 83.5593C55.5104 82.9648 55.8611 82.4574 55.9328 82.3623C56.2675 81.8787 56.7217 81.7202 57.0644 81.53C57.0405 81.4982 57.0086 81.4745 56.9847 81.4428C56.8174 81.4903 56.5703 81.5379 56.2755 81.5141C55.7575 81.4824 55.359 81.2604 55.367 81.2287C55.3749 81.2049 55.7654 81.3793 56.3153 81.3238C56.5066 81.3001 56.658 81.2604 56.7695 81.2208C56.5145 80.9513 56.2595 80.6897 56.0045 80.4202C54.8011 80.9116 53.8448 81.8629 53.3428 83.052C53.8927 83.5355 54.4505 84.027 55.0083 84.5264Z" fill="#5A5A5A"/>
<path d="M60.4432 88.8625C60.0607 88.8784 59.718 88.8546 59.4391 88.8149L58.5146 89.7741C59.3674 89.6631 60.1483 89.3302 60.8018 88.8467C60.8018 88.8467 60.8018 88.8387 60.7938 88.8387C60.6902 88.8467 60.5707 88.8546 60.4432 88.8625Z" fill="#5A5A5A"/>
<path d="M57.7015 88.1968C57.5182 88.2364 57.3349 88.2364 57.1277 88.1651C56.8328 88.062 56.5141 87.8084 56.4025 87.4675C56.275 87.087 56.4583 86.7937 56.6495 86.4766C56.538 86.3656 56.4344 86.2547 56.3228 86.1437C56.0917 86.1754 55.749 86.2071 55.3426 86.1913C54.5138 86.1595 53.8683 85.9614 53.8683 85.9376C53.8762 85.9138 54.4341 86.0644 55.2629 86.0248C55.6135 86.0089 55.9084 85.9614 56.1076 85.9217C55.1593 85.0101 54.211 84.0985 53.2626 83.1948C53.0554 83.7339 52.9438 84.3205 52.9438 84.9308C52.9438 87.5626 55.0398 89.7109 57.6616 89.8139L57.7015 88.1968Z" fill="#5A5A5A"/>
</svg>
