<svg width="100" height="100" viewBox="0 0 100 100" fill="none" xmlns="http://www.w3.org/2000/svg">
<path d="M17.6054 74.3565L15.5892 77.7468H8.81019H5L11.4456 66.596H5.36514L7.38137 63.1897H13.4142H17.1132H17.2402L10.7947 74.3565H17.6054Z" fill="#5A5A5A"/>
<path d="M39.6411 63.1738V72.3965C39.5141 73.1356 39.2919 73.8265 38.9426 74.4692C38.5933 75.1119 38.1805 75.6742 37.6725 76.1562C37.1645 76.6383 36.593 77.0239 35.9421 77.3131C35.2912 77.6023 34.6244 77.7469 33.91 77.7469C33.1797 77.7469 32.4811 77.6023 31.8144 77.3131C31.1476 77.0239 30.5602 76.5258 30.0839 75.8188C29.5759 76.5258 28.9567 77.0239 28.2423 77.3131C27.5279 77.6023 26.6865 77.7469 25.7498 77.7469C25.0195 77.7469 24.3369 77.6023 23.7018 77.3131C23.0509 77.0239 22.4794 76.6383 21.9714 76.1241C21.4633 75.6099 21.0188 74.9994 20.6695 74.2764C20.3203 73.5694 20.0821 72.7821 19.9551 71.9305V65.5678H18.0659L19.5106 63.1577H21.9079H23.3526V71.9466C23.3526 72.3001 23.4319 72.6375 23.5907 72.9267C23.7495 73.2159 23.94 73.473 24.194 73.6819C24.4321 73.8907 24.6861 74.0675 24.9719 74.18C25.2577 74.2924 25.5117 74.3567 25.7657 74.3567C26.496 74.3567 27.0675 74.1317 27.4961 73.6819C27.9248 73.232 28.147 72.6535 28.147 71.9466V63.1738H31.481V71.9466C31.481 72.3001 31.5603 72.6375 31.735 72.9267C31.8937 73.2159 32.1001 73.473 32.3383 73.6819C32.5764 73.8907 32.8463 74.0675 33.132 74.18C33.4178 74.2924 33.6877 74.3567 33.9258 74.3567C34.6244 74.3567 35.1959 74.1317 35.6563 73.6819C36.1008 73.232 36.339 72.6535 36.339 71.9466V63.1738H39.6411Z" fill="#5A5A5A"/>
<path d="M41.8799 62.1292V58.739H45.2297V62.1292H41.8799ZM41.8799 77.7467V63.1736H45.2297V77.7467H41.8799Z" fill="#5A5A5A"/>
<path d="M55.6123 63.1736C56.4696 63.1736 57.2793 63.3343 58.0413 63.6717C58.7875 64.0091 59.4543 64.459 60.0099 65.0213C60.5656 65.5837 61.0101 66.2585 61.3276 67.0137C61.6451 67.7689 61.8039 68.5883 61.8039 69.472V77.6985H58.4541V69.472C58.4541 69.0703 58.3747 68.6847 58.2318 68.3312C58.0731 67.9777 57.8825 67.6725 57.6285 67.3993C57.3745 67.1422 57.0729 66.9334 56.7236 66.7727C56.3743 66.6281 55.9933 66.5477 55.5964 66.5477C55.1995 66.5477 54.8185 66.6281 54.4693 66.7727C54.12 66.9334 53.8183 67.1262 53.5485 67.3993C53.2944 67.6564 53.0881 67.9777 52.9293 68.3312C52.7705 68.6847 52.707 69.0703 52.707 69.472V69.954V77.7146H49.3572V69.954V69.472V65.5998H47.4521L48.8651 63.1736H49.3572H51.2623H52.707V63.8966C53.1516 63.6556 53.5961 63.4789 54.0882 63.3503C54.5963 63.2218 55.0884 63.1736 55.6123 63.1736Z" fill="#5A5A5A"/>
<path d="M72.2021 63.1736C73.0594 63.1736 73.8691 63.3343 74.6311 63.6717C75.3773 64.0091 76.0441 64.459 76.5997 65.0213C77.1554 65.5837 77.5999 66.2585 77.9174 67.0137C78.235 67.7689 78.3937 68.5883 78.3937 69.472V77.6985H75.0439V69.472C75.0439 69.0703 74.9645 68.6847 74.8217 68.3312C74.6629 67.9777 74.4724 67.6725 74.2184 67.3993C73.9644 67.1422 73.6627 66.9334 73.3135 66.7727C72.9642 66.6281 72.5832 66.5477 72.1863 66.5477C71.7894 66.5477 71.4084 66.6281 71.0591 66.7727C70.7098 66.9334 70.4082 67.1262 70.1383 67.3993C69.8843 67.6564 69.6779 67.9777 69.5191 68.3312C69.3604 68.6847 69.2969 69.0703 69.2969 69.472V69.954V77.7146H65.9471V69.954V69.472V65.5998H64.042L65.4549 63.1736H65.9471H67.8522H69.2969V63.8966C69.7414 63.6556 70.1859 63.4789 70.6781 63.3503C71.1861 63.2218 71.6782 63.1736 72.2021 63.1736Z" fill="#5A5A5A"/>
<path d="M94.9999 70.4843V77.7146H91.6501V76.5899C91.0945 76.9433 90.4912 77.2326 89.8403 77.4254C89.1894 77.6182 88.5226 77.7146 87.8241 77.7146C86.8398 77.7146 85.9031 77.5218 85.0299 77.1362C84.1568 76.7505 83.3947 76.2364 82.7438 75.5937C82.0929 74.9349 81.5849 74.1798 81.2038 73.28C80.8228 72.3963 80.6323 71.4483 80.6323 70.4521C80.6323 69.4559 80.8228 68.508 81.2038 67.6243C81.5849 66.7405 82.0929 65.9693 82.7438 65.3106C83.3947 64.6518 84.1568 64.1376 85.0299 63.752C85.9031 63.3664 86.8398 63.1736 87.8241 63.1736C88.8084 63.1736 89.745 63.3664 90.6182 63.752C91.4914 64.1376 92.2534 64.6518 92.9043 65.3106C93.5552 65.9693 94.0632 66.7405 94.4284 67.6243C94.8094 68.508 94.9999 69.4559 94.9999 70.4521V70.4843ZM87.8241 74.3244C88.348 74.3244 88.8401 74.228 89.3005 74.0191C89.7609 73.8263 90.1737 73.5371 90.5229 73.1836C90.8722 72.8301 91.1421 72.4284 91.3485 71.9625C91.539 71.4965 91.6501 70.9984 91.6501 70.4521C91.6501 69.9058 91.5549 69.4077 91.3485 68.9418C91.1421 68.4758 90.8722 68.0581 90.5229 67.7046C90.1737 67.3511 89.7768 67.078 89.3164 66.8691C88.856 66.6602 88.3638 66.5638 87.8241 66.5638C87.2843 66.5638 86.7921 66.6602 86.3317 66.8691C85.8713 67.078 85.4744 67.3511 85.1252 67.7046C84.7759 68.0581 84.506 68.4758 84.2996 68.9418C84.0932 69.4077 83.998 69.9219 83.998 70.4521C83.998 70.9823 84.0932 71.4804 84.2996 71.9464C84.4901 72.4123 84.7759 72.8301 85.1252 73.1836C85.4744 73.5371 85.8713 73.8102 86.3317 74.0191C86.808 74.228 87.3002 74.3244 87.8241 74.3244Z" fill="#5A5A5A"/>
<path d="M17.6054 96.61L15.5892 100H8.81019H5L11.4456 88.8494H5.36514L7.38137 85.4431H13.4142H17.1132H17.2402L10.7947 96.61H17.6054Z" fill="#5A5A5A"/>
<path d="M39.5302 91.2754V100H36.1804V91.5164C36.1804 91.179 36.1169 90.8737 35.9899 90.5684C35.8629 90.2631 35.6882 90.0221 35.4818 89.7972C35.2755 89.5883 35.0214 89.4116 34.7198 89.283C34.4182 89.1545 34.1165 89.0902 33.7831 89.0902C33.4497 89.0902 33.1481 89.1545 32.8465 89.283C32.5448 89.4116 32.2908 89.5883 32.0844 89.7972C31.878 90.0061 31.7034 90.2631 31.5764 90.5684C31.4494 90.8737 31.3859 91.179 31.3859 91.5164V100H28.0361V91.5164C28.0361 91.179 27.9726 90.8737 27.8456 90.5684C27.7186 90.2631 27.544 90.0221 27.3376 89.7972C27.1312 89.5883 26.8772 89.4116 26.5755 89.283C26.2739 89.1545 25.9722 89.0902 25.6389 89.0902C25.3055 89.0902 25.0038 89.1545 24.7022 89.283C24.4005 89.4116 24.1465 89.5883 23.9401 89.7972C23.7338 90.0061 23.5591 90.2631 23.4321 90.5684C23.3051 90.8737 23.2416 91.179 23.2416 91.5164V100H19.8918V87.8852H18.209L19.6537 85.459H19.9077H22.0668H23.2575V86.2463C24.0036 85.8928 24.8133 85.7 25.6547 85.7C26.4644 85.7 27.2106 85.8446 27.9091 86.1499C28.6076 86.4552 29.2109 86.8729 29.7348 87.4031C30.2587 86.8729 30.862 86.4552 31.5605 86.1499C32.2591 85.8446 33.0052 85.7 33.8149 85.7C34.5769 85.7 35.3072 85.8446 35.9899 86.1338C36.6725 86.423 37.2758 86.8247 37.7838 87.3228C38.2919 87.8209 38.7046 88.4154 39.0221 89.0902C39.3397 89.7651 39.5143 90.5041 39.5302 91.2754Z" fill="#5A5A5A"/>
<path d="M41.8799 84.3985V81.0083H45.2297V84.3985H41.8799ZM41.8799 100V85.4268H45.2297V100H41.8799Z" fill="#5A5A5A"/>
<path d="M61.8354 92.7538V99.9841H58.4856V98.8594C57.9299 99.2129 57.3266 99.5021 56.6757 99.6949C56.0248 99.8877 55.358 99.9841 54.6595 99.9841C53.6752 99.9841 52.7385 99.7913 51.8654 99.4057C50.9922 99.0201 50.2302 98.5059 49.5793 97.8632C48.9283 97.2044 48.4203 96.4493 48.0393 95.5495C47.6583 94.6658 47.4678 93.7178 47.4678 92.7216C47.4678 91.7255 47.6583 90.7775 48.0393 89.8938C48.4203 89.0101 48.9283 88.2388 49.5793 87.5801C50.2302 86.9213 50.9922 86.4072 51.8654 86.0215C52.7385 85.6359 53.6752 85.4431 54.6595 85.4431C55.6438 85.4431 56.5805 85.6359 57.4536 86.0215C58.3268 86.4072 59.0889 86.9213 59.7398 87.5801C60.3907 88.2388 60.8987 89.0101 61.2638 89.8938C61.6449 90.7775 61.8354 91.7255 61.8354 92.7216V92.7538ZM54.6595 96.5939C55.1834 96.5939 55.6756 96.4975 56.136 96.2886C56.5964 96.0958 57.0091 95.8066 57.3584 95.4531C57.7077 95.0996 57.9775 94.6979 58.1839 94.232C58.3744 93.766 58.4856 93.2679 58.4856 92.7216C58.4856 92.1754 58.3903 91.6773 58.1839 91.2113C57.9775 90.7454 57.7077 90.3276 57.3584 89.9741C57.0091 89.6206 56.6122 89.3475 56.1518 89.1386C55.6914 88.9297 55.1993 88.8333 54.6595 88.8333C54.1197 88.8333 53.6276 88.9297 53.1672 89.1386C52.7068 89.3475 52.3099 89.6206 51.9606 89.9741C51.6114 90.3276 51.3415 90.7454 51.1351 91.2113C50.9287 91.6773 50.8334 92.1914 50.8334 92.7216C50.8334 93.2519 50.9287 93.75 51.1351 94.2159C51.3256 94.6819 51.6114 95.0996 51.9606 95.4531C52.3099 95.8066 52.7068 96.0797 53.1672 96.2886C53.6276 96.4975 54.1197 96.5939 54.6595 96.5939Z" fill="#5A5A5A"/>
<path d="M72.2021 85.427C73.0594 85.427 73.8691 85.5877 74.6311 85.9251C75.3773 86.2625 76.0441 86.7124 76.5997 87.2748C77.1554 87.8371 77.5999 88.5119 77.9174 89.2671C78.235 90.0223 78.3937 90.8417 78.3937 91.7254V99.9519H75.0439V91.7254C75.0439 91.3237 74.9645 90.9381 74.8217 90.5846C74.6629 90.2311 74.4724 89.9259 74.2184 89.6527C73.9644 89.3956 73.6627 89.1868 73.3135 89.0261C72.9642 88.8815 72.5832 88.8012 72.1863 88.8012C71.7894 88.8012 71.4084 88.8815 71.0591 89.0261C70.7098 89.1868 70.4082 89.3796 70.1383 89.6527C69.8843 89.9098 69.6779 90.2311 69.5191 90.5846C69.3604 90.9381 69.2969 91.3237 69.2969 91.7254V92.2074V99.968H65.9471V92.2074V91.7254V87.8532H64.042L65.4549 85.427H65.9471H67.8522H69.2969V86.15C69.7414 85.909 70.1859 85.7323 70.6781 85.6037C71.1861 85.4913 71.6782 85.427 72.2021 85.427Z" fill="#5A5A5A"/>
<path d="M94.9999 92.7538V99.9841H91.6501V98.8594C91.0945 99.2129 90.4912 99.5021 89.8403 99.6949C89.1894 99.8877 88.5226 99.9841 87.8241 99.9841C86.8398 99.9841 85.9031 99.7913 85.0299 99.4057C84.1568 99.0201 83.3947 98.5059 82.7438 97.8632C82.0929 97.2044 81.5849 96.4493 81.2038 95.5495C80.8228 94.6658 80.6323 93.7178 80.6323 92.7216C80.6323 91.7255 80.8228 90.7775 81.2038 89.8938C81.5849 89.0101 82.0929 88.2388 82.7438 87.5801C83.3947 86.9213 84.1568 86.4072 85.0299 86.0215C85.9031 85.6359 86.8398 85.4431 87.8241 85.4431C88.8084 85.4431 89.745 85.6359 90.6182 86.0215C91.4914 86.4072 92.2534 86.9213 92.9043 87.5801C93.5552 88.2388 94.0632 89.0101 94.4284 89.8938C94.8094 90.7775 94.9999 91.7255 94.9999 92.7216V92.7538ZM87.8241 96.5939C88.348 96.5939 88.8401 96.4975 89.3005 96.2886C89.7609 96.0958 90.1737 95.8066 90.5229 95.4531C90.8722 95.0996 91.1421 94.6979 91.3485 94.232C91.5549 93.766 91.6501 93.2679 91.6501 92.7216C91.6501 92.1754 91.5549 91.6773 91.3485 91.2113C91.1421 90.7454 90.8722 90.3276 90.5229 89.9741C90.1737 89.6206 89.7768 89.3475 89.3164 89.1386C88.856 88.9297 88.3638 88.8333 87.8241 88.8333C87.2843 88.8333 86.7921 88.9297 86.3317 89.1386C85.8713 89.3475 85.4744 89.6206 85.1252 89.9741C84.7759 90.3276 84.506 90.7454 84.2996 91.2113C84.0932 91.6773 83.998 92.1914 83.998 92.7216C83.998 93.2519 84.0932 93.75 84.2996 94.2159C84.4901 94.6819 84.7759 95.0996 85.1252 95.4531C85.4744 95.8066 85.8713 96.0797 86.3317 96.2886C86.808 96.4975 87.3002 96.5939 87.8241 96.5939Z" fill="#5A5A5A"/>
<path d="M46.5472 30.7817C44.8326 32.1635 41.6257 34.8307 41.5622 34.9432C41.213 35.5055 40.3715 36.084 39.8794 36.4214C39.7524 36.5178 39.5936 36.6142 39.5619 36.6463C39.4507 36.7909 38.5935 38.0763 37.752 39.3135C35.0373 43.3625 34.3229 44.3908 34.18 44.4872C34.1482 44.5193 34.0847 44.5515 34.0212 44.5997C33.3703 45.0496 33.0052 45.3227 32.9258 45.4352C32.7988 45.6762 32.2273 47.1705 32.2273 47.4436C32.3384 47.8132 32.4813 48.0381 32.6242 48.0702C32.8782 48.1184 33.1163 48.3273 33.0846 48.6005C33.0369 48.9379 32.64 49.0986 31.8621 49.0986C31.5446 49.0986 31.1795 49.0664 30.7508 49.0182C30.7349 49.0182 30.7191 49.0182 30.7032 49.0021C30.6397 48.9861 30.0523 48.7772 29.9094 48.263C29.83 47.9096 29.957 47.54 30.338 47.1544C30.6873 46.7848 30.6556 46.6402 30.6556 46.6402C30.6397 46.6081 30.4968 46.5438 30.3539 46.5438C30.2587 46.5438 30.1634 46.4796 30.1317 46.3832C30.1158 46.351 29.7348 45.4673 30.0364 44.7925C30.1793 44.4872 30.4174 44.2783 30.7667 44.1659C31.5764 43.9088 31.5922 43.5553 31.5922 43.4107C31.5922 43.3786 31.5922 43.3464 31.5922 43.3143C31.624 43.1215 31.7986 43.0572 32.005 42.9929C32.2908 42.8965 32.7194 42.7519 32.9734 42.3824C33.0687 42.2378 33.3386 41.9004 33.7037 41.4344C34.9896 39.7795 37.6568 36.341 38.1648 35.1842C38.8316 33.6578 39.1491 33.3204 40.3874 32.7901C41.2606 32.4045 42.9593 30.0265 43.5308 29.1268C43.5308 29.1107 43.5467 29.1107 43.5626 29.0946C44.9597 27.6486 53.4849 23.4711 52.3419 23.6639C51.1988 23.8567 42.5465 27.9378 42.4989 27.9217C39.3079 28.95 36.5296 29.5124 34.0371 29.657H34.0212C33.1163 29.657 32.6242 29.4803 32.5765 29.1268C32.513 28.7733 32.8305 28.4519 34.5293 27.8575C36.3391 27.2308 36.8154 26.8613 36.9582 26.7327C36.9106 26.7006 36.8789 26.6685 36.8471 26.6203C36.8312 26.6042 36.6249 26.1543 36.8312 25.7205C36.2597 25.4152 35.6723 25.0778 35.1484 24.7564C34.6563 25.3509 32.9893 27.0541 29.8141 27.0541C28.3536 27.0541 27.1629 26.4596 26.4008 25.3509C25.6388 24.2584 25.4801 22.9248 25.5594 22.6838C25.5912 22.5873 25.6706 22.507 25.7817 22.4749C25.9722 22.4267 26.1151 22.5391 26.2897 22.6998C26.4326 22.8123 26.639 22.989 26.766 22.989C26.9089 22.9248 27.3375 22.5391 27.7185 22.1857C28.7981 21.2055 30.2745 19.8559 31.5129 19.6631C32.5765 19.5024 35.196 19.1811 36.5931 19.8398C36.7836 19.9362 36.99 19.9362 37.2123 19.8559C37.8155 19.6149 38.3553 18.7633 38.4347 18.5705C38.5458 18.3134 39.673 16.7067 42.0703 15.7426C46.0868 14.1198 50.8178 15.3731 54.0724 16.6906C54.2787 16.7549 57.4539 17.735 58.9939 17.3976C59.3749 17.3172 66.7571 16.8513 67.4239 14.3287C67.4557 14.1359 67.9002 11.1795 66.138 7.80534C66.0745 7.69287 65.6776 7.01804 65.7411 5.98973C65.8046 5.00962 66.7254 3.11366 66.9159 2.74411C66.9 2.5031 66.9 1.97288 66.9635 1.73187C66.9635 1.7158 66.9794 1.6676 66.9953 1.63546C67.1699 0.992769 67.4239 0.317937 67.8843 0.0769264C68.0589 -0.0194779 68.2653 -0.0194774 68.4558 0.0447921C68.8368 0.189399 69.0909 0.237601 69.2814 0.253668C69.456 0.285803 69.583 0.30187 69.71 0.398274C69.7418 0.414342 69.7735 0.446477 69.8211 0.478611C70.218 0.767824 70.6626 1.08917 70.8054 1.37839C70.9483 1.49086 71.6786 1.68367 72.393 1.78007C72.4565 1.78007 72.5042 1.8122 72.5518 1.86041C72.5994 1.90861 72.7423 2.06928 72.6788 2.26209C72.6629 2.29423 72.647 2.34243 72.6312 2.3585C72.6947 2.61558 72.393 2.77625 72.2501 2.84052C72.2343 2.85659 72.2184 2.85659 72.2025 2.85659C72.1708 2.85659 71.5516 3.03333 71.0595 2.96906C70.7261 2.92086 70.1069 3.25827 69.9958 3.38681C69.9005 3.48321 69.4243 3.86883 69.0591 3.8849C68.8527 4.15805 68.3923 5.4113 68.5511 6.56815C68.6146 7.03411 68.9003 7.86961 69.2337 8.81759C69.9164 10.8099 70.7578 13.2843 70.4086 14.6019C69.9323 16.4335 68.3288 18.8758 63.4708 20.1933H63.4549C63.1216 20.2576 62.2008 20.5468 62.0896 21.0931C62.0579 21.2216 62.1055 21.5751 62.1531 21.9607C62.3754 23.8245 62.8517 27.6807 58.9145 28.3555C58.6922 28.4198 56.0886 29.0946 53.3421 28.6608C53.0087 28.7251 51.0718 29.1268 49.6748 29.191C48.9286 29.6731 48.0237 30.1551 46.9759 30.6371C46.9759 30.6532 46.7536 30.7014 46.5472 30.7817Z" fill="#5A5A5A"/>
<path d="M45.627 32.2761C45.4841 32.3564 45.3571 32.4528 45.246 32.5814C44.4998 33.449 43.7537 34.3488 43.9442 34.638C44.3411 35.2968 45.8175 34.7023 46.1192 34.638H46.1351C46.1668 34.6219 49.2785 33.69 52.0726 33.2562C54.1841 32.9188 54.9144 33.0313 55.1207 33.0955C55.1207 33.3848 55.1843 33.8828 55.2954 34.1078C55.4859 34.5577 56.5654 34.8147 56.9941 34.8147C57.518 34.8147 57.6768 34.6219 57.7244 34.5095C57.7403 34.4613 57.7561 34.4131 57.7403 34.3649C57.7561 34.3649 57.7561 34.3809 57.772 34.3809C58.3912 34.6219 59.7406 34.4291 60.0105 34.3809C60.1216 34.397 60.5185 34.4131 60.8837 34.3809C61.1377 34.3488 61.2964 34.2685 61.3758 34.1078C61.4552 33.9632 61.4234 33.8186 61.3758 33.7222C61.3758 33.7061 61.3599 33.7061 61.3599 33.69C61.3441 33.6579 60.8837 33.0634 59.7089 32.9509C58.7563 32.8706 58.1054 32.0994 58.0895 32.0994C58.0736 32.0833 58.0736 32.0833 58.0578 32.0672C58.026 32.0512 57.4069 31.537 56.883 31.4085C56.6448 31.3442 56.5337 30.9586 56.5178 30.83C56.5178 30.7979 56.5019 30.7818 56.4861 30.7497C56.4702 30.7015 55.9463 29.7214 53.9936 30.3962C52.1202 31.0389 47.1194 32.244 46.5319 32.0672C46.4526 32.019 46.4208 31.9065 46.4049 31.8101L45.627 32.2761Z" fill="#5A5A5A"/>
<path d="M30.4816 18.8598C30.7198 18.8598 30.9262 18.667 30.9262 18.4099V6.13439H63.1223C63.3604 6.13439 63.5668 5.94159 63.5668 5.68451C63.5668 5.42743 63.3763 5.23462 63.1223 5.23462H30.4816C30.2435 5.23462 30.0371 5.42743 30.0371 5.68451V18.4099C30.0371 18.667 30.2435 18.8598 30.4816 18.8598Z" fill="#5A5A5A"/>
<path d="M30.9262 41.7877V28.259C30.9262 28.018 30.7356 27.8091 30.4816 27.8091C30.2435 27.8091 30.0371 28.0019 30.0371 28.259V41.7877C30.0371 42.0287 30.2276 42.2376 30.4816 42.2376C30.7198 42.2215 30.9262 42.0287 30.9262 41.7877Z" fill="#5A5A5A"/>
<path d="M67.7577 20.0969C67.5195 20.0969 67.3131 20.2897 67.3131 20.5468V42.9769H37.1174C36.8792 42.9769 36.6729 43.1697 36.6729 43.4268C36.6729 43.6678 36.8634 43.8767 37.1174 43.8767H67.7577C67.9958 43.8767 68.2022 43.6839 68.2022 43.4268V20.5468C68.1863 20.2897 67.9958 20.0969 67.7577 20.0969Z" fill="#5A5A5A"/>
</svg>
