<svg width="1540" height="2572" viewBox="0 0 1540 2572" fill="none" xmlns="http://www.w3.org/2000/svg">
<g filter="url(#filter0_d)">
<path fill-rule="evenodd" clip-rule="evenodd" d="M50 420.063V282.031V277.02L50.71 277.017C64.1192 226.184 266.463 83.6098 571.5 146.277C855 204.52 953.944 202.681 1043 146.277C1299.53 -16.1972 1488.57 74.9829 1489.99 269.732L1490 269.732V271.941V2532H50V420.063Z" fill="#96BE3C"/>
<g clip-path="url(#clip0)">
<path d="M1541.32 475.617C915.33 475.617 407.867 909.863 407.867 1445.53C407.867 1981.2 915.33 2415.45 1541.32 2415.45C2167.3 2415.45 2674.77 1981.2 2674.77 1445.53C2674.77 909.863 2167.3 475.618 1541.32 475.617Z" fill="url(#paint0_radial)"/>
</g>
</g>
<defs>
<filter id="filter0_d" x="0" y="-60" width="1540" height="2632" filterUnits="userSpaceOnUse" color-interpolation-filters="sRGB">
<feFlood flood-opacity="0" result="BackgroundImageFix"/>
<feColorMatrix in="SourceAlpha" type="matrix" values="0 0 0 0 0 0 0 0 0 0 0 0 0 0 0 0 0 0 127 0" result="hardAlpha"/>
<feOffset dy="-10"/>
<feGaussianBlur stdDeviation="25"/>
<feComposite in2="hardAlpha" operator="out"/>
<feColorMatrix type="matrix" values="0 0 0 0 0 0 0 0 0 0 0 0 0 0 0 0 0 0 0.15 0"/>
<feBlend mode="normal" in2="BackgroundImageFix" result="effect1_dropShadow"/>
<feBlend mode="normal" in="SourceGraphic" in2="effect1_dropShadow" result="shape"/>
</filter>
<radialGradient id="paint0_radial" cx="0" cy="0" r="1" gradientUnits="userSpaceOnUse" gradientTransform="translate(1541.32 1445.53) rotate(-90) scale(969.915 1133.45)">
<stop stop-color="#5E8F10"/>
<stop offset="1" stop-color="#5E8F10" stop-opacity="0"/>
</radialGradient>
<clipPath id="clip0">
<rect width="1085" height="2055.45" fill="white" transform="translate(1490 2532) rotate(-180)"/>
</clipPath>
</defs>
</svg>
