<svg width="200" height="200" viewBox="0 0 200 200" fill="none" xmlns="http://www.w3.org/2000/svg">
<path d="M100 200.001C155.228 200.001 200 155.229 200 100.001C200 44.7725 155.228 0.000976562 100 0.000976562C44.7715 0.000976562 0 44.7725 0 100.001C0 155.229 44.7715 200.001 100 200.001Z" fill="white"/>
<path d="M100 1.25098C113.344 1.25098 126.25 3.87598 138.438 9.00098C150.188 13.9697 160.75 21.0947 169.812 30.1572C178.875 39.2197 186 49.7822 190.969 61.5322C196.125 73.7197 198.719 86.626 198.719 99.9697C198.719 113.313 196.094 126.22 190.969 138.407C186 150.157 178.875 160.72 169.812 169.782C160.75 178.845 150.188 185.97 138.438 190.938C126.25 196.095 113.344 198.688 100 198.688C86.6562 198.688 73.75 196.063 61.5625 190.938C49.8125 185.97 39.25 178.845 30.1875 169.782C21.125 160.72 14 150.157 9.03122 138.407C3.87497 126.22 1.2812 113.313 1.2812 99.9697C1.2812 86.626 3.90622 73.7197 9.03122 61.5322C14 49.7822 21.125 39.2197 30.1875 30.1572C39.25 21.0947 49.8125 13.9697 61.5625 9.00098C73.7188 3.87598 86.6562 1.25098 100 1.25098ZM100 0.000976562C44.7812 0.000976562 0 44.7822 0 100.001C0 155.22 44.7812 200.001 100 200.001C155.219 200.001 200 155.22 200 100.001C200 44.7822 155.219 0.000976562 100 0.000976562Z" fill="#96BE3C"/>
<path d="M132.501 130.001C136.643 130.001 140.001 126.643 140.001 122.501C140.001 118.359 136.643 115.001 132.501 115.001C128.358 115.001 125 118.359 125 122.501C125 126.643 128.358 130.001 132.501 130.001Z" fill="#96BE3C"/>
<path d="M67.5005 65.001C71.6427 65.001 75.0005 61.6432 75.0005 57.501C75.0005 53.3589 71.6427 50.001 67.5005 50.001C63.3584 50.001 60.0005 53.3589 60.0005 57.501C60.0005 61.6432 63.3584 65.001 67.5005 65.001Z" fill="#96BE3C"/>
<path d="M132.501 50.001H100.001C95.8443 50.001 92.5005 53.3447 92.5005 57.501V105.001V107.501V112.501C92.5005 113.876 91.3755 115.001 90.0005 115.001H77.5005C76.1255 115.001 75.0005 113.876 75.0005 112.501V75.1885C75.0005 73.8135 73.8755 72.6885 72.5005 72.6885H62.5005C61.1255 72.6885 60.0005 73.8135 60.0005 75.1885V122.501C60.0005 126.657 63.3442 130.001 67.5005 130.001H100.001C104.157 130.001 107.501 126.657 107.501 122.501V107.501V105.001V67.501C107.501 66.126 108.626 65.001 110.001 65.001H122.501C123.876 65.001 125.001 66.126 125.001 67.501V105.188C125.001 106.563 126.126 107.688 127.501 107.688H137.501C138.876 107.688 140.001 106.563 140.001 105.188V57.501C140.001 53.3447 136.626 50.001 132.501 50.001Z" fill="#5A5A5A"/>
<path d="M60.0005 151.595C60.0005 150.72 60.7192 150.001 61.5942 150.001C62.4692 150.001 63.188 150.72 63.188 151.595C63.188 152.47 62.4692 153.188 61.5942 153.188C60.7192 153.188 60.0005 152.47 60.0005 151.595Z" fill="#5A5A5A"/>
<path d="M60.0005 169.688V155.313C60.0005 155.126 60.1255 155.001 60.313 155.001H62.8755C63.063 155.001 63.188 155.126 63.188 155.313V169.688C63.188 169.876 63.063 170.001 62.8755 170.001H60.313C60.1255 170.001 60.0005 169.876 60.0005 169.688Z" fill="#5A5A5A"/>
<path d="M72.1563 169.688V169.188C72.1563 168.907 71.8126 168.782 71.6251 168.97C71.5938 169.001 71.5938 169.001 71.5626 169.032C71.3751 169.22 71.1563 169.407 70.9376 169.532C70.7188 169.688 70.4376 169.782 70.1563 169.876C69.8751 169.97 69.5313 170.001 69.125 170.001C67.7813 170.001 66.875 169.501 66.3437 168.501C66.1562 168.157 66.0313 167.72 65.9375 167.188C65.8438 166.657 65.8125 165.97 65.8125 165.095V160.251C65.8125 159.095 65.8438 158.282 65.9063 157.72C66.0313 156.688 66.5313 155.907 67.375 155.376C67.7813 155.095 68.375 154.97 69.1562 154.97C69.7813 154.97 70.3438 155.095 70.8125 155.376C71.3125 155.657 71.7188 156.063 72.0625 156.563H72.125V150.313C72.125 150.126 72.25 150.001 72.4375 150.001H75.0001C75.1876 150.001 75.3126 150.126 75.3126 150.313V169.688C75.3126 169.876 75.1876 170.001 75.0001 170.001H72.4375C72.2813 170.001 72.1563 169.876 72.1563 169.688ZM69 164.688C69 165.345 69.1251 165.845 69.3751 166.251C69.6251 166.657 70.0313 166.845 70.5625 166.845C71.0313 166.845 71.4376 166.657 71.7188 166.313C72.0001 165.938 72.1563 165.47 72.1563 164.907V159.938C72.1563 159.438 72.0001 159.032 71.7188 158.72C71.4063 158.407 71.0313 158.251 70.5938 158.251C70 158.251 69.5938 158.438 69.3751 158.813C69.1563 159.188 69.0626 159.626 69.0626 160.126V164.688H69Z" fill="#5A5A5A"/>
<path d="M119.47 169.688V169.188C119.47 168.907 119.126 168.782 118.939 168.97C118.908 169.001 118.908 169.001 118.876 169.032C118.689 169.22 118.47 169.407 118.251 169.532C118.033 169.688 117.751 169.782 117.47 169.876C117.189 169.97 116.845 170.001 116.439 170.001C115.095 170.001 114.189 169.501 113.658 168.501C113.47 168.157 113.345 167.72 113.251 167.188C113.158 166.657 113.126 165.97 113.126 165.095V160.251C113.126 159.095 113.158 158.282 113.22 157.72C113.345 156.688 113.845 155.907 114.689 155.376C115.095 155.095 115.689 154.97 116.47 154.97C117.095 154.97 117.658 155.095 118.126 155.376C118.626 155.657 119.033 156.063 119.376 156.563H119.439V150.313C119.439 150.126 119.564 150.001 119.751 150.001H122.314C122.501 150.001 122.626 150.126 122.626 150.313V169.688C122.626 169.876 122.501 170.001 122.314 170.001H119.751C119.626 170.001 119.47 169.876 119.47 169.688ZM116.314 164.688C116.314 165.345 116.439 165.845 116.689 166.251C116.939 166.657 117.345 166.845 117.876 166.845C118.345 166.845 118.751 166.657 119.033 166.313C119.314 165.938 119.47 165.47 119.47 164.907V159.938C119.47 159.438 119.314 159.032 119.033 158.72C118.72 158.407 118.345 158.251 117.908 158.251C117.314 158.251 116.908 158.438 116.689 158.813C116.47 159.188 116.376 159.626 116.376 160.126V164.688H116.314Z" fill="#96BE3C"/>
<path d="M89.7822 159.282C89.626 159.282 89.501 159.188 89.4697 159.032C89.4072 158.657 89.251 158.345 88.9697 158.157C88.6572 157.907 88.2822 157.782 87.876 157.782C87.376 157.782 87.001 157.938 86.7198 158.22C86.4385 158.532 86.3135 158.845 86.3135 159.251C86.3135 159.532 86.376 159.782 86.5322 160.032C86.6885 160.282 87.0635 160.532 87.6573 160.751L89.5323 161.438C90.7198 161.876 91.5322 162.438 91.9697 163.157C92.4072 163.876 92.626 164.688 92.626 165.563C92.626 166.188 92.501 166.751 92.2822 167.282C92.0322 167.813 91.7198 168.282 91.3135 168.688C90.9073 169.095 90.4072 169.407 89.8135 169.657C89.2197 169.876 88.5947 170.001 87.9072 170.001C86.6259 170.001 85.5322 169.626 84.6572 168.876C84.2197 168.501 83.876 168.063 83.5947 167.501C83.376 167.032 83.2197 166.501 83.1885 165.876C83.1885 165.72 83.3135 165.563 83.501 165.563H85.9072C86.0635 165.563 86.1885 165.657 86.2197 165.813C86.2822 166.126 86.4385 166.438 86.626 166.688C86.876 167.032 87.2822 167.22 87.876 167.22C88.3447 167.22 88.751 167.095 89.0947 166.813C89.4697 166.532 89.626 166.157 89.626 165.657C89.626 165.251 89.501 164.907 89.2822 164.626C89.0635 164.345 88.626 164.095 88.0322 163.876L86.5009 163.345C85.5009 163.001 84.7197 162.47 84.1572 161.813C83.5947 161.126 83.3134 160.282 83.3134 159.313C83.3134 158.688 83.4384 158.126 83.6884 157.595C83.9384 157.063 84.2822 156.595 84.7197 156.22C85.126 155.845 85.6259 155.532 86.1884 155.345C86.7509 155.157 87.3447 155.032 88.001 155.032C88.6572 155.032 89.251 155.126 89.7822 155.345C90.3447 155.563 90.8135 155.845 91.1885 156.251C91.5947 156.626 91.9072 157.095 92.126 157.626C92.3135 158.063 92.4385 158.532 92.4697 159.001C92.4697 159.157 92.3447 159.313 92.1572 159.313H89.7822V159.282Z" fill="#96BE3C"/>
<path d="M94.688 154.688V150.313C94.688 150.126 94.813 150.001 95.0005 150.001H97.563C97.7505 150.001 97.8755 150.126 97.8755 150.313V154.688C97.8755 154.876 98.0005 155.001 98.188 155.001H99.5317C99.7192 155.001 99.8442 155.126 99.8442 155.313V157.188C99.8442 157.376 99.7192 157.501 99.5317 157.501H98.188C98.0005 157.501 97.8755 157.626 97.8755 157.813V165.47C97.8755 165.845 97.9067 166.126 97.9692 166.345C98.0317 166.563 98.1567 166.72 98.3129 166.813C98.4692 166.907 98.688 166.97 98.9067 167.001C99.063 167.001 99.2817 167.032 99.5005 167.032C99.6567 167.032 99.813 167.188 99.813 167.345V169.72C99.813 169.907 99.688 170.032 99.5005 170.032H98.5005C97.7817 170.032 97.1567 169.907 96.688 169.688C96.188 169.47 95.813 169.157 95.5317 168.813C95.2505 168.47 95.0317 168.063 94.9067 167.626C94.7817 167.188 94.7192 166.751 94.7192 166.345V157.813C94.7192 157.626 94.5942 157.501 94.4067 157.501H93.438C93.2505 157.501 93.1255 157.376 93.1255 157.188V155.313C93.1255 155.126 93.2505 155.001 93.438 155.001H94.4067C94.5629 155.001 94.688 154.845 94.688 154.688Z" fill="#96BE3C"/>
<path d="M110.532 155.313V169.688C110.532 169.876 110.407 170.001 110.22 170.001H107.657C107.47 170.001 107.345 169.876 107.345 169.688V168.282H107.282C106.938 168.782 106.564 169.188 106.095 169.501C105.626 169.813 105.032 169.97 104.313 169.97C103.907 169.97 103.532 169.907 103.126 169.782C102.72 169.657 102.376 169.438 102.063 169.126C101.751 168.813 101.501 168.407 101.314 167.938C101.126 167.438 101.032 166.845 101.032 166.157V155.313C101.032 155.126 101.157 155.001 101.345 155.001H103.907C104.095 155.001 104.22 155.126 104.22 155.313V164.97C104.22 165.563 104.345 166.001 104.626 166.345C104.907 166.688 105.282 166.845 105.782 166.845C106.376 166.845 106.814 166.657 107.032 166.282C107.251 165.907 107.376 165.376 107.376 164.657V155.313C107.376 155.126 107.501 155.001 107.688 155.001H110.251C110.407 155.001 110.532 155.126 110.532 155.313Z" fill="#96BE3C"/>
<path d="M130.532 160.47C130.532 159.813 130.563 159.251 130.657 158.688C130.751 158.157 130.907 157.657 131.126 157.251C131.501 156.563 132.032 156.032 132.72 155.595C133.407 155.188 134.251 154.97 135.251 154.97C136.251 154.97 137.095 155.188 137.782 155.595C138.47 156.001 139.001 156.563 139.376 157.251C139.595 157.657 139.751 158.157 139.845 158.688C139.939 159.22 139.97 159.813 139.97 160.47V164.501C139.97 165.157 139.939 165.751 139.845 166.282C139.751 166.813 139.595 167.313 139.376 167.72C139.001 168.407 138.47 168.97 137.782 169.376C137.095 169.782 136.251 170.001 135.251 170.001C134.251 170.001 133.407 169.782 132.72 169.376C132.032 168.97 131.501 168.407 131.126 167.72C130.907 167.313 130.751 166.813 130.657 166.282C130.563 165.751 130.532 165.157 130.532 164.501V160.47ZM133.72 165.032C133.72 165.626 133.845 166.095 134.126 166.376C134.407 166.688 134.782 166.813 135.251 166.813C135.72 166.813 136.095 166.657 136.376 166.376C136.657 166.063 136.782 165.626 136.782 165.032V160.001C136.782 159.407 136.657 158.938 136.376 158.657C136.095 158.345 135.72 158.22 135.251 158.22C134.782 158.22 134.407 158.376 134.126 158.657C133.845 158.97 133.72 159.407 133.72 160.001V165.032Z" fill="#96BE3C"/>
<path d="M125.25 151.595C125.25 150.72 125.969 150.001 126.844 150.001C127.719 150.001 128.438 150.72 128.438 151.595C128.438 152.47 127.719 153.188 126.844 153.188C125.969 153.188 125.25 152.47 125.25 151.595Z" fill="#96BE3C"/>
<path d="M125.25 169.688V155.313C125.25 155.126 125.375 155.001 125.563 155.001H128.126C128.313 155.001 128.438 155.126 128.438 155.313V169.688C128.438 169.876 128.313 170.001 128.126 170.001H125.563C125.407 170.001 125.25 169.876 125.25 169.688Z" fill="#96BE3C"/>
</svg>
